<svg width="151" height="151" viewBox="0 0 151 151" fill="none" xmlns="http://www.w3.org/2000/svg">
<path d="M150.857 75.8584L146.005 71.0058C143.028 68.029 139.451 65.8707 135.546 64.6442H139.09L134.724 59.7325C129.223 53.5434 121.635 50.001 113.358 49.7578C108.083 49.6038 103.008 50.8052 98.5044 53.2118C100.911 48.7085 102.113 43.634 101.958 38.3578C101.715 30.0807 98.1722 22.4927 91.9833 16.9914L87.0716 12.6254V16.1697C85.845 12.2651 83.6871 8.68778 80.7103 5.71087L75.8574 0.858398L71.0045 5.71102C68.0278 8.68792 65.8698 12.2651 64.6432 16.1697V12.6254L59.7316 16.9914C53.5426 22.4927 50.0001 30.0807 49.7569 38.3578C49.6019 43.6343 50.8037 48.709 53.2108 53.2126C48.7073 50.8065 43.6326 49.6053 38.3571 49.7578C30.0802 50.001 22.4921 53.5434 16.9908 59.7325L12.6246 64.6442H16.1688C12.2641 65.8707 8.68706 68.0289 5.71031 71.0056L0.857422 75.8584L5.71031 80.711C8.68677 83.6878 12.2641 85.8461 16.1688 87.0726H12.6246L16.9908 91.9843C22.4921 98.1734 30.0802 101.716 38.3571 101.959C38.6603 101.968 38.9618 101.972 39.2635 101.972C44.2124 101.972 48.9644 100.776 53.2085 98.5087C50.8029 103.011 49.6019 108.084 49.7569 113.359C50.0001 121.636 53.5426 129.224 59.7316 134.725L64.6432 139.091V135.547C65.8698 139.452 68.0278 143.029 71.0045 146.006L75.8574 150.858L80.7103 146.006C83.6871 143.029 85.845 139.452 87.0716 135.547V139.091L91.9833 134.725C98.1722 129.224 101.715 121.636 101.958 113.359C102.113 108.084 100.912 103.011 98.5065 98.5089C102.75 100.776 107.502 101.972 112.451 101.972C112.753 101.972 113.055 101.968 113.358 101.959C121.635 101.716 129.223 98.1734 134.724 91.9843L139.09 87.0726H135.546C139.451 85.8461 143.028 83.6879 146.005 80.7112L150.857 75.8584ZM75.9638 118.796L75.8574 118.903L75.7511 118.796C70.01 113.055 68.2392 104.559 70.9385 97.1311C72.5207 97.4969 74.1657 97.6966 75.8574 97.6966C77.5491 97.6966 79.1941 97.4969 80.7763 97.1311C83.4755 104.559 81.7049 113.055 75.9638 118.796ZM75.7511 32.9206L75.8574 32.8141L75.9638 32.9206C81.7049 38.6615 83.4755 47.1578 80.7763 54.5857C79.1941 54.2199 77.5491 54.0202 75.8574 54.0202C74.1657 54.0202 72.5207 54.2199 70.9385 54.5857C68.2392 47.1578 70.01 38.6615 75.7511 32.9206ZM91.7933 75.8584C91.7933 84.6456 84.6444 91.7944 75.8574 91.7944C67.0704 91.7944 59.9215 84.6456 59.9215 75.8584C59.9215 67.0712 67.0704 59.9224 75.8574 59.9224C84.6444 59.9224 91.7933 67.0712 91.7933 75.8584ZM54.5849 80.7774C47.1568 83.4764 38.6606 81.7057 32.9198 75.9647L32.8134 75.8584L32.9198 75.7521C38.6604 70.011 47.1567 68.2402 54.5849 70.9394C54.2191 72.5216 54.0193 74.1666 54.0193 75.8584C54.0193 77.5502 54.2191 79.1952 54.5849 80.7774ZM97.13 70.9394C104.558 68.2404 113.054 70.0111 118.795 75.7521L118.901 75.8584L118.795 75.9647C113.054 81.7057 104.558 83.4763 97.13 80.7774C97.4958 79.1952 97.6955 77.5502 97.6955 75.8584C97.6955 74.1666 97.4958 72.5216 97.13 70.9394ZM55.6565 38.5312C55.8104 33.2996 57.6081 28.4114 60.7938 24.4156C62.1959 25.9247 64.1965 26.87 66.4139 26.87H69.365V23.9189C69.365 18.6175 71.4296 13.6333 75.1781 9.8845L75.8574 9.20508L76.5367 9.88436C80.2852 13.6333 82.3498 18.6175 82.3498 23.9189V26.87H85.3009C87.5183 26.87 89.5189 25.9247 90.921 24.4156C94.1067 28.4114 95.9044 33.2996 96.0583 38.5312C96.2531 45.1664 93.7755 51.4058 89.0817 56.0996L87.6736 57.5077C87.2242 57.2173 86.7664 56.9386 86.2952 56.6811C89.8067 47.111 87.5376 36.1473 80.1374 28.747L75.8574 24.4671L71.5775 28.747C64.1772 36.1473 61.9081 47.111 65.4196 56.6811C64.9484 56.9386 64.4906 57.2173 64.0411 57.5077L62.6331 56.0998C57.9393 51.4058 55.4617 45.1664 55.6565 38.5312ZM38.5306 96.0592C33.299 95.9056 28.4107 94.1077 24.4149 90.922C25.9239 89.52 26.8692 87.5193 26.8692 85.302V82.3508H23.9181C18.6165 82.3508 13.6324 80.2864 9.88391 76.5375L9.20464 75.8584L9.88391 75.1791C13.6324 71.4304 18.6165 69.366 23.9181 69.366H26.8692V66.4148C26.8692 64.1975 25.9239 62.1968 24.4149 60.7948C28.4107 57.6091 33.299 55.8112 38.5306 55.6576C45.1674 55.4601 51.4048 57.9402 56.0986 62.6342L57.5067 64.0423C57.2163 64.4917 56.9377 64.9494 56.6802 65.4207C47.1106 61.9093 36.1468 64.1782 28.7462 71.5784L24.4662 75.8584L28.7462 80.1384C33.8599 85.2518 40.6748 87.9163 47.5557 87.9163C50.6329 87.9163 53.7229 87.3814 56.6802 86.2963C56.9377 86.7675 57.2163 87.2252 57.5068 87.6746L56.0986 89.0828C51.4051 93.7766 45.1568 96.2545 38.5306 96.0592ZM96.0583 113.186C95.9044 118.417 94.1067 123.305 90.921 127.301C89.5189 125.792 87.5183 124.847 85.3009 124.847H82.3498V127.798C82.3498 133.099 80.2852 138.083 76.5367 141.832L75.8574 142.512L75.1781 141.832C71.4296 138.083 69.365 133.099 69.365 127.798V124.847H66.4139C64.1965 124.847 62.1959 125.792 60.7938 127.301C57.6081 123.305 55.8104 118.417 55.6565 113.186C55.4617 106.55 57.9393 100.311 62.6331 95.6172L64.0412 94.2091C64.4906 94.4995 64.9483 94.7782 65.4196 95.0357C61.9081 104.606 64.1772 115.569 71.5774 122.97L75.8574 127.25L80.1374 122.97C87.5376 115.569 89.8067 104.606 86.2952 95.0357C86.7664 94.7782 87.2242 94.4995 87.6736 94.2091L89.0817 95.617C93.7755 100.311 96.2531 106.55 96.0583 113.186ZM141.831 76.5377C138.082 80.2864 133.098 82.3508 127.797 82.3508H124.846V85.302C124.846 87.5193 125.791 89.52 127.3 90.922C123.304 94.1077 118.416 95.9056 113.184 96.0592C106.545 96.2564 100.31 93.7766 95.6162 89.0826L94.2081 87.6746C94.4985 87.2251 94.7772 86.7675 95.0347 86.2963C97.9918 87.3814 101.082 87.9163 104.159 87.9163C111.04 87.9163 117.855 85.2518 122.969 80.1384L127.249 75.8584L122.969 71.5784C115.568 64.1782 104.604 61.9093 95.0347 65.4207C94.7772 64.9494 94.4985 64.4917 94.2081 64.0422L95.6162 62.634C100.31 57.9401 106.555 55.459 113.184 55.6576C118.416 55.8112 123.304 57.6091 127.3 60.7948C125.791 62.1968 124.846 64.1975 124.846 66.4148V69.366H127.797C133.098 69.366 138.082 71.4304 141.831 75.1793L142.51 75.8584L141.831 76.5377Z" fill="#92234A"/>
<path d="M65.8237 75.8585C65.8237 81.3911 70.3247 85.8923 75.8575 85.8923C81.3902 85.8923 85.8912 81.3911 85.8912 75.8585C85.8912 70.3259 81.3902 65.8247 75.8575 65.8247C70.3247 65.8247 65.8237 70.3259 65.8237 75.8585ZM79.989 75.8585C79.989 78.1367 78.1356 79.99 75.8575 79.99C73.5793 79.99 71.7259 78.1367 71.7259 75.8585C71.7259 73.5803 73.5793 71.7269 75.8575 71.7269C78.1356 71.7269 79.989 73.5803 79.989 75.8585Z" fill="#92234A"/>
</svg>
