<svg width="150" height="150" viewBox="0 0 150 150" fill="none" xmlns="http://www.w3.org/2000/svg">
<g clip-path="url(#clip0_64_19)">
<path d="M118.466 31.5342C121.277 32.6191 123.839 34.2716 125.98 36.4128L129.433 39.8758V24.9607C129.433 22.5872 127.412 20.5662 125.038 20.5662H110.122L113.586 24.0189C115.727 26.1612 117.38 28.7224 118.466 31.5342Z" fill="#92234A"/>
<path d="M129.433 124.452V109.536L125.98 113C123.838 115.141 121.276 116.794 118.466 117.88C117.38 120.691 115.727 123.253 113.586 125.394L110.123 128.847H125.038C127.412 128.847 129.433 126.826 129.433 124.452Z" fill="#92234A"/>
<path d="M24.6048 113L21.1521 109.537V124.452C21.1521 126.826 23.1731 128.847 25.5466 128.847H40.4652L36.9988 125.394C34.8576 123.253 33.205 120.691 32.1201 117.88C29.3083 116.794 26.7471 115.142 24.6048 113Z" fill="#92234A"/>
<path d="M32.119 31.5342C33.205 28.7224 34.8576 26.1612 36.9988 24.0189L40.4629 20.5662H25.5466C23.1731 20.5662 21.1521 22.5872 21.1521 24.9607V39.877L24.6048 36.4128C26.7471 34.2716 29.3083 32.6191 32.119 31.5342Z" fill="#92234A"/>
<path d="M34.3357 70.3127H47.1062L53.3203 64.0985V58.9487L34.5051 40.1334C33.1776 40.7491 31.9107 41.5365 30.8201 42.626L29.9412 43.506V65.9182C29.9412 68.3786 31.9622 70.3127 34.3357 70.3127Z" fill="#92234A"/>
<path d="M53.3203 85.3158L47.1062 79.1017H34.3357C31.9622 79.1017 29.9412 81.0346 29.9412 83.4962V105.908L30.8201 106.787C31.9107 107.878 33.1776 108.664 34.5051 109.281L53.3203 90.4657V85.3158Z" fill="#92234A"/>
<path d="M75.293 23.9937C77.6654 21.8846 80.7416 20.5079 84.0821 20.5079H97.7052L78.3692 1.02539C76.6983 -0.732423 73.8865 -0.732423 72.2168 1.02539L52.8809 20.5079H66.5039C69.8433 20.5079 72.9195 21.8846 75.293 23.9937Z" fill="#92234A"/>
<path d="M116.249 70.3127C118.623 70.3127 120.644 68.3786 120.644 65.9182V43.506L119.765 42.626C118.674 41.5365 117.408 40.7491 116.081 40.1334L97.2656 58.9487V64.0974L103.48 70.3127H116.249Z" fill="#92234A"/>
<path d="M84.0821 61.5235C82.9148 61.5235 81.799 61.0601 80.975 60.2361L75.293 54.5541L69.6098 60.2361C68.787 61.0601 67.6712 61.5235 66.5039 61.5235H62.1094V65.9181C62.1094 67.0854 61.6459 68.2012 60.8208 69.0252L55.1399 74.7072L60.8219 80.3892C61.6459 81.2131 62.1094 82.3289 62.1094 83.4962V87.8908H66.5039C67.6712 87.8908 68.787 88.3543 69.6098 89.1782L75.293 94.8603L80.975 89.1782C81.799 88.3543 82.9136 87.8908 84.0821 87.8908H88.4766V83.4962C88.4766 82.3289 88.9401 81.2131 89.7641 80.3892L95.4461 74.7072L89.7629 69.0252C88.9401 68.2012 88.4766 67.0854 88.4766 65.9181V61.5235H84.0821Z" fill="#92234A"/>
<path d="M119.765 106.787L120.644 105.907V83.4962C120.644 81.0346 118.623 79.1017 116.249 79.1017H103.48L97.2656 85.3158V90.4645L116.08 109.28C117.408 108.664 118.674 107.877 119.765 106.787Z" fill="#92234A"/>
<path d="M79.6875 33.7499V46.5192L85.9017 52.7345H91.0515L109.866 33.9193C109.25 32.5917 108.463 31.3249 107.373 30.2343L106.493 29.3553H84.082C81.6204 29.3553 79.6875 31.3764 79.6875 33.7499Z" fill="#92234A"/>
<path d="M107.373 119.179C108.463 118.088 109.25 116.823 109.867 115.494L91.0515 96.6799H85.9017L79.6875 102.894V115.663C79.6875 118.037 81.6204 120.058 84.082 120.058H106.494L107.373 119.179Z" fill="#92234A"/>
<path d="M129.492 65.9181C129.492 69.3456 128.115 72.4218 126.005 74.7072C128.116 76.9926 129.492 80.0688 129.492 83.4963V97.1193L148.974 77.7834C150.732 76.1137 150.732 73.3007 148.974 71.631L129.492 52.295V65.9181Z" fill="#92234A"/>
<path d="M64.6844 52.7345L70.8985 46.5204V33.7499C70.8985 31.3764 68.9645 29.3553 66.504 29.3553H44.0918L43.2118 30.2343C42.1223 31.3249 41.3349 32.5906 40.7192 33.9193L59.5345 52.7345H64.6844Z" fill="#92234A"/>
<path d="M75.293 149.707C76.4351 149.707 77.5773 149.268 78.368 148.388L97.704 128.907H84.0821C80.6534 128.907 77.5773 127.53 75.293 125.421C73.0076 127.53 69.9314 128.907 66.5039 128.907H52.8809L72.2168 148.388C73.0076 149.268 74.1497 149.707 75.293 149.707Z" fill="#92234A"/>
<path d="M44.0918 120.058H66.504C68.9645 120.058 70.8985 118.037 70.8985 115.663V102.894L64.6844 96.6799H59.5345L40.7192 115.495C41.3349 116.823 42.1223 118.088 43.2129 119.18L44.0918 120.058Z" fill="#92234A"/>
<path d="M21.0935 97.1182V83.4963C21.0935 80.0688 22.4703 76.9926 24.5794 74.7072C22.4703 72.4218 21.0935 69.3456 21.0935 65.9181V52.295L1.61109 71.631C-0.146729 73.3007 -0.146729 76.1125 1.61109 77.7822L21.0935 97.1182Z" fill="#92234A"/>
</g>
<defs>
<clipPath id="clip0_64_19">
<rect width="150" height="150" fill="white"/>
</clipPath>
</defs>
</svg>
