<svg width="151" height="151" viewBox="0 0 151 151" fill="none" xmlns="http://www.w3.org/2000/svg">
<path d="M21.8929 97.6549V126.929C21.8929 128.29 22.802 129.198 24.1657 129.198H53.2566L73.9384 149.849C74.3929 150.302 74.8475 150.529 75.5293 150.529C76.2111 150.529 76.6657 150.302 77.1202 149.849L97.802 129.198H126.893C128.257 129.198 129.166 128.29 129.166 126.929V97.6549L149.847 77.0043C150.757 76.0966 150.757 74.735 149.847 73.8273L129.166 53.1768V24.1299C129.166 22.7683 128.257 21.8606 126.893 21.8606H97.802L77.1202 1.21008C76.2111 0.302368 74.8475 0.302368 73.9384 1.21008L53.2566 21.8606H24.1657C22.802 21.8606 21.8929 22.7683 21.8929 24.1299V53.1768L1.21112 73.8273C0.302024 74.735 0.302024 76.0966 1.21112 77.0043L21.8929 97.6549ZM25.7566 55.673C26.2111 55.2192 26.4384 54.7653 26.4384 54.0845V26.3992H54.3929C55.0748 26.3992 55.5293 26.1723 55.9838 25.7184L75.5293 5.97559L95.302 25.7184C95.7566 26.1723 96.2111 26.3992 96.8929 26.3992H124.847V54.3114C124.847 54.9922 125.075 55.4461 125.529 55.8999L145.302 75.6428L125.529 95.3856C125.075 95.8394 124.847 96.2933 124.847 96.9741V124.659H96.8929C96.2111 124.659 95.7566 124.886 95.302 125.34L75.5293 144.856L55.7566 125.113C55.302 124.659 54.8475 124.432 54.1657 124.432H26.4384V96.5202C26.4384 95.8394 26.2111 95.3856 25.7566 94.9317L5.98384 75.4158L25.7566 55.673Z" fill="#92234A"/>
<path d="M30.9839 117.625C30.9839 118.986 31.893 119.894 33.2566 119.894H57.1202L73.9384 136.687C74.393 137.141 75.0748 137.368 75.5293 137.368C75.9839 137.368 76.6657 137.141 77.1202 136.687L93.9384 119.894H117.802C119.166 119.894 120.075 118.986 120.075 117.625V93.7972L136.893 77.0044C137.802 76.0967 137.802 74.7351 136.893 73.8274L120.075 57.0347V33.2072C120.075 31.8456 119.166 30.9379 117.802 30.9379H93.9384L77.1202 14.1451C76.6657 13.6913 76.2112 13.4644 75.5293 13.4644C74.8475 13.4644 74.393 13.6913 73.9384 14.1451L57.1202 30.9379H33.2566C31.893 30.9379 30.9839 31.8456 30.9839 33.2072V57.0347L14.1657 73.8274C13.7112 74.2813 13.4839 74.7352 13.4839 75.4159C13.4839 76.0967 13.7112 76.5506 14.1657 77.0044L30.9839 93.7972V117.625ZM18.9384 75.4159L34.8475 59.5309C35.3021 59.0771 35.5293 58.6232 35.5293 57.9424V35.4765H58.0293C58.7112 35.4765 59.1657 35.2495 59.6202 34.7957L75.5293 18.9106L91.4384 34.7957C91.893 35.2495 92.3475 35.4765 93.0293 35.4765H115.529V57.9424C115.529 58.6232 115.757 59.0771 116.211 59.5309L132.12 75.4159L116.211 91.301C115.757 91.7548 115.529 92.2087 115.529 92.8895V115.355H93.0293C92.3475 115.355 91.893 115.582 91.4384 116.036L75.5293 131.921L59.6202 116.036C59.1657 115.582 58.7112 115.355 58.0293 115.355H35.5293V92.8895C35.5293 92.2087 35.3021 91.7548 34.8475 91.301L18.9384 75.4159Z" fill="#92234A"/>
<path d="M134.166 44.3267H138.711V50.2268H134.166V44.3267Z" fill="#92234A"/>
<path d="M134.166 17.322H138.711V39.788H134.166V17.322Z" fill="#92234A"/>
<path d="M12.3474 135.779H16.8929V141.679H12.3474V135.779Z" fill="#92234A"/>
<path d="M12.3474 108.547H16.8929V131.013H12.3474V108.547Z" fill="#92234A"/>
<path d="M67.8022 83.1314C63.7113 93.3432 65.984 105.143 73.9385 113.313C74.3931 113.767 75.0749 113.994 75.5294 113.994C76.2112 113.994 76.6658 113.767 77.1203 113.313C82.3476 108.094 85.3022 101.059 85.3022 93.5701C85.3022 89.9393 84.6203 86.5353 83.2567 83.1314C93.484 87.2161 105.302 84.9468 113.484 77.0043C114.393 76.0966 114.393 74.735 113.484 73.8273C108.257 68.6079 101.211 65.6579 93.7112 65.6579C90.0749 65.6579 86.6658 66.3387 83.2567 67.7002C87.3476 57.7154 85.3022 45.6881 77.1203 37.5187C76.2112 36.611 74.8476 36.611 73.9385 37.5187C68.7112 42.738 65.7567 49.7728 65.7567 57.2615C65.7567 60.8924 66.4385 64.2963 67.8022 67.7002C57.8022 63.6155 45.7567 65.6579 37.5749 73.8273C36.6658 74.735 36.6658 76.0966 37.5749 77.0043C45.5294 84.9468 57.3476 87.2161 67.8022 83.1314ZM75.5294 108.32C68.484 99.6972 68.484 87.443 75.5294 78.8197C78.9385 82.9045 80.7567 88.1238 80.7567 93.5701C80.7567 99.0164 78.9385 104.236 75.5294 108.32ZM108.484 75.4158C99.8476 82.4506 87.5749 82.4506 78.9385 75.4158C83.0294 72.0119 88.2567 70.1964 93.7112 70.1964C99.1658 70.1964 104.393 72.0119 108.484 75.4158ZM75.5294 42.5111C82.5749 51.1344 82.5749 63.3886 75.5294 72.0119C72.1203 67.9272 70.3022 62.7078 70.3022 57.2615C70.3022 51.8152 72.1203 46.5958 75.5294 42.5111ZM72.1203 75.4158C63.484 82.4506 50.984 82.4506 42.5749 75.4158C51.2112 68.381 63.484 68.381 72.1203 75.4158Z" fill="#92234A"/>
<path d="M2.802 10.7412H10.0747V15.2798H2.802V10.7412Z" fill="#92234A"/>
<path d="M15.9839 10.7412H23.2566V15.2798H15.9839V10.7412Z" fill="#92234A"/>
<path d="M10.7566 2.79858H15.302V10.2872H10.7566V2.79858Z" fill="#92234A"/>
<path d="M10.7566 15.9604H15.302V23.4491H10.7566V15.9604Z" fill="#92234A"/>
<path d="M127.575 135.552H134.847V140.091H127.575V135.552Z" fill="#92234A"/>
<path d="M140.984 135.552H148.257V140.091H140.984V135.552Z" fill="#92234A"/>
<path d="M135.757 127.383H140.302V134.644H135.757V127.383Z" fill="#92234A"/>
<path d="M135.757 140.544H140.302V147.806H135.757V140.544Z" fill="#92234A"/>
</svg>
