<svg width="151" height="151" viewBox="0 0 151 151" fill="none" xmlns="http://www.w3.org/2000/svg">
<path d="M70.4649 0.980622C87.4718 -0.0585732 104.85 4.78853 118.665 14.8093C125.42 19.4808 131.195 25.471 136.035 32.0847C144.124 43.3427 149.029 56.8646 149.966 70.6982C150.078 73.17 150.132 75.6443 150.12 78.1186C149.672 93.078 144.666 107.896 135.803 119.971C126.271 133.233 112.204 143.105 96.5678 147.772C93.3189 148.583 90.0625 149.397 86.7641 149.984C83.4681 150.33 80.1623 150.63 76.8515 150.786C74.2236 150.974 71.6007 150.652 68.9852 150.464C65.907 150.169 62.8164 149.915 59.7728 149.358C55.007 148.21 50.2685 146.851 45.765 144.892C43.8844 144.058 41.9494 143.326 40.1702 142.276C36.1938 139.98 32.3386 137.469 28.6269 134.762C27.4392 133.911 26.3183 132.966 25.2765 131.944C23.3514 130.157 21.4411 128.349 19.6793 126.399C18.2392 124.791 16.7075 123.249 15.4753 121.468C12.7509 117.586 10.2443 113.553 7.95541 109.401C7.23287 108.097 6.63405 106.731 6.10947 105.336C4.14723 100.466 2.43244 95.4632 1.4971 90.2871C0.40587 85.4152 0.235132 80.3974 0.128731 75.4241C0.11141 73.3457 0.103987 71.2574 0.373702 69.1939C0.994788 63.6837 1.9326 58.1784 3.70678 52.9131C4.78317 49.1028 6.51528 45.525 8.27461 41.9917C9.25697 40.0865 10.2121 38.1665 11.3083 36.3231C13.7506 32.6414 16.3413 29.0463 19.2834 25.7456C22.2206 22.5687 25.4102 19.6292 28.7383 16.8679C32.6182 13.978 36.6466 11.2464 40.9794 9.07645C44.1689 7.31971 47.6332 6.16175 51.0108 4.82812C57.281 2.66313 63.8507 1.43836 70.4649 0.980622ZM69.0569 8.5519C66.3647 8.84386 63.6552 9.1284 61.0224 9.79398C58.9068 10.326 56.7886 10.8554 54.6903 11.4517C52.149 12.2955 49.6523 13.2679 47.1804 14.2996C42.1844 16.5438 37.5449 19.5105 33.1849 22.8111C30.1487 25.3695 27.214 28.064 24.5367 30.9985C21.8668 34.0765 19.4467 37.3698 17.2692 40.8115C14.7329 45.5992 12.1051 50.4117 10.6229 55.6522C9.11592 60.1974 8.334 64.9455 7.78467 69.6912C7.42093 72.4104 7.53228 75.1618 7.59909 77.8959C7.76488 81.444 7.91334 85.0168 8.70269 88.4907C9.69989 94.1123 11.6621 99.5111 13.9015 104.742C16.2572 109.25 18.9741 113.57 21.9187 117.717C24.4822 120.827 27.2907 123.739 30.27 126.456C32.2792 128.458 34.6918 129.972 37.0128 131.575C40.4127 133.772 43.7805 136.103 47.5713 137.588C52.0278 139.624 56.7466 141.015 61.5049 142.135C65.8476 142.801 70.2348 143.177 74.622 143.422C78.2718 143.39 81.9092 143.001 85.5417 142.658C88.5185 142.148 91.4482 141.391 94.3804 140.678C109.22 136.286 122.47 126.647 131.091 113.778C133.801 109.935 135.879 105.697 137.757 101.401C139.947 95.8344 141.526 90.0099 142.226 84.0618C142.852 79.4893 142.776 74.86 142.506 70.2628C141.59 59.4774 138.054 48.9345 132.279 39.7797C127.575 32.4311 121.55 25.857 114.374 20.8614C101.423 11.4542 84.9775 7.08466 69.0569 8.5519Z" fill="#92234A" stroke="#92234A" stroke-width="0.125333"/>
<path d="M62.7445 15.4947C66.8843 12.3598 72.2068 10.8357 77.3809 11.3478C81.0851 11.7363 84.7572 12.9957 87.7167 15.2968C89.9263 16.915 91.8292 18.9463 93.2297 21.3043C96.9859 19.842 101.163 19.3892 105.129 20.1711C109.215 20.9332 113.057 22.967 115.975 25.9337C120.241 30.2043 122.455 36.39 121.899 42.3975C125.719 43.36 129.305 45.3345 132.012 48.217C135.822 52.1214 137.938 57.5994 137.804 63.0503C137.785 67.8825 135.892 72.5935 132.794 76.2728C134.499 78.4798 135.916 80.9343 136.731 83.6115C138.077 87.8375 137.955 92.4867 136.538 96.6781C134.904 101.11 131.868 105.11 127.761 107.513C125.887 108.765 123.75 109.527 121.587 110.101C121.745 113.817 121.139 117.615 119.409 120.936C118.229 123.388 116.494 125.545 114.495 127.379C111.36 130.071 107.438 131.823 103.338 132.345C99.7128 132.825 96.016 132.201 92.6185 130.907C90.3742 134.421 87.1376 137.36 83.2726 138.981C78.8383 140.963 73.6865 141.272 69.0321 139.899C64.0609 138.498 59.7381 135.079 57.0459 130.697C53.4035 132.058 49.4172 132.602 45.5719 131.892C40.378 131.001 35.5083 128.101 32.4128 123.811C29.3593 119.79 27.9167 114.609 28.3769 109.586C26.1549 109.02 24.0293 108.104 22.0795 106.899C19.078 105.024 16.6505 102.287 14.9506 99.2044C11.2166 92.4125 11.7412 83.5224 16.3165 77.2551C16.7149 76.7206 17.1207 76.1911 17.5116 75.6542C15.1065 72.7766 13.5105 69.2434 12.8993 65.5468C12.0481 60.3236 13.2308 54.7614 16.2596 50.4092C19.1225 46.0842 23.7373 43.068 28.758 41.8829C28.471 38.4659 29.1415 35.0242 30.4579 31.8769C32.534 27.1411 36.4585 23.2763 41.1995 21.2276C46.3513 18.8795 52.4385 18.9835 57.6521 21.0915C59.0007 18.9414 60.7699 17.0807 62.7445 15.4947ZM64.9344 18.4441C63.8902 19.2408 63.0242 20.2305 62.0987 21.1559C64.8132 20.1216 67.9904 20.8367 70.106 22.7889C71.4521 20.6288 74.1196 19.4189 76.6361 19.8099C78.9274 20.0721 80.7635 21.7571 81.8077 23.7291C82.8445 22.8161 83.9308 21.8907 85.2769 21.48C86.3656 21.0717 87.5435 21.0891 88.6866 21.141C86.8778 19.1443 84.7424 17.3826 82.2506 16.3112C81.0208 15.7694 79.7069 15.4477 78.3954 15.1681C73.7113 14.2898 68.703 15.5492 64.9344 18.4441ZM42.3081 24.7411C38.2896 26.5993 35.0134 30.041 33.4669 34.2002C32.9027 35.8902 32.4177 37.6246 32.3831 39.421C33.9246 36.9096 36.988 35.4572 39.9153 35.8852C39.9945 34.9772 40.0464 34.0493 40.3607 33.1833C41.1278 31.0455 43.0801 29.3432 45.3319 28.9647C46.9402 28.6306 48.6204 29.0191 50.0481 29.7812C50.2016 27.2673 51.6912 24.9761 53.8291 23.6821C50.0259 22.6924 45.854 23.019 42.3081 24.7411ZM73.9266 23.9889C72.9145 24.657 72.6448 25.9213 72.7166 27.0595C74.6862 26.8591 76.6757 26.7947 78.6379 27.1114C78.6874 26.2652 78.6379 25.3597 78.0737 24.6743C77.2102 23.3258 75.1687 22.9423 73.9266 23.9889ZM96.9241 24.0137C99.6361 24.7807 101.598 27.2253 102.148 29.9371C104.699 28.9795 107.871 29.6575 109.583 31.8423C111.001 33.3837 111.412 35.6353 111.041 37.6518C113.659 36.9838 116.41 37.8919 118.37 39.6758C118.105 37.3178 117.593 34.9499 116.482 32.8344C114.936 29.8554 112.568 27.25 109.596 25.6467C105.797 23.5114 101.141 22.8136 96.9241 24.0137ZM61.1213 26.3914C61.7102 28.356 62.4105 30.2835 63.0217 32.2406C64.0288 31.2187 65.0062 30.1226 66.3028 29.4595C65.2833 28.9201 64.682 27.5915 65.412 26.5745C65.949 25.6838 67.0723 25.7654 67.9681 25.857C66.9288 24.7089 65.2957 23.9963 63.7566 24.4615C62.6357 24.6891 61.8414 25.57 61.1213 26.3914ZM86.2815 25.0083C85.3437 25.3522 84.6756 26.1316 84.0174 26.8442C84.6335 26.5399 85.3164 26.1811 86.0241 26.4063C87.056 26.6611 87.6152 27.8933 87.2218 28.8632C87.0411 29.4348 86.472 29.7144 86.0241 30.0484C86.6378 30.4913 87.2193 30.9787 87.7909 31.4761C88.5901 29.4769 89.1123 27.3811 89.8546 25.3621C88.7881 24.7361 87.4445 24.5159 86.2815 25.0083ZM54.663 27.7251C53.7945 28.6158 53.6881 29.9049 53.5718 31.0752C53.891 30.5185 54.1236 29.8307 54.7323 29.5164C55.6454 29.0241 56.9345 29.4224 57.3205 30.4097C57.6299 31.0579 57.3552 31.7532 57.1152 32.3717C57.8303 32.4039 58.5454 32.4237 59.2605 32.4311C58.5454 30.4072 57.8847 28.361 57.276 26.2999C56.2912 26.5102 55.3064 26.9209 54.663 27.7251ZM93.0491 27.5296C92.5641 28.4302 92.3958 29.4521 92.0568 30.4072C91.7154 31.3746 91.3838 32.3445 91.0893 33.3268C92.4404 33.1264 93.8063 32.9631 95.1747 33.119C94.6822 32.0996 94.9247 30.6769 96.1001 30.2785C97.0948 29.8703 97.9658 30.5655 98.6463 31.2039C98.4607 29.8901 97.8619 28.5539 96.6667 27.871C95.6003 27.1609 94.2344 27.1312 93.0491 27.5296ZM70.5341 31.5206C69.0964 32.1119 67.5969 32.7305 66.5255 33.8984C65.7881 34.658 65.026 35.3928 64.2342 36.0931C65.0458 38.3348 65.7411 40.6185 66.4537 42.8973C67.4905 42.1377 68.6807 41.5686 69.96 41.3732C71.7688 41.2346 73.5876 41.8185 74.9411 43.0359C75.7799 42.1699 76.7499 41.3806 77.9376 41.0614C80.1028 40.2721 82.597 40.9055 84.2945 42.4173C85.0467 40.1039 85.7668 37.7805 86.5858 35.4869C82.7999 30.954 75.9927 29.2764 70.5341 31.5206ZM43.6418 35.0687C43.3795 36.0955 44.0303 37.0085 44.6316 37.7681C46.0519 36.4419 47.596 35.1899 49.3627 34.3512C48.9148 33.4901 48.1898 32.6959 47.1778 32.5672C45.562 32.1392 43.82 33.4357 43.6418 35.0687ZM101.752 34.9623C103.471 35.9298 105.137 37.0085 106.53 38.4213C106.946 37.8721 107.391 37.2956 107.49 36.5929C107.812 34.8807 106.327 33.1215 104.585 33.1536C103.348 33.072 102.373 33.9949 101.752 34.9623ZM53.6262 36.5755C51.9782 37.2362 50.2412 37.8102 48.8604 38.9731C46.5097 40.6655 44.8295 43.1621 43.82 45.8516C43.4018 47.2718 43.288 48.7589 43.0554 50.2162C44.9731 51.6142 46.8759 53.027 48.7936 54.4225C49.2044 53.1086 49.823 51.822 50.8523 50.8793C52.2232 49.756 54.0394 49.2413 55.8012 49.4046C55.972 48.598 56.1229 47.7815 56.4198 47.0071C57.5581 44.6664 60.1389 43.0755 62.7718 43.3971C62.0616 41.0391 61.2574 38.7108 60.5101 36.3652C58.2559 35.8184 55.8532 35.9693 53.6262 36.5755ZM90.4485 37.1471C90.1812 37.2015 89.7878 37.2263 89.7457 37.5801C88.9341 39.7179 88.3452 41.9323 87.583 44.0899C89.137 44.0726 90.7305 44.4932 91.948 45.4879C93.1679 46.3662 93.836 47.779 94.1651 49.2092C95.6671 49.0038 97.2829 48.8974 98.6587 49.6595C100.49 50.5453 101.705 52.349 102.115 54.3111C104.11 52.9082 106.06 51.441 108.029 49.9985C107.779 46.9947 106.631 44.0008 104.54 41.7987C102.291 38.9113 98.7304 37.3104 95.1672 36.8106C93.5885 36.4988 92.0074 36.9145 90.4485 37.1471ZM36.5203 40.2721C35.2064 41.1307 34.8649 42.7761 34.7635 44.2359C36.4263 45.4062 38.0545 46.6236 39.6975 47.8236C39.9796 46.3093 40.133 44.7357 40.9125 43.3699C39.7025 43.7633 38.2426 42.8676 38.3786 41.5241C38.3316 40.4874 39.309 39.9678 40.0959 39.562C38.8686 39.3789 37.5175 39.4408 36.5203 40.2721ZM110.964 41.5266C111.508 41.6008 112.127 41.5414 112.585 41.9101C113.545 42.5682 113.57 44.1592 112.632 44.852C112.117 45.3246 111.382 45.2009 110.746 45.186C110.981 45.9902 111.187 46.8042 111.382 47.6232C113.147 46.3019 114.938 45.0153 116.727 43.7287C116.165 42.6004 115.25 41.6181 114.01 41.2569C113.001 40.8882 111.932 41.1802 110.964 41.5266ZM78.3162 44.9386C77.7446 45.3419 77.5492 46.0421 77.2522 46.6359C76.9157 47.4846 75.9482 47.8261 75.1291 48.0067C74.221 48.17 73.4366 47.5242 73.1372 46.7102C72.6151 45.3963 71.0166 44.6664 69.6953 45.2231C68.7772 45.4978 68.3789 46.4256 67.9013 47.163C68.0943 48.2863 68.8638 49.3774 68.5545 50.5379C68.1265 51.9259 65.9885 52.1684 65.2734 50.9041C64.8033 49.9119 64.6004 48.8182 64.2342 47.7889C63.6972 47.4821 63.1726 47.0912 62.5367 47.0467C61.1955 46.7968 59.8098 47.8434 59.5822 49.1671C59.4065 50.1766 60.0994 51.2381 59.5995 52.2055C59.2679 52.8637 58.8077 53.5787 58.0307 53.7346C57.2909 53.9301 56.6376 53.4575 55.9794 53.2101C54.7818 52.6633 53.2921 53.3091 52.6933 54.4398C52.2158 55.2291 52.4459 56.1817 52.4162 57.0526C53.3095 57.7974 54.8238 58.2254 54.9154 59.5739C55.1109 60.8779 53.6336 61.9764 52.4385 61.4494C51.4289 60.957 50.6197 60.1405 49.63 59.6086C47.8954 59.3389 46.2202 61.2341 46.7745 62.929C46.9922 63.988 48.1329 64.4161 48.6006 65.3118C48.8431 66.2099 49.0015 67.358 48.2789 68.0879C47.7444 68.6471 46.9031 68.5481 46.2227 68.7832C45.0151 69.1296 44.3223 70.4582 44.4856 71.6607C44.5796 72.601 45.369 73.2319 45.8515 73.9841C46.9452 74.0756 48.3532 73.6451 49.145 74.6447C50.0383 75.6666 49.3553 77.5545 47.9572 77.6188C46.725 77.8266 45.0448 77.1066 44.2233 78.3734C42.9811 79.9421 44.1515 82.5921 46.1979 82.597C48.1008 82.3348 49.8774 84.9897 48.3012 86.4124C47.3485 87.219 46.8561 88.5848 47.4772 89.7452C47.9746 90.918 49.3256 91.158 50.4144 91.4772C51.2903 90.8883 52.149 89.8912 53.3194 90.1535C54.5022 90.3712 55.1059 91.8483 54.517 92.8677C53.8291 93.7313 52.7874 94.2236 51.9188 94.8818C51.1864 96.4678 52.2949 98.5511 54.0716 98.6798C55.3806 98.9173 56.2986 97.5169 57.5977 97.747C58.4835 97.794 59.4708 98.2493 59.6911 99.187C59.79 100.135 59.4189 101.144 59.8519 102.05C60.3889 103.329 62.0195 103.987 63.2914 103.421C63.6997 103.22 64.3653 103.176 64.4346 102.621C64.7018 101.857 64.7538 100.867 65.558 100.446C66.6517 99.7462 68.3219 100.548 68.3417 101.882C68.2947 102.859 67.8691 103.767 67.592 104.692C67.9236 106.39 69.9427 107.652 71.5264 106.696C72.5631 106.268 72.7512 105.083 73.3129 104.247C74.0181 103.589 75.0821 103.114 76.0348 103.49C76.7771 103.804 77.0221 104.643 77.47 105.244C78.0812 106.293 79.546 106.597 80.615 106.127C81.4044 105.83 81.9141 105.081 82.2358 104.334C82.0799 103.339 81.3078 102.347 81.773 101.327C82.2506 100.137 84.0273 99.8897 84.8438 100.865C85.3659 101.659 85.5169 102.634 85.8881 103.502C86.5636 103.844 87.1896 104.44 87.9988 104.378C89.231 104.408 90.4113 103.477 90.639 102.26C90.8939 101.389 90.3272 100.54 90.4361 99.6695C90.7256 98.6575 91.5001 97.4971 92.6953 97.6035C93.7197 97.7619 94.608 98.6204 95.7017 98.373C97.2161 98.0662 98.1663 96.3614 97.7778 94.8867C97.1171 94.3845 96.402 93.944 95.8131 93.3552C94.9198 92.3605 95.5805 90.5296 96.929 90.386C98.1935 90.1807 99.0199 91.3659 99.9924 91.9547C100.92 91.8063 101.987 91.8236 102.677 91.0739C103.796 90.1733 103.793 88.3423 102.798 87.3575C102.331 86.8404 101.623 86.4519 101.499 85.7072C101.324 84.8684 101.314 83.8317 102.046 83.2428C102.784 82.6886 103.818 82.8494 104.578 82.3249C105.429 81.8176 105.802 80.7883 105.8 79.8382C105.755 79.0737 105.186 78.512 104.743 77.9429C103.731 77.8786 102.662 78.1161 101.697 77.7573C100.336 77.119 100.453 74.8699 101.89 74.3998C102.84 74.1919 103.83 74.3404 104.798 74.2859C105.248 73.7812 105.77 73.3333 106.161 72.7766C106.755 71.7622 106.629 70.3469 105.721 69.5551C104.976 68.6842 103.734 68.897 102.761 68.5357C101.979 68.0483 101.18 67.2417 101.296 66.2421C101.346 65.1806 102.539 64.7229 102.838 63.7554C103.558 62.1076 102.15 60.1752 100.403 60.1108C99.6707 60.6082 98.9878 61.1748 98.2306 61.63C97.1171 62.2511 95.5557 61.3356 95.6003 60.049C95.5433 58.505 97.2656 57.9409 98.29 57.1664C98.384 56.2114 98.6983 55.1845 98.2702 54.2666C97.8372 53.267 96.7583 52.5099 95.6423 52.7004C94.6501 52.7647 93.9721 53.7841 92.9526 53.7025C92.0222 53.6381 90.8914 53.3165 90.5648 52.3317C90.3148 51.3865 90.8592 50.3721 90.4386 49.4467C90.1763 48.556 89.2855 48.0487 88.4541 47.7939C87.6424 47.5564 86.8952 48.0438 86.1825 48.3506C85.8633 49.3131 85.7322 50.3894 85.121 51.2257C84.146 52.3614 82.0106 51.6934 81.9314 50.1717C81.9957 49.0409 82.5352 47.9993 82.8247 46.9155C82.4931 46.2128 82.2308 45.4136 81.5726 44.9435C80.6521 44.1914 79.2343 44.1815 78.3162 44.9386ZM19.4887 52.1907C17.4572 54.952 16.3858 58.364 16.267 61.7785C16.1928 65.2944 17.2221 68.8277 19.1992 71.7374C18.9097 68.6867 20.5503 65.6062 23.2449 64.1464C21.7306 62.1942 21.2505 59.3661 22.4036 57.1244C23.3637 54.9866 25.5214 53.4921 27.8548 53.2967C26.4865 51.1738 26.3281 48.3556 27.3921 46.0767C24.2743 47.3559 21.399 49.3799 19.4887 52.1907ZM30.3466 49.4393C30.312 50.4983 31.0023 51.3494 31.5022 52.2179C31.3982 51.5449 31.1632 50.7878 31.5764 50.1692C32.1035 49.229 33.499 49.0013 34.323 49.6818C34.8328 50.0331 34.9243 50.6888 35.0951 51.2381C35.6147 50.8669 36.1393 50.5057 36.6688 50.1469C34.9342 48.8776 33.1972 47.6133 31.4675 46.3365C30.7771 47.2199 30.2699 48.2937 30.3466 49.4393ZM123.047 46.5419C124.814 48.7985 125.083 51.9952 123.883 54.5734C126.469 55.2563 128.498 57.6143 128.778 60.2741C129.055 62.3847 128.142 64.5621 126.593 65.9872C129.082 67.1378 130.903 69.5081 131.304 72.2298C133.016 69.4685 134.142 66.3089 134.165 63.0379C134.283 58.6114 132.583 54.1825 129.565 50.9511C127.78 48.9766 125.477 47.5737 123.047 46.5419ZM113.255 50.8076C113.387 51.1119 113.743 51.2133 114 51.389C114.896 51.8443 115.718 52.4307 116.462 53.1062C116.504 51.9828 117.509 50.9832 118.667 51.2307C119.79 51.3494 120.233 52.5272 120.3 53.5095C120.936 52.3614 121.263 50.9313 120.664 49.6991C120.261 48.5213 119.13 47.883 118.128 47.2743C116.475 48.41 114.844 49.5877 113.255 50.8076ZM39.0764 52.9726C36.936 54.2765 34.9491 55.9738 33.7589 58.2131C31.7793 61.202 31.2349 65 31.8956 68.4887C32.2371 70.4805 33.3159 72.2224 34.2265 73.994C36.5822 73.9965 38.9404 73.9841 41.296 73.994C40.9941 72.8434 40.7046 71.6607 40.8481 70.4632C41.0189 68.5036 42.2957 66.7691 43.9635 65.7868C43.3919 64.4655 42.8995 63.0478 43.0653 61.5855C43.2211 59.6655 44.3891 57.9434 45.9826 56.9066C44.0823 55.5557 42.2388 54.1231 40.3359 52.7771C39.9499 52.3886 39.4526 52.7796 39.0764 52.9726ZM103.927 57.5524C104.904 58.2972 105.708 59.2696 106.243 60.3781C106.797 62.0036 106.879 63.8618 106.08 65.4231C107.418 66.101 108.668 67.0487 109.405 68.3823C110.474 70.1737 110.313 72.4426 109.544 74.3156C111.974 74.276 114.404 74.3181 116.836 74.2983C118.637 71.4628 119.323 67.9741 118.778 64.661C118.365 61.3777 116.675 58.3195 114.255 56.0827C113.01 54.7714 111.283 54.1305 109.71 53.3214C107.782 54.7318 105.857 56.147 103.927 57.5524ZM25.5833 60.868C25.8975 62.0482 27.063 62.6272 28.127 62.9884C28.5378 61.0387 29.0079 59.0766 29.9804 57.3199C29.2999 57.1293 28.6021 56.8646 27.8845 56.9809C26.1821 57.2481 24.9375 59.23 25.5833 60.868ZM120.6 58.4135C121.532 60.1479 122.057 62.0581 122.394 63.988C123.475 63.8173 124.559 63.1938 124.932 62.115C125.667 60.6032 124.655 58.6683 123.111 58.1685C122.275 57.8419 121.401 58.1487 120.6 58.4135ZM23.141 69.4834C22.4432 71.0125 23.1138 72.7395 24.0541 74.0039C26.0559 73.9841 28.0553 73.989 30.0571 73.994C29.4212 72.5638 28.6318 71.1659 28.4289 69.5922C27.7113 70.6562 25.9545 70.7106 25.2888 69.5675C24.7395 68.7906 25.1478 67.8454 25.467 67.0734C24.4896 67.6376 23.5245 68.3724 23.141 69.4834ZM124.2 69.0751C124.673 69.5254 125.284 69.9832 125.311 70.7007C125.494 71.8018 124.489 72.8905 123.373 72.7593C122.76 72.789 122.317 72.3139 121.854 71.9923C121.619 72.7915 121.325 73.5684 120.991 74.3305C123.178 74.2513 125.37 74.3404 127.56 74.2884C127.696 73.3012 127.724 72.2546 127.216 71.3614C126.657 70.1465 125.447 69.4215 124.2 69.0751ZM22.5546 77.6435C22.463 78.8782 22.849 80.1475 23.7027 81.058C24.2966 81.6692 25.1255 81.9389 25.8728 82.3051C25.4497 81.8127 24.8508 81.3228 24.8954 80.6052C24.7915 79.6205 25.6476 78.6654 26.6399 78.6778C27.3104 78.5788 27.835 79.0588 28.3423 79.4126C28.5576 78.8163 28.7827 78.2225 29.0228 77.6361C26.8675 77.6386 24.7098 77.6114 22.5546 77.6435ZM33.0586 77.6287C32.5117 78.8262 31.8906 80.0164 31.6605 81.3253C30.646 85.4375 31.6383 89.9629 34.182 93.3329C35.1643 94.4909 36.2061 95.6414 37.4755 96.4925C38.6409 97.1037 39.7841 97.7965 41.0214 98.2567C43.0158 96.9849 44.8667 95.4954 46.7868 94.1148C45.4605 93.3205 44.3792 92.0958 43.8422 90.6434C43.4537 89.1192 43.4414 87.4219 44.1169 85.9744C43.1543 85.3732 42.0631 84.8659 41.4123 83.896C40.0736 82.1319 39.6753 79.6947 40.4968 77.6237C38.0174 77.6411 35.538 77.6262 33.0586 77.6287ZM109.084 77.9157C110.125 80.7364 108.923 84.183 106.23 85.5909C107.168 87.2462 107.431 89.2751 106.899 91.1061C106.431 92.6896 105.186 93.9069 103.828 94.7754C105.84 96.1536 107.755 97.6604 109.754 99.0534C112.612 97.8237 115.171 95.7305 116.648 92.9593C118.538 89.7873 119.048 85.8779 118.194 82.3001C117.893 80.7191 116.96 79.378 116.277 77.9479C113.879 77.9108 111.481 77.9776 109.084 77.9157ZM120.416 77.9207C121.045 79.138 121.584 80.4147 121.785 81.7805C122.475 80.7982 124.064 80.6473 124.811 81.6444C125.487 82.4263 125.123 83.4779 124.717 84.2894C125.375 83.943 126.056 83.5793 126.506 82.9657C127.694 81.595 127.627 79.4077 126.528 78.0097C124.499 77.8266 122.45 78.0147 120.416 77.9207ZM16.3016 91.7815C16.8015 95.8517 19.0062 99.573 22.0077 102.312C23.725 103.831 25.8159 104.826 27.9315 105.667C25.5462 103.47 25.0018 99.7635 26.3207 96.8538C25.2517 96.3738 24.0887 95.973 23.2919 95.0674C22.4828 94.1643 21.8667 93.0682 21.5598 91.8929C21.0501 89.5324 21.9186 87.0433 23.6334 85.3756C22.609 84.7868 21.5178 84.2226 20.7705 83.2725C19.897 82.2581 19.3922 80.9987 19.0037 79.7343C16.7248 83.27 15.6236 87.5975 16.3016 91.7815ZM130.997 80.1153C131.245 82.9979 129.587 85.8433 127.055 87.1843C127.667 88.3027 128.295 89.4607 128.444 90.7473C128.595 92.5213 128.112 94.3894 126.929 95.7478C125.853 97.1309 124.128 97.841 122.433 98.0761C123.826 100.496 123.893 103.589 122.542 106.043C125.769 104.771 128.783 102.728 130.757 99.8303C133.311 96.4208 134.427 92.0141 133.907 87.7955C133.633 85.0317 132.519 82.4189 130.997 80.1153ZM25.6056 88.7308C24.5415 90.1361 25.1453 92.4347 26.7958 93.083C27.6816 93.5878 28.7135 93.2834 29.6216 93.0088C28.8199 91.2001 28.1171 89.3419 27.7979 87.3798C26.9591 87.6149 26.0633 87.9241 25.6056 88.7308ZM122.062 88.4437C121.745 90.3959 121.169 92.3036 120.231 94.048C121.166 94.4859 122.302 94.5799 123.235 94.0826C124.658 93.4245 125.244 91.4995 124.489 90.1386C124.113 89.1242 123.042 88.6689 122.062 88.4437ZM101.254 97.4204C100.952 98.2592 100.621 99.1153 100.027 99.7982C98.728 101.466 96.4836 102.3 94.4051 101.976C94.2814 103.774 93.4401 105.509 92.0098 106.63C90.7083 107.75 88.9539 108.089 87.2787 108.023C88.1126 110.299 88.7782 112.632 89.5379 114.936C92.5666 115.827 95.865 115.322 98.6908 114.001C101.94 112.64 104.449 109.873 105.921 106.719C106.72 105.16 106.859 103.386 107.069 101.679C105.157 100.224 103.197 98.8332 101.254 97.4204ZM42.2091 102.03C42.3279 102.673 42.4466 103.322 42.6149 103.957C44.2431 110.329 50.7212 115.141 57.3205 114.617C58.3771 114.443 59.4411 114.3 60.4953 114.112C60.8936 113.664 61.0001 113.031 61.2203 112.489C61.7597 110.747 62.3635 109.025 62.8683 107.275C61.4059 107.332 59.9014 107.018 58.6642 106.216C57.3799 105.244 56.4001 103.824 56.1006 102.228C54.809 102.391 53.448 102.483 52.2158 101.988C50.2708 101.3 48.7392 99.5978 48.2542 97.5961C46.2499 99.0905 44.2035 100.523 42.2091 102.03ZM29.436 101.33C29.8369 102.916 31.3191 103.851 32.7864 104.319C34.4047 103.094 36.0502 101.906 37.7155 100.748C36.3372 100.051 34.8897 99.3998 33.8158 98.2542C33.7885 99.3998 32.7394 100.414 31.564 100.14C30.4802 100.001 30.0868 98.8555 29.9037 97.9351C29.4063 98.9841 28.9856 100.182 29.436 101.33ZM118.806 99.2736C118.897 99.9491 119.1 100.729 118.625 101.312C118.051 102.188 116.7 102.344 115.918 101.664C115.438 101.3 115.339 100.667 115.161 100.132C114.495 100.625 113.797 101.07 113.095 101.503C114.886 102.76 116.638 104.079 118.417 105.355C119.261 104.492 119.959 103.374 119.877 102.122C119.924 101.058 119.365 100.127 118.806 99.2736ZM110.442 104.047C110.266 105.407 109.932 106.748 109.376 108.005C109.982 108.03 110.677 107.936 111.162 108.389C111.984 109.012 112.07 110.368 111.348 111.101C111.006 111.405 110.581 111.593 110.195 111.828C111.711 112.162 113.411 111.704 114.423 110.497C115.087 109.742 115.225 108.715 115.47 107.78C113.827 106.486 112.08 105.341 110.442 104.047ZM38.9502 104.363C37.1835 105.61 35.4489 106.897 33.7069 108.181C34.2933 109.012 35.048 109.752 36.0403 110.061C37.0944 110.497 38.2302 110.188 39.2917 109.96C38.6682 109.851 37.9333 109.864 37.4804 109.351C36.6837 108.597 36.8 107.127 37.7204 106.523C38.2203 106.132 38.8859 106.246 39.4748 106.207C39.2967 105.593 39.1185 104.979 38.9502 104.363ZM71.1205 110.616C69.3365 110.833 67.4955 110.272 66.1395 109.094C65.4664 111.499 64.5088 113.82 63.8853 116.237C65.0581 117.351 66.288 118.432 67.7553 119.149C69.3983 120.159 71.3259 120.503 73.204 120.797C76.4851 121.218 79.7687 120.129 82.55 118.444C83.8145 117.638 84.7622 116.455 85.8212 115.413C85.1408 113.105 84.3861 110.819 83.619 108.54C81.3078 110.544 77.4799 110.494 75.3048 108.312C74.1913 109.478 72.7611 110.457 71.1205 110.616ZM31.9203 111.786C32.0267 115.193 33.1328 118.561 35.1346 121.324C37.7996 125.194 42.1769 127.75 46.8066 128.398C49.4122 128.821 52.0525 128.408 54.5714 127.708C51.3844 127.27 48.6476 124.682 48.1403 121.493C45.5298 122.346 42.4244 121.738 40.6428 119.56C39.1878 118.021 38.8983 115.792 39.1581 113.77C36.5872 114.302 33.8529 113.565 31.9203 111.786ZM110.289 115.497C110.232 116.158 110.209 116.829 110.058 117.479C109.573 119.822 107.629 121.767 105.31 122.321C103.613 122.799 101.791 122.413 100.242 121.651C99.9775 122.868 99.7252 124.133 99.0175 125.184C98.1984 126.399 97.0255 127.317 95.8032 128.099C99.2847 129.18 103.113 129.111 106.53 127.829C113.184 125.6 117.932 118.88 117.942 111.88C116.393 114.443 113.26 115.97 110.289 115.497ZM43.7383 112.939C43.2038 113.59 42.6421 114.335 42.7139 115.23C42.6001 116.933 44.2901 118.407 45.9505 118.214C47.0664 118.185 47.9251 117.301 48.4596 116.398C46.72 115.495 45.1017 114.349 43.7383 112.939ZM100.858 117.071C101.316 117.816 101.908 118.553 102.803 118.759C104.407 119.283 106.305 118.162 106.542 116.477C106.859 115.411 106.235 114.431 105.639 113.61C104.206 114.97 102.638 116.19 100.858 117.071ZM54.9451 118.241C55.5315 119.189 55.3633 120.612 54.2572 121.094C53.2748 121.592 52.2801 120.975 51.6244 120.253C51.7555 121.606 52.4781 122.928 53.6955 123.588C54.8585 124.308 56.3431 124.229 57.5705 123.722C58.1817 121.794 58.7681 119.862 59.4288 117.952C57.959 118.279 56.4446 118.417 54.9451 118.241ZM90.8518 118.939C91.5248 121 92.2078 123.056 92.8808 125.115C94.2047 124.984 95.3182 124.128 96.0358 123.044C96.5108 122.242 96.543 121.282 96.6222 120.379C96.35 120.904 96.1422 121.54 95.5829 121.834C94.6476 122.381 93.2792 121.94 92.9278 120.894C92.6557 120.268 92.9402 119.612 93.1233 119.011C92.3637 119.016 91.6065 118.984 90.8518 118.939ZM83.7254 121.983C85.0121 122.331 85.5862 124.044 84.6632 125.041C84.0644 125.81 83.0226 125.639 82.1838 125.533C83.1117 126.35 84.2401 127.146 85.5392 127.08C86.7541 127.089 87.8404 126.372 88.6545 125.528C89.1964 125.053 88.7708 124.331 88.6223 123.776C88.0482 122.297 87.6103 120.773 87.1253 119.263C86.1701 120.367 85.0368 121.332 83.7254 121.983ZM62.606 120.02C61.9131 122.059 61.2797 124.115 60.5868 126.154C61.688 126.748 63.0291 126.81 64.1723 126.293C65.073 125.951 65.6471 125.14 66.2904 124.469C65.7188 124.717 65.1472 125.122 64.4915 125.023C63.4795 124.952 62.7124 123.92 62.8881 122.93C62.9252 122.136 63.6428 121.696 64.2193 121.28C63.6626 120.886 63.1256 120.461 62.606 120.02ZM71.6501 124.281C71.0166 126.407 73.3005 128.559 75.3791 127.861C76.9033 127.446 77.7199 125.815 77.5591 124.311C75.5943 124.573 73.6074 124.595 71.6501 124.281ZM68.3937 127.604C67.5722 128.542 66.5725 129.334 65.3848 129.744C64.0461 130.331 62.5639 130.284 61.1362 130.271C62.6604 132.12 64.4742 133.75 66.5626 134.94C70.0466 136.838 74.1913 137.583 78.096 136.789C82.4139 135.997 86.3409 133.451 88.8772 129.873C86.0934 131.454 82.4461 130.739 80.1523 128.611C78.8359 130.539 76.5322 131.805 74.1715 131.612C71.6773 131.506 69.4305 129.843 68.3937 127.604Z" fill="#92234A" stroke="#92234A" stroke-width="0.125333"/>
<path d="M56.8851 14.0968C58.0308 13.5921 59.5006 14.5001 59.4363 15.7818C59.5674 17.2589 57.6572 18.2066 56.514 17.3158C55.3584 16.5587 55.5761 14.5644 56.8851 14.0968Z" fill="#92234A" stroke="#92234A" stroke-width="0.125333"/>
<path d="M95.5162 15.1805C96.694 14.7178 98.1193 15.7347 97.9733 17.0139C98.0105 18.4589 96.12 19.2952 95.0238 18.4094C93.8633 17.6151 94.1553 15.5788 95.5162 15.1805Z" fill="#92234A" stroke="#92234A" stroke-width="0.125333"/>
<path d="M24.9598 35.8406C26.1252 35.2567 27.6841 36.2192 27.5777 37.5454C27.6594 38.9285 25.9347 39.8514 24.794 39.1165C23.5394 38.451 23.6359 36.3726 24.9598 35.8406Z" fill="#92234A" stroke="#92234A" stroke-width="0.125333"/>
<path d="M75.2481 36.9466C76.4209 36.5012 77.8264 37.5157 77.6829 38.785C77.7225 40.2349 75.8221 41.0712 74.7284 40.178C73.5654 39.3739 73.8772 37.3301 75.2481 36.9466Z" fill="#92234A" stroke="#92234A" stroke-width="0.125333"/>
<path d="M125.935 38.8593C127.08 38.3125 128.6 39.223 128.535 40.5196C128.659 41.9274 126.914 42.8924 125.751 42.1476C124.485 41.4796 124.598 39.3863 125.935 38.8593Z" fill="#92234A" stroke="#92234A" stroke-width="0.125333"/>
<path d="M53.2007 43.6148C54.4206 43.0358 55.982 44.1171 55.784 45.473C55.7618 46.8883 53.8861 47.68 52.8196 46.7868C51.7185 46.0124 51.9437 44.1072 53.2007 43.6148Z" fill="#92234A" stroke="#92234A" stroke-width="0.125333"/>
<path d="M96.5332 44.56C97.6937 43.8697 99.3813 44.8124 99.2773 46.1955C99.3689 47.6405 97.5279 48.5486 96.3946 47.7172C95.2762 47.0219 95.3529 45.1514 96.5332 44.56Z" fill="#92234A" stroke="#92234A" stroke-width="0.125333"/>
<path d="M74.7209 49.0038C75.8913 48.3234 77.5665 49.2957 77.4379 50.6789C77.5096 52.0942 75.7107 52.9874 74.5799 52.1882C73.4317 51.5003 73.5109 49.5828 74.7209 49.0038Z" fill="#92234A" stroke="#92234A" stroke-width="0.125333"/>
<path d="M70.5144 53.022C71.2172 52.6607 72.1723 52.7646 72.7192 53.3585C73.2091 53.9622 73.318 54.801 73.8673 55.3676C74.6022 56.0554 75.7776 56.1965 76.6263 55.6274C77.6285 55.1672 77.5023 53.7544 78.4574 53.2496C79.3779 52.7028 80.729 53.0739 81.1372 54.0933C81.6396 55.1622 80.9047 56.241 80.3182 57.0996C78.7098 59.4625 75.2827 60.3532 72.7489 58.9973C71.1553 58.2773 70.1235 56.7062 69.6113 55.083C69.391 54.2937 69.7845 53.3931 70.5144 53.022Z" fill="#92234A" stroke="#92234A" stroke-width="0.125333"/>
<path d="M60.1291 53.4897C61.3886 53.0963 62.7397 54.3062 62.4477 55.6027C62.2869 57.0378 60.2677 57.639 59.315 56.58C58.3253 55.6645 58.8004 53.7866 60.1291 53.4897Z" fill="#92234A" stroke="#92234A" stroke-width="0.125333"/>
<path d="M89.8299 54.0019C91.0053 53.5961 92.3712 54.6204 92.2202 55.8724C92.2524 57.3619 90.2332 58.1784 89.1742 57.1739C88.0854 56.3153 88.4813 54.3557 89.8299 54.0019Z" fill="#92234A" stroke="#92234A" stroke-width="0.125333"/>
<path d="M65.3106 54.6649C66.1916 54.2295 67.3917 54.5956 67.8222 55.4988C68.8343 58.0052 67.9336 61.1574 65.6645 62.6717C63.3954 64.2898 60.0722 63.9583 58.1026 62.0234C57.2588 60.9991 57.9368 59.2176 59.2779 59.084C60.3271 58.8761 61.0398 59.8733 62.0023 60.0564C62.9797 60.1826 64.0091 59.6085 64.3704 58.6807C64.9147 57.7306 63.9819 56.6765 64.3877 55.7016C64.5485 55.2538 64.8801 54.8703 65.3106 54.6649Z" fill="#92234A" stroke="#92234A" stroke-width="0.125333"/>
<path d="M84.1189 54.7317C84.933 54.5066 85.8733 54.8653 86.2618 55.6324C86.6973 56.4043 86.2519 57.2951 86.2272 58.1116C86.0762 59.2819 87.1551 60.2469 88.2389 60.4028C89.2831 60.7096 89.9487 59.4922 90.9657 59.559C92.2178 59.4031 93.2447 60.7838 92.8463 61.9541C92.4801 63.122 91.1538 63.4684 90.1368 63.8643C86.633 64.9529 82.4734 62.0853 82.5724 58.3392C82.6491 57.0575 82.5897 55.1721 84.1189 54.7317Z" fill="#92234A" stroke="#92234A" stroke-width="0.125333"/>
<path d="M70.2867 60.6824C71.5017 60.1182 73.0458 61.1871 72.8577 62.5331C72.8453 63.9657 70.9375 64.7624 69.871 63.842C68.7872 63.0552 69.0297 61.1624 70.2867 60.6824Z" fill="#92234A" stroke="#92234A" stroke-width="0.125333"/>
<path d="M78.9522 60.9249C80.1028 60.2865 81.7286 61.2094 81.6444 62.5579C81.7558 63.9286 80.0855 64.8812 78.925 64.2033C77.6432 63.5921 77.6606 61.5187 78.9522 60.9249Z" fill="#92234A" stroke="#92234A" stroke-width="0.125333"/>
<path d="M39.3413 61.8948C40.4944 61.2911 42.0731 62.2239 41.9915 63.5526C42.1053 64.9877 40.2717 65.9378 39.1285 65.1064C37.9556 64.4062 38.0818 62.4367 39.3413 61.8948Z" fill="#92234A" stroke="#92234A" stroke-width="0.125333"/>
<path d="M109.618 63.3818C110.781 62.6568 112.498 63.6094 112.392 65.0049C112.479 66.44 110.657 67.3456 109.522 66.5315C108.403 65.8486 108.458 63.9904 109.618 63.3818Z" fill="#92234A" stroke="#92234A" stroke-width="0.125333"/>
<path d="M55.6603 63.6194C56.3111 63.4016 57.0757 63.5154 57.5954 63.9806C58.7534 65.0248 59.7457 66.3856 59.909 67.979C60.1737 69.6516 59.6096 71.3812 58.5752 72.6975C57.2489 74.2241 55.1333 75.006 53.1364 74.7289C51.8621 74.3973 51.4315 72.601 52.352 71.6929C52.8815 71.0595 53.7723 71.1981 54.4973 71.0447C55.8682 70.8418 56.707 69.1741 56.1503 67.932C55.7643 67.165 54.7968 66.8384 54.5493 65.9823C54.2326 65.0594 54.7077 63.9262 55.6603 63.6194Z" fill="#92234A" stroke="#92234A" stroke-width="0.125333"/>
<path d="M93.5391 64.1661C94.7467 63.555 96.3179 64.6635 96.115 66.0095C96.1175 67.1427 94.7986 67.4767 94.3804 68.3922C93.7198 69.5774 94.4868 71.2599 95.8057 71.5568C96.6074 71.7572 97.6368 71.6087 98.1317 72.4302C99.0225 73.5609 98.1119 75.4043 96.6792 75.4092C94.5561 75.3523 92.3365 74.3007 91.3047 72.3683C89.5924 69.6318 90.7009 65.6779 93.5391 64.1661Z" fill="#92234A" stroke="#92234A" stroke-width="0.125333"/>
<path d="M63.341 65.616C64.5955 65.2176 65.9515 66.4226 65.6645 67.7167C65.5136 69.1542 63.5018 69.7629 62.5417 68.7138C61.5421 67.8033 62.0097 65.9179 63.341 65.616Z" fill="#92234A" stroke="#92234A" stroke-width="0.125333"/>
<path d="M50.4467 66.059C51.5924 65.5493 53.0672 66.4573 53.0053 67.739C53.134 69.2162 51.2287 70.1638 50.0855 69.278C48.9274 68.5234 49.1378 66.5316 50.4467 66.059Z" fill="#92234A" stroke="#92234A" stroke-width="0.125333"/>
<path d="M72.8181 66.8978C73.4219 65.4479 75.8122 65.5765 76.2304 67.0982C76.4135 68.2141 76.2576 69.3548 76.3046 70.4805C77.0841 69.5725 77.5938 68.4121 78.5564 67.6797C79.8678 66.9127 81.6346 68.2191 81.2461 69.7012C80.8131 70.8269 79.8752 71.6756 79.264 72.7099C80.4988 72.361 81.7138 71.6237 83.0326 71.8018C84.5272 72.1259 84.8613 74.4023 83.5226 75.1396C82.5278 75.5479 81.4515 75.7359 80.4815 76.2184C81.5653 76.639 82.7976 76.7429 83.775 77.406C84.9083 78.3413 84.3218 80.4445 82.8421 80.6003C81.5999 80.6102 80.4716 79.9669 79.2913 79.6651C79.8381 80.5063 80.4864 81.2808 81.0234 82.1294C81.5405 82.9484 81.2486 84.146 80.4072 84.6309C79.655 85.0837 78.5316 84.9551 78.0194 84.2029C77.4379 83.426 76.8935 82.6218 76.2972 81.8573C76.2477 83.0276 76.4457 84.2276 76.1957 85.3782C75.6662 86.8355 73.3501 86.8627 72.7909 85.4153C72.5063 84.2474 72.7488 83.0202 72.6449 81.83C71.91 82.6738 71.3706 83.6734 70.6183 84.5023C69.4281 85.5464 67.3397 84.3983 67.6465 82.8173C67.988 81.5603 69.0372 80.6424 69.7547 79.5859C68.5967 79.9768 67.451 80.5385 66.2212 80.6127C64.6772 80.5286 64.0313 78.3364 65.2166 77.3862C66.194 76.738 67.409 76.6267 68.4804 76.1937C67.4684 75.726 66.3375 75.5701 65.3453 75.0753C64.0957 74.2538 64.5188 72.0591 66.001 71.787C67.2976 71.6583 68.4829 72.3684 69.6904 72.7297C69.1139 71.9082 68.4928 71.1189 67.9286 70.2876C67.4387 69.5948 67.5698 68.5556 68.1859 67.9815C68.8862 67.2788 70.2001 67.2937 70.8336 68.0805C71.4869 68.8673 72.0114 69.7531 72.6573 70.5474C72.7563 69.335 72.4791 68.0756 72.8181 66.8978Z" fill="#92234A" stroke="#92234A" stroke-width="0.125333"/>
<path d="M86.1479 66.1555C87.3307 65.678 88.7807 66.6899 88.6347 67.9865C88.6694 69.4463 86.7442 70.2752 85.658 69.3572C84.5321 68.5555 84.8216 66.5786 86.1479 66.1555Z" fill="#92234A" stroke="#92234A" stroke-width="0.125333"/>
<path d="M98.7033 66.8409C99.9034 66.3436 101.371 67.405 101.19 68.7139C101.185 70.1168 99.369 70.916 98.2827 70.0871C97.0925 69.3251 97.3424 67.2665 98.7033 66.8409Z" fill="#92234A" stroke="#92234A" stroke-width="0.125333"/>
<path d="M12.1397 72.0838C13.3176 71.6311 14.7305 72.6505 14.5845 73.9247C14.6191 75.3623 12.746 76.1961 11.6498 75.3276C10.4695 74.5383 10.7639 72.4748 12.1397 72.0838Z" fill="#92234A" stroke="#92234A" stroke-width="0.125333"/>
<path d="M60.1267 74.0187C61.2748 73.42 62.8461 74.3379 62.7768 75.6592C62.903 77.0893 61.0892 78.0567 59.9362 77.2452C58.741 76.5573 58.8573 74.5631 60.1267 74.0187Z" fill="#92234A" stroke="#92234A" stroke-width="0.125333"/>
<path d="M88.8203 74.5259C90.0823 74.1202 91.4457 75.3375 91.1487 76.6365C90.9879 78.0666 88.9836 78.6679 88.026 77.6213C87.0313 76.7107 87.4965 74.8327 88.8203 74.5259Z" fill="#92234A" stroke="#92234A" stroke-width="0.125333"/>
<path d="M136.867 75.81C138.052 75.3226 139.512 76.3395 139.361 77.641C139.391 79.1033 137.458 79.9247 136.377 79.0018C135.261 78.1977 135.55 76.2356 136.867 75.81Z" fill="#92234A" stroke="#92234A" stroke-width="0.125333"/>
<path d="M52.9507 76.7478C56.0907 76.0748 59.4114 78.6357 59.7059 81.8102C60.1216 84.0395 58.9289 86.3258 57.1176 87.5951C56.5163 88.0949 55.5785 88.1122 54.9426 87.6693C54.1805 87.1794 53.9429 86.1105 54.3265 85.3113C54.7595 84.6655 55.5142 84.2944 55.8854 83.5991C56.5262 82.4931 55.8606 80.9912 54.7471 80.484C53.9726 80.2588 53.0076 80.4889 52.4137 79.8159C51.466 78.9598 51.7827 77.2427 52.9507 76.7478Z" fill="#92234A" stroke="#92234A" stroke-width="0.125333"/>
<path d="M95.291 77.302C96.1447 77.208 97.1889 76.9927 97.8595 77.693C98.7478 78.4946 98.535 80.1252 97.4562 80.6596C96.7386 80.9466 95.9097 80.7957 95.2044 81.1446C94.1281 81.6938 93.5738 83.1957 94.2344 84.2572C94.7863 85.002 95.9047 85.4498 95.8107 86.5409C95.9393 88.028 94.0291 88.9806 92.8661 88.1146C91.3864 86.9987 90.31 85.237 90.31 83.3417C90.1615 80.4542 92.4355 77.7276 95.291 77.302Z" fill="#92234A" stroke="#92234A" stroke-width="0.125333"/>
<path d="M50.2314 81.6964C51.4414 81.1743 52.9384 82.2383 52.7528 83.5669C52.7429 84.9897 50.8698 85.7789 49.7983 84.8956C48.665 84.1162 48.9224 82.1442 50.2314 81.6964Z" fill="#92234A" stroke="#92234A" stroke-width="0.125333"/>
<path d="M62.6011 82.4633C63.7493 81.8052 65.3898 82.7207 65.3131 84.0741C65.4319 85.4473 63.7592 86.4123 62.5937 85.7319C61.3218 85.1232 61.3268 83.0646 62.6011 82.4633Z" fill="#92234A" stroke="#92234A" stroke-width="0.125333"/>
<path d="M98.4855 82.4783C99.6633 82.0156 101.086 83.035 100.943 84.3117C100.982 85.7492 99.1066 86.5905 98.0079 85.7196C96.8326 84.9327 97.1196 82.8816 98.4855 82.4783Z" fill="#92234A" stroke="#92234A" stroke-width="0.125333"/>
<path d="M85.6308 82.9187C86.774 82.3373 88.323 83.2478 88.2636 84.5542C88.3997 85.9942 86.5735 86.9691 85.418 86.1501C84.2203 85.4548 84.349 83.4532 85.6308 82.9187Z" fill="#92234A" stroke="#92234A" stroke-width="0.125333"/>
<path d="M39.1187 84.7001C40.2941 84.2547 41.702 85.2716 41.556 86.5434C41.5932 87.981 39.7151 88.8173 38.6164 87.9439C37.4386 87.1496 37.7405 85.0885 39.1187 84.7001Z" fill="#92234A" stroke="#92234A" stroke-width="0.125333"/>
<path d="M109.348 86.0957C110.581 85.5464 112.112 86.6524 111.89 88.0108C111.83 89.384 110.054 90.1362 108.982 89.3246C107.817 88.5724 108.03 86.5658 109.348 86.0957Z" fill="#92234A" stroke="#92234A" stroke-width="0.125333"/>
<path d="M69.7944 87.6891C70.9821 87.1942 72.4544 88.2086 72.3034 89.5175C72.3356 90.9774 70.4031 91.8013 69.3217 90.8784C68.2082 90.0792 68.4878 88.127 69.7944 87.6891Z" fill="#92234A" stroke="#92234A" stroke-width="0.125333"/>
<path d="M78.6578 87.8474C79.8703 87.3996 81.2857 88.4907 81.0827 89.7872C81.0456 91.2223 79.118 91.977 78.0713 91.0343C76.9653 90.198 77.3117 88.226 78.6578 87.8474Z" fill="#92234A" stroke="#92234A" stroke-width="0.125333"/>
<path d="M59.9065 88.1987C61.5767 87.6272 63.4623 87.9612 64.9791 88.8099C66.3772 89.7748 67.5006 91.2841 67.6614 93.0161C67.7629 94.1122 67.649 95.2405 67.3001 96.2871C66.7953 97.5317 64.8727 97.6777 64.1403 96.5741C63.294 95.4558 64.4941 94.0405 63.8656 92.8627C63.5217 92.16 62.8214 91.6751 62.0444 91.5934C60.9928 91.299 60.3247 92.5262 59.2978 92.4619C58.1521 92.5337 57.1425 91.3955 57.39 90.2647C57.5756 89.0326 58.9241 88.6268 59.9065 88.1987Z" fill="#92234A" stroke="#92234A" stroke-width="0.125333"/>
<path d="M86.6329 88.4165C88.0854 88.1146 89.6344 88.3398 90.9607 88.9954C91.6363 89.3864 92.4405 89.8812 92.5172 90.7448C92.7003 91.7221 91.9629 92.7588 90.9632 92.8528C90.1739 93.0137 89.5701 92.4025 88.902 92.1081C87.7959 91.5835 86.3434 92.207 85.9104 93.3378C85.3833 94.3943 86.4548 95.6017 85.7298 96.6212C85.032 97.9152 82.8866 97.737 82.3942 96.3589C81.7434 94.3127 82.0997 91.9052 83.5423 90.2697C84.3837 89.3938 85.4551 88.7282 86.6329 88.4165Z" fill="#92234A" stroke="#92234A" stroke-width="0.125333"/>
<path d="M73.2215 92.5757C75.008 92.1007 77.0197 92.4248 78.4896 93.5704C79.5956 94.4858 80.3974 95.7898 80.7091 97.1902C80.9046 98.5189 79.3952 99.5853 78.1877 99.0583C76.9999 98.6426 77.1311 97.069 76.1685 96.4108C75.4336 95.8566 74.377 95.8888 73.6248 96.391C72.6672 96.8438 72.8082 98.1799 71.9298 98.7094C71.0192 99.3008 69.6335 98.9544 69.2005 97.93C68.671 96.8983 69.3267 95.7898 69.9181 94.9485C70.6753 93.7733 71.9199 93.0186 73.2215 92.5757Z" fill="#92234A" stroke="#92234A" stroke-width="0.125333"/>
<path d="M59.1195 94.5329C60.2677 93.9762 61.7969 94.8991 61.7251 96.203C61.8414 97.6059 60.097 98.5659 58.9364 97.8162C57.6769 97.1432 57.7908 95.0624 59.1195 94.5329Z" fill="#92234A" stroke="#92234A" stroke-width="0.125333"/>
<path d="M88.8352 95.0798C89.9883 94.4216 91.6314 95.3519 91.5423 96.7103C91.6462 98.0786 89.9759 99.0262 88.8204 98.3483C87.546 97.7371 87.5584 95.6785 88.8352 95.0798Z" fill="#92234A" stroke="#92234A" stroke-width="0.125333"/>
<path d="M74.2211 99.516C75.4756 99.1103 76.8366 100.313 76.5545 101.609C76.406 103.049 74.3918 103.663 73.4268 102.611C72.432 101.701 72.8948 99.8229 74.2211 99.516Z" fill="#92234A" stroke="#92234A" stroke-width="0.125333"/>
<path d="M52.1738 103.438C53.3788 102.987 54.7992 104.064 54.6062 105.355C54.5864 106.803 52.6415 107.572 51.5898 106.62C50.4912 105.783 50.8351 103.821 52.1738 103.438Z" fill="#92234A" stroke="#92234A" stroke-width="0.125333"/>
<path d="M95.4939 104.371C96.6593 103.799 98.2083 104.767 98.0995 106.088C98.1836 107.538 96.2956 108.446 95.1747 107.562C94.0439 106.815 94.227 104.873 95.4939 104.371Z" fill="#92234A" stroke="#92234A" stroke-width="0.125333"/>
<path d="M22.9803 109.126C24.1878 108.681 25.6056 109.76 25.4077 111.054C25.3805 112.499 23.4405 113.261 22.3913 112.311C21.2902 111.472 21.6391 109.507 22.9803 109.126Z" fill="#92234A" stroke="#92234A" stroke-width="0.125333"/>
<path d="M73.751 110.93C74.9338 110.472 76.3517 111.501 76.1982 112.783C76.223 114.213 74.3573 115.04 73.2635 114.174C72.0857 113.384 72.3777 111.326 73.751 110.93Z" fill="#92234A" stroke="#92234A" stroke-width="0.125333"/>
<path d="M123.725 112.152C124.945 111.576 126.504 112.657 126.303 114.01C126.281 115.433 124.395 116.22 123.331 115.317C122.238 114.535 122.473 112.64 123.725 112.152Z" fill="#92234A" stroke="#92234A" stroke-width="0.125333"/>
<path d="M53.4555 132.706C54.6334 132.246 56.0562 133.268 55.9077 134.547C55.9423 135.984 54.0642 136.818 52.9681 135.942C51.7952 135.156 52.0871 133.102 53.4555 132.706Z" fill="#92234A" stroke="#92234A" stroke-width="0.125333"/>
<path d="M91.8021 133.896C92.9503 133.297 94.5191 134.218 94.4498 135.537C94.576 136.969 92.7597 137.932 91.6091 137.123C90.414 136.432 90.5303 134.438 91.8021 133.896Z" fill="#92234A" stroke="#92234A" stroke-width="0.125333"/>
</svg>
