<svg width="150" height="150" viewBox="0 0 150 150" fill="none" xmlns="http://www.w3.org/2000/svg">
<g clip-path="url(#clip0_65_14)">
<path d="M68.7499 37.569L74.9881 31.3308L81.2263 37.569L74.9881 43.8073L68.7499 37.569Z" fill="#92234A"/>
<path d="M26.4706 117.29L56.2826 87.4785L50.0432 81.2391L37.565 93.7177L18.8474 75L37.565 56.2824L50.0429 68.7609L56.2824 62.5215L26.4706 32.7097V48.5294H0V101.471H26.4706V117.29Z" fill="#92234A"/>
<path d="M68.741 112.434L74.9792 106.196L81.2174 112.434L74.9792 118.672L68.741 112.434Z" fill="#92234A"/>
<path d="M62.5215 56.2824L68.7609 50.0435L56.2824 37.565L75 18.8474L93.7177 37.565L81.2391 50.0435L87.4785 56.2824L117.29 26.4706H101.471V0H48.5294V26.4706H32.7097L62.5215 56.2824Z" fill="#92234A"/>
<path d="M56.2692 75L74.9839 56.2853L93.6986 75L74.9839 93.7147L56.2692 75Z" fill="#92234A"/>
<path d="M106.177 75.004L112.415 68.7658L118.653 75.004L112.415 81.2423L106.177 75.004Z" fill="#92234A"/>
<path d="M31.3152 74.9942L37.5534 68.756L43.7917 74.9942L37.5534 81.2324L31.3152 74.9942Z" fill="#92234A"/>
<path d="M123.529 101.471H150V48.5294H123.529V32.7097L93.7177 62.5215L99.9568 68.7609L112.435 56.2824L131.152 75L112.435 93.7177L99.9568 81.2391L93.7174 87.4785L123.529 117.29V101.471Z" fill="#92234A"/>
<path d="M87.4782 93.7177L81.2391 99.9568L93.7174 112.435L75 131.153L56.2827 112.435L68.7609 99.9568L62.5218 93.7177L32.7097 123.529H48.5294V150H101.471V123.529H117.29L87.4782 93.7177Z" fill="#92234A"/>
<path d="M17.6471 17.6471H39.7059V0C25.1329 0 14.8374 0 0 0V39.7059H17.6471V17.6471Z" fill="#92234A"/>
<path d="M132.353 39.7059H150C150 25.1329 150 14.8374 150 0C135.142 0 124.876 0 110.294 0V17.6471H132.353V39.7059Z" fill="#92234A"/>
<path d="M132.353 132.353H110.294V150H150C150 135.142 150 124.876 150 110.294H132.353V132.353Z" fill="#92234A"/>
<path d="M17.6471 110.294H0V150H39.7059V132.353H17.6471V110.294Z" fill="#92234A"/>
</g>
<defs>
<clipPath id="clip0_65_14">
<rect width="150" height="150" fill="white"/>
</clipPath>
</defs>
</svg>
