<svg width="150" height="150" viewBox="0 0 150 150" fill="none" xmlns="http://www.w3.org/2000/svg">
<g clip-path="url(#clip0_64_88)">
<path d="M145.607 0H4.39267C1.96674 0 0 1.96674 0 4.39267V145.607C0 148.033 1.96674 150 4.39267 150H145.607C148.033 150 150 148.033 150 145.607V4.39267C150 1.96674 148.033 0 145.607 0ZM132.976 106.201L130.258 103.445V95.805C130.258 93.3791 128.291 91.4123 125.866 91.4123H118.391L114.697 87.6668V79.3925H141.215V106.201H132.976ZM27.2457 112.692L25.0739 110.551L27.2887 108.304C28.0996 107.482 28.5538 106.375 28.5538 105.22V100.198H33.4467C34.6224 100.198 35.7487 99.7268 36.5742 98.8898L39.696 95.7245L42.818 98.8898C43.6435 99.7268 44.7701 100.198 45.9456 100.198H50.8651V105.247C50.8651 106.402 51.3196 107.51 52.1302 108.332L54.3186 110.55L52.1735 112.665C51.3365 113.491 50.8651 114.618 50.8651 115.793V120.467H46.0633C44.9092 120.467 43.8008 120.921 42.9791 121.732L39.6963 124.969L36.4135 121.732C35.5915 120.921 34.4833 120.467 33.3292 120.467H28.5541V115.82C28.5541 114.644 28.0829 113.518 27.2457 112.692ZM19.7688 95.8053V103.418L17.0248 106.201H8.78534V79.3928H35.3036V87.6671L31.6096 91.4126H24.1614C21.7355 91.4126 19.7688 93.3794 19.7688 95.8053ZM17.0538 44.3727L19.7688 47.0499V54.2524C19.7688 56.6783 21.7355 58.6451 24.1614 58.6451H31.5277L35.3036 62.3686V70.6072H8.78534V44.3727H17.0538ZM122.738 37.7242L124.926 39.9431L122.781 42.0583C121.944 42.8839 121.473 44.0104 121.473 45.1862V49.86H116.671C115.517 49.86 114.409 50.3145 113.587 51.1248L110.304 54.3622L107.021 51.1248C106.199 50.3142 105.091 49.86 103.937 49.86H99.1616V45.2126C99.1616 44.0368 98.6904 42.9102 97.8532 42.0847L95.6814 39.9431L97.8962 37.697C98.7071 36.875 99.1613 35.7672 99.1613 34.6125V29.5905H104.054C105.23 29.5905 106.356 29.1193 107.182 28.2823L110.304 25.117L113.425 28.2823C114.251 29.1193 115.377 29.5905 116.553 29.5905H121.473V34.6397C121.473 35.7944 121.927 36.9025 122.738 37.7242ZM130.258 54.2524V47.0235L132.94 44.3788H141.215V70.6072H114.696V62.3686L118.472 58.6451H125.866C128.291 58.6451 130.258 56.6783 130.258 54.2524ZM90.3762 95.8053V103.418L87.6317 106.201H79.3928V79.3925H105.911V87.6668L102.217 91.4123H94.7689C92.3427 91.4126 90.3762 93.3794 90.3762 95.8053ZM62.3683 106.201L59.6504 103.445V95.805C59.6504 93.3791 57.6837 91.4123 55.2577 91.4123H47.7829L44.0889 87.6668V79.3925H70.6075V106.201H62.3683ZM59.6507 54.2524V47.0235L62.3329 44.3788H70.6075V70.6072H44.0889V62.3686L47.8649 58.6451H55.258C57.6839 58.6451 59.6507 56.6783 59.6507 54.2524ZM87.6674 44.3788L90.3762 47.0499V54.2524C90.3762 56.6783 92.343 58.6451 94.7689 58.6451H102.135L105.911 62.3686V70.6072H79.3928V44.3788H87.6674ZM105.911 17.0597L102.217 20.8051H94.7686C92.3427 20.8051 90.376 22.7719 90.376 25.1978V32.8109L87.6314 35.5935H79.3925V8.78534H105.911V17.0597ZM70.6075 35.5935H62.3686L59.6507 32.8378V25.1978C59.6507 22.7719 57.6839 20.8051 55.258 20.8051H47.7832L44.0892 17.0597V8.78534H70.6078V35.5935H70.6075ZM36.5745 28.2823L39.6963 25.117L42.8183 28.2823C43.6438 29.1193 44.7704 29.5905 45.9459 29.5905H50.8654V34.6397C50.8654 35.7941 51.3199 36.9025 52.1304 37.7242L54.3189 39.9428L52.1738 42.0581C51.3368 42.8836 50.8654 44.0102 50.8654 45.1859V49.8597H46.0636C44.9095 49.8597 43.8011 50.3142 42.9793 51.1245L39.6966 54.3616L36.4138 51.1245C35.5918 50.3139 34.4836 49.8597 33.3295 49.8597H28.5541V45.2123C28.5541 44.0365 28.0829 42.9099 27.2457 42.0844L25.0739 39.9428L27.2887 37.6967C28.0996 36.8747 28.5538 35.7669 28.5538 34.6122V29.5902H33.4467C34.6227 29.5905 35.749 29.1196 36.5745 28.2823ZM44.0889 132.976L47.8649 129.253H55.258C57.6839 129.253 59.6507 127.286 59.6507 124.86V117.631L62.3326 114.986H70.6075V141.215H44.0889V132.976ZM79.3928 114.986H87.6674L90.3762 117.657V124.86C90.3762 127.286 92.343 129.253 94.7689 129.253H102.135L105.911 132.976V141.215H79.3928V114.986ZM113.587 121.732L110.304 124.969L107.021 121.732C106.199 120.921 105.091 120.467 103.936 120.467H99.1613V115.82C99.1613 114.644 98.6901 113.518 97.8529 112.692L95.6811 110.551L97.8959 108.304C98.7068 107.482 99.161 106.375 99.161 105.22V100.198H104.054C105.229 100.198 106.356 99.7268 107.181 98.8898L110.303 95.7245L113.425 98.8898C114.25 99.7268 115.377 100.198 116.553 100.198H121.473V105.247C121.473 106.402 121.927 107.51 122.738 108.332L124.926 110.551L122.781 112.666C121.944 113.491 121.473 114.618 121.473 115.794V120.467H116.671C115.517 120.467 114.409 120.922 113.587 121.732ZM141.215 35.5935H132.976L130.258 32.8381V25.1978C130.258 22.7719 128.291 20.8051 125.866 20.8051H118.391L114.697 17.0597V8.78534H141.215L141.215 35.5935ZM35.3036 8.78534V17.06L31.6096 20.8054H24.1614C21.7355 20.8054 19.7688 22.7722 19.7688 25.1981V32.8112L17.0304 35.5877H8.78534V8.78534H35.3036ZM8.78534 114.986H17.0597L19.7688 117.658V124.86C19.7688 127.286 21.7355 129.253 24.1614 129.253H31.5277L35.3036 132.976V141.215H8.78534V114.986ZM114.696 141.215V132.976L118.472 129.253H125.866C128.291 129.253 130.258 127.286 130.258 124.86V117.631L132.94 114.986H141.215V141.215H114.696Z" fill="#92234A"/>
<path d="M39.6964 44.3728C42.1223 44.3728 44.089 42.406 44.089 39.9801C43.8577 34.1534 35.5342 34.1548 35.3037 39.9801C35.3037 42.4063 37.2705 44.3728 39.6964 44.3728Z" fill="#92234A"/>
<path d="M39.6964 114.986C42.1223 114.986 44.089 113.02 44.089 110.594C43.8577 104.767 35.5342 104.768 35.3037 110.594C35.3037 113.02 37.2705 114.986 39.6964 114.986Z" fill="#92234A"/>
<path d="M110.304 35.5874C107.878 35.5874 105.911 37.5541 105.911 39.9801C106.142 45.8068 114.466 45.8053 114.696 39.9801C114.696 37.5541 112.73 35.5874 110.304 35.5874Z" fill="#92234A"/>
<path d="M110.304 106.201C107.878 106.201 105.911 108.168 105.911 110.594C106.142 116.42 114.466 116.419 114.696 110.594C114.696 108.168 112.73 106.201 110.304 106.201Z" fill="#92234A"/>
</g>
<defs>
<clipPath id="clip0_64_88">
<rect width="150" height="150" fill="white"/>
</clipPath>
</defs>
</svg>
