<svg width="150" height="150" viewBox="0 0 150 150" fill="none" xmlns="http://www.w3.org/2000/svg">
<g clip-path="url(#clip0_65_8)">
<path d="M98.8207 65.1258C100.453 62.8742 101.333 60.1644 101.333 57.3832V50.7141C101.333 50.1703 101.117 49.6488 100.732 49.2643C100.348 48.8798 99.8262 48.6636 99.2824 48.6633H92.6133C89.8321 48.6639 87.1223 49.5433 84.8707 51.1758C84.4325 48.4269 83.1354 45.8872 81.1652 43.9207L76.4496 39.2063C76.2593 39.0157 76.0334 38.8645 75.7846 38.7614C75.5359 38.6582 75.2693 38.6051 75 38.6051C74.7307 38.6051 74.4641 38.6582 74.2153 38.7614C73.9666 38.8645 73.7406 39.0157 73.5504 39.2063L68.8348 43.9207C66.8639 45.8872 65.5667 48.4274 65.1293 51.177C62.8781 49.5434 60.1681 48.6636 57.3867 48.6633H50.7176C50.1738 48.6636 49.6523 48.8798 49.2678 49.2643C48.8833 49.6488 48.6671 50.1703 48.6668 50.7141V57.3832C48.6674 60.1644 49.5468 62.8742 51.1793 65.1258C48.4306 65.5637 45.8913 66.8609 43.9254 68.8313L39.2098 73.5469C39.0192 73.7371 38.868 73.9631 38.7649 74.2118C38.6617 74.4606 38.6086 74.7272 38.6086 74.9965C38.6086 75.2658 38.6617 75.5324 38.7649 75.7811C38.868 76.0299 39.0192 76.2558 39.2098 76.4461L43.9254 81.1617C45.8913 83.1321 48.4306 84.4292 51.1793 84.8672C49.5468 87.1188 48.6674 89.8286 48.6668 92.6098V99.2789C48.6668 99.8228 48.8829 100.344 49.2675 100.729C49.6521 101.114 50.1737 101.33 50.7176 101.33H57.3867C60.1679 101.329 62.8778 100.45 65.1293 98.8172C65.5675 101.566 66.8646 104.106 68.8348 106.072L73.5504 110.787C73.7406 110.977 73.9666 111.128 74.2153 111.232C74.4641 111.335 74.7307 111.388 75 111.388C75.2693 111.388 75.5359 111.335 75.7846 111.232C76.0334 111.128 76.2593 110.977 76.4496 110.787L81.1652 106.072C83.1354 104.106 84.4325 101.566 84.8707 98.8172C87.1222 100.45 89.8321 101.329 92.6133 101.33H99.2824C99.8263 101.33 100.348 101.114 100.733 100.729C101.117 100.344 101.333 99.8228 101.333 99.2789V92.6098C101.333 89.8286 100.453 87.1188 98.8207 84.8672C101.57 84.429 104.109 83.1319 106.076 81.1617L110.79 76.4461C110.981 76.2558 111.132 76.0299 111.235 75.7811C111.338 75.5324 111.391 75.2658 111.391 74.9965C111.391 74.7272 111.338 74.4606 111.235 74.2118C111.132 73.9631 110.981 73.7371 110.79 73.5469L106.076 68.8313C104.109 66.8611 101.57 65.564 98.8207 65.1258ZM82.5773 76.4461L85.459 79.3277H81.382C80.8381 79.3277 80.3165 79.5438 79.9319 79.9284C79.5473 80.313 79.3312 80.8346 79.3312 81.3785V85.4555L76.4496 82.5738C76.2593 82.3833 76.0334 82.2321 75.7846 82.1289C75.5359 82.0258 75.2693 81.9727 75 81.9727C74.7307 81.9727 74.4641 82.0258 74.2153 82.1289C73.9666 82.2321 73.7406 82.3833 73.5504 82.5738L70.6641 85.4555V81.3785C70.6637 80.8347 70.4476 80.3133 70.0631 79.9287C69.6785 79.5442 69.1571 79.3281 68.6133 79.3277H64.5422L67.4238 76.4461C67.8081 76.0615 68.024 75.5401 68.024 74.9965C68.024 74.4528 67.8081 73.9314 67.4238 73.5469L64.5422 70.6641H68.6168C69.1607 70.6641 69.6823 70.448 70.0669 70.0634C70.4515 69.6788 70.6676 69.1572 70.6676 68.6133V64.5375L73.5504 67.4191C73.7406 67.6097 73.9666 67.7609 74.2153 67.864C74.4641 67.9672 74.7307 68.0203 75 68.0203C75.2693 68.0203 75.5359 67.9672 75.7846 67.864C76.0334 67.7609 76.2593 67.6097 76.4496 67.4191L79.3359 64.5375V68.6145C79.3358 68.8838 79.3887 69.1506 79.4917 69.3994C79.5947 69.6483 79.7458 69.8745 79.9363 70.0649C80.1267 70.2554 80.3529 70.4064 80.6017 70.5094C80.8506 70.6125 81.1174 70.6654 81.3867 70.6652H85.4637L82.5773 73.5469C82.3868 73.7371 82.2356 73.9631 82.1325 74.2118C82.0293 74.4606 81.9762 74.7272 81.9762 74.9965C81.9762 75.2658 82.0293 75.5324 82.1325 75.7811C82.2356 76.0299 82.3868 76.2558 82.5773 76.4461ZM92.6133 52.7648H97.2316V57.3832C97.2286 59.1356 96.7244 60.8506 95.7787 62.3258C94.8329 63.8011 93.4849 64.9751 91.8937 65.7094C89.707 66.9129 85.841 66.5004 83.4328 66.5637C83.4973 64.1379 83.0812 60.3035 84.2871 58.1027C85.0214 56.5116 86.1954 55.1636 87.6706 54.2178C89.1459 53.272 90.8609 52.7679 92.6133 52.7648ZM71.7352 46.8211L75 43.5563L78.2648 46.8211C79.5015 48.0552 80.3589 49.6177 80.7356 51.3237C81.1123 53.0297 80.9926 54.8079 80.3906 56.4481C79.6875 58.8703 76.6711 61.3078 75 63.0691C73.3137 61.2961 70.3125 58.8809 69.6094 56.4492C69.0079 54.8085 68.8889 53.0298 69.2664 51.3236C69.644 49.6173 70.5023 48.0549 71.7398 46.8211H71.7352ZM52.7684 52.7648H57.3867C59.14 52.7678 60.8559 53.2725 62.3315 54.2194C63.8072 55.1664 64.9809 56.5159 65.7141 58.1086C66.9152 60.293 66.5039 64.1578 66.566 66.5637C64.1426 66.4992 60.3082 66.9152 58.1086 65.7106C56.5168 64.9765 55.1682 63.8025 54.222 62.327C53.2758 60.8515 52.7714 59.1361 52.7684 57.3832V52.7648ZM43.5598 75L46.8246 71.7352C48.0582 70.4977 49.6204 69.6394 51.3265 69.2619C53.0325 68.8843 54.811 69.0033 56.4516 69.6047C58.8738 70.3078 61.3113 73.3242 63.0727 74.9953C61.2973 76.6828 58.8832 79.6828 56.4492 80.3918C54.8088 80.9924 53.0308 81.1109 51.3253 80.7331C49.6197 80.3554 48.058 79.4973 46.8246 78.2602L43.5598 75ZM57.3879 97.2316H52.7684V92.6098C52.7714 90.8569 53.2758 89.1415 54.222 87.666C55.1682 86.1905 56.5168 85.0164 58.1086 84.2824C60.2941 83.0801 64.1602 83.4926 66.566 83.4293C66.5016 85.8516 66.9176 89.6859 65.7141 91.8844C64.9809 93.4771 63.8072 94.8266 62.3315 95.7736C60.8559 96.7205 59.14 97.2252 57.3867 97.2281L57.3879 97.2316ZM78.2648 103.172L75 106.437L71.7352 103.172C70.4973 101.938 69.6391 100.375 69.2624 98.6685C68.8856 96.9618 69.006 95.1829 69.6094 93.5426C70.3125 91.1227 73.3289 88.684 75 86.9238C76.6863 88.6981 79.6875 91.1121 80.3906 93.5438C80.9921 95.1845 81.1111 96.9632 80.7336 98.6694C80.356 100.376 79.4977 101.938 78.2601 103.172H78.2648ZM97.2316 97.2281H92.6133C90.8609 97.2251 89.1459 96.7209 87.6706 95.7752C86.1954 94.8294 85.0214 93.4814 84.2871 91.8902C83.0836 89.7035 83.4961 85.8375 83.4328 83.4293C85.8586 83.4938 89.693 83.0777 91.8937 84.2848C93.4842 85.0184 94.8317 86.1914 95.7775 87.6656C96.7232 89.1398 97.2278 90.8536 97.2316 92.6051V97.2281ZM103.175 78.2613C101.941 79.4981 100.379 80.3558 98.6731 80.7331C96.9672 81.1104 95.189 80.9916 93.5484 80.3906C91.1262 79.6875 88.6887 76.6699 86.9273 74.9941C88.7016 73.3078 91.1156 70.3066 93.5473 69.6035C95.188 69.002 96.9667 68.883 98.6729 69.2606C100.379 69.6381 101.942 70.4964 103.175 71.734L106.44 75L103.175 78.2613Z" fill="#92234A"/>
<path d="M126.694 73.5469L112.578 59.4316V39.4687C112.579 39.1994 112.526 38.9326 112.423 38.6838C112.32 38.4349 112.169 38.2087 111.978 38.0183C111.788 37.8278 111.562 37.6768 111.313 37.5737C111.064 37.4707 110.797 37.4178 110.528 37.418H90.5648L76.4496 23.3027C76.2593 23.1122 76.0333 22.961 75.7846 22.8578C75.5359 22.7547 75.2692 22.7016 74.9999 22.7016C74.7307 22.7016 74.464 22.7547 74.2153 22.8578C73.9666 22.961 73.7406 23.1122 73.5503 23.3027L59.4339 37.418H39.4722C39.2029 37.4178 38.9361 37.4707 38.6872 37.5737C38.4384 37.6768 38.2122 37.8278 38.0218 38.0183C37.8313 38.2087 37.6802 38.4349 37.5772 38.6838C37.4742 38.9326 37.4213 39.1994 37.4214 39.4687V59.4316L23.3062 73.5469C23.1156 73.7371 22.9645 73.9631 22.8613 74.2118C22.7582 74.4606 22.7051 74.7272 22.7051 74.9965C22.7051 75.2657 22.7582 75.5324 22.8613 75.7811C22.9645 76.0299 23.1156 76.2558 23.3062 76.4461L37.4214 90.5613V110.525C37.4214 111.069 37.6375 111.591 38.0221 111.975C38.4067 112.36 38.9283 112.576 39.4722 112.576H59.4339L73.5503 126.69C73.7406 126.881 73.9666 127.032 74.2153 127.135C74.464 127.238 74.7307 127.291 74.9999 127.291C75.2692 127.291 75.5359 127.238 75.7846 127.135C76.0333 127.032 76.2593 126.881 76.4496 126.69L90.5648 112.576H110.528C111.072 112.576 111.593 112.36 111.978 111.975C112.362 111.591 112.578 111.069 112.578 110.525V90.5613L126.694 76.4461C126.884 76.2558 127.035 76.0299 127.139 75.7811C127.242 75.5324 127.295 75.2657 127.295 74.9965C127.295 74.7272 127.242 74.4606 127.139 74.2118C127.035 73.9631 126.884 73.7371 126.694 73.5469ZM109.078 88.2621C108.694 88.6471 108.477 89.1688 108.477 89.7129V108.475H89.7164C89.1723 108.474 88.6505 108.69 88.2656 109.075L74.9999 122.344L61.7343 109.075C61.5438 108.884 61.3176 108.733 61.0686 108.63C60.8197 108.527 60.5529 108.474 60.2835 108.475H41.523V89.7129C41.5225 89.1688 41.3063 88.6471 40.9218 88.2621L27.6562 75L40.9218 61.7344C41.3063 61.3498 41.5225 60.8285 41.523 60.2848V41.5195H60.2835C60.8277 41.5194 61.3496 41.3032 61.7343 40.9183L74.9999 27.6562L88.2656 40.9219C88.6504 41.3066 89.1722 41.5228 89.7164 41.523H108.477V60.2812C108.477 60.825 108.694 61.3463 109.078 61.7308L122.344 75L109.078 88.2621Z" fill="#92234A"/>
<path d="M75 0C60.1664 0 45.666 4.39867 33.3323 12.6398C20.9986 20.8809 11.3856 32.5943 5.70907 46.2987C0.0324961 60.0032 -1.45275 75.0832 1.44114 89.6318C4.33503 104.18 11.4781 117.544 21.967 128.033C32.456 138.522 45.8197 145.665 60.3683 148.559C74.9168 151.453 89.9968 149.968 103.701 144.291C117.406 138.614 129.119 129.001 137.36 116.668C145.601 104.334 150 89.8336 150 75C149.978 55.1156 142.069 36.052 128.008 21.9917C113.948 7.93127 94.8844 0.0223323 75 0ZM75 145.898C60.9776 145.898 47.2702 141.74 35.611 133.95C23.9518 126.159 14.8646 115.087 9.49842 102.132C4.13228 89.1767 2.72826 74.9214 5.46389 61.1684C8.19952 47.4155 14.9519 34.7826 24.8673 24.8672C34.7826 14.9519 47.4155 8.19949 61.1684 5.46386C74.9214 2.72822 89.1767 4.13225 102.132 9.49838C115.087 14.8645 126.16 23.9517 133.95 35.6109C141.74 47.2701 145.898 60.9776 145.898 75C145.877 93.7969 138.401 111.818 125.109 125.109C111.818 138.401 93.7969 145.877 75 145.898Z" fill="#92234A"/>
<path d="M75 11.7188C62.4842 11.7188 50.2494 15.4301 39.8428 22.3836C29.4363 29.337 21.3254 39.2202 16.5358 50.7833C11.7462 62.3465 10.493 75.0702 12.9347 87.3456C15.3764 99.6209 21.4034 110.897 30.2534 119.747C39.1035 128.597 50.3791 134.624 62.6545 137.065C74.9298 139.507 87.6536 138.254 99.2167 133.464C110.78 128.675 120.663 120.564 127.616 110.157C134.57 99.7506 138.281 87.5158 138.281 75C138.262 58.2226 131.589 42.1377 119.726 30.2743C107.862 18.4109 91.7775 11.7377 75 11.7188ZM75 134.18C63.2954 134.18 51.8536 130.709 42.1216 124.206C32.3895 117.703 24.8043 108.461 20.3251 97.6471C15.846 86.8334 14.674 74.9343 16.9575 63.4546C19.2409 51.9749 24.8772 41.4301 33.1537 33.1536C41.4301 24.8772 51.9749 19.2409 63.4546 16.9574C74.9344 14.674 86.8334 15.8459 97.6471 20.3251C108.461 24.8043 117.703 32.3895 124.206 42.1215C130.709 51.8536 134.18 63.2954 134.18 75C134.162 90.69 127.921 105.732 116.827 116.827C105.732 127.921 90.69 134.162 75 134.18Z" fill="#92234A"/>
</g>
<defs>
<clipPath id="clip0_65_8">
<rect width="150" height="150" fill="white"/>
</clipPath>
</defs>
</svg>
