<svg width="150" height="150" viewBox="0 0 150 150" fill="none" xmlns="http://www.w3.org/2000/svg">
<path d="M149.422 148.812C149.794 148.311 150 147.693 150 147.069V87.6038C150 85.986 148.688 84.6741 147.07 84.6741C145.452 84.6741 144.141 85.986 144.141 87.6038V139.997L129.646 125.503C130.886 123.518 131.606 121.176 131.606 118.668V31.3321C131.606 28.824 130.886 26.482 129.646 24.4972L144.141 10.0028V61.7191C144.141 63.3369 145.452 64.6488 147.07 64.6488C148.688 64.6488 150 63.3369 150 61.7191V2.93115C150.001 1.33682 148.667 0 147.07 0H2.92969C1.33623 0 0 1.33447 0 2.92969V147.07C0 148.665 1.33447 150 2.92969 150H147.07C147.991 150 148.875 149.549 149.422 148.812ZM125.747 118.668C125.747 122.571 122.571 125.746 118.668 125.746H82.0726L125.747 82.0737V118.668ZM24.2543 31.3321C24.2543 27.4292 27.4295 24.2537 31.3327 24.2537H67.9269L24.2543 67.9263V31.3321ZM52.3345 48.1324L74.9997 25.4672L97.7757 48.2432L90.8936 55.1121H83.6572L77.0566 49.0342C75.91 47.9786 74.1375 48.0056 73.0233 49.0951L66.873 55.1121H59.3268L52.3345 48.1324ZM95.0353 90.7427V83.2169L101.39 77.1135C102.573 75.9776 102.573 74.0241 101.39 72.8877L95.0353 66.7831V59.2573L101.919 52.3866L124.532 75L101.919 97.6134L101.847 97.5422L95.0353 90.7427ZM60.1447 70.1077C60.7192 69.5552 61.0441 68.7926 61.0441 67.9954V60.9718H68.0678C68.8336 60.9718 69.5692 60.6721 70.1165 60.1362L75.133 55.2284L80.5289 60.1972C81.0697 60.6952 81.7781 60.9718 82.5135 60.9718H89.1756V68.0314C89.1756 68.8289 89.5005 69.5918 90.0756 70.1443L95.1311 75.0003L90.0759 79.8557C89.5008 80.4079 89.1756 81.1708 89.1756 81.9686V89.0282H82.5135C81.7471 89.0282 81.0111 89.3285 80.4636 89.8647L75.1351 95.0839L70.1801 89.9276C69.6275 89.3528 68.8649 89.0279 68.0678 89.0279H61.0441V82.0043C61.0441 81.2068 60.7192 80.4442 60.1444 79.8917L55.0538 75L60.1447 70.1077ZM59.3265 94.8876H66.8197L72.9595 101.277C74.0736 102.437 75.9735 102.464 77.122 101.34L83.7094 94.8879H90.8936L97.7754 101.757L74.9994 124.533L52.3345 101.868L59.3265 94.8876ZM48.1913 52.2756L55.1848 59.257V66.7474L48.7954 72.888C47.6133 74.0244 47.6133 75.9768 48.7957 77.1129L55.1848 83.252V90.7424L48.1913 97.7241L25.4672 75L48.1913 52.2756ZM24.2543 118.668V82.0743L67.9266 125.746H31.3324C27.4295 125.746 24.2543 122.571 24.2543 118.668ZM82.0726 24.2537H118.668C122.571 24.2537 125.747 27.4292 125.747 31.3321V67.9274L82.0726 24.2537ZM118.668 18.3943H31.3324C28.8246 18.3943 26.4823 19.1139 24.4978 20.3543L10.0025 5.85938H139.997L125.503 20.354C123.518 19.1139 121.176 18.3943 118.668 18.3943ZM20.3546 24.4975C19.1145 26.4823 18.3949 28.8243 18.3949 31.3321V118.668C18.3949 121.175 19.1145 123.517 20.3546 125.502L5.85938 139.997V10.0025L20.3546 24.4975ZM24.4978 129.646C26.4826 130.886 28.8246 131.606 31.3324 131.606H118.668C121.176 131.606 123.518 130.886 125.503 129.646L139.997 144.141H10.0025L24.4978 129.646Z" fill="#92234A"/>
<path d="M148.696 72.029C146.491 70.5618 143.536 72.6765 144.249 75.244C144.596 76.4941 145.769 77.3959 147.07 77.3933C148.289 77.3906 149.404 76.6081 149.821 75.4649C150.276 74.2204 149.81 72.7594 148.696 72.029Z" fill="#92234A"/>
</svg>
