<svg width="151" height="151" viewBox="0 0 151 151" fill="none" xmlns="http://www.w3.org/2000/svg">
<path d="M140.306 65.3054C138.243 63.2427 135.662 61.8853 132.857 61.3543C132.326 58.5494 130.969 55.9689 128.906 53.906C120.484 45.4841 106.78 45.4841 98.3579 53.906L87.6623 64.6016L87.1142 64.0535L97.8098 53.3579C106.232 44.9357 106.232 31.2318 97.8096 22.8095C95.7468 20.7467 93.1664 19.3893 90.3616 18.8584C89.8306 16.0535 88.4732 13.473 86.4104 11.4103L75.8579 0.85791L65.3054 11.4103C63.2427 13.473 61.8853 16.0535 61.3543 18.8584C58.5493 19.3894 55.9689 20.7469 53.9063 22.8096C49.8264 26.8894 47.5795 32.314 47.5795 38.0838C47.5795 43.8535 49.8264 49.2781 53.9062 53.3578L64.6017 64.0535L64.0535 64.6016L53.3579 53.906C44.9359 45.4843 31.2321 45.484 22.8095 53.9062C20.7467 55.9689 19.3894 58.5494 18.8584 61.3543C16.0535 61.8853 13.473 63.2427 11.4103 65.3054L0.85791 75.8579L11.4103 86.4104C13.473 88.4732 16.0535 89.8306 18.8584 90.3616C19.3894 93.1664 20.7469 95.7469 22.8096 97.8098C27.0207 102.021 32.5523 104.126 38.0838 104.126C43.6152 104.126 49.1468 102.021 53.3579 97.8098L64.0535 87.1142L64.6016 87.6623L53.906 98.3579C45.484 106.78 45.484 120.484 53.9062 128.906C55.9689 130.969 58.5494 132.326 61.3543 132.857C61.8853 135.662 63.2427 138.243 65.3054 140.306L75.8579 150.858L86.4104 140.306C88.4732 138.243 89.8306 135.662 90.3616 132.857C93.1664 132.326 95.7469 130.969 97.8098 128.906C106.232 120.484 106.232 106.78 97.8098 98.3579L87.1142 87.6623L87.6623 87.1142L98.3579 97.8098C102.569 102.021 108.1 104.126 113.632 104.126C119.164 104.126 124.695 102.021 128.906 97.8096C130.969 95.7469 132.326 93.1664 132.857 90.3616C135.662 89.8306 138.243 88.4732 140.306 86.4104L150.858 75.8579L140.306 65.3054ZM102.532 58.0797C108.652 51.9589 118.612 51.9587 124.733 58.0798C126.328 59.6754 127.207 61.7969 127.207 64.0535V66.3723L125.735 64.9003C122.502 61.6675 118.204 59.8872 113.632 59.8872C109.06 59.8872 104.762 61.6675 101.529 64.9003L93.4425 72.9869C93.1062 71.5647 92.5158 70.1916 91.6723 68.9389L102.532 58.0797ZM128.346 75.8579L121.562 82.6418C119.443 84.7599 116.627 85.9264 113.632 85.9264C110.637 85.9264 107.821 84.7599 105.703 82.6418L98.9185 75.8579L105.703 69.074C107.821 66.9559 110.637 65.7894 113.632 65.7894C116.627 65.7894 119.443 66.9559 121.562 69.074L128.346 75.8579ZM82.6419 105.703C84.7599 107.821 85.9264 110.637 85.9264 113.632C85.9264 116.627 84.7599 119.443 82.6419 121.562L75.8579 128.346L69.074 121.562C66.9559 119.443 65.7894 116.627 65.7894 113.632C65.7894 110.637 66.9559 107.821 69.0741 105.702L75.8579 98.9185L82.6419 105.703ZM71.2671 85.9806L65.7352 80.4487C63.2038 77.9173 63.2038 73.7985 65.7352 71.2671L71.2671 65.7352C72.5327 64.4695 74.1953 63.8366 75.8579 63.8366C77.5205 63.8366 79.1831 64.4695 80.4487 65.7352L85.9806 71.2671C88.5121 73.7985 88.5121 77.9173 85.9806 80.4487L80.4487 85.9806C77.9175 88.5121 73.7983 88.5121 71.2671 85.9806ZM69.074 46.0133C66.9559 43.8952 65.7894 41.0791 65.7894 38.0838C65.7894 35.0884 66.9559 32.2723 69.074 30.1543L75.8579 23.3702L82.6419 30.1543C84.7599 32.2723 85.9264 35.0884 85.9264 38.0838C85.9264 41.0791 84.7599 43.8952 82.6419 46.0133L75.8579 52.7974L69.074 46.0133ZM87.6623 24.5087C89.9189 24.5087 92.0406 25.3875 93.6362 26.9833C99.7571 33.1041 99.7571 43.0635 93.6362 49.1843L82.7769 60.0436C81.5242 59.2001 80.1511 58.6097 78.7288 58.2734L86.8155 50.1869C90.0483 46.9539 91.8286 42.6557 91.8286 38.0838C91.8286 33.5119 90.0483 29.2136 86.8155 25.9806L85.3435 24.5087L87.6623 24.5087ZM69.479 15.5839L75.8579 9.20487L82.2368 15.5839C83.8325 17.1795 84.7112 19.301 84.7112 21.5576V23.8764L75.8579 15.0232L67.0046 23.8764V21.5576C67.0046 19.301 67.8833 17.1795 69.479 15.5839ZM53.4817 38.0838C53.4817 33.8904 55.1146 29.9482 58.0798 26.9831C59.6754 25.3874 61.7969 24.5087 64.0535 24.5087H66.3723L64.9004 25.9806C61.6675 29.2136 59.8872 33.5119 59.8872 38.0838C59.8872 42.6557 61.6675 46.9539 64.9004 50.1869L72.987 58.2734C71.5648 58.6097 70.1917 59.2001 68.939 60.0436L58.0797 49.1843C55.1146 46.2193 53.4817 42.277 53.4817 38.0838ZM26.9833 58.0797C33.1039 51.9587 43.0636 51.9587 49.1843 58.0797L60.0435 68.9389C59.2 70.1916 58.6097 71.5647 58.2734 72.9869L50.1869 64.9003C46.9539 61.6675 42.6557 59.8872 38.0838 59.8872C33.5119 59.8872 29.2136 61.6675 25.9806 64.9003L24.5087 66.3723V64.0535C24.5087 61.7969 25.3875 59.6752 26.9833 58.0797ZM52.7974 75.8579L46.0133 82.6418C43.8952 84.7599 41.0791 85.9264 38.0838 85.9264C35.0884 85.9264 32.2723 84.7599 30.1543 82.6418L23.3702 75.8579L30.1543 69.074C32.2723 66.9559 35.0884 65.7894 38.0838 65.7894C41.0791 65.7894 43.8952 66.9559 46.0133 69.074L52.7974 75.8579ZM21.5576 84.7112C19.301 84.7112 17.1795 83.8325 15.5839 82.2368L9.20487 75.8579L15.5839 69.479C17.1795 67.8833 19.301 67.0046 21.5576 67.0046H23.8764L15.0232 75.8579L23.8764 84.7112H21.5576ZM49.1843 93.6362C43.0636 99.757 33.1041 99.7571 26.9831 93.636C25.3874 92.0404 24.5087 89.9189 24.5087 87.6623V85.3435L25.9806 86.8155C29.2136 90.0483 33.5119 91.8286 38.0838 91.8286C42.6557 91.8286 46.9539 90.0483 50.1869 86.8155L58.2734 78.7289C58.6097 80.1511 59.2 81.5242 60.0435 82.7769L49.1843 93.6362ZM64.0535 127.207C61.7969 127.207 59.6753 126.328 58.0797 124.733C51.9587 118.612 51.9587 108.652 58.0797 102.532L68.9389 91.6723C70.1916 92.5158 71.5648 93.1062 72.987 93.4425L64.9006 101.529C61.6677 104.762 59.8872 109.06 59.8872 113.632C59.8872 118.204 61.6677 122.502 64.9006 125.735L66.3726 127.207L64.0535 127.207ZM82.2368 136.132L75.8579 142.511L69.479 136.132C67.8833 134.536 67.0046 132.415 67.0046 130.158V127.839L75.8579 136.693L84.7112 127.839V130.158C84.7112 132.415 83.8325 134.536 82.2368 136.132ZM93.636 124.733C92.0404 126.328 89.9189 127.207 87.6623 127.207H85.3435L86.8155 125.735C90.0483 122.502 91.8286 118.204 91.8286 113.632C91.8286 109.06 90.0483 104.762 86.8155 101.529L78.7289 93.4425C80.1511 93.1062 81.5242 92.5158 82.7769 91.6723L93.6362 102.532C99.7571 108.652 99.7571 118.612 93.636 124.733ZM124.733 93.6362C118.612 99.7571 108.652 99.7571 102.532 93.6362L91.6723 82.7769C92.5158 81.5242 93.1062 80.1511 93.4425 78.7289L101.529 86.8155C104.762 90.0483 109.06 91.8286 113.632 91.8286C118.204 91.8286 122.502 90.0483 125.735 86.8155L127.207 85.3435V87.6623C127.207 89.9189 126.328 92.0406 124.733 93.6362ZM136.132 82.2368C134.536 83.8325 132.415 84.7112 130.158 84.7112H127.839L136.693 75.8579L127.839 67.0046H130.158C132.415 67.0046 134.536 67.8833 136.132 69.479L142.511 75.8579L136.132 82.2368Z" fill="#92234A"/>
</svg>
