<svg width="150" height="150" viewBox="0 0 150 150" fill="none" xmlns="http://www.w3.org/2000/svg">
<path d="M143.658 0H143.553H6.44736H6.34277C2.84531 0 0 2.84531 0 6.34248V6.44707V143.552V143.657C0 147.155 2.84531 150 6.34248 150H6.44707H143.552H143.657C147.154 150 149.999 147.155 149.999 143.658V143.553V6.44736V6.34277C150 2.84531 147.155 0 143.658 0ZM145.605 124.282H129.637C129.638 124.236 129.644 124.191 129.644 124.144V97.9857C129.644 97.759 129.732 97.5457 129.892 97.3852L145.605 81.6721V124.282ZM124.282 145.605H81.6724L97.3854 129.892C97.546 129.732 97.759 129.644 97.9857 129.644H124.144C124.191 129.644 124.236 129.638 124.282 129.637V145.605H124.282ZM145.282 75.7811L126.785 94.2779C125.795 95.2685 125.249 96.5851 125.249 97.9857V124.144C125.249 124.753 124.754 125.249 124.144 125.249H97.9857C96.5854 125.249 95.2685 125.794 94.2779 126.785L75.7808 145.282C75.4995 145.564 75.1708 145.605 75 145.605C74.8292 145.605 74.5005 145.564 74.2189 145.282L55.7221 126.785C54.7318 125.795 53.4149 125.249 52.014 125.249H25.8554C25.2463 125.249 24.7506 124.754 24.7506 124.145V97.986C24.7506 96.5854 24.2051 95.2688 23.2146 94.2782L4.71768 75.7813C4.43643 75.4995 4.39453 75.1708 4.39453 75C4.39453 74.8292 4.43643 74.5005 4.71797 74.2189L23.2148 55.7221C24.2054 54.7315 24.7509 53.4149 24.7509 52.0143V25.8554C24.7509 25.2463 25.2463 24.7506 25.8557 24.7506H52.0143C53.4149 24.7506 54.7318 24.2051 55.7221 23.2146L74.2192 4.71768C74.6499 4.2873 75.3507 4.28672 75.7813 4.71768L95.1706 24.1069C95.5825 24.5191 96.1415 24.7506 96.7242 24.7506H124.145C124.754 24.7506 125.249 25.246 125.249 25.8554V52.0143C125.249 53.4147 125.795 54.7315 126.785 55.7221L145.282 74.2189C145.564 74.5005 145.606 74.8292 145.606 75C145.606 75.1708 145.563 75.4995 145.282 75.7811ZM124.282 20.3634C124.236 20.3622 124.191 20.3563 124.145 20.3563H97.6342L81.6724 4.39453H124.282V20.3634H124.282ZM25.718 4.39453H68.3279L52.6143 20.1076C52.454 20.2679 52.2407 20.3563 52.014 20.3563H25.8554C25.8088 20.3563 25.764 20.3622 25.7177 20.3634L25.718 4.39453ZM4.39453 25.718H20.3634C20.3622 25.7643 20.3563 25.8091 20.3563 25.8557V52.0146C20.3563 52.2413 20.2679 52.4543 20.1076 52.6148L4.39453 68.3276V25.718ZM4.39453 81.6724L20.1076 97.3854C20.2679 97.546 20.3563 97.759 20.3563 97.986V124.145C20.3563 124.191 20.3622 124.236 20.3634 124.282H4.39453V81.6724ZM25.718 129.637C25.7643 129.638 25.8091 129.644 25.8557 129.644H52.0143C52.241 129.644 52.454 129.732 52.6146 129.892L68.3276 145.605H25.718V129.637ZM129.892 52.6146C129.732 52.454 129.644 52.241 129.644 52.0143V25.8554C129.644 25.8088 129.638 25.764 129.637 25.7177H145.605V68.3276L129.892 52.6146ZM143.553 4.39453C144.685 4.39453 145.605 5.31533 145.605 6.44736V21.3234H128.677V4.39453H143.553ZM21.3234 4.39453V21.3234H4.39453V6.44736C4.39453 5.31533 5.31533 4.39453 6.44736 4.39453H21.3234ZM6.44736 145.605C5.31533 145.605 4.39453 144.685 4.39453 143.553V128.677H21.3234V145.605H6.44736ZM128.677 145.605V128.677H145.605V143.553C145.605 144.685 144.685 145.605 143.553 145.605H128.677Z" fill="#92234A"/>
<path d="M112.523 59.4572V40.5077C112.523 38.8363 111.164 37.4767 109.492 37.4767H90.5429L77.144 24.0777C76.5712 23.505 75.8101 23.1895 75.0003 23.1895C74.1906 23.1895 73.4294 23.5047 72.857 24.0774L59.4578 37.4767H40.5083C38.8369 37.4767 37.4769 38.8363 37.4769 40.5077V59.4575L24.078 72.8564C23.5052 73.4289 23.1897 74.1903 23.1897 75.0001C23.1897 75.8099 23.5052 76.5713 24.0777 77.1435L37.4769 90.5427V109.492C37.4769 111.164 38.8369 112.524 40.5083 112.524H59.4581L72.8573 125.923C73.4297 126.496 74.1912 126.811 75.0006 126.811C75.8104 126.811 76.5718 126.496 77.144 125.923L90.5432 112.524H109.493C111.164 112.524 112.524 111.164 112.524 109.492V90.543L125.923 77.144C126.496 76.5713 126.812 75.8102 126.812 75.0004C126.812 74.1906 126.496 73.4292 125.924 72.857L112.523 59.4572ZM109.017 87.8348C108.444 88.4072 108.129 89.1684 108.129 89.9781V108.129H89.9781C89.1683 108.129 88.4072 108.445 87.8347 109.017L75.0001 121.852L62.1654 109.017C61.5929 108.445 60.8318 108.129 60.022 108.129H41.8709V89.9781C41.8709 89.1684 41.5556 88.4072 40.9832 87.8348L28.1485 75.0001L40.984 62.1646C41.5562 61.5921 41.8711 60.831 41.8711 60.0218V41.8712H60.0223C60.8321 41.8712 61.5932 41.556 62.1657 40.9832L75.0001 28.1488L87.8347 40.9835C88.4072 41.5562 89.1683 41.8715 89.9781 41.8715H108.129V60.0224C108.129 60.8315 108.444 61.5924 109.017 62.1657L121.852 75.0001L109.017 87.8348Z" fill="#92234A"/>
<path d="M82.7475 63.0408L82.4536 64.7538C82.2014 66.225 82.7949 67.6843 84.0025 68.5618C85.2102 69.4389 86.7811 69.5523 88.1029 68.8583L89.641 68.0494L91.1794 68.8583C91.7539 69.1603 92.3759 69.3097 92.9949 69.3097C93.7988 69.3097 94.5972 69.0578 95.2798 68.5621C96.4877 67.6846 97.081 66.2253 96.8287 64.7538L96.5349 63.0411L97.7794 61.8279C98.8484 60.7858 99.2261 59.2565 98.7646 57.8365C98.3032 56.4165 97.0988 55.4013 95.6214 55.1866L93.9017 54.9364L93.1326 53.3781C92.472 52.0392 91.134 51.2078 89.6413 51.2078C88.1483 51.2078 86.8103 52.0395 86.15 53.3781L85.381 54.9364L83.6612 55.1866C82.1838 55.401 80.9794 56.4165 80.518 57.8365C80.0565 59.2565 80.4342 60.7858 81.5032 61.8279L82.7475 63.0408ZM86.273 59.2474C87.5416 59.0631 88.6373 58.2671 89.2048 57.1175L89.6413 56.2331L90.0778 57.1175C90.6453 58.2668 91.741 59.0631 93.0093 59.2474L93.9852 59.3892L93.2791 60.0774C92.3612 60.9721 91.9426 62.2606 92.1594 63.5239L92.3261 64.4957L91.4533 64.0369C90.8861 63.7386 90.2639 63.5895 89.6416 63.5895C89.0193 63.5895 88.3968 63.7386 87.8296 64.0369L86.9568 64.4957L87.1235 63.5239C87.3403 62.2606 86.9217 60.9721 86.0038 60.0774L85.2977 59.3889L86.273 59.2474Z" fill="#92234A"/>
<path d="M99.5524 76.3893C98.2596 75.6302 96.6893 75.7688 95.552 76.7432C92.6152 79.2598 88.8673 80.6092 84.9899 80.5404C76.5734 80.3933 69.6066 73.4262 69.4593 65.0101C69.3916 61.1356 70.7401 57.3844 73.2567 54.4477C74.2312 53.3107 74.3697 51.7404 73.6104 50.4469C72.8519 49.1552 71.4146 48.5119 69.95 48.8092C57.6333 51.3007 48.7127 62.2427 48.7391 74.8269C48.7692 89.3725 60.6275 101.231 75.1731 101.261H75.2281C87.7889 101.261 98.7023 92.3485 101.19 80.0497C101.487 78.5845 100.844 77.1478 99.5524 76.3893ZM75.2278 96.8664C75.2132 96.8664 75.1968 96.8664 75.1818 96.8664C63.0494 96.8415 53.1585 86.9506 53.1333 74.8178C53.1134 65.2096 59.3448 56.7493 68.2772 53.7923C66.1227 57.1366 64.9947 61.06 65.0653 65.0872C65.157 70.3228 67.265 75.2634 71.0009 78.9991C74.7365 82.735 79.6774 84.8426 84.9128 84.9343C88.9382 85.0006 92.8631 83.8776 96.2076 81.7225C93.2551 90.6411 84.8179 96.8664 75.2278 96.8664Z" fill="#92234A"/>
</svg>
