<svg xmlns="http://www.w3.org/2000/svg" width="75" height="75.143" viewBox="0 0 75 75.143">
  <g id="Group_2110" data-name="Group 2110" transform="translate(-714 -2424)">
    <circle id="Ellipse_123" data-name="Ellipse 123" cx="37.5" cy="37.5" r="37.5" transform="translate(714 2424)" fill="#fff"/>
    <g id="Group_680" data-name="Group 680" transform="translate(714.129 2424.491)">
      <g id="Group_679" data-name="Group 679" transform="translate(0)">
        <path id="Path_332" data-name="Path 332" d="M26.491,13.1a36.58,36.58,0,0,1-.592,6.664,1.538,1.538,0,0,1-1.526,1.308c-.093,0-.187-.031-.28-.031a1.554,1.554,0,0,1-1.246-1.806,36.81,36.81,0,0,0,.529-6.135,1.616,1.616,0,0,1,1.557-1.619,1.491,1.491,0,0,1,1.557,1.495Z" transform="translate(48.25 24.216)" fill="#2a8fce"/>
        <path id="Path_333" data-name="Path 333" d="M24.187,14.451a39.058,39.058,0,0,0-2.18-5.761A1.539,1.539,0,1,1,24.779,7.35a34.611,34.611,0,0,1,2.4,6.26,1.546,1.546,0,0,1-1.09,1.9.92.92,0,0,1-.4.062,1.533,1.533,0,0,1-1.495-1.121Z" transform="translate(46.194 13.643)" fill="#2a8fce"/>
        <path id="Path_334" data-name="Path 334" d="M27.078,18.731a41.172,41.172,0,0,1-3.457,5.73,1.524,1.524,0,0,1-1.246.654,1.47,1.47,0,0,1-.934-.311,1.575,1.575,0,0,1-.343-2.18,33.284,33.284,0,0,0,3.176-5.263,1.522,1.522,0,0,1,2.055-.716,1.57,1.57,0,0,1,.747,2.087Z" transform="translate(43.989 34.807)" fill="#2a8fce"/>
        <path id="Path_337" data-name="Path 337" d="M23.683,9.492A38.126,38.126,0,0,0,19.23,5.257a1.551,1.551,0,0,1,1.931-2.429,37.69,37.69,0,0,1,4.858,4.609,1.537,1.537,0,0,1-.156,2.18,1.434,1.434,0,0,1-1.028.4,1.594,1.594,0,0,1-1.152-.529Z" transform="translate(39.411 5.211)" fill="#2a8fce"/>
        <path id="Path_338" data-name="Path 338" d="M17.146,26.34a1.568,1.568,0,0,1,.623-2.118,33.057,33.057,0,0,0,5.107-3.394,1.561,1.561,0,1,1,1.962,2.429,37.151,37.151,0,0,1-5.606,3.706,1.447,1.447,0,0,1-.716.187A1.584,1.584,0,0,1,17.146,26.34Z" transform="translate(35.858 43.266)" fill="#2a8fce"/>
        <path id="Path_349" data-name="Path 349" d="M15.219,3.364A1.547,1.547,0,0,1,14.067,1.5,1.535,1.535,0,0,1,15.9.312a37.24,37.24,0,0,1,6.384,2.055,1.581,1.581,0,0,1,.841,2.055,1.588,1.588,0,0,1-1.433.934,1.394,1.394,0,0,1-.623-.125,33.759,33.759,0,0,0-5.855-1.869Z" transform="translate(29.657 0.532)" fill="#2a8fce"/>
        <path id="Path_354" data-name="Path 354" d="M19.6,22.76a1.538,1.538,0,0,1,1.869,1.152,1.567,1.567,0,0,1-1.183,1.869,36.552,36.552,0,0,1-6.633.9H13.59A1.559,1.559,0,0,1,13.5,23.57a36.4,36.4,0,0,0,6.1-.81Z" transform="translate(25.431 47.967)" fill="#2a8fce"/>
        <path id="Path_374" data-name="Path 374" d="M18.381,1.483a1.59,1.59,0,0,1-1.495,1.651,36.468,36.468,0,0,0-6.073.81,1.324,1.324,0,0,1-.343.062A1.591,1.591,0,0,1,8.945,2.791,1.567,1.567,0,0,1,10.129.923a36.182,36.182,0,0,1,6.633-.9,1.556,1.556,0,0,1,1.619,1.464Z" transform="translate(18.833 -0.016)" fill="#2a8fce"/>
        <path id="Path_384" data-name="Path 384" d="M16.17,25.951a1.565,1.565,0,0,1-1.526,1.215,1.4,1.4,0,0,1-.343-.031,38.742,38.742,0,0,1-6.353-2.055,1.592,1.592,0,0,1-.841-2.055,1.567,1.567,0,0,1,2.055-.81,34.3,34.3,0,0,0,5.824,1.869,1.567,1.567,0,0,1,1.183,1.869Z" transform="translate(14.786 46.645)" fill="#2a8fce"/>
        <path id="Path_388" data-name="Path 388" d="M12.561,2.2a1.549,1.549,0,0,1-.623,2.118A34.621,34.621,0,0,0,6.831,7.708a1.588,1.588,0,0,1-.965.343,1.488,1.488,0,0,1-1.215-.592A1.543,1.543,0,0,1,4.9,5.279a35.372,35.372,0,0,1,5.574-3.706,1.548,1.548,0,0,1,2.087.623Z" transform="translate(9.114 2.884)" fill="#2a8fce"/>
        <path id="Path_390" data-name="Path 390" d="M8.087,26.3a40.215,40.215,0,0,1-4.858-4.64,1.535,1.535,0,0,1,.156-2.18,1.507,1.507,0,0,1,2.18.125,35.7,35.7,0,0,0,4.453,4.235,1.543,1.543,0,0,1,.249,2.18,1.448,1.448,0,0,1-1.215.592,1.556,1.556,0,0,1-.965-.311Z" transform="translate(6.021 40.282)" fill="#2a8fce"/>
        <path id="Path_392" data-name="Path 392" d="M7.221,7.235A34.393,34.393,0,0,0,4.107,12.5a1.613,1.613,0,0,1-1.433.9,1.674,1.674,0,0,1-.654-.156,1.57,1.57,0,0,1-.747-2.087A39.752,39.752,0,0,1,4.73,5.4a1.542,1.542,0,0,1,2.149-.343,1.525,1.525,0,0,1,.343,2.18Z" transform="translate(2.371 10.021)" fill="#2a8fce"/>
        <path id="Path_393" data-name="Path 393" d="M2.819,22.824a36.854,36.854,0,0,1-2.336-6.26,1.56,1.56,0,0,1,1.059-1.931,1.578,1.578,0,0,1,1.931,1.09,34.319,34.319,0,0,0,2.149,5.73,1.557,1.557,0,0,1-.716,2.087,1.306,1.306,0,0,1-.685.156,1.571,1.571,0,0,1-1.4-.872Z" transform="translate(0.886 30.776)" fill="#2a8fce"/>
        <path id="Path_394" data-name="Path 394" d="M0,17.156a35.05,35.05,0,0,1,.592-6.384A1.537,1.537,0,0,1,2.4,9.495,1.554,1.554,0,0,1,3.644,11.3a35.708,35.708,0,0,0-.529,6.042,1.589,1.589,0,0,1-1.557,1.588A1.51,1.51,0,0,1,0,17.436v-.28Z" transform="translate(0 19.97)" fill="#2a8fce"/>
      </g>
      <g id="Group_677" data-name="Group 677" transform="translate(10.099 21.761)">
        <g id="Group_678" data-name="Group 678" transform="translate(0 0)">
          <g id="Rectangle_254" data-name="Rectangle 254" transform="translate(-0.135 0)" fill="none" stroke="#2a8fce" stroke-width="3">
            <rect width="52" height="21" rx="10.5" stroke="none"/>
            <rect x="1.5" y="1.5" width="49" height="18" rx="9" fill="none"/>
          </g>
          <path id="search" d="M25.237,23.8l-6.071-6.468a10.671,10.671,0,0,0,2.416-6.782A10.439,10.439,0,0,0,11.283,0,10.439,10.439,0,0,0,.984,10.55a10.439,10.439,0,0,0,10.3,10.55,10.023,10.023,0,0,0,5.9-1.909L23.3,25.708a1.321,1.321,0,0,0,1.9.038A1.4,1.4,0,0,0,25.237,23.8ZM11.283,2.752a7.715,7.715,0,0,1,7.612,7.8,7.715,7.715,0,0,1-7.612,7.8,7.715,7.715,0,0,1-7.612-7.8A7.715,7.715,0,0,1,11.283,2.752Z" transform="translate(22.047 13.698)" fill="#2a8fce"/>
          <text id="_.COM" data-name=".COM" transform="translate(7.865 9)" fill="#2a8fce" font-size="5" font-family="Poppins-Medium, Poppins" font-weight="500"><tspan x="0" y="0">.COM</tspan></text>
        </g>
      </g>
    </g>
  </g>
</svg>
