<svg xmlns="http://www.w3.org/2000/svg" width="85.931" height="74.089" viewBox="0 0 85.931 74.089">
  <g id="Group_2113" data-name="Group 2113" transform="translate(-1118.535 -2879.911)">
    <circle id="Ellipse_126" data-name="Ellipse 126" cx="35.5" cy="35.5" r="35.5" transform="translate(1127 2881)" fill="#fff"/>
    <rect id="Rectangle_371" data-name="Rectangle 371" width="82" height="29" rx="7" transform="translate(1121 2902)" fill="#fff"/>
    <g id="Group_683" data-name="Group 683" transform="translate(1118.535 2879.911)">
      <g id="Group_682" data-name="Group 682" transform="translate(0 0)">
        <rect id="Rectangle_255" data-name="Rectangle 255" width="85" height="32" rx="13" transform="translate(0 20.839)" fill="none"/>
        <text id="_.AE_.QA" data-name=".AE/.QA" transform="translate(23 38.838)" fill="#edbb13" font-size="9" font-family="Poppins-Medium, Poppins" font-weight="500"><tspan x="0" y="0">.AE/.QA</tspan></text>
        <g id="Group_681" data-name="Group 681" transform="translate(0.302)">
          <path id="Path_406" data-name="Path 406" d="M78.343,20.252H75.6a37.065,37.065,0,0,0-41.128-18.8,1.672,1.672,0,0,0,.757,3.257,33.858,33.858,0,0,1,27.763,5.779H55.331a6.7,6.7,0,0,0-5.982,9.762H13.941A33.872,33.872,0,0,1,24.066,9.567,1.672,1.672,0,1,0,22.2,6.795,37.207,37.207,0,0,0,10.1,20.251H7.279A7.291,7.291,0,0,0,0,27.535V47.164a7.292,7.292,0,0,0,7.28,7.288H9.9a37.1,37.1,0,0,0,7.011,9.527l.005,0a37.016,37.016,0,0,0,58.876-9.532h2.549a7.3,7.3,0,0,0,7.285-7.288V27.535a7.292,7.292,0,0,0-7.285-7.283ZM51.955,17.213a3.382,3.382,0,0,1,3.377-3.38H66.816a33.851,33.851,0,0,1,4.947,6.419H53.856a3.414,3.414,0,0,1-1.9-3.039ZM30.978,54.452a3.379,3.379,0,0,1-.745,6.675H18.818a33.551,33.551,0,0,1-5.1-6.675Zm51.306-7.288a3.947,3.947,0,0,1-3.941,3.945h-18.7a1.672,1.672,0,0,0,0,3.344H71.985A33.612,33.612,0,0,1,22.646,64.47h7.588a6.723,6.723,0,0,0,5.857-10.018h10.19a1.672,1.672,0,0,0,0-3.344h-39a3.945,3.945,0,0,1-3.936-3.945V27.535a3.943,3.943,0,0,1,3.936-3.94H78.343a3.945,3.945,0,0,1,3.941,3.94Zm0,0" transform="translate(0.001 -0.5)" fill="#edbb13"/>
          <path id="Path_409" data-name="Path 409" d="M161.8,22.092a1.669,1.669,0,0,0,.746-.176l.029-.014a1.672,1.672,0,1,0-1.5-2.99l-.029.014a1.672,1.672,0,0,0,.749,3.167Zm0,0" transform="translate(-133.345 -15.684)" fill="#edbb13"/>
          <path id="Path_410" data-name="Path 410" d="M308.385,303.105h-.033a1.672,1.672,0,1,0,0,3.344h.033a1.672,1.672,0,1,0,0-3.344Zm0,0" transform="translate(-255.389 -252.496)" fill="#edbb13"/>
        </g>
      </g>
    </g>
  </g>
</svg>
