<svg xmlns="http://www.w3.org/2000/svg" xmlns:xlink="http://www.w3.org/1999/xlink" width="94" height="94" viewBox="0 0 94 94">
  <defs>
    <filter id="Ellipse_115" x="0" y="0" width="94" height="94" filterUnits="userSpaceOnUse">
      <feOffset input="SourceAlpha"/>
      <feGaussianBlur stdDeviation="3" result="blur"/>
      <feFlood flood-opacity="0.161"/>
      <feComposite operator="in" in2="blur"/>
      <feComposite in="SourceGraphic"/>
    </filter>
  </defs>
  <g id="Group_1906" data-name="Group 1906" transform="translate(-1022 -1684)">
    <g transform="matrix(1, 0, 0, 1, 1022, 1684)" filter="url(#Ellipse_115)">
      <circle id="Ellipse_115-2" data-name="Ellipse 115" cx="38" cy="38" r="38" transform="translate(9 9)" fill="#aedcff"/>
    </g>
    <g id="interaction" transform="translate(1042 1705)">
      <path id="Path_1650" data-name="Path 1650" d="M32.889,34.815V54.37a2.444,2.444,0,0,1-4.889,0V34h4.889Z" transform="translate(-4.259 -6.111)" fill="#cf9e76"/>
      <path id="Path_1651" data-name="Path 1651" d="M38.889,34V54.37a2.444,2.444,0,0,1-4.889,0V34Z" transform="translate(-5.37 -6.111)" fill="#cf9e76"/>
      <path id="Path_1652" data-name="Path 1652" d="M50.407,9.956v.155a1.966,1.966,0,0,1-1,1.711L37.419,18.479a3.25,3.25,0,0,0-1.679,2.844v7.863H25.963v-5.7a8.954,8.954,0,0,0-8.042-8.914A8.6,8.6,0,0,0,17,14.519H28.407c0,1.8,1.092,3.259,2.444,3.259S33.3,16.319,33.3,14.519H33.7a8.1,8.1,0,0,0,3.838-.961l9.99-5.329A2.025,2.025,0,0,1,48.452,8a1.951,1.951,0,0,1,1.956,1.956Z" transform="translate(-2.222 -1.296)" fill="#fcd770"/>
      <path id="Path_1653" data-name="Path 1653" d="M8.037,16h6.926a8.6,8.6,0,0,0-.921.049A8.931,8.931,0,0,0,7.5,20a2.036,2.036,0,0,1,.538-4Z" transform="translate(-0.185 -2.778)" fill="#fcd770"/>
      <path id="Path_1654" data-name="Path 1654" d="M21.889,37.259V54.37a2.444,2.444,0,0,1-4.889,0V34h4.889Z" transform="translate(-2.222 -6.111)" fill="#838f9b"/>
      <path id="Path_1655" data-name="Path 1655" d="M15.889,34V54.37a2.444,2.444,0,0,1-4.889,0V34Z" transform="translate(-1.111 -6.111)" fill="#838f9b"/>
      <path id="Path_1656" data-name="Path 1656" d="M10.074,30.678v3.259H9.259A3.258,3.258,0,0,1,6,30.678v-5.7a8.961,8.961,0,0,1,8.042-8.914l-.709,8.1,1.63,1.63,1.63-1.63-.709-8.1a8.954,8.954,0,0,1,8.042,8.914v5.7a3.258,3.258,0,0,1-3.259,3.259h-.815V30.678H10.074Z" transform="translate(-0.185 -2.789)" fill="#ff826e"/>
      <path id="Path_1657" data-name="Path 1657" d="M17.55,16.049l.709,8.1-1.63,1.63L15,24.148l.709-8.1a8.7,8.7,0,0,1,1.841,0Z" transform="translate(-1.852 -2.778)" fill="#e6e9ed"/>
      <g id="Group_1905" data-name="Group 1905" transform="translate(9.074 1.815)">
        <circle id="Ellipse_116" data-name="Ellipse 116" cx="5.5" cy="5.5" r="5.5" transform="translate(-0.074 0.444)" fill="#f0d0b4"/>
        <path id="Path_1658" data-name="Path 1658" d="M33.444,16h2.444c0,1.8-1.092,3.259-2.444,3.259S31,17.8,31,16Z" transform="translate(-13.889 -4.593)" fill="#f0d0b4"/>
        <circle id="Ellipse_117" data-name="Ellipse 117" cx="5.5" cy="5.5" r="5.5" transform="translate(13.926 0.444)" fill="#f0d0b4"/>
      </g>
      <path id="Path_1659" data-name="Path 1659" d="M46.23,5.889a2.792,2.792,0,0,0-1.3.325l-9.994,5.33a7.347,7.347,0,0,1-1.788.665,6.519,6.519,0,1,0-8.812.2H19.074a6.518,6.518,0,1,0-8.594,0H7.852a2.846,2.846,0,0,0-1.683,5.146A9.72,9.72,0,0,0,5,22.185v5.7a4.079,4.079,0,0,0,4.074,4.074v16.3a3.246,3.246,0,0,0,5.7,2.133,3.246,3.246,0,0,0,5.7-2.133v-16.3a4.032,4.032,0,0,0,2.444-.836V48.259a3.246,3.246,0,0,0,5.7,2.133,3.246,3.246,0,0,0,5.7-2.133V20.029a2.444,2.444,0,0,1,1.257-2.136l11.984-6.659A2.771,2.771,0,0,0,49,8.812V8.659a2.773,2.773,0,0,0-2.77-2.77Zm-17.6,8.148h1.526c-.23.937-.833,1.63-1.526,1.63s-1.3-.693-1.526-1.63ZM23.741,7.519a4.889,4.889,0,1,1,4.889,4.889A4.894,4.894,0,0,1,23.741,7.519ZM15.562,21.062l-.785.785-.785-.785.613-7.016c.057,0,.114-.009.172-.009s.115.007.173.009ZM9.889,7.519a4.889,4.889,0,1,1,4.889,4.889A4.894,4.894,0,0,1,9.889,7.519ZM6.63,15.259a1.224,1.224,0,0,1,1.222-1.222H9.385a9.831,9.831,0,0,0-2.31,2.148A1.216,1.216,0,0,1,6.63,15.259Zm5.7,34.63a1.631,1.631,0,0,1-1.63-1.63V28.7h3.259V48.259A1.631,1.631,0,0,1,12.333,49.889Zm4.889,0a1.631,1.631,0,0,1-1.63-1.63V28.7h3.259V48.259A1.631,1.631,0,0,1,17.222,49.889Zm3.259-19.556V18.926h-1.63v8.148H10.7V18.926H9.074V30.333A2.447,2.447,0,0,1,6.63,27.889v-5.7a8.158,8.158,0,0,1,6.322-7.935L12.3,21.678l2.474,2.474,2.475-2.474L16.6,14.251a8.159,8.159,0,0,1,6.321,7.935v5.7A2.447,2.447,0,0,1,20.481,30.333Zm5.7,19.556a1.631,1.631,0,0,1-1.63-1.63V28.7h3.259V48.259a1.631,1.631,0,0,1-1.63,1.63Zm4.889,0a1.631,1.631,0,0,1-1.63-1.63V28.7H32.7V48.259A1.631,1.631,0,0,1,31.074,49.889ZM47.37,8.812a1.142,1.142,0,0,1-.587,1L34.8,16.468a4.074,4.074,0,0,0-2.1,3.561v7.045H24.556V22.185a9.773,9.773,0,0,0-4.385-8.148h5.265A3.545,3.545,0,0,0,28.63,17.3a3.549,3.549,0,0,0,3.195-3.28A8.979,8.979,0,0,0,35.7,12.983l9.994-5.331A1.141,1.141,0,0,1,47.37,8.659Z"/>
    </g>
  </g>
</svg>
