<svg width="35" height="35" viewBox="0 0 35 35" fill="none" xmlns="http://www.w3.org/2000/svg">
<g clip-path="url(#clip0_236_11493)">
<path d="M29.8095 5.1145C26.5347 1.83974 22.0932 0 17.462 0C12.8308 0 8.38926 1.83974 5.1145 5.1145C1.83974 8.38926 0 12.8308 0 17.462C0 22.0932 1.83974 26.5347 5.1145 29.8095C8.38926 33.0843 12.8308 34.924 17.462 34.924C22.0932 34.924 26.5347 33.0843 29.8095 29.8095C33.0843 26.5347 34.924 22.0932 34.924 17.462C34.924 12.8308 33.0843 8.38926 29.8095 5.1145ZM17.4615 31.5005C13.7399 31.4963 10.172 30.0156 7.54088 27.3836C4.90977 24.7515 3.43041 21.1831 3.4275 17.4615C3.4275 17.4485 3.4275 17.4365 3.4275 17.4235C3.4275 17.4105 3.4275 17.4175 3.4275 17.4145C3.4275 17.4115 3.4275 17.4035 3.4275 17.3985C3.44831 13.7218 4.90967 10.1997 7.49794 7.58826C10.0862 4.9768 13.5951 3.48409 17.2715 3.4305H17.3195H17.4625C19.3055 3.4305 21.1304 3.7935 22.8331 4.49878C24.5358 5.20405 26.0829 6.23779 27.386 7.54097C28.6892 8.84414 29.723 10.3912 30.4282 12.0939C31.1335 13.7966 31.4965 15.6215 31.4965 17.4645C31.4965 19.3075 31.1335 21.1324 30.4282 22.8351C29.723 24.5378 28.6892 26.0849 27.386 27.388C26.0829 28.6912 24.5358 29.725 22.8331 30.4302C21.1304 31.1355 19.3055 31.4985 17.4625 31.4985L17.4615 31.5005Z" fill="#34A11A"/>
<path d="M28.1182 18.3014C27.8443 18.3014 27.5815 18.1926 27.3878 17.9989C27.1941 17.8052 27.0853 17.5424 27.0853 17.2684C27.0853 16.9945 27.1941 16.7317 27.3878 16.538C27.5815 16.3443 27.8443 16.2354 28.1182 16.2354H29.3633C29.0724 13.4426 27.8105 10.8404 25.7975 8.88278C23.7845 6.92514 21.1481 5.73624 18.3483 5.52344V6.60744C18.3483 6.88141 18.2394 7.14416 18.0457 7.33788C17.852 7.53161 17.5892 7.64044 17.3153 7.64044C17.0413 7.64044 16.7785 7.53161 16.5848 7.33788C16.3911 7.14416 16.2822 6.88141 16.2822 6.60744V5.54744C13.5128 5.82479 10.9261 7.05718 8.96592 9.03323C7.00575 11.0093 5.79426 13.6058 5.53925 16.3774H6.65425C6.92822 16.3774 7.19096 16.4863 7.38469 16.68C7.57841 16.8737 7.68725 17.1365 7.68725 17.4104C7.68725 17.6844 7.57841 17.9472 7.38469 18.1409C7.19096 18.3346 6.92822 18.4434 6.65425 18.4434H5.53125C5.76776 21.2577 6.99033 23.8981 8.98338 25.899C10.9764 27.8999 13.612 29.1328 16.4253 29.3804V28.0704C16.4253 27.7965 16.5341 27.5337 16.7278 27.34C16.9215 27.1463 17.1843 27.0374 17.4583 27.0374C17.7322 27.0374 17.995 27.1463 18.1887 27.34C18.3824 27.5337 18.4912 27.7965 18.4912 28.0704V29.3804C21.3281 29.1298 23.983 27.8772 25.9803 25.847C27.9776 23.8169 29.1868 21.142 29.3913 18.3014H28.1182ZM21.6403 14.7374L18.1893 18.1884C18.0933 18.2844 17.9794 18.3605 17.8541 18.4124C17.7288 18.4643 17.5944 18.4911 17.4588 18.4911C17.3231 18.4911 17.1887 18.4643 17.0634 18.4124C16.9381 18.3605 16.8242 18.2844 16.7282 18.1884L10.7193 12.1794C10.5255 11.9857 10.4167 11.7229 10.4167 11.4489C10.4167 11.1749 10.5255 10.9122 10.7193 10.7184C10.913 10.5247 11.1758 10.4159 11.4498 10.4159C11.7237 10.4159 11.9865 10.5247 12.1803 10.7184L17.4583 15.9944L20.1793 13.2734C20.2752 13.1775 20.3891 13.1014 20.5144 13.0495C20.6397 12.9976 20.7741 12.9709 20.9098 12.9709C21.0454 12.9709 21.1798 12.9976 21.3051 13.0495C21.4304 13.1014 21.5443 13.1775 21.6403 13.2734C21.7362 13.3694 21.8123 13.4833 21.8642 13.6086C21.9161 13.7339 21.9428 13.8683 21.9428 14.0039C21.9428 14.1396 21.9161 14.2739 21.8642 14.3993C21.8123 14.5246 21.7362 14.6385 21.6403 14.7344V14.7374Z" fill="#34A11A"/>
</g>
<defs>
<clipPath id="clip0_236_11493">
<rect width="34.923" height="34.923" fill="white"/>
</clipPath>
</defs>
</svg>
