<svg id="clock" xmlns="http://www.w3.org/2000/svg" width="34.923" height="34.923" viewBox="0 0 34.923 34.923">
  <g id="Group_1836" data-name="Group 1836" transform="translate(0 0)">
    <g id="Group_1835" data-name="Group 1835">
      <path id="Path_1612" data-name="Path 1612" d="M29.809,5.114A17.461,17.461,0,0,0,5.114,29.809,17.461,17.461,0,0,0,29.809,5.114ZM17.461,31.5A14.05,14.05,0,0,1,3.427,17.461c0-.013,0-.025,0-.038s0-.006,0-.009,0-.011,0-.016A14.049,14.049,0,0,1,17.271,3.43l.048,0h.143a14.034,14.034,0,1,1,0,28.068Z" transform="translate(0 0)" fill="#eb5151"/>
    </g>
  </g>
  <g id="Group_1838" data-name="Group 1838" transform="translate(5.535 5.527)">
    <g id="Group_1837" data-name="Group 1837">
      <path id="Path_1613" data-name="Path 1613" d="M103.729,93.807a1.033,1.033,0,1,1,0-2.066h1.245A11.988,11.988,0,0,0,93.959,81.029v1.084a1.033,1.033,0,1,1-2.066,0v-1.06A11.988,11.988,0,0,0,81.15,91.883h1.115a1.033,1.033,0,0,1,0,2.066H81.142a11.987,11.987,0,0,0,10.894,10.937v-1.31a1.033,1.033,0,1,1,2.066,0v1.31a11.986,11.986,0,0,0,10.9-11.079Zm-6.478-3.564L93.8,93.694a1.033,1.033,0,0,1-1.461,0L86.33,87.685a1.033,1.033,0,0,1,1.461-1.461L93.069,91.5l2.721-2.721a1.033,1.033,0,1,1,1.461,1.461Z" transform="translate(-81.142 -81.029)" fill="#eb5151"/>
    </g>
  </g>
</svg>
