<svg width="76" height="75" viewBox="0 0 76 75" fill="none" xmlns="http://www.w3.org/2000/svg">
<g clip-path="url(#clip0_219_3212)">
<path d="M37.5 75C58.2107 75 75 58.2107 75 37.5C75 16.7893 58.2107 0 37.5 0C16.7893 0 0 16.7893 0 37.5C0 58.2107 16.7893 75 37.5 75Z" fill="white"/>
<path d="M75.3533 37.4821C75.3606 39.7289 75.1617 41.9716 74.7593 44.1821C74.7039 44.5486 74.5186 44.883 74.2372 45.1242C73.9557 45.3654 73.597 45.4974 73.2263 45.4961C73.1323 45.4961 73.0383 45.4651 72.9443 45.4651C72.538 45.3898 72.1782 45.1564 71.9437 44.8162C71.7092 44.476 71.6192 44.0566 71.6933 43.6501C72.0427 41.6126 72.2207 39.5494 72.2253 37.4821C72.224 37.061 72.3864 36.6559 72.6783 36.3523C72.9701 36.0487 73.3685 35.8704 73.7893 35.8551C73.9916 35.8465 74.1936 35.8789 74.383 35.9504C74.5725 36.0219 74.7455 36.131 74.8916 36.2712C75.0377 36.4113 75.154 36.5796 75.2333 36.7659C75.3127 36.9522 75.3535 37.1526 75.3533 37.3551V37.4821Z" fill="#F58120"/>
<path d="M70.9748 28.2251C70.3977 26.2411 69.6647 24.3058 68.7828 22.4371C68.6044 22.0678 68.5801 21.6428 68.7151 21.2555C68.8501 20.8683 69.1335 20.5505 69.5028 20.3721C69.8721 20.1938 70.2971 20.1694 70.6844 20.3045C71.0717 20.4395 71.3894 20.7228 71.5678 21.0921C72.5716 23.1054 73.3777 25.2112 73.9748 27.3801C74.0286 27.5777 74.0428 27.784 74.0165 27.9871C73.9903 28.1902 73.9242 28.3861 73.8219 28.5635C73.7197 28.7409 73.5834 28.8964 73.4208 29.0209C73.2583 29.1454 73.0727 29.2366 72.8748 29.2891C72.7456 29.3405 72.6065 29.362 72.4678 29.3521C72.1287 29.3558 71.7978 29.2474 71.5266 29.0438C71.2554 28.8402 71.0589 28.5528 70.9678 28.2261L70.9748 28.2251Z" fill="#F58120"/>
<path d="M71.6623 53.7871C70.6628 55.7978 69.5013 57.7239 68.1893 59.5461C68.0488 59.7482 67.8616 59.9134 67.6437 60.0278C67.4257 60.1421 67.1834 60.2023 66.9373 60.2031C66.5976 60.2098 66.266 60.0993 65.9983 59.8901C65.6654 59.6429 65.4429 59.275 65.3785 58.8654C65.3142 58.4558 65.4132 58.0374 65.6543 57.7001C66.8788 56.0396 67.947 54.2694 68.8453 52.4121C68.9318 52.2276 69.0543 52.0623 69.2056 51.9258C69.3568 51.7894 69.5339 51.6845 69.7263 51.6175C69.9186 51.5504 70.1225 51.5224 70.3258 51.5353C70.5291 51.5481 70.7279 51.6014 70.9103 51.6921C71.0975 51.7807 71.2654 51.9052 71.4045 52.0587C71.5435 52.2122 71.651 52.3915 71.7207 52.5865C71.7905 52.7815 71.8211 52.9884 71.8109 53.1952C71.8007 53.4021 71.7499 53.6049 71.6613 53.7921L71.6623 53.7871Z" fill="#F58120"/>
<path d="M62.8384 37.4861C62.8384 36.9541 62.8074 36.4221 62.7754 35.9221H64.4024V39.0511H62.7754C62.8064 38.5501 62.8384 38.0181 62.8384 37.4861Z" fill="#F58120"/>
<path d="M62.7766 35.925C62.8076 36.425 62.8396 36.957 62.8396 37.489C62.8396 38.021 62.8086 38.553 62.7766 39.053H53.3906C53.4435 38.5335 53.4645 38.0112 53.4536 37.489C53.4645 36.9669 53.4435 36.4446 53.3906 35.925H62.7766Z" fill="#F58120"/>
<path d="M63.6533 14.7721C62.2789 13.2357 60.7827 11.8128 59.1793 10.5171C58.866 10.2566 58.6672 9.88364 58.6254 9.47826C58.5836 9.07289 58.7023 8.66728 58.9559 8.34829C59.2095 8.02931 59.578 7.82231 59.9823 7.77163C60.3867 7.72095 60.7948 7.83061 61.1193 8.07714C62.8801 9.47264 64.5132 11.0221 65.9993 12.7071C66.134 12.8606 66.2369 13.0391 66.3021 13.2325C66.3674 13.426 66.3936 13.6304 66.3794 13.834C66.3652 14.0377 66.3107 14.2365 66.2192 14.4189C66.1277 14.6014 66.001 14.7639 65.8463 14.8971C65.7097 15.0298 65.5482 15.1341 65.3711 15.204C65.1939 15.2739 65.0047 15.3079 64.8143 15.3041C64.5951 15.2995 64.3792 15.2499 64.18 15.1584C63.9808 15.0669 63.8026 14.9354 63.6563 14.7721H63.6533Z" fill="#F58120"/>
<path d="M53.515 69.931C53.3178 69.5654 53.273 69.1368 53.3902 68.7383C53.5075 68.3398 53.7773 68.0037 54.141 67.803C55.9533 66.8278 57.671 65.6862 59.272 64.393C59.4313 64.2563 59.6165 64.153 59.8165 64.0892C60.0165 64.0253 60.2273 64.0023 60.4364 64.0214C60.6455 64.0405 60.8486 64.1014 61.0337 64.2004C61.2188 64.2995 61.3822 64.4346 61.5141 64.598C61.646 64.7613 61.7438 64.9494 61.8017 65.1512C61.8596 65.353 61.8764 65.5644 61.8512 65.7728C61.8259 65.9812 61.759 66.1825 61.6546 66.3646C61.5501 66.5467 61.4101 66.706 61.243 66.833C59.482 68.2416 57.5969 69.4877 55.611 70.556C55.3914 70.6801 55.1432 70.7449 54.891 70.744C54.6103 70.7418 54.3352 70.6655 54.0936 70.5227C53.8519 70.3799 53.6523 70.1758 53.515 69.931Z" fill="#F58120"/>
<path d="M58.6145 54.0071L56.6145 56.4161C56.1875 56.0452 55.7383 55.7005 55.2695 55.3841C56.018 54.6578 56.7194 53.8846 57.3695 53.0691C57.8117 53.3439 58.2284 53.6578 58.6145 54.0071Z" fill="#F58120"/>
<path d="M51.8875 49.814C53.8422 50.6638 55.6818 51.7572 57.3625 53.068C56.7124 53.8835 56.0109 54.6568 55.2625 55.383C53.9284 54.3976 52.493 53.5575 50.9805 52.877C51.3385 51.8723 51.6413 50.8488 51.8875 49.811V49.814Z" fill="#F58120"/>
<path d="M56.6126 18.5891L58.6126 20.9981C58.2059 21.3421 57.7992 21.6551 57.3926 21.9371C56.751 21.0969 56.0401 20.3118 55.2676 19.5901C55.7432 19.2947 56.1931 18.9599 56.6126 18.5891Z" fill="#F58120"/>
<path d="M55.2704 19.5901C56.044 20.3117 56.7558 21.0967 57.3984 21.9371C55.6979 23.2273 53.8491 24.3093 51.8914 25.1601C51.6452 24.1325 51.3425 23.1193 50.9844 22.1251C52.5053 21.4467 53.9433 20.5962 55.2704 19.5901Z" fill="#F58120"/>
<path d="M53.4521 37.4861C53.4629 38.0082 53.4419 38.5306 53.3891 39.0501H50.2891C50.3201 38.5181 50.3201 38.0181 50.3201 37.4861C50.3201 36.9541 50.3201 36.4221 50.2891 35.9221H53.3891C53.4419 36.4417 53.4629 36.964 53.4521 37.4861Z" fill="#F58120"/>
<path d="M50.2923 35.9222C50.2044 32.6698 49.7533 29.4374 48.9473 26.2852C49.9511 25.9752 50.9332 25.5991 51.8873 25.1592C52.8429 28.6685 53.347 32.2853 53.3873 35.9222H50.2923Z" fill="#F58120"/>
<path d="M48.9463 48.688C49.7499 45.5363 50.201 42.3052 50.2913 39.054H53.3863C53.3458 42.6898 52.8417 46.3056 51.8863 49.814C50.9319 49.374 49.9495 48.9979 48.9453 48.688H48.9463Z" fill="#F58120"/>
<path d="M50.9808 22.124C51.3388 23.1182 51.6416 24.1314 51.8878 25.159C50.9341 25.5989 49.9522 25.975 48.9488 26.285C48.6668 25.253 48.3548 24.251 48.0098 23.313C49.0272 22.9873 50.0194 22.59 50.9808 22.124Z" fill="#F58120"/>
<path d="M51.8888 49.81C51.6426 50.8478 51.3398 51.8713 50.9818 52.876C50.0263 52.3968 49.0321 51.999 48.0098 51.687C48.3829 50.7069 48.6965 49.705 48.9488 48.687C49.9525 48.996 50.9347 49.3711 51.8888 49.81Z" fill="#F58120"/>
<path d="M50.292 35.925C50.323 36.425 50.323 36.957 50.323 37.489C50.323 38.021 50.323 38.521 50.292 39.053H39.373V35.925H50.292Z" fill="#F58120"/>
<path d="M45.3491 3.91511C45.1493 3.86846 44.9608 3.78273 44.7943 3.66284C44.6278 3.54296 44.4867 3.3913 44.3792 3.21662C44.2716 3.04193 44.1997 2.84768 44.1676 2.64507C44.1355 2.44246 44.1438 2.23549 44.1921 2.03611C44.2343 1.83639 44.3157 1.64702 44.4316 1.47898C44.5475 1.31094 44.6955 1.16757 44.8672 1.05716C45.0389 0.946762 45.2308 0.871524 45.4318 0.835811C45.6328 0.800097 45.8389 0.804617 46.0381 0.849109C48.2338 1.34312 50.3805 2.03426 52.4521 2.91411C52.836 3.07827 53.1398 3.38693 53.298 3.77336C53.4561 4.15978 53.4558 4.59292 53.2971 4.97911C53.1714 5.25628 52.9692 5.49185 52.7143 5.65817C52.4594 5.82449 52.1624 5.91466 51.8581 5.91811C51.6426 5.92521 51.4283 5.88243 51.2321 5.79311C49.3326 4.98991 47.3637 4.36164 45.3501 3.91611L45.3491 3.91511Z" fill="#F58120"/>
<path d="M48.008 23.313C48.352 24.252 48.665 25.253 48.947 26.285C45.8582 27.3326 42.6327 27.9228 39.373 28.037V24.909C42.3135 24.7983 45.2223 24.2607 48.008 23.313Z" fill="#F58120"/>
<path d="M48.947 48.6871C48.6948 49.7051 48.3812 50.7069 48.008 51.6871C45.2236 50.7305 42.3148 50.1838 39.373 50.0641V46.9351C42.6327 47.0492 45.8582 47.6394 48.947 48.6871Z" fill="#F58120"/>
<path d="M39.373 62.3292C42.908 61.3902 46.037 57.3542 48.008 51.6912C49.0304 52.0032 50.0246 52.4009 50.98 52.8802C50.0042 55.7877 48.5214 58.4996 46.6 60.8902V60.9212C44.2803 61.7873 41.8447 62.3039 39.373 62.4542V62.3292Z" fill="#F58120"/>
<path d="M65.9661 37.4861C65.9654 44.8006 63.117 51.8275 58.0244 57.078C52.9318 62.3285 45.9952 65.3901 38.6841 65.6141C41.6251 65.3321 44.3161 63.6431 46.6001 60.9211V60.8901C49.8449 59.6893 52.7972 57.8121 55.2611 55.3831C55.7299 55.6996 56.1791 56.0442 56.6061 56.4151L58.6061 54.0061C58.22 53.6569 57.8033 53.3429 57.3611 53.0681C60.5833 49.0751 62.4763 44.1744 62.7751 39.0521H64.4021V35.9221H62.7751C62.4738 30.8152 60.5935 25.928 57.3941 21.9361C57.8008 21.6548 58.2074 21.3418 58.6141 20.9971L56.6141 18.5881C56.1946 18.9585 55.7446 19.2931 55.2691 19.5881C52.8034 17.1585 49.849 15.2812 46.6021 14.0811V14.0521C45.6507 12.7784 44.4548 11.7073 43.0844 10.9015C41.714 10.0957 40.1966 9.57133 38.6211 9.35913C45.9404 9.57509 52.8881 12.632 57.9924 17.8822C63.0967 23.1325 65.9565 30.1636 65.9661 37.4861Z" fill="#F58120"/>
<path d="M45.5054 71.058C45.7048 71.0088 45.9119 70.9998 46.1148 71.0315C46.3177 71.0633 46.5122 71.1352 46.6869 71.243C46.8617 71.3509 47.0132 71.4924 47.1326 71.6595C47.252 71.8265 47.337 72.0157 47.3824 72.216C47.474 72.6231 47.4003 73.0499 47.1773 73.4026C46.9543 73.7553 46.6004 74.0051 46.1934 74.097C44.0045 74.6025 41.7738 74.9061 39.5294 75.004H39.4694C39.0627 75.0032 38.6723 74.8443 38.3807 74.5608C38.089 74.2773 37.9192 73.8915 37.907 73.485C37.8947 73.0785 38.0412 72.6832 38.3152 72.3827C38.5893 72.0822 38.9695 71.9001 39.3754 71.875C41.4387 71.7776 43.49 71.5056 45.5074 71.062L45.5054 71.058Z" fill="#F58120"/>
<path d="M48.008 23.313C46.037 17.619 42.908 13.583 39.373 12.675V12.519C41.8447 12.6693 44.2803 13.186 46.6 14.052V14.083C48.5214 16.4851 50.0041 19.2071 50.98 22.124C50.0187 22.59 49.0255 22.9873 48.008 23.313Z" fill="#F58120"/>
<path d="M39.3731 62.4541V64.0771H36.2441V62.4541C36.7441 62.4851 37.2761 62.5171 37.8081 62.5171C38.3401 62.5171 38.8721 62.4851 39.3731 62.4541Z" fill="#F58120"/>
<path d="M39.3726 62.3291V62.4541C38.8726 62.4851 38.3406 62.5171 37.8086 62.5171C38.3356 62.5182 38.8608 62.455 39.3726 62.3291Z" fill="#F58120"/>
<path d="M39.3731 50.064V62.328C38.3452 62.5784 37.2721 62.5784 36.2441 62.328V50.064C36.7638 50.0128 37.2861 49.9928 37.8081 50.004C38.3305 49.9927 38.8531 50.0128 39.3731 50.064Z" fill="#F58120"/>
<path d="M39.3741 46.9361V50.0651C38.8545 50.0129 38.3322 49.9918 37.8101 50.0021C37.288 49.9918 36.7657 50.0129 36.2461 50.0651V46.9361C36.7654 46.8849 37.2874 46.8649 37.8091 46.8761C38.3315 46.8648 38.8541 46.8849 39.3741 46.9361Z" fill="#F58120"/>
<path d="M36.2441 35.925H39.3731V39.054H36.2441V35.925Z" fill="#F58120"/>
<path d="M39.3731 28.0381V35.9221H36.2441V28.0381C36.7637 28.0903 37.286 28.1113 37.8081 28.1011C38.3303 28.1113 38.8535 28.0903 39.3731 28.0381Z" fill="#F58120"/>
<path d="M39.3741 24.9092V28.0382C38.8545 28.0904 38.3322 28.1114 37.8101 28.1012C37.288 28.1114 36.7657 28.0904 36.2461 28.0382V24.9092C36.7657 24.9614 37.288 24.9824 37.8101 24.9722C38.3322 24.9824 38.8545 24.9614 39.3741 24.9092Z" fill="#F58120"/>
<path d="M39.3745 12.5191V12.6751C39.0683 12.5824 38.7539 12.5195 38.4355 12.4871C38.7485 12.4871 39.0615 12.4881 39.3745 12.5191Z" fill="#F58120"/>
<path d="M39.3741 12.6751V24.9081C38.8545 24.9603 38.3322 24.9814 37.8101 24.9711C37.288 24.9814 36.7657 24.9603 36.2461 24.9081V12.6751C36.5523 12.5825 36.8668 12.5195 37.1851 12.4871C37.3921 12.4623 37.6007 12.4529 37.8091 12.4591C38.0182 12.4538 38.2275 12.4642 38.4351 12.4901C38.7534 12.5225 39.0678 12.5855 39.3741 12.6781V12.6751Z" fill="#F58120"/>
<path d="M36.2441 39.054H39.3731V46.938C38.8535 46.8858 38.3313 46.8647 37.8091 46.875C37.287 46.8647 36.7647 46.8858 36.2451 46.938L36.2441 39.054Z" fill="#F58120"/>
<path d="M36.2451 10.895H39.3741V12.519C39.0611 12.488 38.7481 12.488 38.4351 12.488C38.2275 12.4621 38.0183 12.4517 37.8091 12.457C37.6 12.4517 37.3907 12.4621 37.1831 12.488C36.8701 12.488 36.5571 12.488 36.2441 12.519L36.2451 10.895Z" fill="#F58120"/>
<path d="M36.2441 12.676V12.519C36.5571 12.488 36.8701 12.488 37.1831 12.488C36.8648 12.5204 36.5504 12.5834 36.2441 12.676Z" fill="#F58120"/>
<path d="M36.2441 62.3291C36.7559 62.455 37.2811 62.5182 37.8081 62.5171C37.2761 62.5171 36.7441 62.4861 36.2441 62.4541V62.3291Z" fill="#F58120"/>
<path d="M46.6016 60.9211C44.3176 63.6431 41.6276 65.3341 38.6856 65.6141C38.3943 65.6401 38.1019 65.6504 37.8096 65.6451C37.5382 65.6504 37.2668 65.6401 36.9966 65.6141C35.4214 65.4017 33.9044 64.8772 32.5343 64.0714C31.1643 63.2656 29.9687 62.1946 29.0176 60.9211C31.3374 61.7872 33.773 62.3039 36.2446 62.4541V64.0811H39.3736V62.4541C41.8455 62.304 44.2815 61.7873 46.6016 60.9211Z" fill="#F58120"/>
<path d="M36.2439 46.9351V50.0641C33.302 50.1851 30.3932 50.7332 27.6089 51.6911C27.2357 50.7109 26.9222 49.7091 26.6699 48.6911C29.7586 47.6421 32.984 47.0505 36.2439 46.9351Z" fill="#F58120"/>
<path d="M36.244 35.925V39.054H25.324C25.293 38.519 25.293 38.018 25.293 37.486C25.293 36.954 25.293 36.425 25.324 35.925H36.244Z" fill="#F58120"/>
<path d="M36.2439 24.909V28.038C32.9842 27.9235 29.7587 27.3329 26.6699 26.285C26.9519 25.253 27.2639 24.251 27.6089 23.313C30.3947 24.2607 33.3035 24.7983 36.2439 24.909Z" fill="#F58120"/>
<path d="M29.0176 14.052C29.9686 12.7787 31.164 11.7078 32.5339 10.9019C33.9038 10.0961 35.4206 9.57159 36.9956 9.35901C37.2661 9.33405 37.5379 9.3247 37.8096 9.33101C38.0809 9.32573 38.3524 9.33608 38.6226 9.36201C40.1976 9.57459 41.7144 10.0991 43.0843 10.9049C44.4541 11.7108 45.6496 12.7817 46.6006 14.055C44.2808 13.1889 41.8452 12.6723 39.3736 12.522V10.892H36.2446V12.519C33.773 12.6693 31.3374 13.1859 29.0176 14.052Z" fill="#F58120"/>
<path d="M37.6534 1.47407C37.6694 1.89156 37.5214 2.29873 37.2411 2.60855C36.9608 2.91837 36.5704 3.10626 36.1534 3.13207C34.1009 3.23153 32.0604 3.50348 30.0534 3.94507C29.9421 3.98111 29.8264 4.00229 29.7094 4.00807C29.3538 4.0038 29.0097 3.88114 28.7315 3.65948C28.4534 3.43782 28.257 3.12979 28.1734 2.78407C28.0842 2.37814 28.1591 1.95338 28.3819 1.60248C28.6046 1.25158 28.9571 1.00303 29.3624 0.911068C31.5513 0.403393 33.7825 0.0997597 36.0274 0.00406785C36.4371 -0.0131646 36.8372 0.13128 37.1413 0.406261C37.4455 0.681243 37.6294 1.06474 37.6534 1.47407Z" fill="#F58120"/>
<path d="M29.0167 14.052C31.3375 13.1857 33.7741 12.669 36.2467 12.519V12.675C32.7117 13.582 29.5827 17.618 27.6117 23.313C26.5932 22.9875 25.5991 22.5901 24.6367 22.124C25.6127 19.2071 27.0954 16.4851 29.0167 14.083V14.052Z" fill="#F58120"/>
<path d="M27.6087 51.6912C29.5797 57.3542 32.7087 61.3912 36.2437 62.3292V62.4542C33.7721 62.3039 31.3365 61.7873 29.0167 60.9212V60.8902C27.0954 58.4996 25.6125 55.7877 24.6367 52.8802C25.5922 52.4009 26.5864 52.0032 27.6087 51.6912Z" fill="#F58120"/>
<path d="M27.6105 23.313C27.2665 24.252 26.9535 25.253 26.6715 26.285C25.6673 25.9751 24.6848 25.599 23.7305 25.159C23.9766 24.1314 24.2794 23.1182 24.6375 22.124C25.5992 22.59 26.5926 22.9874 27.6105 23.313Z" fill="#F58120"/>
<path d="M26.6715 48.687C26.9237 49.705 27.2373 50.7069 27.6105 51.687C26.5877 52.0003 25.5931 52.3994 24.6375 52.88C24.2793 51.874 23.9765 50.8491 23.7305 49.81C24.6849 49.3711 25.6674 48.9959 26.6715 48.687Z" fill="#F58120"/>
<path d="M26.6715 26.2852C25.8655 29.4374 25.4144 32.6698 25.3265 35.9222H22.2285C22.2688 32.2853 22.7729 28.6685 23.7285 25.1592C24.6829 25.5991 25.6654 25.9753 26.6695 26.2852H26.6715Z" fill="#F58120"/>
<path d="M23.7305 49.814C22.7744 46.3057 22.2697 42.6899 22.2285 39.054H25.3285C25.4186 42.3062 25.8697 45.5383 26.6735 48.691C25.6688 48.9998 24.6856 49.375 23.7305 49.814Z" fill="#F58120"/>
<path d="M22.1649 37.486C22.1542 36.9649 22.1752 36.4436 22.2279 35.925H25.3279C25.2969 36.425 25.2969 36.957 25.2969 37.489C25.2969 38.021 25.2969 38.521 25.3279 39.053H22.2279C22.175 38.5325 22.1539 38.0092 22.1649 37.486Z" fill="#F58120"/>
<path d="M24.6367 22.1241C24.2786 23.1183 23.9758 24.1315 23.7297 25.1591C21.772 24.3086 19.9232 23.227 18.2227 21.9371C18.8652 21.0967 19.5771 20.3117 20.3507 19.5901C21.6777 20.5958 23.1158 21.4461 24.6367 22.1241Z" fill="#F58120"/>
<path d="M23.728 49.814C23.9746 50.8508 24.2777 51.8733 24.636 52.877C23.1224 53.5553 21.6856 54.3934 20.35 55.377C19.6015 54.6507 18.9001 53.8775 18.25 53.062C19.932 51.753 21.7725 50.6617 23.728 49.814Z" fill="#F58120"/>
<path d="M31.3636 72.935C31.2839 73.2818 31.0889 73.5914 30.8104 73.813C30.5319 74.0346 30.1865 74.1552 29.8306 74.155C29.7151 74.1589 29.5995 74.1485 29.4866 74.124C27.3035 73.6206 25.1679 72.9297 23.1036 72.059C22.7216 71.8926 22.4196 71.5837 22.2618 71.198C22.104 70.8124 22.1028 70.3804 22.2586 69.994C22.4258 69.6133 22.7367 69.3143 23.1236 69.162C23.5104 69.0097 23.9418 69.0165 24.3236 69.181C26.2141 69.9796 28.1723 70.6078 30.1746 71.058C30.5808 71.1499 30.934 71.399 31.1568 71.7508C31.3797 72.1027 31.454 72.5284 31.3636 72.935Z" fill="#F58120"/>
<path d="M22.1653 37.486C22.1544 38.0082 22.1755 38.5305 22.2283 39.05H12.8423C12.8103 38.55 12.7793 38.018 12.7793 37.486C12.7793 36.954 12.8103 36.425 12.8423 35.925H22.2283C22.1756 36.4436 22.1545 36.9649 22.1653 37.486Z" fill="#F58120"/>
<path d="M20.352 19.59C19.5779 20.3099 18.8654 21.0933 18.222 21.932C17.8153 21.6507 17.4086 21.3377 17.002 20.993L19.002 18.584C19.4228 18.9567 19.8745 19.2932 20.352 19.59Z" fill="#F58120"/>
<path d="M20.3528 55.3821C19.884 55.6986 19.4348 56.0432 19.0078 56.4141L17.0078 54.0051C17.3939 53.6559 17.8106 53.342 18.2528 53.0671C18.9029 53.8826 19.6044 54.6559 20.3528 55.3821Z" fill="#F58120"/>
<path d="M22.0409 5.10419C22.141 5.28466 22.2043 5.48325 22.227 5.6884C22.2498 5.89355 22.2315 6.10118 22.1732 6.2992C22.115 6.49721 22.0179 6.68167 21.8877 6.84184C21.7575 7.00201 21.5968 7.1347 21.4149 7.23219C19.607 8.21485 17.89 9.35599 16.2839 10.6422C16.0072 10.8606 15.6663 10.9815 15.3139 10.9862C15.0781 10.99 14.8448 10.9382 14.6329 10.835C14.4209 10.7318 14.2362 10.5801 14.0939 10.3922C13.9657 10.2326 13.8703 10.0493 13.8133 9.85267C13.7563 9.65608 13.7388 9.45015 13.7617 9.24675C13.7847 9.04336 13.8477 8.84652 13.9471 8.66758C14.0465 8.48865 14.1803 8.33116 14.3409 8.20419C16.0857 6.78897 17.9607 5.54239 19.9409 4.48119C20.3027 4.28721 20.7265 4.24416 21.1199 4.36143C21.5133 4.47871 21.8443 4.74678 22.0409 5.10719V5.10419Z" fill="#F58120"/>
<path d="M11.2148 39.051V35.925H12.8418C12.8108 36.425 12.7788 36.957 12.7788 37.489C12.7788 38.021 12.8098 38.553 12.8418 39.053L11.2148 39.051Z" fill="#F58120"/>
<path d="M14.4363 66.896C12.6821 65.4809 11.0494 63.9215 9.5553 62.234C9.42056 62.0806 9.31764 61.9019 9.25249 61.7083C9.18734 61.5147 9.16126 61.3102 9.17577 61.1064C9.19029 60.9027 9.24509 60.7039 9.33702 60.5216C9.42895 60.3392 9.55617 60.1769 9.7113 60.044C9.86095 59.9037 10.0376 59.7953 10.2304 59.7253C10.4232 59.6553 10.6283 59.6253 10.8331 59.637C11.0379 59.6487 11.2382 59.7019 11.4218 59.7933C11.6055 59.8848 11.7686 60.0126 11.9013 60.169C13.2675 61.7133 14.7644 63.137 16.3753 64.424C16.5364 64.5508 16.6707 64.7082 16.7706 64.8872C16.8704 65.0662 16.9338 65.2633 16.957 65.4669C16.9803 65.6705 16.9629 65.8768 16.906 66.0737C16.849 66.2706 16.7536 66.4542 16.6253 66.614C16.4855 66.8047 16.3014 66.9585 16.0888 67.062C15.8762 67.1655 15.6416 67.2156 15.4053 67.208C15.0561 67.215 14.7146 67.1048 14.4353 66.895L14.4363 66.896Z" fill="#F58120"/>
<path d="M19.0048 56.4151C19.4318 56.0442 19.8809 55.6996 20.3498 55.3831C22.8154 57.8128 25.7698 59.69 29.0168 60.8901V60.9211C29.9678 62.1945 31.1632 63.2654 32.5331 64.0712C33.9029 64.877 35.4197 65.4016 36.9948 65.6141C29.6741 65.4048 22.7235 62.3495 17.6195 57.0974C12.5154 51.8454 9.66016 44.8103 9.66016 37.4866C9.66016 30.163 12.5154 23.1279 17.6195 17.8758C22.7235 12.6237 29.6741 9.56849 36.9948 9.35913C35.4197 9.57171 33.9029 10.0962 32.5331 10.9021C31.1632 11.7079 29.9678 12.7788 29.0168 14.0521V14.0831C25.7698 15.2832 22.8154 17.1605 20.3498 19.5901C19.8742 19.2951 19.4243 18.9605 19.0048 18.5901L17.0048 20.9991C17.4114 21.3431 17.8181 21.6561 18.2248 21.9381C15.0246 25.9291 13.1432 30.8156 12.8408 35.9221H11.2138V39.0521H12.8408C13.1381 44.1739 15.0293 49.0745 18.2498 53.0681C17.8054 53.343 17.3867 53.6572 16.9988 54.0071L19.0048 56.4151Z" fill="#F58120"/>
<path d="M9.90097 17.337C8.70301 19.0032 7.65587 20.7729 6.77197 22.625C6.63978 22.8947 6.4352 23.1224 6.18109 23.2825C5.92697 23.4427 5.63333 23.5291 5.33297 23.532C5.10567 23.5249 4.88216 23.4719 4.67597 23.376C4.48877 23.2874 4.32084 23.1628 4.18179 23.0093C4.04274 22.8559 3.93527 22.6765 3.86553 22.4815C3.7958 22.2865 3.76515 22.0797 3.77535 21.8728C3.78555 21.666 3.83639 21.4632 3.92497 21.276C4.91733 19.2528 6.07914 17.3172 7.39797 15.49C7.63917 15.1587 8.00178 14.9366 8.40642 14.8721C8.81107 14.8076 9.22477 14.9061 9.55697 15.146C9.72729 15.264 9.87189 15.4154 9.98202 15.591C10.0921 15.7665 10.1655 15.9626 10.1977 16.1673C10.2298 16.3721 10.2201 16.5812 10.1691 16.7821C10.1181 16.9829 10.0269 17.1714 9.90097 17.336V17.337Z" fill="#F58120"/>
<path d="M3.9871 53.8501C3.01596 51.8291 2.2304 49.7241 1.6401 47.5611C1.52461 47.1627 1.57176 46.7348 1.7712 46.3712C1.97065 46.0076 2.30612 45.7378 2.7041 45.6211C3.10716 45.5122 3.5369 45.5666 3.90009 45.7725C4.26328 45.9784 4.53062 46.3193 4.6441 46.7211C5.19089 48.7005 5.91343 50.6272 6.8031 52.4781C6.89436 52.6631 6.94813 52.8644 6.96131 53.0703C6.97449 53.2762 6.94683 53.4827 6.87991 53.6778C6.813 53.873 6.70815 54.053 6.5714 54.2075C6.43465 54.362 6.26871 54.488 6.08311 54.5781C5.87232 54.6919 5.63438 54.7459 5.3951 54.7341C5.10227 54.733 4.8155 54.6505 4.56685 54.4958C4.31821 54.3411 4.11748 54.1203 3.9871 53.8581V53.8501Z" fill="#F58120"/>
<path d="M0.263672 37.298C0.265295 35.1463 0.464127 32.9993 0.857672 30.884C0.8892 30.679 0.961701 30.4825 1.07085 30.3061C1.17999 30.1298 1.32355 29.9772 1.49295 29.8576C1.66234 29.7379 1.85411 29.6536 2.0568 29.6097C2.25949 29.5658 2.46894 29.5632 2.67267 29.602C3.07896 29.6773 3.43879 29.9107 3.6733 30.2509C3.9078 30.5912 3.99784 31.0105 3.92367 31.417C3.57452 33.4216 3.39654 35.4522 3.39167 37.487C3.39178 37.9052 3.22816 38.3068 2.93584 38.6058C2.64353 38.9049 2.24575 39.0776 1.82767 39.087C1.62538 39.0933 1.42387 39.059 1.23502 38.9862C1.04617 38.9134 0.873799 38.8035 0.728054 38.6631C0.582309 38.5227 0.466139 38.3545 0.386386 38.1685C0.306632 37.9825 0.264909 37.7824 0.263672 37.58L0.263672 37.298Z" fill="#F58120"/>
<path d="M54 31H23C18.5817 31 15 34.5817 15 39C15 43.4183 18.5817 47 23 47H54C58.4183 47 62 43.4183 62 39C62 34.5817 58.4183 31 54 31Z" fill="white"/>
<path d="M54 32H23C19.134 32 16 35.134 16 39C16 42.866 19.134 46 23 46H54C57.866 46 61 42.866 61 39C61 35.134 57.866 32 54 32Z" stroke="#F58120" stroke-width="2"/>
<path d="M32.328 41.848C32.2213 41.9493 32.0907 42 31.936 42C31.7813 42 31.6507 41.9467 31.544 41.84C31.4427 41.7333 31.392 41.6053 31.392 41.456C31.392 41.3013 31.4427 41.1707 31.544 41.064C31.6507 40.9573 31.7813 40.904 31.936 40.904C32.0907 40.904 32.2213 40.9573 32.328 41.064C32.4347 41.1707 32.488 41.3013 32.488 41.456C32.488 41.6107 32.4347 41.7413 32.328 41.848ZM36.0188 42.056C35.2241 42.056 34.5521 41.7893 34.0028 41.256C33.4535 40.7173 33.1788 40.0373 33.1788 39.216C33.1788 38.3893 33.4535 37.7093 34.0028 37.176C34.5521 36.6373 35.2241 36.368 36.0188 36.368C36.8188 36.368 37.4908 36.6373 38.0348 37.176C38.5841 37.7093 38.8588 38.3867 38.8588 39.208C38.8588 39.72 38.7468 40.184 38.5228 40.6C38.3041 41.0107 38.0001 41.3413 37.6108 41.592L38.9468 43.008H37.7868L36.8108 41.952C36.5708 42.0213 36.3068 42.056 36.0188 42.056ZM36.0188 37.2C35.4588 37.2 35.0001 37.384 34.6428 37.752C34.2908 38.12 34.1148 38.608 34.1148 39.216C34.1148 39.8187 34.2908 40.3067 34.6428 40.68C35.0001 41.048 35.4588 41.232 36.0188 41.232C36.5788 41.232 37.0348 41.048 37.3868 40.68C37.7441 40.3067 37.9228 39.8187 37.9228 39.216C37.9228 38.608 37.7441 38.12 37.3868 37.752C37.0348 37.384 36.5788 37.2 36.0188 37.2ZM43.5317 42L43.1317 40.864H40.8037L40.4037 42H39.4517L41.4437 36.432H42.4997L44.4917 42H43.5317ZM41.0517 40.152H42.8837L41.9717 37.536L41.0517 40.152Z" fill="#F58120"/>
</g>
<defs>
<clipPath id="clip0_219_3212">
<rect width="75.354" height="75" fill="white"/>
</clipPath>
</defs>
</svg>
