<svg width="32" height="41" viewBox="0 0 32 41" fill="none" xmlns="http://www.w3.org/2000/svg">
<g clip-path="url(#clip0_236_11490)">
<path d="M15.824 0C11.6287 0.00476411 7.60655 1.67346 4.64001 4.64C1.67346 7.60655 0.00476411 11.6287 0 15.824C0 20.063 2.568 25.506 7.632 32.002C9.9523 34.9703 12.465 37.783 15.154 40.422C15.3343 40.5943 15.5741 40.6905 15.8235 40.6905C16.0729 40.6905 16.3127 40.5943 16.493 40.422C19.1824 37.7824 21.6955 34.969 24.016 32C29.081 25.5 31.648 20.061 31.648 15.822C31.6427 11.627 29.9738 7.60541 27.0073 4.6393C24.0408 1.67319 20.019 0.00476308 15.824 0ZM15.824 27.127C13.5891 27.127 11.4043 26.4643 9.54606 25.2226C7.68778 23.9809 6.23943 22.2161 5.38416 20.1513C4.52889 18.0865 4.30511 15.8145 4.74113 13.6225C5.17714 11.4305 6.25336 9.41703 7.83369 7.83669C9.41403 6.25636 11.4275 5.18014 13.6195 4.74413C15.8115 4.30811 18.0835 4.53189 20.1483 5.38716C22.2131 6.24243 23.9779 7.69078 25.2196 9.54906C26.4613 11.4073 27.124 13.5921 27.124 15.827C27.12 18.8227 25.9282 21.6946 23.8099 23.8129C21.6916 25.9312 18.8197 27.123 15.824 27.127Z" fill="#34A11A"/>
<path d="M23.5828 14.4593L16.4828 8.00034C16.3047 7.83921 16.073 7.75 15.8328 7.75C15.5926 7.75 15.3609 7.83921 15.1828 8.00034L8.08279 14.4593C7.91727 14.6098 7.80891 14.8129 7.77611 15.0342C7.7433 15.2555 7.78806 15.4813 7.9028 15.6733C7.99373 15.8192 8.12073 15.9392 8.27154 16.0217C8.42236 16.1042 8.5919 16.1465 8.76379 16.1443H9.70379V22.2803C9.70379 22.5373 9.80588 22.7838 9.98761 22.9655C10.1693 23.1473 10.4158 23.2493 10.6728 23.2493H12.9338C13.1908 23.2493 13.4373 23.1473 13.619 22.9655C13.8007 22.7838 13.9028 22.5373 13.9028 22.2803V18.7283C13.9028 18.4714 14.0049 18.2249 14.1866 18.0432C14.3683 17.8614 14.6148 17.7593 14.8718 17.7593H16.8098C17.0668 17.7593 17.3133 17.8614 17.495 18.0432C17.6767 18.2249 17.7788 18.4714 17.7788 18.7283V22.2803C17.7788 22.5373 17.8809 22.7838 18.0626 22.9655C18.2443 23.1473 18.4908 23.2493 18.7478 23.2493H21.0088C21.2658 23.2493 21.5123 23.1473 21.694 22.9655C21.8757 22.7838 21.9778 22.5373 21.9778 22.2803V16.1483H22.9178C23.0897 16.1505 23.2592 16.1082 23.41 16.0257C23.5609 15.9432 23.6879 15.8232 23.7788 15.6773C23.8927 15.4832 23.9354 15.2554 23.8997 15.0331C23.8639 14.8109 23.7519 14.608 23.5828 14.4593Z" fill="#34A11A"/>
</g>
<defs>
<clipPath id="clip0_236_11490">
<rect width="31.648" height="40.691" fill="white"/>
</clipPath>
</defs>
</svg>
