<svg id="mail" xmlns="http://www.w3.org/2000/svg" width="38.646" height="27.173" viewBox="0 0 38.646 27.173">
  <g id="Group_1883" data-name="Group 1883" transform="translate(26.585 1.941)">
    <g id="Group_1882" data-name="Group 1882" transform="translate(0 0)">
      <path id="Path_1637" data-name="Path 1637" d="M363.932,101.721l-11.72,11.645,11.72,11.645a3.357,3.357,0,0,0,.34-1.455v-20.38A3.357,3.357,0,0,0,363.932,101.721Z" transform="translate(-352.211 -101.721)" fill="#34a11a"/>
    </g>
  </g>
  <g id="Group_1885" data-name="Group 1885" transform="translate(1.941 0)">
    <g id="Group_1884" data-name="Group 1884">
      <path id="Path_1638" data-name="Path 1638" d="M59.029,76H27.176a3.357,3.357,0,0,0-1.455.34l14.98,14.9a3.4,3.4,0,0,0,4.8,0l14.98-14.9A3.357,3.357,0,0,0,59.029,76Z" transform="translate(-25.721 -76)" fill="#34a11a"/>
    </g>
  </g>
  <g id="Group_1887" data-name="Group 1887" transform="translate(0 1.941)">
    <g id="Group_1886" data-name="Group 1886" transform="translate(0 0)">
      <path id="Path_1639" data-name="Path 1639" d="M.34,101.721A3.357,3.357,0,0,0,0,103.176v20.38a3.357,3.357,0,0,0,.34,1.455l11.72-11.645Z" transform="translate(0 -101.721)" fill="#34a11a"/>
    </g>
  </g>
  <g id="Group_1889" data-name="Group 1889" transform="translate(1.941 15.187)">
    <g id="Group_1888" data-name="Group 1888">
      <path id="Path_1640" data-name="Path 1640" d="M48.763,277.211,47.1,278.87a5.667,5.667,0,0,1-8.005,0l-1.658-1.659-11.72,11.645a3.357,3.357,0,0,0,1.455.34H59.029a3.357,3.357,0,0,0,1.455-.34Z" transform="translate(-25.721 -277.211)" fill="#34a11a"/>
    </g>
  </g>
</svg>
