<svg width="495" height="623" viewBox="0 0 495 623" fill="none" xmlns="http://www.w3.org/2000/svg">
<ellipse cx="232.244" cy="580.769" rx="189.74" ry="41.254" fill="#E7E7E7"/>
<path d="M272.913 480.793C272.913 480.793 284.884 525.612 276.218 555.195C279.791 555.965 281.76 555.195 281.76 555.195C281.76 555.195 286.883 498.421 272.913 480.793Z" fill="#2D6C59"/>
<path d="M294.968 503.946C294.968 503.946 283.968 537.446 284.218 554.196C281.968 560.446 278.43 554.196 278.43 554.196C278.43 554.196 281.76 520.446 294.968 503.946Z" fill="#2D6C59"/>
<path d="M294.968 516.446C294.968 516.446 288.241 544.346 289.296 558.017C287.889 563.232 284.848 558.298 284.848 558.298C284.848 558.298 285.667 530.565 294.968 516.446Z" fill="#2D6C59"/>
<path d="M296.916 552.571C296.916 552.571 308.718 538.696 316.968 536.196C318.968 534.071 316.968 534.196 316.968 534.196C316.968 534.196 298.718 543.571 293.843 553.196C294.843 555.696 296.916 552.571 296.916 552.571Z" fill="#2D6C59"/>
<path d="M297.889 536.848C297.889 536.848 291.108 544.023 290.447 557.677C287.468 558.321 287.002 556.246 287.002 556.246C287.002 556.246 293.093 533.473 302.593 532.647C299.593 534.696 297.889 536.848 297.889 536.848Z" fill="#2D6C59"/>
<path d="M279.795 548.779C279.795 548.779 278.801 535.181 267.215 525.508C261.503 520.739 262.796 517.098 258.092 515.815C253.388 514.532 246.545 510.541 244.692 508.687C242.839 506.834 215.011 500.332 207.884 502.898C215.867 504.894 223.559 516.38 227.551 516.665C231.542 516.95 236.682 521.552 242.384 525.543C248.086 529.534 252.532 527.076 256.239 528.929C259.946 530.782 273.488 538.058 279.795 548.779Z" fill="#2D6C59"/>
<path d="M272.734 537.899C270.999 535.658 269.158 533.502 267.281 531.393C266.333 530.348 265.357 529.326 264.315 528.393C263.275 527.476 262.127 526.645 260.965 525.866C259.796 525.091 258.571 524.414 257.309 523.786C256.048 523.156 254.749 522.548 253.527 521.782C252.299 521.043 251.158 520.11 250.094 519.216C249.009 518.37 247.79 517.659 246.554 516.994C241.563 514.379 236.27 512.321 231.026 510.195L215.218 503.947C220.548 505.871 225.904 507.721 231.207 509.726C236.512 511.722 241.813 513.759 246.883 516.375C248.143 517.044 249.389 517.755 250.545 518.644C251.659 519.56 252.724 520.415 253.914 521.161C255.088 521.912 256.355 522.52 257.621 523.166C258.89 523.811 260.142 524.518 261.328 525.319C262.506 526.131 263.67 526.956 264.713 527.961C265.75 528.953 266.697 530.017 267.617 531.101C269.465 533.261 271.116 535.573 272.734 537.899Z" fill="#256653"/>
<path d="M259.466 518.37C260.992 519.874 262.369 521.539 263.529 523.357C264.116 524.261 264.622 525.221 265.035 526.224C265.448 527.226 265.751 528.288 265.836 529.389L265.851 529.588L265.654 529.618C264.572 529.781 263.489 529.93 262.398 530.03C261.308 530.122 260.213 530.193 259.116 530.163C258.02 530.142 256.924 530.046 255.845 529.846C254.782 529.615 253.686 529.322 252.81 528.658C253.724 529.261 254.82 529.476 255.881 529.635C256.951 529.79 258.035 529.847 259.117 529.827C260.199 529.804 261.281 529.747 262.359 529.635C263.438 529.524 264.51 529.361 265.581 529.19L265.4 529.418C265.259 527.327 264.307 525.356 263.243 523.533C262.705 522.615 262.102 521.734 261.468 520.876C260.842 520.01 260.179 519.168 259.466 518.37Z" fill="#256653"/>
<path d="M252.494 514.819C253.756 516.021 254.796 517.441 255.721 518.92C256.644 520.404 257.391 521.994 258.027 523.622L258.119 523.858L257.868 523.906C255.784 524.308 253.648 524.473 251.528 524.325C249.42 524.155 247.289 523.738 245.41 522.757C247.363 523.559 249.465 523.883 251.548 523.976C252.593 524.015 253.639 524.003 254.682 523.92C255.725 523.834 256.757 523.667 257.787 523.487L257.628 523.771C257.035 522.15 256.282 520.593 255.445 519.082C254.585 517.586 253.631 516.133 252.494 514.819Z" fill="#256653"/>
<path d="M239.412 506.969C240.875 508.242 242.214 509.66 243.427 511.183C244.634 512.708 245.698 514.376 246.369 516.24L246.457 516.485L246.195 516.52C244.288 516.773 242.372 516.944 240.453 517.043C238.534 517.131 236.612 517.166 234.693 517.077C236.61 516.976 238.522 516.859 240.43 516.697C242.339 516.55 244.242 516.349 246.137 516.097L245.963 516.377C245.353 514.572 244.296 512.938 243.171 511.38C242.022 509.831 240.757 508.364 239.412 506.969Z" fill="#256653"/>
<path d="M227.83 505.447C229.325 506.154 230.766 506.98 232.125 507.937C232.804 508.415 233.466 508.926 234.061 509.52C234.649 510.112 235.229 510.763 235.513 511.619L235.568 511.785L235.41 511.864C234.568 512.283 233.683 512.46 232.804 512.616C231.923 512.763 231.039 512.875 230.153 512.958C228.38 513.096 226.605 513.168 224.83 513.119C226.598 512.967 228.363 512.818 230.116 512.597C230.993 512.494 231.867 512.373 232.731 512.212C233.588 512.044 234.457 511.846 235.217 511.494L235.114 511.738C234.887 511.008 234.353 510.364 233.791 509.79C233.219 509.215 232.591 508.686 231.944 508.183C230.636 507.19 229.25 506.29 227.83 505.447Z" fill="#256653"/>
<path d="M276.335 484.548C276.335 484.548 271.488 466.016 258.944 463.166C246.4 460.315 242.408 455.468 234.425 452.902C226.442 450.336 218.744 456.608 218.744 456.608C218.744 456.608 228.295 456.751 237.489 463.379C246.683 470.007 263.861 482.196 276.335 484.548Z" fill="#60A596"/>
<path d="M276.335 484.548C276.335 484.548 270.429 472.495 257.885 469.644C245.341 466.793 242.451 459.761 234.468 457.195C226.485 454.629 218.744 456.608 218.744 456.608C218.744 456.608 228.295 456.751 237.489 463.379C246.683 470.007 263.861 482.196 276.335 484.548Z" fill="#2D6C59"/>
<path d="M313.113 537.577C313.113 537.577 317.104 529.452 324.232 524.748C331.36 520.044 336.634 521.113 340.768 518.868C344.902 516.623 355.308 514.342 360.155 515.91C365.002 517.478 373.225 517.621 376.526 527.171C373.269 525.175 367.995 527.741 362.293 529.737C356.591 531.733 349.869 527.741 344.82 529.737C339.771 531.733 335.209 536.579 329.792 536.865C324.374 537.149 313.113 537.577 313.113 537.577Z" fill="#2D6C59"/>
<path d="M296.505 537.577C296.505 537.577 295.864 526.672 305.058 521.326C314.252 515.98 323.019 512.132 326.654 505.931C330.289 499.73 342.263 496.737 353.81 501.868C345.257 501.44 334.352 509.566 322.805 519.829C311.259 530.093 296.505 537.577 296.505 537.577Z" fill="#327F6B"/>
<path d="M296.505 537.577C296.505 537.577 295.864 526.672 305.058 521.326C314.252 515.98 323.249 517.313 326.884 511.112C330.519 504.911 342.263 496.736 353.81 501.868C345.257 501.44 334.352 509.566 322.805 519.829C311.259 530.093 296.505 537.577 296.505 537.577Z" fill="#2D6C59"/>
<path d="M288.646 537.577C288.646 537.577 290.111 512.192 300.926 507.228C311.741 502.264 311 492.115 322.6 486.671C334.2 481.227 343.36 472.317 358.106 473.875C344.915 478.258 341.272 484.41 335.754 491.765C330.236 499.119 323.766 502.608 321.395 505.478C319.025 508.347 311.767 517.951 307.279 519.46C302.792 520.97 291.202 531.316 288.646 537.577Z" fill="#327F6B"/>
<path d="M288.646 537.577C288.646 537.577 293.361 515.659 304.176 510.696C314.991 505.732 313.553 495.765 325.153 490.321C336.753 484.877 343.36 472.318 358.106 473.876C344.915 478.259 341.272 484.411 335.754 491.766C330.236 499.12 323.766 502.609 321.395 505.479C319.025 508.348 311.767 517.952 307.279 519.461C302.792 520.97 291.202 531.316 288.646 537.577Z" fill="#2D6C59"/>
<path d="M272.913 538.706C272.913 538.706 262.435 525.048 250.105 526.484C237.775 527.92 240.412 535.775 228.437 532.542C216.463 529.309 197.646 540.998 195.935 550.121C206.484 541.853 213.896 540.428 229.862 542.708C245.829 544.989 263.505 536.985 272.913 538.706Z" fill="#327F6B"/>
<path d="M272.913 538.706C272.913 538.706 262.922 531.211 250.593 532.647C238.263 534.083 240.692 539.179 228.718 535.946C216.744 532.713 197.647 540.998 195.936 550.122C206.485 541.854 213.897 540.429 229.863 542.709C245.829 544.989 263.505 536.985 272.913 538.706Z" fill="#2D6C59"/>
<path d="M276.218 555.196C276.218 555.196 278.843 542.196 265.093 534.821C271.218 534.571 278.265 542.196 280.304 553.321C281.093 558.446 276.218 555.196 276.218 555.196Z" fill="#2D6C59"/>
<path d="M272.913 507.926C272.913 507.926 263.22 495.667 266.926 477.42C270.632 459.174 271.773 459.744 276.619 451.476C281.466 443.209 284.888 432.945 294.866 432.09C304.844 431.235 303.419 425.248 313.112 429.809C307.98 429.524 298.002 434.299 298.002 441.569C298.002 448.839 295.864 453.971 293.084 457.178C290.304 460.385 291.373 467.869 288.38 473.001C285.386 478.133 280.468 492.459 277.261 496.629C274.054 500.799 274.909 509.352 275.123 509.993C275.337 510.635 272.913 507.926 272.913 507.926Z" fill="#327F6B"/>
<path d="M295.151 502.789C295.151 502.789 289.734 480.557 294.011 466.872C298.287 453.187 304.845 451.762 311.402 444.349C317.959 436.936 323.376 440.072 323.376 440.072C323.376 440.072 319.67 445.204 319.1 459.459C318.53 473.714 312.45 484.163 303.419 491.675C294.389 499.189 295.151 502.789 295.151 502.789Z" fill="#60A596"/>
<path d="M271.488 513.358C271.488 513.358 264.646 489.965 250.961 484.548C237.276 479.131 236.421 481.412 226.728 480.842C217.035 480.272 205.345 484.833 199.929 489.11C214.184 484.833 229.009 491.642 238.418 497.076C247.825 502.509 271.488 513.358 271.488 513.358Z" fill="#327F6B"/>
<path d="M271.488 513.358C271.488 513.358 261.224 497.863 247.54 492.446C233.855 487.029 235.037 482.641 225.344 482.071C215.651 481.501 205.345 484.834 199.929 489.11C214.184 484.833 229.009 491.642 238.418 497.076C247.825 502.509 271.488 513.358 271.488 513.358Z" fill="#2D6C59"/>
<path d="M293.037 503.581C295.137 498.193 296.995 492.605 298.027 486.926C298.161 486.216 298.253 485.504 298.342 484.792C298.447 484.075 298.515 483.303 298.666 482.567C298.933 481.08 299.373 479.602 300.014 478.223C301.304 475.447 303.207 473.207 304.119 470.494C304.619 469.17 304.867 467.729 305.278 466.294C305.659 464.867 306.106 463.462 306.575 462.065C307.52 459.274 308.61 456.533 309.88 453.875C311.154 451.222 312.601 448.64 314.371 446.284C316.139 443.955 318.267 441.771 320.968 440.571C318.303 441.849 316.261 444.073 314.572 446.432C312.884 448.817 311.522 451.418 310.334 454.084C309.15 456.755 308.146 459.504 307.289 462.295C306.865 463.691 306.462 465.095 306.126 466.512C305.941 467.219 305.809 467.927 305.645 468.643L305.389 469.74L305.065 470.822C304.162 473.739 302.252 476.144 301.158 478.729C300.599 480.028 300.232 481.396 300.022 482.801C299.898 483.506 299.859 484.2 299.773 484.936C299.702 485.681 299.626 486.427 299.509 487.162C299.086 490.116 298.388 492.999 297.609 495.853C296.813 498.707 295.924 501.51 294.9 504.311L293.037 503.581Z" fill="#2D6C59"/>
<path d="M293.968 473.695C294.666 476.088 295.394 478.47 296.148 480.841C296.541 482.021 296.921 483.204 297.348 484.369C297.78 485.527 298.234 486.695 298.847 487.731L298.488 487.661C299.508 486.93 300.535 486.209 301.575 485.508C302.619 484.813 303.659 484.11 304.738 483.467C306.88 482.161 309.076 480.93 311.384 479.946C310.264 480.508 309.186 481.145 308.118 481.796C307.045 482.437 305.988 483.106 304.944 483.793C302.854 485.164 300.791 486.577 298.782 488.065L298.559 488.231L298.423 487.996C297.779 486.877 297.345 485.703 296.92 484.525C296.51 483.343 296.119 482.157 295.782 480.955C295.089 478.555 294.49 476.134 293.968 473.695Z" fill="#2D6C59"/>
<path d="M298.968 462.279C299.162 464.764 299.487 467.235 299.884 469.688C300.306 472.136 300.799 474.575 301.542 476.938L301.203 476.791C303.738 475.545 306.23 474.201 308.618 472.69C309.818 471.944 310.996 471.161 312.117 470.303C313.227 469.444 314.377 468.571 315.134 467.363C314.449 468.618 313.345 469.578 312.276 470.504C311.175 471.407 310.017 472.237 308.835 473.029C307.651 473.817 306.429 474.547 305.191 475.247C303.95 475.941 302.701 476.623 301.414 477.231L301.154 477.354L301.075 477.084C300.366 474.677 299.843 472.223 299.522 469.744C299.184 467.267 298.998 464.773 298.968 462.279Z" fill="#2D6C59"/>
<path d="M304.801 453.362C304.683 455.517 304.709 457.674 304.844 459.816C305.015 461.951 305.28 464.096 305.985 466.101L305.635 465.969C306.661 465.362 307.683 464.741 308.647 464.031C309.613 463.326 310.551 462.579 311.459 461.796C312.373 461.019 313.26 460.209 314.118 459.367C314.985 458.534 315.833 457.679 316.635 456.779C315.164 458.691 313.509 460.462 311.724 462.095C310.838 462.92 309.886 463.671 308.921 464.404C307.949 465.129 306.934 465.801 305.874 466.397L305.615 466.542L305.524 466.264C304.838 464.175 304.55 462 304.477 459.835C304.403 457.669 304.516 455.503 304.801 453.362Z" fill="#2D6C59"/>
<path d="M310.135 446.862C309.899 448.031 309.779 449.215 309.778 450.391C309.801 451.564 309.935 452.738 310.357 453.811L310.096 453.662C310.811 453.522 311.516 453.259 312.208 452.971C312.9 452.679 313.572 452.33 314.234 451.964C315.573 451.254 316.863 450.446 318.157 449.634C316.999 450.634 315.749 451.523 314.442 452.327C313.782 452.718 313.105 453.085 312.399 453.403C311.695 453.722 310.965 454.009 310.175 454.133L309.978 454.164L309.913 453.984C309.495 452.821 309.348 451.588 309.429 450.383C309.499 449.177 309.728 447.987 310.135 446.862Z" fill="#2D6C59"/>
<path d="M274.453 510.736C274.161 510.444 274.049 510.266 273.886 510.036C273.734 509.817 273.62 509.597 273.487 509.376C273.263 508.931 273.049 508.485 272.89 508.03C272.542 507.125 272.319 506.205 272.137 505.284C271.807 503.441 271.667 501.593 271.689 499.761C271.705 496.093 272.219 492.487 272.922 488.943C273.651 485.414 274.431 481.871 275.813 478.475C276.493 476.783 277.33 475.169 278.081 473.57C278.845 471.972 279.441 470.328 279.88 468.619C280.61 465.137 281.618 461.624 282.848 458.259C284.075 454.879 285.49 451.565 287.157 448.379C288.826 445.198 290.732 442.127 293.026 439.356C295.317 436.605 298.044 434.123 301.309 432.612C298.079 434.197 295.427 436.725 293.213 439.509C290.997 442.312 289.174 445.403 287.588 448.598C286.005 451.797 284.674 455.118 283.533 458.498C282.386 461.892 281.474 465.298 280.829 468.847C280.428 470.62 279.847 472.375 279.111 474.032C278.386 475.696 277.618 477.289 277.008 478.941C275.785 482.23 275.094 485.739 274.443 489.228C273.826 492.717 273.403 496.25 273.463 499.751C273.477 501.501 273.651 503.236 273.986 504.911C274.169 505.742 274.388 506.564 274.7 507.325C274.844 507.715 275.028 508.071 275.212 508.423C275.316 508.582 275.411 508.76 275.518 508.906C275.611 509.043 275.765 509.227 275.792 509.251L274.453 510.736Z" fill="#2D6C59"/>
<path d="M269.529 470.779C270.255 473.501 271.014 476.213 271.805 478.911C272.22 480.254 272.615 481.603 273.069 482.93C273.534 484.244 274.006 485.591 274.701 486.751L274.341 486.689C276.166 485.321 277.967 483.923 279.771 482.529L282.466 480.423C283.367 479.724 284.265 479.02 285.134 478.279C283.505 479.882 281.77 481.373 280.012 482.83C278.254 484.288 276.448 485.687 274.644 487.086L274.421 487.259L274.284 487.024C273.543 485.755 273.1 484.414 272.64 483.076C272.202 481.732 271.796 480.38 271.438 479.016C270.708 476.291 270.078 473.543 269.529 470.779Z" fill="#2D6C59"/>
<path d="M274.288 461.303C274.535 463.784 274.911 466.247 275.36 468.691C275.833 471.13 276.378 473.558 277.17 475.904L276.828 475.764C279.336 474.465 281.799 473.069 284.155 471.508C285.339 470.737 286.5 469.929 287.603 469.048C288.694 468.166 289.826 467.269 290.558 466.045C289.899 467.314 288.816 468.298 287.767 469.245C286.685 470.171 285.545 471.025 284.38 471.841C283.212 472.654 282.006 473.409 280.783 474.135C279.557 474.855 278.322 475.563 277.049 476.198L276.792 476.326L276.707 476.058C275.948 473.667 275.374 471.224 275 468.753C274.608 466.285 274.37 463.796 274.288 461.303Z" fill="#2D6C59"/>
<path d="M279.933 452.266C279.86 454.423 279.932 456.579 280.111 458.718C280.327 460.849 280.637 462.988 281.384 464.978L281.031 464.853C282.044 464.225 283.052 463.583 284.001 462.852C284.952 462.126 285.874 461.36 286.766 460.558C287.663 459.762 288.533 458.933 289.373 458.074C290.222 457.223 291.052 456.35 291.835 455.434C290.405 457.377 288.787 459.182 287.037 460.852C286.168 461.695 285.232 462.466 284.283 463.219C283.327 463.964 282.326 464.657 281.278 465.275L281.022 465.426L280.925 465.15C280.195 463.076 279.862 460.908 279.744 458.745C279.624 456.58 279.692 454.411 279.933 452.266Z" fill="#2D6C59"/>
<path d="M285.128 445.655C284.916 446.829 284.821 448.015 284.845 449.19C284.893 450.362 285.051 451.533 285.496 452.597L285.231 452.454C285.943 452.299 286.643 452.021 287.328 451.719C288.014 451.413 288.678 451.05 289.332 450.669C290.656 449.931 291.929 449.096 293.205 448.257C292.069 449.281 290.838 450.196 289.548 451.028C288.896 451.433 288.227 451.814 287.528 452.147C286.831 452.481 286.107 452.783 285.32 452.924L285.124 452.959L285.055 452.78C284.613 451.626 284.439 450.396 284.496 449.19C284.541 447.983 284.746 446.788 285.128 445.655Z" fill="#2D6C59"/>
<path d="M288.728 502.92C288.728 502.92 298.27 493.26 300.921 499.68C303.572 506.1 292.439 520.944 274.15 523.992C255.861 527.04 259.572 536.847 259.572 536.847C259.572 536.847 250.737 530.486 259.263 513.787C267.788 497.089 282.897 496.028 288.728 502.92Z" fill="#388C38"/>
<path d="M288.937 503.42C288.701 503.37 288.217 503.391 287.836 503.483C287.43 503.561 287.026 503.701 286.627 503.854C285.831 504.18 285.066 504.613 284.328 505.092C282.852 506.058 281.504 507.243 280.231 508.496C279.578 509.109 278.991 509.782 278.359 510.427C277.731 511.098 277.057 511.726 276.344 512.303C274.914 513.453 273.338 514.394 271.724 515.22C268.518 516.882 265.057 518.122 262.401 520.569C261.078 521.771 260.022 523.268 259.305 524.914C258.579 526.56 258.137 528.325 257.885 530.111C258.096 528.32 258.496 526.54 259.189 524.864C259.873 523.188 260.909 521.641 262.228 520.385C264.879 517.829 268.359 516.493 271.489 514.774C273.067 513.92 274.584 512.963 275.944 511.817C277.309 510.69 278.409 509.271 279.698 507.963C280.966 506.658 282.315 505.413 283.838 504.365C284.601 503.844 285.401 503.365 286.269 502.986C286.708 502.806 287.156 502.639 287.635 502.534C288.13 502.431 288.564 502.338 289.218 502.458L288.937 503.42Z" fill="#207A20"/>
<path d="M258.218 518.416C258.898 518.047 259.641 517.81 260.382 517.589C261.13 517.386 261.893 517.241 262.659 517.123C264.195 516.899 265.752 516.864 267.3 516.915L267.648 516.926L267.519 517.252C266.927 518.746 266.382 520.258 265.857 521.778C265.333 523.298 264.835 524.828 264.384 526.378C264.627 524.779 265.037 523.212 265.485 521.659C265.948 520.11 266.482 518.583 267.058 517.073L267.277 517.41C266.515 517.374 265.751 517.352 264.988 517.368C264.225 517.384 263.464 517.434 262.703 517.497C261.188 517.65 259.667 517.894 258.218 518.416Z" fill="#207A20"/>
<path d="M263.28 510.446C265.602 510.155 267.942 509.998 270.288 509.995C271.461 509.991 272.636 510.051 273.809 510.167C274.978 510.296 276.163 510.444 277.294 510.893L277.459 510.959L277.447 511.132C277.38 512.127 277.288 513.12 277.144 514.107C276.991 515.092 276.814 516.077 276.533 517.036C276.263 517.996 275.955 518.949 275.536 519.855C275.107 520.753 274.624 521.639 273.967 522.384C274.565 521.592 274.974 520.682 275.329 519.768C275.683 518.85 275.962 517.904 276.183 516.947C276.41 515.991 276.561 515.018 276.705 514.046C276.833 513.071 276.91 512.09 276.962 511.107L277.116 511.345C276.057 510.956 274.905 510.764 273.758 510.63C272.607 510.496 271.445 510.435 270.281 510.401C267.954 510.326 265.617 510.357 263.28 510.446Z" fill="#207A20"/>
<path d="M272.563 501.946C273.55 501.831 274.552 501.95 275.54 502.047C276.53 502.165 277.511 502.352 278.482 502.579C280.432 503.015 282.316 503.715 284.136 504.539L284.212 504.573L284.249 504.649C284.769 505.715 285.226 506.816 285.533 507.963C285.872 509.1 286.067 510.278 286.167 511.457C286.335 513.816 286.071 516.224 285.218 518.415C285.568 517.295 285.738 516.132 285.819 514.972C285.909 513.813 285.903 512.645 285.761 511.494C285.627 510.345 285.435 509.197 285.084 508.093C284.774 506.976 284.295 505.919 283.816 504.867L283.929 504.977C282.154 504.124 280.291 503.465 278.393 502.928C277.444 502.657 276.478 502.449 275.506 502.267C274.537 502.098 273.551 501.905 272.563 501.946Z" fill="#207A20"/>
<path d="M287.527 502.655C288.616 502.969 289.624 503.427 290.588 503.982C291.545 504.543 292.435 505.228 293.183 506.05C293.933 506.872 294.476 507.873 294.788 508.928C295.143 509.987 295.07 511.115 294.969 512.195C295.03 511.109 295.058 509.991 294.669 508.964C294.323 507.94 293.759 506.99 293.001 506.219C292.244 505.449 291.356 504.818 290.406 504.308C289.457 503.806 288.437 503.393 287.411 503.139L287.527 502.655Z" fill="#207A20"/>
<path d="M312.593 537.577C314.719 535.811 316.875 534.067 319.168 532.506C320.312 531.723 321.477 530.964 322.7 530.287C323.927 529.596 325.236 529.094 326.547 528.626C327.864 528.164 329.221 527.804 330.582 527.518C331.944 527.228 333.3 526.997 334.612 526.635C335.926 526.28 337.2 525.8 338.443 525.235C339.72 524.639 341.075 524.224 342.42 523.873C347.829 522.532 353.393 521.968 358.942 522.047C361.715 522.103 364.494 522.309 367.221 522.839C369.938 523.377 372.631 524.182 375.053 525.529C372.583 524.274 369.882 523.576 367.168 523.142C364.445 522.731 361.692 522.541 358.938 522.557C356.185 522.566 353.435 522.764 350.701 523.077C347.97 523.398 345.249 523.861 342.598 524.557C341.273 524.914 339.975 525.321 338.75 525.904C337.486 526.503 336.158 526.987 334.8 527.339C333.442 527.7 332.067 527.921 330.724 528.196C329.378 528.467 328.055 528.805 326.759 529.247C325.465 529.698 324.182 530.184 322.971 530.8C321.754 531.422 320.574 532.135 319.412 532.874C317.1 534.373 314.807 535.921 312.593 537.577Z" fill="#256653"/>
<path d="M330.593 522.298C329.692 522.878 328.829 523.511 327.993 524.176C327.153 524.834 326.336 525.522 325.573 526.263C324.061 527.736 322.617 529.381 321.923 531.359L321.809 531.091C322.796 531.542 323.785 531.986 324.795 532.381C325.804 532.777 326.832 533.12 327.868 533.432C328.906 533.74 329.965 533.974 331.038 534.111C332.103 534.241 333.217 534.326 334.259 533.989C333.238 534.395 332.104 534.385 331.017 534.324C329.924 534.229 328.841 534.029 327.78 533.757C326.715 533.493 325.679 533.133 324.653 532.753C323.629 532.366 322.624 531.934 321.626 531.487L321.444 531.406L321.512 531.219C321.888 530.18 322.463 529.238 323.129 528.383C323.795 527.526 324.539 526.737 325.346 526.022C326.949 524.577 328.721 523.34 330.593 522.298Z" fill="#256653"/>
<path d="M338.26 520.737C336.813 521.7 335.505 522.846 334.278 524.058C333.069 525.291 331.927 526.59 330.923 527.994L330.846 527.678C331.79 528.127 332.741 528.563 333.723 528.924C334.705 529.283 335.711 529.574 336.728 529.815C338.761 530.281 340.873 530.53 342.969 530.279C340.896 530.722 338.731 530.556 336.654 530.157C334.571 529.734 332.557 529.004 330.656 528.061L330.427 527.947L330.579 527.744C331.627 526.345 332.771 525.012 334.057 523.828C335.341 522.649 336.723 521.559 338.26 520.737Z" fill="#256653"/>
<path d="M352.962 516.664C351.293 517.649 349.683 518.726 348.162 519.91C346.661 521.11 345.207 522.403 344.137 523.98L344.044 523.664C345.803 524.413 347.583 525.115 349.384 525.766C351.179 526.432 352.991 527.054 354.811 527.664C352.938 527.238 351.095 526.691 349.269 526.094C347.446 525.487 345.645 524.81 343.875 524.057L343.631 523.953L343.781 523.74C344.926 522.123 346.396 520.799 347.966 519.652C349.544 518.51 351.212 517.501 352.962 516.664Z" fill="#256653"/>
<path d="M364.531 518.289C362.937 518.722 361.362 519.219 359.837 519.829C359.078 520.141 358.333 520.483 357.628 520.884C356.933 521.288 356.246 521.766 355.833 522.409L355.799 522.146C356.437 522.688 357.221 523.11 358.003 523.501C358.792 523.887 359.603 524.236 360.42 524.57C362.05 525.251 363.711 525.866 365.374 526.484C363.65 526.058 361.959 525.514 360.287 524.908C359.456 524.592 358.634 524.248 357.824 523.871C357.018 523.486 356.212 523.079 355.513 522.45L355.382 522.332L355.48 522.187C355.983 521.438 356.715 520.965 357.44 520.552C358.172 520.139 358.947 519.823 359.729 519.543C361.292 518.983 362.901 518.571 364.531 518.289Z" fill="#256653"/>
<path d="M261.65 547.094C261.65 547.094 263.25 564.573 262.198 570.273C262.056 571.036 261.746 572.003 261.385 573.068C260.3 576.263 263.271 586.022 263.271 586.022L303.102 586.168C305.271 586.176 303.82 584.801 302.056 583.539C299.166 581.474 296.839 580.114 287.639 575.812C287.04 575.532 284.851 574.18 284.062 573.713C282.062 572.527 280.043 570.647 278.303 568.762C275.404 565.619 275.667 551.714 275.667 551.714L261.65 547.094Z" fill="#F7A491"/>
<path d="M284.057 573.71C273.558 576.538 265.751 574.801 261.374 573.102C260.29 576.293 258.282 586.804 259.467 587.08C262.507 587.788 285.75 589.052 306.528 588.52C307.552 588.494 307.427 584.984 306.759 584.207C304.913 582.062 284.848 574.179 284.057 573.71Z" fill="#13375B"/>
<path d="M211.695 339.603C211.695 339.603 212.261 364.553 219.411 380.531C226.376 396.092 259.706 434.473 268.565 456.874C265.826 469.51 258.299 487.269 258.844 501.274C259.461 517.145 258.537 559.137 258.537 559.137L277.233 559.705L297.732 451.344L264.528 334.415L248.484 306.023L211.695 339.603Z" fill="#B75742"/>
<path d="M135.278 520.649C135.278 520.649 124.288 535.731 119.447 539.544C116.854 541.586 109.813 544.328 109.071 547.704C108.328 551.08 140.955 580.947 140.955 580.947C142.682 582.476 142.489 580.36 141.966 578.113C141.108 574.436 140.204 571.716 135.876 561.824C135.594 561.18 134.795 558.564 134.493 557.637C133.727 555.286 133.435 552.368 133.37 549.641C133.26 545.098 143.72 532.487 143.72 532.487L135.278 520.649Z" fill="#F7A491"/>
<path d="M134.491 557.63C124.123 552.52 119.106 545.652 116.804 541.224C113.699 543.011 105.347 546.822 106.081 547.887C111.853 556.261 117.84 566.674 141.011 586.401C141.841 587.107 145.241 583.037 145.253 581.947C145.284 578.939 134.794 558.56 134.491 557.63Z" fill="#13375B"/>
<path d="M212.956 322.031C212.956 322.031 199.127 342.805 195.834 359.998C192.626 376.742 197.957 427.295 192.385 450.731C182.901 459.518 166.557 469.762 158.981 481.552C150.395 494.914 125.58 528.803 125.58 528.803L139.916 539.515L221.23 464.138L254.149 363.577L263.156 329.914L212.956 322.031Z" fill="#A34B3D"/>
<path d="M222.869 205.44C222.869 205.44 204.589 204.274 197.357 212.174C193.743 216.122 181.166 308.131 174.259 381.096C170.903 416.544 109.059 539.516 109.059 539.516C109.059 539.516 156.64 600.266 297.733 575.917C297.733 548.462 301.25 464.048 299.889 443.886C297.157 403.428 268.693 331.182 263.227 250.451C262.734 243.165 250.954 214.059 248.324 211.185C245.694 208.313 222.869 205.44 222.869 205.44Z" fill="#EF909D"/>
<path fill-rule="evenodd" clip-rule="evenodd" d="M250.555 194.85C250.555 194.85 253.765 196.08 259.228 206.641C264.694 217.201 278.204 241.98 278.204 241.98C278.204 241.98 283.02 231.545 283.682 231.655C284.343 231.765 293.831 236.685 303.258 228.786L303.197 223.75C303.197 223.75 305.239 224.594 305.332 228.143C305.426 231.691 305.525 235.516 305.525 235.516C305.525 235.516 311.497 239.418 310.404 245.114C309.309 250.811 304.337 289.187 301.849 299.949C299.361 310.711 279.591 315.717 268.751 307.138C257.91 298.558 239.407 199.486 250.555 194.85Z" fill="#F2A9B5"/>
<path fill-rule="evenodd" clip-rule="evenodd" d="M270.791 228.315C272.065 230.673 273.27 232.898 274.326 234.845C267.554 230.976 269.24 229.291 270.791 228.315ZM280.207 237.77C281.612 234.886 283.309 231.592 283.683 231.654C284.344 231.764 293.832 236.685 303.259 228.785L303.198 223.749C303.198 223.749 305.24 224.593 305.333 228.142C305.425 231.691 305.526 235.515 305.526 235.515C305.526 235.515 297.09 245.332 280.207 237.77Z" fill="white"/>
<path fill-rule="evenodd" clip-rule="evenodd" d="M275.964 237.863C277.341 240.397 278.204 241.98 278.204 241.98C278.204 241.98 279.12 239.997 280.206 237.77C284.866 239.856 288.881 240.618 292.254 240.629C293.699 244.645 304.245 276.983 275.708 293.788C271.125 296.486 267.004 297.52 263.308 297.342C259.022 286.156 254.507 267.481 251.336 249.1L275.964 237.863Z" fill="#EF909D"/>
<path fill-rule="evenodd" clip-rule="evenodd" d="M280.207 237.77C281.1 235.937 282.111 233.94 282.824 232.742L284.091 231.798C285.149 232.204 288.009 233.319 291.716 233.266L291.717 233.268L292.1 240.217C292.1 240.217 292.156 240.36 292.254 240.63C288.881 240.619 284.866 239.857 280.207 237.77Z" fill="#E4DAE2"/>
<path fill-rule="evenodd" clip-rule="evenodd" d="M247.338 196.919C247.338 196.919 252.833 201.698 255.708 214.938C256.026 216.397 256.966 218.002 257.558 219.827C262.348 234.556 271.238 249.582 274.202 259.64C277.531 270.943 270.441 277.948 270.441 277.948C272.28 282.855 283.903 300.278 287.195 313.899C289.138 321.937 314.908 573.448 303.366 573.501L235.033 578.6C207.415 580.661 179.772 574.932 155.249 562.063L109.416 538.012L176.789 335.757C165.97 329.595 184.338 295.634 177.582 285.751L139.625 230.225C139.625 230.225 143.317 224.053 146.045 220.376C146.505 219.758 151.218 215.147 156.058 213.579C167.854 209.758 189.59 204.579 208.606 200.307L247.338 196.919Z" fill="#F2A9B5"/>
<path fill-rule="evenodd" clip-rule="evenodd" d="M146.045 220.376C146.505 219.758 151.218 215.147 156.058 213.579C162.51 211.491 171.935 208.994 182.262 206.462C207.954 208.598 241.289 212.105 241.289 212.105L252.529 211.036C256.7 231.135 245.16 253.736 222.62 251.1C211.225 249.767 198.962 242.472 186.585 235.078C167.048 223.408 151.123 214.824 146.045 220.376Z" fill="#EF909D"/>
<path fill-rule="evenodd" clip-rule="evenodd" d="M176.325 309.269C177.775 302.99 179.186 296.757 179.116 291.944C181.576 290.446 183.231 289.463 183.231 289.463L199.687 300.171C197.782 299.371 201.678 321.78 201.678 321.78C201.678 321.78 184.905 304.46 176.325 309.269Z" fill="#EF909D"/>
<path fill-rule="evenodd" clip-rule="evenodd" d="M284.082 174.659L267.748 153.235C267.258 152.595 267.384 151.674 268.023 151.187L274.257 146.433C274.896 145.945 275.817 146.069 276.305 146.709L300.104 177.92C300.592 178.562 300.468 179.482 299.829 179.97L293.595 184.722C292.956 185.211 292.035 185.087 291.547 184.447L284.082 174.659Z" fill="#1A1A1A"/>
<path fill-rule="evenodd" clip-rule="evenodd" d="M319.991 146.366C319.991 146.366 306.964 139.7 286.807 147.978C266.651 156.255 267.885 155.748 261.963 158.181C256.039 160.614 250.416 158.861 246.957 150.439C243.499 142.016 246.267 136.817 252.19 134.385C258.113 131.953 256.879 132.459 277.035 124.181C297.19 115.905 301.775 102.008 301.775 102.008C301.74 102.103 316.948 121.696 316.948 121.696C316.948 121.696 319.901 146.321 319.991 146.366Z" fill="#1A1A1A"/>
<path fill-rule="evenodd" clip-rule="evenodd" d="M319.991 146.366C319.991 146.366 306.964 139.7 286.807 147.978C266.651 156.255 267.885 155.749 261.963 158.182C256.473 160.436 251.241 159.093 247.751 152.183C251.067 153.769 255.521 152.091 259.073 150.62C264.059 148.556 277.762 142.813 290.628 137.316C303.493 131.818 309.42 134.665 309.42 134.665L312.935 139.524L311.473 133.54C311.473 133.54 314.734 135.29 318.884 137.682C319.462 142.409 319.956 146.347 319.991 146.366Z" fill="#1A1A1A"/>
<path fill-rule="evenodd" clip-rule="evenodd" d="M329.494 116.542C335.24 130.532 334.279 144.18 327.35 147.025C320.42 149.87 310.147 140.837 304.403 126.848C298.657 112.858 299.617 99.2104 306.545 96.3647C313.475 93.5196 323.749 102.554 329.494 116.542Z" fill="#FF80A9"/>
<path fill-rule="evenodd" clip-rule="evenodd" d="M327.478 117.37C332.571 129.77 331.984 141.757 326.168 144.145C320.353 146.533 311.51 138.419 306.418 126.02C301.327 113.62 301.912 101.632 307.729 99.2448C313.544 96.8565 322.386 104.972 327.478 117.37Z" fill="white"/>
<path fill-rule="evenodd" clip-rule="evenodd" d="M322.411 144.377C316.998 143.153 310.502 135.965 306.417 126.021C302.464 116.396 301.935 107.02 304.616 102.188C310.028 103.412 316.525 110.6 320.609 120.545C324.561 130.17 325.091 139.545 322.411 144.377Z" fill="#E4DAE2"/>
<path fill-rule="evenodd" clip-rule="evenodd" d="M310.451 133.829C308.961 131.503 307.59 128.875 306.417 126.019C305.244 123.164 304.374 120.329 303.799 117.63C307.507 119.729 312.598 117.702 312.598 117.702L314.629 122.647L316.66 127.592C316.66 127.592 311.614 129.729 310.451 133.829Z" fill="white"/>
<path fill-rule="evenodd" clip-rule="evenodd" d="M270.583 154.641C267.226 153.073 264.269 149.745 262.014 144.254C259.759 138.764 259.524 134.317 260.811 130.843L252.191 134.384C246.268 136.815 243.499 142.015 246.958 150.437C250.416 158.86 256.039 160.612 261.963 158.18L270.583 154.641Z" fill="#FF80A9"/>
<path fill-rule="evenodd" clip-rule="evenodd" d="M270.583 154.641C268.201 153.529 266.022 151.531 264.152 148.504C262.032 149.39 260.292 150.114 259.073 150.619C255.521 152.09 251.067 153.768 247.751 152.182C251.241 159.092 256.473 160.435 261.963 158.181L270.583 154.641Z" fill="#EB6A93"/>
<path fill-rule="evenodd" clip-rule="evenodd" d="M285.783 148.407C286.236 149.513 285.704 150.786 284.6 151.24L265.91 158.916C264.805 159.371 263.53 158.837 263.076 157.733C262.623 156.627 263.154 155.353 264.26 154.898L282.949 147.224C284.054 146.77 285.329 147.302 285.783 148.407Z" fill="#1A1A1A"/>
<path fill-rule="evenodd" clip-rule="evenodd" d="M316.949 121.695C318.069 124.427 317.941 127.068 316.66 127.593C315.378 128.119 313.429 126.332 312.308 123.6C311.186 120.869 311.315 118.229 312.597 117.703C313.878 117.176 315.827 118.964 316.949 121.695Z" fill="#FF80A9"/>
<path fill-rule="evenodd" clip-rule="evenodd" d="M264.293 219.13L267.765 209.122C267.765 209.122 268.211 207.804 267.475 204.819C266.739 201.834 263.437 187.094 263.437 187.094C263.437 187.094 262.49 182.465 264.479 177.868C266.47 173.271 271.76 162.18 271.76 162.18C271.76 162.18 273.017 160.096 278.15 158.497C278.15 158.497 277.624 157.598 278.88 156.411C280.134 155.222 283.223 153.917 283.223 153.917C283.223 153.917 285.878 152.665 287.654 153.932C289.43 155.2 290.489 156.354 290.489 156.354C290.489 156.354 292.358 155.85 293.232 156.94C294.107 158.031 296.282 159.892 295.703 163.368C295.703 163.368 297.855 165.732 298.643 167.067C299.43 168.404 300.36 171.306 303.585 173.12C306.81 174.933 307.461 179.074 307.239 181.918C307.019 184.763 303.715 199.678 303.371 202.479C303.027 205.28 303.197 223.748 303.197 223.748L303.258 228.784C293.832 236.684 284.344 231.763 283.682 231.653C283.649 231.648 283.608 231.667 283.556 231.71L281.459 237.146C274.942 234.715 261.999 229.748 261.849 228.583C261.651 227.027 264.293 219.13 264.293 219.13Z" fill="#FCD1C8"/>
<path d="M284.613 224.561C284.562 224.561 284.509 224.552 284.458 224.535C284.209 224.448 284.077 224.178 284.162 223.929L287.505 214.226C287.535 214.139 287.589 214.063 287.661 214.007C287.743 213.942 295.574 207.684 293.87 197.927C293.063 198.481 292.477 198.877 292.401 198.928C292.183 199.077 291.886 199.019 291.74 198.801C291.593 198.584 291.65 198.287 291.867 198.14C292.363 197.806 293.104 197.3 293.92 196.739C293.925 196.735 293.93 196.731 293.935 196.728C295.895 195.378 298.286 193.701 298.768 193.245C299.603 192.457 300.007 191.412 299.874 190.382L299.529 187.698C299.433 186.95 298.817 186.89 298.645 186.888L290.721 187.907C288.089 189.041 284.724 189.287 282.863 188.48C282.198 188.191 281.77 187.79 281.591 187.284C281.059 185.776 282.095 184.492 282.598 183.983C280.481 184.641 278.939 184.615 278.258 183.494C277.205 181.76 278.701 179.86 278.766 179.78L287.553 169.521C284.948 171.293 282.588 172.882 281.391 173.65C279.127 175.105 276.236 175.396 275.084 174.282C274.794 174.004 274.208 173.21 275.005 171.865C275.363 171.261 275.743 170.534 276.146 169.765C277.473 167.23 279.125 164.075 281.541 162.277C281.857 162.042 282.201 161.788 282.565 161.52C278.977 161.166 277.776 158.819 277.721 158.708C277.605 158.471 277.702 158.186 277.938 158.07C278.175 157.955 278.458 158.051 278.574 158.284C278.631 158.397 279.844 160.746 283.809 160.606C286.744 158.46 290.164 156 290.207 155.968C290.42 155.812 290.719 155.864 290.872 156.076C291.026 156.289 290.977 156.588 290.764 156.741C290.719 156.772 287.224 159.288 284.272 161.448C284.26 161.457 284.248 161.466 284.236 161.474C283.464 162.038 282.732 162.578 282.108 163.04C279.866 164.708 278.27 167.757 276.988 170.205C276.58 170.985 276.194 171.723 275.823 172.35C275.491 172.909 275.465 173.327 275.743 173.596C276.39 174.219 278.709 174.239 280.876 172.847C282.934 171.524 288.466 167.752 292.744 164.821C292.961 164.671 293.257 164.727 293.406 164.944C293.554 165.161 293.499 165.458 293.282 165.605C292.414 166.2 291.496 166.829 290.565 167.465L279.497 180.385C279.496 180.388 278.364 181.836 279.07 182.998C280.247 184.931 287.945 180.638 292.083 178.332C293.954 177.289 295.57 176.389 296.51 176.026C296.755 175.933 297.03 176.054 297.125 176.299C297.22 176.544 297.097 176.82 296.852 176.915C295.975 177.253 294.387 178.139 292.547 179.164C289.847 180.669 287.311 182.041 285.13 183.006L283.462 184.474C283.437 184.495 282.034 185.683 282.486 186.965C282.595 187.272 282.955 187.483 283.239 187.605C284.67 188.226 287.74 188.171 290.4 187.006C290.442 186.988 290.485 186.976 290.53 186.969L298.534 185.941C298.543 185.94 298.553 185.938 298.563 185.937L301.432 185.568C301.7 185.532 301.932 185.719 301.965 185.979C301.999 186.24 301.814 186.478 301.554 186.511L300.148 186.693C300.306 186.921 300.423 187.21 300.471 187.575L300.816 190.259C300.987 191.596 300.478 192.935 299.418 193.937C298.89 194.435 296.559 196.07 294.725 197.336C296.704 207.237 289.368 213.811 288.357 214.663L285.059 224.238C284.996 224.436 284.81 224.561 284.613 224.561Z" fill="#F8A8A0"/>
<path fill-rule="evenodd" clip-rule="evenodd" d="M284.613 224.085L287.955 214.382C287.955 214.382 288.838 213.693 289.959 212.407L288.134 225.929C288.134 225.929 287.81 230.965 291.716 233.268C288.252 233.316 285.531 232.345 284.324 231.886L285.298 226.034C285.298 226.034 285.603 224.72 284.613 224.085Z" fill="#F8A8A0"/>
<path fill-rule="evenodd" clip-rule="evenodd" d="M285.328 260.196C288.189 252.941 288.643 244.979 283.839 234.796L284.041 233.579C269.729 237.548 259.117 227.118 259.117 227.118L259.109 227.095C258.782 227.894 258.567 228.43 258.567 228.43C258.567 228.43 250.601 224.304 243.959 236.714C233.112 256.986 221.095 275.97 221.095 275.97L177.028 234.763C145.976 205.726 121.219 237.617 147.546 265.168C165.176 283.615 182.805 302.062 200.435 320.509C221.075 342.108 238.416 336.156 251.251 319.92C255.569 314.458 283.226 265.527 285.328 260.196Z" fill="#F2A9B5"/>
<path fill-rule="evenodd" clip-rule="evenodd" d="M283.839 234.796L285.299 226.033C285.299 226.033 285.603 224.72 284.613 224.085C284.613 224.085 275.131 226.301 264.294 219.129C264.294 219.129 262.799 218.911 262.04 220.299C261.28 221.687 258.568 228.43 258.568 228.43C258.568 228.43 269.352 239.033 283.839 234.796Z" fill="white"/>
<path d="M226.586 334.982C217.972 334.982 209.065 330.229 200.091 320.837L178.348 298.087C178.166 297.897 178.173 297.595 178.363 297.414C178.552 297.232 178.854 297.239 179.036 297.428L200.779 320.179C209.935 329.76 218.974 334.409 227.634 334.006C235.817 333.622 243.636 328.784 250.878 319.624C255.31 314.017 282.789 265.338 284.885 260.021C288.092 251.886 287.624 243.935 283.409 234.998C283.296 234.76 283.398 234.477 283.636 234.364C283.874 234.254 284.158 234.355 284.269 234.592C288.604 243.783 289.081 251.974 285.771 260.37C283.666 265.708 256.075 314.584 251.624 320.215C244.206 329.6 236.149 334.56 227.678 334.957C227.316 334.975 226.95 334.982 226.586 334.982ZM282.49 312.091C282.279 312.091 282.086 311.951 282.029 311.737C279.669 302.877 275.837 292.859 273.16 286.096C273.063 285.852 273.182 285.575 273.427 285.478C273.673 285.38 273.948 285.501 274.045 285.745C276.731 292.532 280.576 302.583 282.949 311.491C283.016 311.746 282.866 312.007 282.612 312.074C282.571 312.086 282.53 312.091 282.49 312.091ZM216.101 284.79C216.018 284.79 215.934 284.768 215.857 284.721C215.632 284.588 215.559 284.295 215.693 284.069L220.491 276.054L182.975 240.975C182.972 240.971 182.968 240.968 182.964 240.964L176.703 235.109C176.512 234.929 176.501 234.629 176.681 234.436C176.861 234.244 177.163 234.235 177.354 234.414L182.519 239.244L182.341 238.399C182.287 238.142 182.451 237.89 182.709 237.836C182.965 237.784 183.218 237.946 183.273 238.203L183.73 240.376L221.001 275.227C222.946 272.126 233.781 254.726 243.54 236.487C250.326 223.809 258.702 227.962 258.787 228.005C259.021 228.128 259.112 228.415 258.991 228.647C258.869 228.881 258.583 228.972 258.349 228.852C258.023 228.685 250.696 225.135 244.38 236.937C233.708 256.882 221.752 275.822 221.502 276.218L216.511 284.557C216.422 284.707 216.263 284.79 216.101 284.79ZM258.328 224.699C258.138 224.699 257.958 224.583 257.885 224.396L254.195 214.96C254.099 214.716 254.22 214.44 254.465 214.344C254.71 214.248 254.986 214.37 255.082 214.614L255.671 216.12L255.724 215.697C255.756 215.436 256.003 215.251 256.254 215.283C256.516 215.316 256.7 215.553 256.668 215.814L256.4 217.983L258.772 224.049C258.868 224.294 258.747 224.569 258.502 224.665C258.444 224.688 258.386 224.699 258.328 224.699Z" fill="#EF909D"/>
<path fill-rule="evenodd" clip-rule="evenodd" d="M222.648 189.747L217.544 178.703C217.544 178.703 217.046 177.44 215.991 178.799C214.938 180.157 210.774 184.384 210.774 184.384C210.774 184.384 209.559 185.815 209.723 187.821C209.887 189.829 210.279 195.239 210.279 195.239L205.282 188.245C205.282 188.245 203.759 185.919 200.875 185.168C197.991 184.418 182.538 180.583 182.538 180.583C182.538 180.583 180.459 180.19 179.955 182.091C179.452 183.99 176.457 192.146 176.457 192.146C188.749 199.598 219.163 213.177 222.648 189.747Z" fill="white"/>
<path fill-rule="evenodd" clip-rule="evenodd" d="M234.003 183.593C245.618 184.799 263.468 196.742 252.529 211.036C240.621 284.207 161.29 203.964 146.045 220.376C145.503 210.234 151.725 202.585 162.106 199.104C157.504 196.125 159.583 186.75 161.361 184.438C152.655 175.244 146.429 155.014 148.422 146.027C150.78 122.759 156.981 110.263 168.572 100.281C178.095 92.082 198.877 88.7908 212.84 97.017C229.061 107.166 242.783 159.873 232.597 175.276C232.597 175.276 236.895 178.15 234.003 183.593Z" fill="#1A1A1A"/>
<path fill-rule="evenodd" clip-rule="evenodd" d="M215.992 178.799L222.097 179.368C222.097 179.368 220.336 191.159 211.352 194.131C202.368 197.105 196.402 193.363 191.235 187.824C186.068 182.285 177.833 170.799 177.833 170.799L215.992 178.799ZM169.414 156.487C165.835 148.427 164.267 140.95 163.713 134.731C163.448 131.745 163.416 129.047 163.506 126.712C163.506 126.712 163.886 130.879 164.857 135.87C165.813 140.78 167.338 146.489 169.633 149.807C171.103 151.932 172.82 152.657 174.48 152.655C174.242 155.191 174.185 157.621 174.324 159.87C174.551 163.551 175.302 166.751 176.647 169.164L174.503 166.024C172.47 162.784 170.793 159.592 169.414 156.487ZM234.003 183.593C234.288 183.622 234.579 183.662 234.873 183.703L234.732 183.815L237.242 184.735C243.323 190.215 243.605 197.348 243.605 197.348C243.131 193.492 240.031 188.295 235.227 188.887C230.425 189.479 224.486 196.652 224.486 196.652C230.305 191.25 234.003 183.593 234.003 183.593ZM161.362 184.439C161.362 184.439 166.904 181.347 174.631 183.967C151.487 174.744 148.423 146.027 148.423 146.027C146.43 155.014 152.655 175.244 161.362 184.439ZM201.668 107.275C201.668 107.275 210.635 104.418 214.949 104.868C214.949 104.868 215.552 104.985 215.189 105.548C214.824 106.113 209.182 106.93 216.79 117.572C224.397 128.215 197.015 126.577 196.984 125.923C196.953 125.27 201.668 107.275 201.668 107.275ZM148.096 210.215C148.614 209.247 154.76 198.589 171.386 204.865C188.791 211.435 213.59 228.532 233.68 216.848C223.756 222.681 203.689 216.6 187.707 206.505C171.726 196.411 162.106 199.103 162.106 199.103C155.572 201.295 150.686 205.139 148.096 210.215Z" fill="#1A1A1A"/>
<path fill-rule="evenodd" clip-rule="evenodd" d="M198.374 188.177C193.41 186.323 184.153 178.654 177.065 169.861C168.141 156.121 181.535 111.942 201.667 107.275C201.753 107.273 201.837 107.277 201.923 107.277C203.074 107.314 207.896 107.747 212.304 112.284C217.351 117.48 224.306 127.656 226.895 135.484C229.484 143.312 233.138 159.064 222.096 179.367C220.684 181.406 218.996 183.325 216.944 185.028C212.093 189.056 203.339 190.032 198.374 188.177Z" fill="#FCD1C8"/>
<path fill-rule="evenodd" clip-rule="evenodd" d="M215.017 115.486C216.772 117.576 218.625 120.048 220.383 122.682C223.068 126.813 225.463 131.286 226.8 135.201C220.003 120.072 212.432 118.528 212.432 118.528L215.017 115.486Z" fill="#F8A8A0"/>
<path fill-rule="evenodd" clip-rule="evenodd" d="M181.983 126.878C195.865 117.339 209.507 117.848 219.798 121.795C217.3 118.053 214.605 114.652 212.305 112.285C207.896 107.748 203.074 107.315 201.923 107.278C201.838 107.278 201.754 107.274 201.668 107.275C193.746 109.111 186.869 117.067 181.983 126.878Z" fill="white"/>
<path d="M223.95 219.553C211.234 219.553 195.823 211.52 184.915 205.181C171.09 197.147 162.253 199.311 162.167 199.334C162.042 199.368 161.909 199.291 161.877 199.164C161.843 199.036 161.92 198.906 162.047 198.873C162.131 198.851 170.281 196.853 183.097 203.627C200.417 210.833 212.93 205.689 220.605 199.735C216.692 201.646 213.041 202.445 209.611 202.445C200.129 202.446 192.311 196.347 185.16 190.771C183.846 189.745 182.604 188.777 181.355 187.846C170.514 179.77 161.567 184.594 161.477 184.645C161.363 184.708 161.217 184.667 161.154 184.552C161.089 184.438 161.131 184.292 161.246 184.229C161.339 184.178 170.557 179.206 181.64 187.463C182.893 188.398 184.137 189.367 185.454 190.394C190.797 194.562 196.522 199.026 203.032 200.961C218.199 202.291 232.245 175.437 232.386 175.164C232.446 175.047 232.589 175.001 232.707 175.062C232.824 175.122 232.869 175.267 232.808 175.384C232.254 176.457 219.629 200.564 205 201.463C210.242 202.567 215.989 201.938 222.452 198.212C229.989 191.622 233.695 183.692 233.785 183.496C233.795 183.474 233.807 183.454 233.823 183.437C233.844 183.411 233.871 183.392 233.9 183.378C233.932 183.363 233.95 183.352 234.006 183.355H234.007C234.029 183.355 234.051 183.359 234.073 183.365C235.219 183.697 236.296 184.08 237.307 184.504C237.326 184.509 237.345 184.518 237.363 184.528C254.29 191.684 252.784 210.852 252.766 211.056C252.754 211.185 252.645 211.28 252.508 211.271C252.377 211.259 252.281 211.144 252.293 211.012C252.31 210.817 253.712 192.875 238.327 185.485C243.49 190.971 245.18 198.05 242.961 205.096C240.645 212.444 234.467 218.269 227.938 219.261C226.644 219.459 225.312 219.553 223.95 219.553ZM185.924 205.215C197.907 212.129 214.95 220.757 227.865 218.793C234.223 217.826 240.243 212.135 242.506 204.954C244.791 197.7 242.827 190.409 237.116 184.941C236.179 184.548 235.186 184.192 234.131 183.879C233.521 185.132 229.783 192.439 222.755 198.58C222.751 198.584 222.747 198.588 222.742 198.592C222.439 198.857 222.129 199.119 221.813 199.379C214.563 205.35 202.585 210.986 185.924 205.215ZM174.502 166.263C174.424 166.263 174.347 166.223 174.301 166.151C158.125 140.362 164.476 117.332 164.542 117.103C164.579 116.976 164.71 116.902 164.837 116.94C164.963 116.977 165.036 117.108 165 117.235C164.934 117.462 158.646 140.298 174.704 165.898C174.775 166.009 174.741 166.156 174.629 166.226C174.59 166.25 174.546 166.263 174.502 166.263Z" fill="#1A1A1A"/>
<path fill-rule="evenodd" clip-rule="evenodd" d="M192.813 138.377C192.813 138.377 193.83 138.509 194.728 138.024C195.624 137.539 196.288 136.045 196.218 135.724C196.15 135.404 195.686 135.976 193.878 135.439C192.1 134.909 185.588 133.875 181.469 138.532C180.76 139.335 181.376 139.83 182.313 139.428C183.248 139.028 187.195 136.662 192.813 138.377Z" fill="#1A1A1A"/>
<path fill-rule="evenodd" clip-rule="evenodd" d="M215.22 135.631C215.22 135.631 214.4 135.96 213.556 135.708C212.711 135.456 211.861 134.248 211.853 133.945C211.846 133.642 212.347 134.062 213.746 133.205C215.121 132.361 220.337 130.085 224.7 133.429C225.451 134.006 225.038 134.577 224.178 134.41C223.317 134.243 219.557 132.927 215.22 135.631Z" fill="#1A1A1A"/>
<path fill-rule="evenodd" clip-rule="evenodd" d="M225.506 144.731C225.506 144.731 226.401 144.612 227.012 143.716C227.622 142.82 226.479 140.618 225.232 139.264C223.986 137.91 216.56 139.998 214.15 144.943L215.127 145.517C215.127 145.517 222.232 143.099 225.506 144.731Z" fill="#F8A8A0"/>
<path fill-rule="evenodd" clip-rule="evenodd" d="M216.932 146.557C216.932 146.557 216.18 146.926 215.417 146.733C214.653 146.541 213.894 145.419 213.893 145.125C213.892 144.832 214.34 145.208 215.626 144.291C216.682 143.537 220.203 141.647 223.619 142.795C223.943 142.528 224.26 142.122 224.307 141.536C224.333 141.225 224.594 140.979 224.89 140.99C225.187 140.999 225.408 141.26 225.382 141.572C225.322 142.295 225.032 142.845 224.677 143.256L224.76 143.303C224.948 143.237 225.124 143.107 225.256 142.876C225.412 142.601 225.746 142.499 226 142.65C226.254 142.8 226.333 143.145 226.176 143.419C226.045 143.649 225.897 143.833 225.74 143.98C226.193 144.455 225.811 144.93 225.097 144.829C224.319 144.717 220.917 143.669 216.932 146.557Z" fill="#1A1A1A"/>
<path fill-rule="evenodd" clip-rule="evenodd" d="M183.091 151.463C183.091 151.463 181.957 151.602 180.948 150.728C179.939 149.853 180.71 146.876 181.855 144.875C183 142.873 192.726 143.03 197.112 148.156L196.075 149.145C196.075 149.145 186.646 148.498 183.091 151.463Z" fill="#F8A8A0"/>
<path fill-rule="evenodd" clip-rule="evenodd" d="M194.121 150.606C194.121 150.606 195.147 150.807 196.036 150.334C196.924 149.861 197.546 148.288 197.467 147.939C197.387 147.589 196.939 148.179 195.102 147.499C193.59 146.937 188.732 145.807 184.84 148.258C184.367 148.043 183.867 147.661 183.645 146.979C183.527 146.617 183.137 146.408 182.774 146.515C182.412 146.621 182.212 147.002 182.33 147.366C182.604 148.205 183.115 148.767 183.663 149.143L183.574 149.223C183.326 149.206 183.074 149.108 182.847 148.874C182.577 148.598 182.137 148.583 181.865 148.842C181.594 149.102 181.594 149.536 181.863 149.813C182.088 150.044 182.321 150.217 182.555 150.34C182.129 151.049 182.731 151.491 183.581 151.144C184.512 150.765 188.412 148.439 194.121 150.606Z" fill="#1A1A1A"/>
<path fill-rule="evenodd" clip-rule="evenodd" d="M204.895 143.976C204.904 144.254 204.991 144.539 205.139 144.728C206.186 146.056 210.736 151.745 210.897 152.584C211.028 153.677 207.865 155.062 206.091 155.458C204.993 155.704 207.086 158.915 208.784 158.098C210.597 157.231 212.944 154.499 212.686 152.406C212.563 151.399 209.556 147.396 207.432 144.717C206.887 144.03 206.942 143.212 206.965 142.681C207.019 141.293 204.863 143.06 204.895 143.976Z" fill="#F8A8A0"/>
<path fill-rule="evenodd" clip-rule="evenodd" d="M215.415 158.572C213.752 159.5 210.982 160.087 208.16 160.265C205.332 160.443 202.486 160.21 200.677 159.502C200.317 159.361 199.91 159.538 199.77 159.899C199.707 160.062 199.708 160.234 199.762 160.386C201.172 164.341 203.1 166.998 205.148 168.373C206.417 169.224 207.737 169.595 209.028 169.493C210.32 169.389 211.558 168.811 212.653 167.766C214.378 166.121 215.764 163.289 216.444 159.304C216.508 158.924 216.252 158.562 215.871 158.497C215.709 158.468 215.549 158.5 215.413 158.574V158.572H215.415Z" fill="#1A1A1A"/>
<path fill-rule="evenodd" clip-rule="evenodd" d="M214.984 158.794C213.296 159.593 210.751 160.101 208.16 160.264C205.332 160.443 202.486 160.21 200.677 159.501C200.317 159.36 199.91 159.538 199.77 159.899C199.707 160.062 199.708 160.234 199.762 160.386C199.876 160.707 199.994 161.018 200.113 161.322C205.508 163.6 212.804 161.941 214.065 161.019C214.891 160.413 215.012 159.446 214.984 158.794Z" fill="white"/>
<path fill-rule="evenodd" clip-rule="evenodd" d="M202.491 165.735C203.328 166.875 204.227 167.753 205.148 168.372C206.417 169.223 207.737 169.594 209.028 169.492C210.32 169.388 211.558 168.81 212.653 167.765C212.93 167.501 213.196 167.208 213.454 166.883C212.514 166.336 210.741 165.773 208.219 166.95C208.22 166.95 205.424 164.901 202.491 165.735Z" fill="#EE8682"/>
<path fill-rule="evenodd" clip-rule="evenodd" d="M211.348 171.878C211.666 171.728 211.801 171.348 211.651 171.03C211.501 170.714 211.121 170.578 210.805 170.727C210.797 170.73 208.376 171.844 205.434 170.532C205.113 170.389 204.738 170.535 204.596 170.854C204.453 171.176 204.599 171.552 204.918 171.694C208.39 173.241 211.339 171.882 211.348 171.878Z" fill="#F8A8A0"/>
<path d="M187.239 159.51C183.275 159.51 179.149 157.424 176.092 153.773C172.537 149.525 171.305 144.29 172.879 140.108C174.507 135.781 181.762 133.302 187.813 132.831C193.975 132.352 198.619 133.781 200.248 136.656C200.918 137.837 201.387 139.127 201.656 140.479C204.391 138.618 206.622 139.021 207.782 139.482C207.682 138.32 207.741 137.201 207.955 136.116C208.515 133.268 211.788 130.939 216.711 129.885C221.454 128.868 227.607 129.254 229.901 132.499C232.288 135.87 232.476 141.023 230.381 145.626C228.564 149.617 225.42 152.206 221.97 152.554C215.644 153.186 209.141 147.622 207.925 140.596C207.323 140.236 205.001 139.147 201.823 141.53C202.161 144.339 201.669 147.358 200.347 150.196C198.087 155.046 193.927 158.46 189.22 159.331C188.569 159.451 187.906 159.51 187.239 159.51ZM190.056 133.694C189.357 133.694 188.633 133.722 187.887 133.781C181.943 134.243 175.185 136.681 173.769 140.444C172.317 144.304 173.486 149.177 176.821 153.161C180.172 157.165 184.853 159.166 189.046 158.394C193.451 157.579 197.352 154.364 199.482 149.794C201.493 145.48 201.469 140.743 199.419 137.125C198.186 134.947 194.688 133.694 190.056 133.694ZM221.386 130.342C219.886 130.342 218.346 130.51 216.911 130.817C212.44 131.774 209.366 133.874 208.889 136.3C208.642 137.556 208.62 138.863 208.822 140.187C209.859 146.772 216.074 152.183 221.874 151.606C224.983 151.294 227.839 148.909 229.514 145.231C231.471 140.931 231.319 136.149 229.124 133.049C227.781 131.149 224.681 130.342 221.386 130.342Z" fill="white"/>
<path d="M252.529 211.511C252.428 211.511 252.326 211.479 252.24 211.413C252.031 211.253 251.991 210.954 252.151 210.745C255.583 206.261 256.362 201.756 254.464 197.356C251.352 190.139 241.395 184.837 233.954 184.066C233.797 184.051 233.658 183.956 233.583 183.817C233.508 183.676 233.508 183.509 233.582 183.369C236.229 178.387 232.492 175.777 232.332 175.67C232.116 175.523 232.057 175.229 232.201 175.012C236.388 168.679 236.769 155.127 233.217 138.763C229.663 122.385 221.905 103.249 212.588 97.4194C198.776 89.2845 180.392 90.6355 168.885 100.641C160.127 108.255 154.814 117.286 151.656 129.925C151.593 130.179 151.331 130.335 151.079 130.271C150.824 130.207 150.669 129.949 150.733 129.694C153.94 116.855 159.346 107.673 168.261 99.9226C180.067 89.658 198.917 88.2627 213.082 96.6065C222.646 102.59 230.551 121.988 234.148 138.561C237.687 154.868 237.336 168.488 233.229 175.172C234.215 176.035 236.721 178.796 234.727 183.201C242.498 184.245 252.14 189.562 255.339 196.981C257.354 201.653 256.513 206.613 252.907 211.325C252.813 211.447 252.672 211.511 252.529 211.511ZM267.765 209.599C267.715 209.599 267.663 209.59 267.612 209.573C267.365 209.489 267.231 209.222 267.313 208.973C267.326 208.93 267.688 207.669 267.013 204.932C266.284 201.977 263.006 187.347 262.973 187.198C262.931 186.995 262.017 182.36 264.043 177.679C266.014 173.127 271.278 162.085 271.331 161.974C271.406 161.845 272.689 159.797 277.577 158.181C277.524 157.69 277.649 156.92 278.553 156.065C279.856 154.831 282.908 153.532 283.038 153.477C283.14 153.43 285.951 152.131 287.931 153.545C289.313 154.531 290.264 155.444 290.649 155.835C291.273 155.725 292.765 155.597 293.604 156.643C293.714 156.781 293.846 156.931 293.99 157.094C294.984 158.229 296.632 160.11 296.208 163.218C296.72 163.79 298.364 165.659 299.052 166.826C299.202 167.081 299.357 167.389 299.531 167.736C300.284 169.238 301.314 171.297 303.819 172.705C307.08 174.539 307.969 178.686 307.714 181.955C307.694 182.218 307.465 182.417 307.203 182.393C306.94 182.372 306.744 182.144 306.765 181.881C306.997 178.905 306.222 175.149 303.352 173.535C300.594 171.982 299.442 169.684 298.68 168.162C298.518 167.837 298.373 167.548 298.233 167.309C297.48 166.031 295.373 163.712 295.352 163.688C295.253 163.581 295.21 163.434 295.234 163.291C295.7 160.489 294.24 158.824 293.275 157.722C293.12 157.545 292.98 157.385 292.862 157.238C292.201 156.412 290.63 156.81 290.613 156.812C290.444 156.861 290.26 156.806 290.138 156.675C290.127 156.664 289.088 155.539 287.378 154.318C285.846 153.226 283.451 154.335 283.426 154.345C283.379 154.366 280.385 155.639 279.208 156.755C278.27 157.641 278.556 158.243 278.569 158.267C278.631 158.392 278.64 158.546 278.585 158.674C278.531 158.802 278.426 158.909 278.292 158.951C273.448 160.46 272.177 162.408 272.166 162.428C272.137 162.494 266.881 173.519 264.917 178.055C263.014 182.454 263.895 186.953 263.904 186.999C263.935 187.137 267.211 201.758 267.938 204.703C268.698 207.788 268.236 209.214 268.216 209.274C268.149 209.473 267.964 209.599 267.765 209.599Z" fill="white"/>
<circle cx="428.777" cy="34.4432" r="33.1114" fill="#D9D9D9"/>
<path d="M428.312 67.5547C409.768 67.5547 394.734 52.5218 394.734 33.9763C394.734 15.4326 409.767 0.397949 428.31 0.397949C446.854 0.397949 461.889 15.4309 461.889 33.9763C461.89 52.52 446.856 67.5547 428.312 67.5547Z" fill="#F46079"/>
<path fill-rule="evenodd" clip-rule="evenodd" d="M415.469 40.9321C415.009 40.8661 414.52 40.8291 414 40.8291C410.17 40.8291 408.031 42.8501 407.211 43.8571C407.078 44.0301 407.007 44.2421 407.007 44.4611C407.007 44.4671 407.007 44.4731 407.006 44.4781C407 44.8481 407 45.3381 407 45.8291C407 46.3811 407.448 46.8291 408 46.8291H415.172C415.059 46.5111 415 46.1731 415 45.8291C415 44.6911 415 43.3351 415.004 42.5341C415.004 41.9641 415.167 41.4091 415.469 40.9321ZM438 46.8291H418C417.735 46.8291 417.48 46.7241 417.293 46.5361C417.105 46.3491 417 46.0941 417 45.8291C417 44.6941 417 43.3441 417.004 42.5401C417.004 42.5381 417.004 42.5361 417.004 42.5341C417.004 42.3041 417.084 42.0821 417.229 41.9041C418.47 40.4871 422.22 36.8291 428 36.8291C434.542 36.8291 437.827 40.4801 438.832 41.8571C438.943 42.0261 439 42.2171 439 42.4121V45.8291C439 46.0941 438.895 46.3491 438.707 46.5361C438.52 46.7241 438.265 46.8291 438 46.8291ZM440.828 46.8291H448C448.552 46.8291 449 46.3811 449 45.8291V44.4601C449 44.2391 448.927 44.0251 448.793 43.8501C447.969 42.8501 445.829 40.8291 442 40.8291C441.507 40.8291 441.042 40.8621 440.604 40.9221C440.863 41.3751 441 41.8891 441 42.4141V45.8291C441 46.1731 440.941 46.5111 440.828 46.8291ZM414 28.8291C411.24 28.8291 409 31.0691 409 33.8291C409 36.5891 411.24 38.8291 414 38.8291C416.76 38.8291 419 36.5891 419 33.8291C419 31.0691 416.76 28.8291 414 28.8291ZM442 28.8291C439.24 28.8291 437 31.0691 437 33.8291C437 36.5891 439.24 38.8291 442 38.8291C444.76 38.8291 447 36.5891 447 33.8291C447 31.0691 444.76 28.8291 442 28.8291ZM428 20.8291C424.137 20.8291 421 23.9661 421 27.8291C421 31.6921 424.137 34.8291 428 34.8291C431.863 34.8291 435 31.6921 435 27.8291C435 23.9661 431.863 20.8291 428 20.8291Z" fill="white"/>
<circle cx="461.889" cy="175.919" r="33.1114" fill="#42CE9C"/>
<circle cx="368.575" cy="273.246" r="33.1114" fill="#2A8FCE"/>
<path fill-rule="evenodd" clip-rule="evenodd" d="M381.661 256.718H355.079C352.561 256.718 350.497 258.782 350.497 261.299V287.882C350.497 290.399 352.561 292.463 355.079 292.463H381.661C384.179 292.463 386.243 290.399 386.243 287.882V261.299C386.243 258.782 384.179 256.718 381.661 256.718ZM362.785 273.981V285.016H357.944V271.091H362.785V273.981ZM360.355 269.015C359.008 269.015 357.915 267.923 357.915 266.576C357.915 265.228 359.008 264.137 360.355 264.137C361.703 264.137 362.795 265.228 362.795 266.576C362.795 267.923 361.703 269.015 360.355 269.015ZM378.796 277.42V285.016H374.625V278.252C374.625 276.632 374.45 274.549 372.23 274.549C369.977 274.549 369.636 276.313 369.636 278.135V285.016H365.615V271.091H369.487V272.952H369.528C370.106 271.91 371.521 271.089 373.628 271.089C377.178 271.089 378.384 272.768 378.714 275.394C378.793 276.011 378.823 276.676 378.823 277.42H378.796Z" fill="white"/>
<circle cx="258.204" cy="56.5176" r="33.1114" fill="#D9D9D9"/>
<path d="M258.205 90.569C239.399 90.569 224.153 75.3238 224.153 56.5169C224.153 37.7112 239.398 22.4661 258.204 22.4661C277.009 22.4661 292.254 37.7112 292.254 56.5169C292.257 75.3238 277.012 90.569 258.205 90.569Z" fill="#208AF2"/>
<path d="M258.205 41.2113C263.191 41.2113 263.78 41.2298 265.749 41.3208C267.569 41.4039 268.558 41.7085 269.216 41.9643C270.087 42.3032 270.709 42.708 271.363 43.3608C272.015 44.0135 272.42 44.6359 272.759 45.5076C273.015 46.1656 273.318 47.1546 273.403 48.9744C273.492 50.9431 273.512 51.5339 273.512 56.5185C273.512 61.5044 273.492 62.0939 273.403 64.0627C273.319 65.8824 273.015 66.8714 272.759 67.5294C272.42 68.4011 272.017 69.0222 271.363 69.6762C270.71 70.329 270.087 70.7338 269.216 71.0727C268.558 71.3285 267.569 71.6331 265.749 71.7162C263.78 71.8059 263.191 71.8244 258.205 71.8244C253.219 71.8244 252.628 71.8059 250.661 71.7162C248.841 71.6331 247.852 71.3285 247.194 71.0727C246.322 70.7338 245.701 70.329 245.047 69.6762C244.394 69.0222 243.99 68.4011 243.651 67.5294C243.395 66.8714 243.09 65.8824 243.007 64.0627C242.917 62.0939 242.899 61.5031 242.899 56.5185C242.899 51.5326 242.917 50.9431 243.007 48.9744C243.09 47.1533 243.395 46.1656 243.651 45.5076C243.99 44.6359 244.394 44.0148 245.047 43.3608C245.701 42.7067 246.322 42.3032 247.194 41.9643C247.852 41.7085 248.841 41.4039 250.661 41.3208C252.629 41.2298 253.22 41.2113 258.205 41.2113ZM258.205 37.8474C253.135 37.8474 252.499 37.8685 250.506 37.9595C248.519 38.0505 247.162 38.3656 245.974 38.8272C244.746 39.3045 243.705 39.9428 242.667 40.9806C241.629 42.0183 240.991 43.0601 240.514 44.2878C240.052 45.4746 239.736 46.8328 239.646 48.8187C239.555 50.8099 239.534 51.4456 239.534 56.5172C239.534 61.5875 239.555 62.2231 239.646 64.2156C239.736 66.2029 240.052 67.5598 240.514 68.7479C240.99 69.9756 241.628 71.016 242.667 72.0551C243.705 73.0929 244.746 73.7312 245.974 74.2085C247.162 74.6701 248.519 74.9852 250.506 75.0762C252.498 75.1672 253.133 75.1883 258.205 75.1883C263.275 75.1883 263.911 75.1672 265.903 75.0762C267.891 74.9852 269.247 74.6701 270.436 74.2085C271.663 73.7312 272.705 73.0929 273.743 72.0551C274.781 71.0173 275.419 69.9756 275.896 68.7479C276.358 67.5598 276.673 66.2029 276.764 64.2156C276.855 62.2244 276.876 61.5888 276.876 56.5172C276.876 51.4469 276.855 50.8113 276.764 48.8187C276.673 46.8315 276.358 45.4746 275.896 44.2878C275.419 43.0601 274.781 42.0183 273.743 40.9806C272.705 39.9428 271.663 39.3045 270.436 38.8272C269.247 38.3656 267.891 38.0505 265.903 37.9595C263.911 37.8685 263.275 37.8474 258.205 37.8474Z" fill="white"/>
<path d="M258.205 46.9304C252.91 46.9304 248.617 51.2227 248.617 56.5172C248.617 61.8116 252.909 66.1039 258.205 66.1039C263.499 66.1039 267.793 61.8116 267.793 56.5172C267.793 51.2227 263.501 46.9304 258.205 46.9304ZM258.205 62.7413C254.767 62.7413 251.982 59.955 251.982 56.5185C251.982 53.0807 254.768 50.2957 258.205 50.2957C261.643 50.2957 264.428 53.082 264.428 56.5185C264.429 59.955 261.643 62.7413 258.205 62.7413Z" fill="white"/>
<path d="M270.412 46.5509C270.412 47.7879 269.408 48.7914 268.171 48.7914C266.933 48.7914 265.931 47.7879 265.931 46.5509C265.931 45.314 266.934 44.3105 268.171 44.3105C269.408 44.3105 270.412 45.314 270.412 46.5509Z" fill="white"/>
<path d="M77.0437 480.87C77.0437 480.87 75.3127 476.598 62.4407 467.395C49.5697 458.192 38.1126 442.904 49.0456 436.182C59.9796 429.46 81.1277 454.621 77.0437 480.87Z" fill="#327F6B"/>
<path d="M49.0456 436.182C46.6466 437.657 45.3266 439.545 44.8616 441.69C45.3716 441.215 45.9746 440.756 46.6896 440.317C57.6226 433.595 81.1276 454.621 77.0426 480.871C81.1276 454.621 59.9796 429.46 49.0456 436.182Z" fill="#256653"/>
<path d="M85.6356 524.003L83.6356 524.002C83.6356 523.721 83.9196 495.619 108.505 475.629C132.231 456.338 146.636 443.669 146.636 430.435H148.636C148.636 444.557 133.951 457.516 109.767 477.181C85.9436 496.551 85.6356 523.73 85.6356 524.003Z" fill="#2D6C59"/>
<path d="M71.4766 521.143C71.4166 520.663 65.0256 472.901 22.4316 455.871L23.1736 454.014C66.8826 471.491 73.4006 520.406 73.4606 520.899L71.4766 521.143Z" fill="#2D6C59"/>
<path d="M75.1386 519.468C75.0316 518.005 72.6676 483.439 87.0216 465.499C112.212 434.015 100.333 403.829 100.211 403.528L102.063 402.772C102.191 403.084 114.501 434.357 88.5846 466.749C74.7236 484.071 77.1076 518.971 77.1336 519.321L75.1386 519.468Z" fill="#2D6C59"/>
<path d="M151.124 494.262C122.507 477.205 95.7356 492.971 95.4706 493.132L94.4356 491.421C94.7116 491.253 122.478 474.86 152.148 492.543L151.124 494.262Z" fill="#2D6C59"/>
<path d="M66.7956 503.498C48.3306 477.715 14.9336 481.764 14.5986 481.808L14.3386 479.826C14.6866 479.777 49.2666 475.587 68.4216 502.335L66.7956 503.498Z" fill="#2D6C59"/>
<path d="M80.9256 482.223L78.9876 481.729C87.2986 449.121 64.3476 420.902 64.1146 420.621L65.6546 419.346C65.8946 419.633 89.4936 448.612 80.9256 482.223Z" fill="#2D6C59"/>
<path d="M100.433 443.705C100.433 443.705 101.136 439.149 94.8026 424.649C88.4696 410.149 86.4696 391.149 99.3026 390.982C112.136 390.816 117.396 423.261 100.433 443.705Z" fill="#256653"/>
<path d="M100.433 443.705C100.433 443.705 101.136 439.149 94.8026 424.649C88.4696 410.149 89.8346 396.482 99.4696 396.482C107.4 396.483 117.396 423.261 100.433 443.705Z" fill="#327F6B"/>
<path d="M126.744 461.726C126.744 461.726 130.073 458.538 133.867 443.177C137.661 427.816 147.631 411.519 157.918 419.193C168.206 426.867 152.645 455.818 126.744 461.726Z" fill="#327F6B"/>
<path d="M126.75 461.731C126.75 461.731 129.723 458.885 133.11 445.17C136.497 431.455 145.399 416.904 154.584 423.756C163.769 430.607 149.875 456.456 126.75 461.731Z" fill="#2D6C59"/>
<path d="M99.8696 484.331C99.8696 484.331 101.316 479.954 97.4636 464.607C93.6116 449.26 94.7766 430.191 107.462 432.146C120.146 434.101 119.976 466.968 99.8696 484.331Z" fill="#327F6B"/>
<path d="M100.225 484.39C100.225 484.39 101.582 480.405 97.7286 466.351C93.8756 452.298 94.8306 434.889 107.088 436.787C119.346 438.685 119.473 468.708 100.225 484.39Z" fill="#2D6C59"/>
<path d="M75.8606 514.143C75.8606 514.143 77.3066 509.766 73.4546 494.419C69.6026 479.072 70.7676 460.003 83.4526 461.958C96.1366 463.913 95.9666 496.781 75.8606 514.143Z" fill="#327F6B"/>
<path d="M75.8606 514.143C75.8606 514.143 77.3066 509.766 73.4546 494.419C69.6026 479.072 69.1346 464.028 81.8186 465.983C94.5036 467.938 95.9666 496.781 75.8606 514.143Z" fill="#2D6C59"/>
<path d="M80.4346 454.131C80.4346 454.131 79.4777 449.622 68.4147 438.309C57.3517 426.996 48.7457 409.94 60.6857 405.234C72.6257 400.528 89.0476 429 80.4346 454.131Z" fill="#327F6B"/>
<path d="M80.4346 454.131C80.4346 454.131 79.4776 449.622 68.4146 438.309C57.3516 426.996 52.3136 413.316 61.8026 409.149C69.4086 405.81 89.0476 429 80.4346 454.131Z" fill="#2D6C59"/>
<path d="M46.6896 471.066C46.6896 471.066 43.6596 467.592 28.4906 463.091C13.3216 458.59 -2.49636 447.875 5.64664 437.955C13.7886 428.034 41.9876 444.92 46.6896 471.066Z" fill="#327F6B"/>
<path d="M46.6896 471.066C46.6896 471.066 43.6596 467.592 28.4906 463.091C13.3216 458.59 1.76062 448.608 8.38562 440.733C15.4876 432.291 41.9876 444.92 46.6896 471.066Z" fill="#2D6C59"/>
<path d="M52.3136 488.589C52.3136 488.589 48.0136 486.928 32.4946 490.015C16.9756 493.102 -2.01237 490.995 0.56763 478.423C3.14863 465.851 35.9676 467.648 52.3136 488.589Z" fill="#327F6B"/>
<path d="M52.3136 488.589C52.3136 488.589 48.0136 486.928 32.4946 490.015C16.9756 493.102 1.55461 492.096 4.13561 479.524C6.71561 466.952 35.9676 467.648 52.3136 488.589Z" fill="#2D6C59"/>
<path d="M70.6586 511.063C70.6586 511.063 66.3586 509.402 50.8396 512.489C35.3206 515.576 16.3326 513.469 18.9126 500.897C21.4936 488.325 54.3126 490.122 70.6586 511.063Z" fill="#2D6C59"/>
<path d="M104.916 488.089C104.916 488.089 109.427 487.142 124.246 492.69C139.065 498.237 158.144 499.217 157.623 486.393C157.102 473.569 124.422 470.055 104.916 488.089Z" fill="#327F6B"/>
<path d="M104.916 488.089C104.916 488.089 109.449 487.085 124.246 492.69C135.136 496.815 153.657 499.807 153.136 486.983C152.615 474.159 121.761 472.608 104.916 488.089Z" fill="#2D6C59"/>
<path d="M41.6516 524.733L50.7186 586.483H105.385L113.652 524.733H41.6516Z" fill="#D18133"/>
<path d="M112.273 535.035L113.652 524.733H41.6516L50.7186 586.483H62.7446C61.6096 556.88 77.9246 527.21 112.273 535.035Z" fill="#C46C23"/>
<path d="M112.319 529.483H42.9856C39.1356 529.483 35.9856 526.333 35.9856 522.483C35.9856 518.633 39.1356 515.483 42.9856 515.483H112.319C116.169 515.483 119.319 518.633 119.319 522.483C119.319 526.333 116.169 529.483 112.319 529.483Z" fill="#D18133"/>
<path d="M457.797 171.804C457.504 174.429 455.139 176.321 452.514 176.028C449.888 175.736 447.996 173.37 448.289 170.745C448.582 168.12 450.947 166.228 453.572 166.52C456.198 166.813 458.09 169.178 457.797 171.804Z" fill="white"/>
<path d="M472.175 163.778C471.883 166.404 469.518 168.296 466.892 168.003C464.267 167.71 462.375 165.345 462.667 162.72C462.959 160.094 465.325 158.203 467.95 158.495C470.576 158.788 472.468 161.153 472.175 163.778Z" fill="white"/>
<path d="M469.933 183.93C469.615 186.787 467.228 188.866 464.603 188.574C461.977 188.281 460.106 185.728 460.424 182.872C460.742 180.015 463.129 177.936 465.754 178.228C468.38 178.521 470.251 181.074 469.933 183.93Z" fill="white"/>
<path d="M463.844 182.633C463.608 182.91 460.648 180.758 457.235 177.828C453.821 174.897 451.246 172.298 451.483 172.022C451.719 171.747 454.679 173.897 458.093 176.828C461.505 179.758 464.081 182.358 463.844 182.633Z" fill="white"/>
<path d="M466.463 162.805C466.652 163.115 463.956 165.102 460.442 167.242C456.927 169.383 453.925 170.866 453.735 170.555C453.546 170.244 456.241 168.258 459.757 166.117C463.271 163.977 466.275 162.494 466.463 162.805Z" fill="white"/>
<path d="M438.031 165.313C437.971 165.445 437.134 165.186 436.163 164.737C435.192 164.287 434.454 163.817 434.514 163.686C434.575 163.555 435.41 163.813 436.382 164.262C437.354 164.712 438.091 165.182 438.031 165.313Z" fill="#263238"/>
<path d="M75.0239 197.872L71.3221 198.903L60.1064 189.891L58.0484 182.5C58.0484 182.5 52.2274 183.741 55.5947 193.231C58.9636 202.722 57.5492 200.46 57.5492 200.46C57.5492 200.46 45.4097 203.89 44.6931 205.228C44.1718 206.199 47.2011 218.364 48.8975 224.946C49.7516 228.259 52.6265 230.762 55.9088 230.687C56.3758 230.677 56.8326 230.619 57.2656 230.499C60.2966 229.655 75.0969 222.878 75.0969 222.878L81.4935 221.097L75.0239 197.872Z" fill="#7FBFF5"/>
<path d="M85.0595 192.892L89.8344 218.852L83.4939 220.618L76.5827 195.802L85.0595 192.892Z" fill="#7FBFF5"/>
<path d="M324.074 99.3244L337.522 41.8953L356.533 50.8193L324.074 99.3244Z" fill="#2A8FCE"/>
<path d="M336.349 121.862L365.709 85.7358L383.335 113.343L336.349 121.862Z" fill="#2A8FCE"/>
<path d="M349.867 144.771L382.025 145.432L380.054 155.878L349.867 144.771Z" fill="#2A8FCE"/>
<path d="M324.074 99.3244L337.522 41.8953L356.533 50.8193L324.074 99.3244Z" fill="#B0B6B9"/>
<path d="M336.349 121.862L365.709 85.7358L383.335 113.343L336.349 121.862Z" fill="#B0B6B9"/>
<path d="M349.867 144.771L382.025 145.432L380.054 155.878L349.867 144.771Z" fill="#B0B6B9"/>
</svg>
