<svg width="357" height="320" viewBox="0 0 357 320" fill="none" xmlns="http://www.w3.org/2000/svg">
<g clip-path="url(#clip0_15_202)">
<g clip-path="url(#clip1_15_202)">
<path d="M204.694 145.693C201.467 150.88 190.863 157.911 186.368 162.406L184.869 157.219C189.941 150.649 195.128 140.276 197.202 139.238C198.009 139.008 205.847 143.849 204.694 145.693Z" fill="#FFC08D"/>
<path d="M195.243 141.659C196.741 139.469 199.277 132.553 200.199 133.014C201.582 133.706 199.277 138.892 198.009 142.004C196.165 146.154 195.243 141.659 195.243 141.659Z" fill="#FFC08D"/>
<path d="M202.043 144.54C203.772 142.581 208.613 135.665 209.535 136.357C211.38 137.625 205.732 145.117 203.772 147.076C200.775 150.188 202.043 144.54 202.043 144.54Z" fill="#FFC08D"/>
<path d="M198.816 147.998C199.162 152.032 208.383 143.733 208.729 146.961C208.959 150.419 197.433 154.337 193.399 154.453C189.595 154.568 198.816 147.998 198.816 147.998Z" fill="#FFC08D"/>
<path d="M199.508 141.889C201.006 139.699 205.501 131.977 206.423 132.438C208.037 133.245 203.311 140.967 201.813 143.388C199.623 147.307 199.508 141.889 199.508 141.889Z" fill="#FFC08D"/>
<path d="M154.094 208.049C162.624 202.863 225.902 174.969 233.51 177.966C241.117 181.078 213.224 224.071 208.844 225.108C204.464 226.145 153.172 239.977 146.487 232.485C142.799 228.22 143.606 214.273 154.094 208.049Z" fill="#F1F1F1"/>
<path d="M232.242 194.679C227.286 208.165 214.261 226.952 211.034 227.759C206.769 228.797 153.172 239.977 146.487 232.485C144.758 230.41 148.101 228.335 148.908 223.84C168.617 229.027 215.183 194.103 232.242 194.679Z" fill="#E3E5E7"/>
<path d="M183.025 149.842C177.954 155.721 134.385 209.663 141.07 224.878C147.755 239.977 162.97 233.292 167.811 224.647C172.536 216.118 193.168 168.515 194.667 163.904C196.972 156.297 186.022 146.269 183.025 149.842Z" fill="#F1F1F1"/>
<path d="M181.988 184.651C188.212 174.624 192.246 165.172 193.975 157.45C194.897 159.64 195.243 161.83 194.667 163.904C193.168 168.515 173.689 217.155 168.963 225.8C165.16 232.6 154.094 237.556 146.372 231.793C155.362 230.987 169.424 204.937 181.988 184.651Z" fill="#E3E5E7"/>
<path d="M312.81 569.625C312.81 569.625 242.385 551.99 218.987 542.424C195.704 532.857 170.462 534.471 158.705 535.278C158.705 535.278 187.059 386.59 195.704 318.585C204.233 250.581 208.498 186.841 228.784 181.309C249.07 175.661 301.745 180.732 306.701 201.48C311.657 222.342 304.511 337.027 304.05 348.092C302.436 381.749 320.532 501.621 312.81 569.625Z" fill="#F1F1F1"/>
<path d="M269.587 444.567C272.814 387.627 276.964 267.755 307.854 209.433C312.695 230.526 306.586 337.027 306.125 348.208C304.511 381.749 320.532 501.621 312.81 569.626C312.81 569.626 289.412 563.747 265.092 556.947C271.431 528.708 267.282 484.101 269.587 444.567Z" fill="#E3E5E7"/>
<path d="M309.121 408.72C302.321 376.101 288.72 355.7 276.618 342.906C281.459 290.346 289.296 244.472 307.854 209.433C312.695 230.526 306.586 337.027 306.125 348.208C305.548 359.849 307.162 381.979 309.121 408.72Z" fill="white"/>
<path d="M343.815 277.091C341.279 266.372 306.701 198.713 299.209 194.564C291.717 190.414 288.835 247.354 291.256 251.618C293.561 255.998 325.028 301.988 334.94 301.988C340.357 301.988 346.927 290.231 343.815 277.091Z" fill="#F1F1F1"/>
<path d="M331.482 287.234C341.51 286.543 337.591 265.795 327.909 243.781C319.61 224.993 305.318 208.626 295.29 205.168C296.443 196.408 298.056 190.53 300.477 191.913C307.854 195.947 343.7 267.409 346.236 278.244C349.348 291.384 340.357 301.988 334.94 301.988C325.028 301.988 293.331 257.958 291.025 253.578C290.68 253.117 287.567 247.123 288.029 243.204C297.711 260.609 322.722 287.926 331.482 287.234Z" fill="#E3E5E7"/>
<path d="M186.483 139.814L205.271 119.759L217.949 134.743L198.931 154.337L186.483 139.814Z" fill="#56453F"/>
<path d="M187.981 140.045L206.193 120.681L218.065 134.628L199.623 153.646L187.981 140.045Z" fill="#7C655E"/>
<path d="M199.623 127.712L194.321 147.422L187.981 140.045L199.623 127.712Z" fill="#896E68"/>
<path d="M209.651 124.83L218.065 134.628L202.735 150.419L209.651 124.83Z" fill="#896E68"/>
<path d="M190.978 139.815L206.769 123.447L216.105 134.397L200.199 150.534L190.978 139.815Z" fill="#91B8C9"/>
<path d="M200.084 149.842V130.363L206.769 123.447L216.105 134.397L200.199 150.534L190.978 139.815L191.209 139.584L200.084 149.842Z" fill="#719FAF"/>
<path d="M236.276 254.269C236.276 253.693 239.158 195.14 260.366 183.268L259.674 182.461C238.005 194.564 231.896 250.35 231.781 252.771L236.276 254.269Z" fill="#E3E5E7"/>
<path d="M270.97 187.302C267.051 190.76 251.375 200.557 242.385 184.075L241.809 171.281L273.967 169.091C273.967 169.091 274.889 183.844 270.97 187.302Z" fill="#FFAF73"/>
<g style="mix-blend-mode:multiply" opacity="0.5">
<path d="M246.073 225.569C229.13 215.541 225.442 200.673 228.669 181.309C228.669 181.309 228.707 181.309 228.784 181.309C245.382 176.698 273.736 158.602 289.758 171.05C289.988 171.05 300.131 191.797 300.477 191.913C302.091 192.835 305.203 197.215 309.122 203.554C286.876 200.327 267.282 238.133 246.073 225.569Z" fill="white"/>
</g>
<path d="M219.333 104.429C219.333 104.429 253.565 106.273 253.335 110.884C249.992 172.088 262.556 173.701 261.173 175.891C259.098 179.234 247.802 176.698 240.656 182.346C233.51 188.109 197.894 232.024 219.333 104.429Z" fill="#E3E5E7"/>
<path d="M222.445 104.198C222.445 104.198 254.833 106.043 254.603 110.768C251.721 171.857 263.593 173.471 262.21 175.661C260.25 179.003 249.531 176.468 242.846 182.115C239.849 184.651 227.862 195.14 221.292 194.103C213.224 192.95 211.495 174.508 222.445 104.198Z" fill="#E3E5E7"/>
<path d="M306.816 353.164C311.772 347.17 351.768 297.838 344.853 282.739C338.052 267.64 324.797 270.982 320.071 279.627C315.461 288.272 296.558 337.258 295.175 341.868C292.869 349.476 303.819 356.737 306.816 353.164Z" fill="#F1F1F1"/>
<path d="M221.292 148.574C221.292 148.574 224.174 108.809 228.554 106.389C232.934 103.968 271.777 100.164 274.082 121.373C280.537 178.658 219.102 189.608 221.292 148.574Z" fill="#FFAF73"/>
<path d="M235.469 139.814C234.547 136.702 230.052 127.943 223.713 138.086C228.899 133.936 231.55 134.973 235.469 139.814Z" fill="#5B362F"/>
<path d="M225.096 116.762C225.096 116.762 246.88 120.45 263.939 130.248L261.634 116.186L226.709 108.117L225.096 116.762Z" fill="#FF9A6E"/>
<path d="M263.939 135.78C261.403 133.706 254.487 127.481 258.983 121.488C262.901 116.186 268.549 139.584 263.939 135.78Z" fill="#FF9A6E"/>
<path d="M263.708 122.179C260.481 122.179 251.491 122.064 250.799 114.226C250.223 107.541 269.471 122.179 263.708 122.179Z" fill="#5B362F"/>
<path d="M265.437 133.475C263.017 131.4 255.986 125.291 260.481 119.183C264.4 113.881 270.048 137.279 265.437 133.475Z" fill="#5B362F"/>
<path d="M227.516 105.351C229.13 107.772 233.394 114.457 225.902 114.457C219.448 114.457 224.635 101.087 227.516 105.351Z" fill="#5B362F"/>
<path d="M221.292 148.574C221.292 148.574 226.709 162.29 260.135 155.605C263.478 154.914 264.285 126.329 267.281 123.678L277.194 177.274C277.194 177.274 249.416 190.068 230.513 184.766C216.336 180.848 217.949 171.972 221.292 148.574Z" fill="#432C1D"/>
<path d="M228.093 180.502C268.319 191.106 262.21 146.154 265.322 130.478C266.014 127.02 266.475 124.369 267.282 123.678L277.194 177.274C277.194 177.274 249.416 190.068 230.513 184.766C225.557 183.383 222.56 181.424 220.831 178.427C222.329 180.041 226.018 179.925 228.093 180.502Z" fill="#432C1D"/>
<path d="M260.596 113.419C260.596 113.419 295.405 115.84 295.521 121.603C296.673 192.489 312.349 189.031 304.972 197.099C298.056 191.567 285.954 198.022 280.652 204.476C275.35 210.816 263.593 133.014 260.596 113.419Z" fill="white"/>
<path d="M279.96 161.714C276.618 139.123 269.817 120.22 263.363 113.65C271.661 114.342 295.405 116.762 295.521 121.603C296.673 192.489 312.349 189.031 304.972 197.1C298.056 191.567 285.954 198.022 280.652 204.476C280.652 204.476 280.613 204.476 280.537 204.476C282.611 194.679 282.611 179.119 279.96 161.714Z" fill="#E3E5E7"/>
<path d="M295.751 134.743L295.636 125.522L260.481 116.186L261.979 123.447L295.751 134.743Z" fill="#E3E5E7"/>
<path d="M297.134 126.905C295.636 123.908 296.327 120.335 298.056 118.376C300.707 115.494 302.206 106.619 300.477 100.625C293.907 77.5731 231.205 63.2807 220.831 89.4451C218.987 93.825 219.909 102.931 217.143 108.233L297.134 126.905Z" fill="white"/>
<path d="M245.497 114.803C266.129 111.23 280.652 97.5135 278.001 83.7973C277.847 82.7984 277.578 81.8379 277.194 80.9158C288.835 85.411 298.172 92.4419 300.477 100.626C302.206 106.619 300.707 115.494 298.056 118.376C296.327 120.335 295.636 123.908 297.134 126.905L245.497 114.803Z" fill="#E3E5E7"/>
<path d="M255.986 115.61L218.411 104.775L218.756 100.971L268.665 113.189L255.986 115.61Z" fill="#E3E5E7"/>
<path d="M298.978 117.338C301.399 118.722 299.901 122.986 297.365 121.488L218.295 102.7C216.451 101.663 217.143 95.8997 219.102 96.3608L298.978 117.338Z" fill="#313033"/>
<path d="M263.708 108.117L298.978 117.338C301.399 118.722 299.901 122.986 297.365 121.488L255.986 111.691C258.983 110.653 261.634 109.501 263.708 108.117Z" fill="#313033"/>
<path d="M237.544 132.784C237.544 132.784 223.712 155.375 225.672 156.988C227.631 158.602 234.778 158.026 237.083 156.182C238.466 155.029 239.158 132.092 237.544 132.784Z" fill="#FFAF73"/>
<path d="M232.242 128.058L220.946 129.787L222.329 121.488L232.357 123.217L232.242 128.058Z" fill="#5B362F"/>
<path d="M239.734 124.369L255.064 126.905V135.435L239.619 128.865L239.734 124.369Z" fill="#5B362F"/>
<path d="M236.968 133.245C237.083 133.245 237.313 133.475 237.429 133.821C234.317 138.892 224.75 155.26 226.364 156.527C228.092 158.026 233.625 157.795 236.622 156.412C236.545 156.566 236.507 156.643 236.507 156.643C234.201 158.602 226.94 159.179 225.096 157.565C223.136 155.951 236.968 133.245 236.968 133.245Z" fill="#DB6A4B"/>
<path d="M244.69 161.253C244.805 162.175 243.768 171.627 236.737 171.511C229.706 171.511 229.36 160.1 229.36 159.985L244.69 161.253Z" fill="#442A24"/>
<path d="M230.859 165.057C230.167 162.636 230.052 160.446 230.052 160.446C230.052 160.331 244.344 161.599 244.344 161.599C244.344 161.829 244.229 163.328 243.768 165.057H230.859Z" fill="#F9EACA"/>
<path d="M252.759 142.465C251.836 139.238 247.341 130.478 241.002 140.737C246.189 136.587 248.84 137.509 252.759 142.465Z" fill="#5B362F"/>
</g>
</g>
<path d="M15.6094 94.8837H185.213C193.753 94.8837 200.74 87.8968 200.74 79.3571V15.6427C200.74 7.10307 193.753 0.116211 185.213 0.116211H15.6094C7.06975 0.116211 0.0828857 7.10331 0.0828857 15.6427V79.3571C0.0828857 87.8968 7.06975 94.8837 15.6094 94.8837Z" fill="#432C1D"/>
<path d="M29.1978 25.347H27.3945C27.2879 24.8284 27.1013 24.3727 26.8346 23.98C26.5729 23.5874 26.2529 23.2577 25.8748 22.9911C25.5016 22.7197 25.0871 22.5161 24.6314 22.3803C24.1758 22.2446 23.7007 22.1767 23.2063 22.1767C22.3046 22.1767 21.4878 22.4046 20.7558 22.8602C20.0287 23.3159 19.4494 23.9873 19.018 24.8744C18.5914 25.7615 18.3781 26.8498 18.3781 28.1392C18.3781 29.4287 18.5914 30.517 19.018 31.4041C19.4494 32.2912 20.0287 32.9626 20.7558 33.4182C21.4878 33.8739 22.3046 34.1017 23.2063 34.1017C23.7007 34.1017 24.1758 34.0339 24.6314 33.8981C25.0871 33.7624 25.5016 33.5612 25.8748 33.2946C26.2529 33.0231 26.5729 32.6911 26.8346 32.2984C27.1013 31.9009 27.2879 31.4453 27.3945 30.9314H29.1978C29.0621 31.6925 28.8149 32.3736 28.4562 32.9747C28.0974 33.5758 27.6515 34.0872 27.1182 34.5089C26.585 34.9258 25.9863 35.2433 25.3222 35.4615C24.6629 35.6796 23.9576 35.7887 23.2063 35.7887C21.9362 35.7887 20.8067 35.4784 19.8178 34.8579C18.8289 34.2375 18.0509 33.3552 17.4837 32.2112C16.9165 31.0672 16.633 29.7098 16.633 28.1392C16.633 26.5686 16.9165 25.2113 17.4837 24.0673C18.0509 22.9233 18.8289 22.041 19.8178 21.4205C20.8067 20.8 21.9362 20.4898 23.2063 20.4898C23.9576 20.4898 24.6629 20.5989 25.3222 20.817C25.9863 21.0351 26.585 21.3551 27.1182 21.7768C27.6515 22.1937 28.0974 22.7027 28.4562 23.3038C28.8149 23.9 29.0621 24.5811 29.1978 25.347ZM43.8576 28.1392C43.8576 29.7098 43.5741 31.0672 43.0069 32.2112C42.4397 33.3552 41.6617 34.2375 40.6728 34.8579C39.6839 35.4784 38.5544 35.7887 37.2844 35.7887C36.0143 35.7887 34.8848 35.4784 33.8959 34.8579C32.907 34.2375 32.129 33.3552 31.5618 32.2112C30.9947 31.0672 30.7111 29.7098 30.7111 28.1392C30.7111 26.5686 30.9947 25.2113 31.5618 24.0673C32.129 22.9233 32.907 22.041 33.8959 21.4205C34.8848 20.8 36.0143 20.4898 37.2844 20.4898C38.5544 20.4898 39.6839 20.8 40.6728 21.4205C41.6617 22.041 42.4397 22.9233 43.0069 24.0673C43.5741 25.2113 43.8576 26.5686 43.8576 28.1392ZM42.1125 28.1392C42.1125 26.8498 41.8968 25.7615 41.4654 24.8744C41.0388 23.9873 40.4595 23.3159 39.7275 22.8602C39.0004 22.4046 38.186 22.1767 37.2844 22.1767C36.3827 22.1767 35.5659 22.4046 34.8339 22.8602C34.1068 23.3159 33.5275 23.9873 33.0961 24.8744C32.6695 25.7615 32.4562 26.8498 32.4562 28.1392C32.4562 29.4287 32.6695 30.517 33.0961 31.4041C33.5275 32.2912 34.1068 32.9626 34.8339 33.4182C35.5659 33.8739 36.3827 34.1017 37.2844 34.1017C38.186 34.1017 39.0004 33.8739 39.7275 33.4182C40.4595 32.9626 41.0388 32.2912 41.4654 31.4041C41.8968 30.517 42.1125 29.4287 42.1125 28.1392ZM46.0707 20.6934H48.2231L53.2839 33.0547H53.4584L58.5193 20.6934H60.6716V35.5851H58.9846V24.2709H58.8392L54.1856 35.5851H52.5568L47.9031 24.2709H47.7577V35.5851H46.0707V20.6934ZM63.4682 20.6934H65.6205L70.6814 33.0547H70.8559L75.9168 20.6934H78.0691V35.5851H76.3821V24.2709H76.2367L71.583 35.5851H69.9543L65.3006 24.2709H65.1552V35.5851H63.4682V20.6934ZM90.6384 20.6934H92.4417V30.5533C92.4417 31.5713 92.2017 32.4802 91.7218 33.2801C91.2467 34.0751 90.5754 34.7028 89.7076 35.1633C88.8399 35.619 87.8219 35.8469 86.6537 35.8469C85.4854 35.8469 84.4674 35.619 83.5997 35.1633C82.732 34.7028 82.0582 34.0751 81.5783 33.2801C81.1032 32.4802 80.8657 31.5713 80.8657 30.5533V20.6934H82.669V30.4079C82.669 31.135 82.829 31.7822 83.1489 32.3493C83.4688 32.9117 83.9245 33.3552 84.5159 33.68C85.1122 33.9999 85.8247 34.1599 86.6537 34.1599C87.4826 34.1599 88.1952 33.9999 88.7915 33.68C89.3877 33.3552 89.8434 32.9117 90.1585 32.3493C90.4784 31.7822 90.6384 31.135 90.6384 30.4079V20.6934ZM107.032 20.6934V35.5851H105.287L97.1725 23.8928H97.027V35.5851H95.2237V20.6934H96.9689L105.113 32.4148H105.258V20.6934H107.032ZM111.625 20.6934V35.5851H109.822V20.6934H111.625ZM126.405 25.347H124.602C124.495 24.8284 124.308 24.3727 124.042 23.98C123.78 23.5874 123.46 23.2577 123.082 22.9911C122.709 22.7197 122.294 22.5161 121.838 22.3803C121.383 22.2446 120.908 22.1767 120.413 22.1767C119.512 22.1767 118.695 22.4046 117.963 22.8602C117.236 23.3159 116.656 23.9873 116.225 24.8744C115.798 25.7615 115.585 26.8498 115.585 28.1392C115.585 29.4287 115.798 30.517 116.225 31.4041C116.656 32.2912 117.236 32.9626 117.963 33.4182C118.695 33.8739 119.512 34.1017 120.413 34.1017C120.908 34.1017 121.383 34.0339 121.838 33.8981C122.294 33.7624 122.709 33.5612 123.082 33.2946C123.46 33.0231 123.78 32.6911 124.042 32.2984C124.308 31.9009 124.495 31.4453 124.602 30.9314H126.405C126.269 31.6925 126.022 32.3736 125.663 32.9747C125.304 33.5758 124.858 34.0872 124.325 34.5089C123.792 34.9258 123.193 35.2433 122.529 35.4615C121.87 35.6796 121.165 35.7887 120.413 35.7887C119.143 35.7887 118.014 35.4784 117.025 34.8579C116.036 34.2375 115.258 33.3552 114.691 32.2112C114.124 31.0672 113.84 29.7098 113.84 28.1392C113.84 26.5686 114.124 25.2113 114.691 24.0673C115.258 22.9233 116.036 22.041 117.025 21.4205C118.014 20.8 119.143 20.4898 120.413 20.4898C121.165 20.4898 121.87 20.5989 122.529 20.817C123.193 21.0351 123.792 21.3551 124.325 21.7768C124.858 22.1937 125.304 22.7027 125.663 23.3038C126.022 23.9 126.269 24.5811 126.405 25.347ZM129.111 35.5851H127.22L132.688 20.6934H134.55L140.018 35.5851H138.127L133.677 23.0493H133.561L129.111 35.5851ZM129.809 29.768H137.429V31.3677H129.809V29.768ZM138.964 22.2931V20.6934H150.133V22.2931H145.45V35.5851H143.647V22.2931H138.964ZM153.9 20.6934V35.5851H152.097V20.6934H153.9ZM169.262 28.1392C169.262 29.7098 168.978 31.0672 168.411 32.2112C167.844 33.3552 167.066 34.2375 166.077 34.8579C165.088 35.4784 163.958 35.7887 162.688 35.7887C161.418 35.7887 160.289 35.4784 159.3 34.8579C158.311 34.2375 157.533 33.3552 156.966 32.2112C156.399 31.0672 156.115 29.7098 156.115 28.1392C156.115 26.5686 156.399 25.2113 156.966 24.0673C157.533 22.9233 158.311 22.041 159.3 21.4205C160.289 20.8 161.418 20.4898 162.688 20.4898C163.958 20.4898 165.088 20.8 166.077 21.4205C167.066 22.041 167.844 22.9233 168.411 24.0673C168.978 25.2113 169.262 26.5686 169.262 28.1392ZM167.517 28.1392C167.517 26.8498 167.301 25.7615 166.869 24.8744C166.443 23.9873 165.864 23.3159 165.132 22.8602C164.404 22.4046 163.59 22.1767 162.688 22.1767C161.787 22.1767 160.97 22.4046 160.238 22.8602C159.511 23.3159 158.932 23.9873 158.5 24.8744C158.073 25.7615 157.86 26.8498 157.86 28.1392C157.86 29.4287 158.073 30.517 158.5 31.4041C158.932 32.2912 159.511 32.9626 160.238 33.4182C160.97 33.8739 161.787 34.1017 162.688 34.1017C163.59 34.1017 164.404 33.8739 165.132 33.4182C165.864 32.9626 166.443 32.2912 166.869 31.4041C167.301 30.517 167.517 29.4287 167.517 28.1392ZM183.283 20.6934V35.5851H181.538L173.423 23.8928H173.278V35.5851H171.475V20.6934H173.22L181.364 32.4148H181.509V20.6934H183.283Z" fill="white"/>
<path d="M200.739 81.7407C200.739 81.7407 200.168 91.9565 204.81 94.8837C204.81 94.8837 198.322 94.6252 195.738 89.3481C193.154 84.0713 200.739 81.7407 200.739 81.7407Z" fill="#432C1D"/>
<rect opacity="0.1" x="20.1635" y="44.5" width="158.5" height="3" fill="#D9D9D9"/>
<rect opacity="0.1" x="20.1635" y="54.5" width="125.488" height="3" fill="#D9D9D9"/>
<rect opacity="0.1" x="20.1635" y="64.5" width="125.488" height="3" fill="#D9D9D9"/>
<defs>
<clipPath id="clip0_15_202">
<rect width="222.455" height="246" fill="white" transform="translate(134.5 74)"/>
</clipPath>
<clipPath id="clip1_15_202">
<rect width="215.539" height="502.541" fill="white" transform="translate(134.5 75.1526)"/>
</clipPath>
</defs>
</svg>
