<svg xmlns="http://www.w3.org/2000/svg" width="77" height="77" viewBox="0 0 77 77">
  <g id="Group_712" data-name="Group 712" transform="translate(0)">
    <g id="Path_1204" data-name="Path 1204" transform="translate(0 0)" fill="#fff">
      <path d="M 38.5 75.5 C 33.50437927246094 75.5 28.65896606445313 74.52193450927734 24.098388671875 72.59297943115234 C 19.6926326751709 70.72949981689453 15.73555564880371 68.06145477294922 12.33705520629883 64.66295623779297 C 8.938555717468262 61.26445388793945 6.270511150360107 57.30736541748047 4.407033443450928 52.901611328125 C 2.478066682815552 48.34103393554688 1.5 43.49563217163086 1.5 38.5 C 1.5 33.50437927246094 2.478066682815552 28.65897750854492 4.407033443450928 24.098388671875 C 6.270511150360107 19.6926441192627 8.938555717468262 15.73555564880371 12.33705520629883 12.33705520629883 C 15.73555564880371 8.938555717468262 19.6926441192627 6.270511150360107 24.098388671875 4.407033443450928 C 28.65897750854492 2.478066682815552 33.50437927246094 1.5 38.5 1.5 C 43.49563217163086 1.5 48.34103393554688 2.478066682815552 52.901611328125 4.407033443450928 C 57.30736541748047 6.270511150360107 61.26445388793945 8.938555717468262 64.66295623779297 12.33705520629883 C 68.06145477294922 15.73555564880371 70.72949981689453 19.6926326751709 72.59297943115234 24.098388671875 C 74.52193450927734 28.65896606445313 75.5 33.50437927246094 75.5 38.5 C 75.5 43.49563217163086 74.52193450927734 48.34103393554688 72.59297943115234 52.901611328125 C 70.72949981689453 57.30736541748047 68.06145477294922 61.26445388793945 64.66295623779297 64.66295623779297 C 61.26445388793945 68.06145477294922 57.30736541748047 70.72949981689453 52.901611328125 72.59297943115234 C 48.34103393554688 74.52193450927734 43.49563217163086 75.5 38.5 75.5 Z" stroke="none"/>
      <path d="M 38.5 3 C 33.70621109008789 3 29.05739974975586 3.938201904296875 24.68272399902344 5.788536071777344 C 20.45576095581055 7.576385498046875 16.65893936157227 10.13648986816406 13.39771270751953 13.39771270751953 C 10.13648986816406 16.65893936157227 7.576385498046875 20.45576095581055 5.788536071777344 24.68272399902344 C 3.938201904296875 29.05739974975586 3 33.70621109008789 3 38.5 C 3 43.29378890991211 3.938201904296875 47.94260025024414 5.788536071777344 52.31727600097656 C 7.576385498046875 56.54423522949219 10.13648986816406 60.341064453125 13.39771270751953 63.60228729248047 C 16.65893936157227 66.86351013183594 20.45576095581055 69.42361450195313 24.68272399902344 71.21146392822266 C 29.05739974975586 73.06179809570313 33.70621109008789 74 38.5 74 C 43.29378890991211 74 47.94260025024414 73.06179809570313 52.31727600097656 71.21146392822266 C 56.54423522949219 69.42361450195313 60.341064453125 66.86351013183594 63.60228729248047 63.60228729248047 C 66.86351013183594 60.341064453125 69.42361450195313 56.54423522949219 71.21146392822266 52.31727600097656 C 73.06179809570313 47.94260025024414 74 43.29378890991211 74 38.5 C 74 33.70621109008789 73.06179809570313 29.05739974975586 71.21146392822266 24.68272399902344 C 69.42361450195313 20.45576095581055 66.86351013183594 16.65893936157227 63.60228729248047 13.39771270751953 C 60.341064453125 10.13648986816406 56.54423522949219 7.576385498046875 52.31727600097656 5.788536071777344 C 47.94260025024414 3.938201904296875 43.29378890991211 3 38.5 3 M 38.5 0 C 59.76296234130859 0 77 17.23703765869141 77 38.5 C 77 59.76296234130859 59.76296234130859 77 38.5 77 C 17.23703765869141 77 0 59.76296234130859 0 38.5 C 0 17.23703765869141 17.23703765869141 0 38.5 0 Z" stroke="none" fill="#edbb13"/>
    </g>
    <g id="Group_711" data-name="Group 711" transform="translate(15 19)">
      <path id="Path_1203" data-name="Path 1203" d="M16.5,0h14a16.5,16.5,0,0,1,0,33h-14a16.5,16.5,0,0,1,0-33Z" transform="translate(0 0)" fill="#fff"/>
      <g id="mail" transform="translate(0.01 0.777)">
        <g id="Group_710" data-name="Group 710" transform="translate(0 0)">
          <path id="Path_423" data-name="Path 423" d="M42.6,76H4.1A4.111,4.111,0,0,0,0,80.1v24.628a4.111,4.111,0,0,0,4.1,4.1H42.6a4.109,4.109,0,0,0,4.1-4.1V80.1A4.109,4.109,0,0,0,42.6,76Zm-.575,2.736L26.253,94.422a4.1,4.1,0,0,1-5.807,0L4.679,78.736ZM2.736,104.176V80.663L14.561,92.426ZM4.681,106.1,16.5,94.356l2.012,2a6.841,6.841,0,0,0,9.672,0l2.015-2L42.02,106.1Zm39.284-1.925L32.14,92.426,43.965,80.663Z" transform="translate(0 -76)" fill="#edbb13"/>
        </g>
      </g>
      <g id="tie" transform="translate(17.475 8.887)">
        <path id="Path_424" data-name="Path 424" d="M20.185,4.72,22.628,0h-10.3l2.443,4.72Zm0,0" transform="translate(-11.158)" fill="#edbb13"/>
        <path id="Path_425" data-name="Path 425" d="M8.889,64h-5.1L.042,85.158a1.64,1.64,0,0,0,.352,1.335l4.655,5.678a1.668,1.668,0,0,0,2.579,0l4.655-5.685a1.617,1.617,0,0,0,.352-1.324Zm0,0" transform="translate(-0.016 -57.902)" fill="#edbb13"/>
      </g>
    </g>
  </g>
</svg>
