<svg xmlns="http://www.w3.org/2000/svg" width="77" height="77" viewBox="0 0 77 77">
  <g id="Group_2111" data-name="Group 2111" transform="translate(-1539 -2422)">
    <circle id="Ellipse_124" data-name="Ellipse 124" cx="37" cy="37" r="37" transform="translate(1540 2423)" fill="#fff"/>
    <g id="Group_1285" data-name="Group 1285" transform="translate(4713 -564)">
      <g id="Ellipse_71" data-name="Ellipse 71" transform="translate(-3174 2986)" fill="none" stroke="#0d8240" stroke-width="3">
        <circle cx="38.5" cy="38.5" r="38.5" stroke="none"/>
        <circle cx="38.5" cy="38.5" r="37" fill="none"/>
      </g>
      <g id="resell" transform="translate(-3158.393 3001.156)">
        <path id="Path_476" data-name="Path 476" d="M64.933,58.137,51.276,48.381a1.977,1.977,0,0,0-2.268,0L35.35,58.137l2.268,3.175,2.768-1.978v8.195a1.951,1.951,0,0,0,1.951,1.951h4.878v-7.8a1.951,1.951,0,0,1,1.951-1.951h1.951a1.951,1.951,0,0,1,1.951,1.951v7.8h4.878A1.951,1.951,0,0,0,59.9,67.529V59.334l2.768,1.977Z" transform="translate(-26.728 -36.311)" fill="#0d8240"/>
        <path id="Path_477" data-name="Path 477" d="M119.413,23.413A23.439,23.439,0,0,0,96,0V3.9A19.508,19.508,0,0,1,112.124,34.4l-.615-1.845-3.7,1.234,1.951,5.853a1.951,1.951,0,0,0,1.851,1.334h5.853v-3.9h-2.447a23.305,23.305,0,0,0,4.4-13.658Z" transform="translate(-72.587 0)" fill="#0d8240"/>
        <path id="Path_478" data-name="Path 478" d="M3.9,41.56A19.316,19.316,0,0,1,7.286,30.568L7.9,32.421l3.7-1.234L9.655,25.334A1.951,1.951,0,0,0,7.8,24H1.951v3.9H4.386A23.171,23.171,0,0,0,0,41.56,23.439,23.439,0,0,0,23.413,64.973v-3.9A19.533,19.533,0,0,1,3.9,41.56Z" transform="translate(0.001 -18.147)" fill="#0d8240"/>
      </g>
    </g>
  </g>
</svg>
