<svg xmlns="http://www.w3.org/2000/svg" xmlns:xlink="http://www.w3.org/1999/xlink" width="94" height="94" viewBox="0 0 94 94">
  <defs>
    <filter id="Ellipse_115" x="0" y="0" width="94" height="94" filterUnits="userSpaceOnUse">
      <feOffset input="SourceAlpha"/>
      <feGaussianBlur stdDeviation="3" result="blur"/>
      <feFlood flood-opacity="0.161"/>
      <feComposite operator="in" in2="blur"/>
      <feComposite in="SourceGraphic"/>
    </filter>
  </defs>
  <g id="Group_1829" data-name="Group 1829" transform="translate(-125 -730)">
    <g transform="matrix(1, 0, 0, 1, 125, 730)" filter="url(#Ellipse_115)">
      <circle id="Ellipse_115-2" data-name="Ellipse 115" cx="38" cy="38" r="38" transform="translate(9 9)" fill="#aedcff"/>
    </g>
    <g id="Shopping_Bag-Hands-Bag-Purchase-Buy" data-name="Shopping Bag-Hands-Bag-Purchase-Buy" transform="translate(147.479 752)">
      <path id="Path_1596" data-name="Path 1596" d="M37.835,33v1.53a1.535,1.535,0,0,1-1.53,1.53H22.53A1.535,1.535,0,0,1,21,34.53V33Z" transform="translate(-4.573 -7.278)" fill="#d1d3d4"/>
      <path id="Path_1597" data-name="Path 1597" d="M21,13H37.835V28.3H21Z" transform="translate(-4.573 -2.583)" fill="#3d9ae2"/>
      <path id="Path_1598" data-name="Path 1598" d="M40.709,45.791l7.782-2.831a2.386,2.386,0,0,1,3,1.171,2.3,2.3,0,0,1-1.309,3.1L36.194,52.318a9.189,9.189,0,0,1-3.772.536L28.787,52.6a9.183,9.183,0,0,0-3.772.528l-2.487.9-3.4-9.343.337-.268a12.36,12.36,0,0,1,3.42-1.921l1.194-.429a10.686,10.686,0,0,1,5.525-.482l9.228,1.622a2.307,2.307,0,0,1,1.9,2.257A2.27,2.27,0,0,1,40.709,45.791Z" transform="translate(-4.134 -9.257)" fill="#ffc477"/>
      <path id="Path_1599" data-name="Path 1599" d="M41.591,33v1.53a1.535,1.535,0,0,1-1.53,1.53H38.53A1.535,1.535,0,0,1,37,34.53V33Z" transform="translate(-8.33 -7.278)" fill="#c6c5ca"/>
      <path id="Path_1600" data-name="Path 1600" d="M52.774,33v1.53a1.535,1.535,0,0,1-1.53,1.53H40.53A1.535,1.535,0,0,1,39,34.53V33Z" transform="translate(-8.8 -7.278)" fill="#e6e7e8"/>
      <path id="Path_1601" data-name="Path 1601" d="M39,20H52.774v9.948H39Z" transform="translate(-8.8 -4.226)" fill="#ff5023"/>
      <path id="Path_1602" data-name="Path 1602" d="M20.247,56.03l-2.563.934H10.812l-3.382-9.3-.26-.719,8.624-3.137.528,1.439,3.4,9.343Z" transform="translate(-1.326 -9.817)" fill="#3d9ae2"/>
      <path id="Path_1603" data-name="Path 1603" d="M9.568,58.147H4.678L1.87,50.419,6.186,48.85Z" transform="translate(-0.082 -11)" fill="#5aaae7"/>
      <path id="Path_1604" data-name="Path 1604" d="M37,20h1.53v9.948H37Z" transform="translate(-8.33 -4.226)" fill="#1e81ce"/>
      <path id="Path_1605" data-name="Path 1605" d="M37.6,9.652H34.539v-2.3a5.356,5.356,0,1,0-10.713,0v2.3H20.765a.765.765,0,0,0-.765.765V27.252a2.3,2.3,0,0,0,2.3,2.3h9.948v-1.53H22.3a.765.765,0,0,1-.765-.765v-.765H32.243v-1.53H21.53V11.183h2.3v2.3h1.53v-2.3h7.652v2.3h1.53v-2.3h2.3v2.3h1.53V10.417A.765.765,0,0,0,37.6,9.652Zm-4.591,0H25.356v-2.3a3.826,3.826,0,0,1,7.652,0Z" transform="translate(-4.339)"/>
      <path id="Path_1606" data-name="Path 1606" d="M52.539,19H38.765a.765.765,0,0,0-.765.765V31.243a2.3,2.3,0,0,0,2.3,2.3H51.009a2.3,2.3,0,0,0,2.3-2.3V19.765A.765.765,0,0,0,52.539,19Zm-.765,12.243a.765.765,0,0,1-.765.765H40.3a.765.765,0,0,1-.765-.765v-.765H51.774Zm0-2.3H39.53V20.53H51.774Z" transform="translate(-8.565 -3.991)"/>
      <path id="Path_1607" data-name="Path 1607" d="M46.826,28.356a3.831,3.831,0,0,0,3.826-3.826V23h-1.53v1.53a2.3,2.3,0,1,1-4.591,0V23H43v1.53a3.831,3.831,0,0,0,3.826,3.826Z" transform="translate(-9.739 -4.931)"/>
      <path id="Path_1608" data-name="Path 1608" d="M48.054,43.581A3.144,3.144,0,0,0,44.093,42L37.26,44.491a3.061,3.061,0,0,0-2.429-2.264L25.6,40.6a11.492,11.492,0,0,0-5.919.518l-1.189.437a12.945,12.945,0,0,0-3.137,1.667l-.169-.464a.765.765,0,0,0-.98-.459L5.577,45.435a.765.765,0,0,0-.459.98l-3.6,1.309.523,1.438,3.6-1.309,3.121,8.576,1.438-.523L6.821,46.612l7.193-2.617L17.94,54.784l-1.837.67.523,1.437,2.554-.934a.765.765,0,0,0,.459-.981l-.262-.719,1.76-.641a8.374,8.374,0,0,1,3.461-.488l3.63.252a9.827,9.827,0,0,0,4.09-.576l13.988-5.091a3.061,3.061,0,0,0,1.745-4.132Zm-1.406,1.9a1.518,1.518,0,0,1-.862.792L31.8,51.365a8.335,8.335,0,0,1-3.461.487l-3.63-.252a9.916,9.916,0,0,0-4.089.576l-1.765.642L15.9,44.714a11.418,11.418,0,0,1,3.114-1.726l1.188-.432a9.959,9.959,0,0,1,5.131-.449l9.227,1.628a1.53,1.53,0,1,1-.531,3.014l-8.29-1.462-.266,1.507,8.29,1.462a3.047,3.047,0,0,0,3.448-2.12l7.4-2.694a1.63,1.63,0,0,1,2.041.765,1.538,1.538,0,0,1-.007,1.275Z" transform="translate(0 -9.022)"/>
    </g>
  </g>
</svg>
