<svg width="123" height="123" viewBox="0 0 123 123" fill="none" xmlns="http://www.w3.org/2000/svg">
<g filter="url(#filter0_d_66_2)">
<path d="M61.4971 114.001C90.492 114.001 113.997 90.4959 113.997 61.501C113.997 32.506 90.492 9.00098 61.4971 9.00098C32.5021 9.00098 8.99707 32.506 8.99707 61.501C8.99707 90.4959 32.5021 114.001 61.4971 114.001Z" fill="white"/>
</g>
<path d="M106.88 61.2299C106.888 63.91 106.651 66.5852 106.17 69.2219C106.104 69.6594 105.883 70.0584 105.547 70.3462C105.211 70.6341 104.783 70.7916 104.34 70.7899C104.228 70.7899 104.116 70.7529 104.004 70.7529C103.519 70.6632 103.089 70.3848 102.809 69.9788C102.529 69.5728 102.422 69.0722 102.51 68.5869C102.927 66.1566 103.139 63.6957 103.145 61.2299C103.144 60.7273 103.338 60.2438 103.686 59.8815C104.034 59.5192 104.51 59.3064 105.012 59.2879C105.254 59.2772 105.495 59.3157 105.722 59.4011C105.948 59.4865 106.155 59.6169 106.33 59.7846C106.504 59.9522 106.643 60.1536 106.737 60.3764C106.832 60.5992 106.88 60.8389 106.879 61.0809L106.88 61.2299Z" fill="#5184CE"/>
<path d="M101.652 50.1769C100.964 47.8087 100.089 45.4985 99.0372 43.2679C98.9278 43.0492 98.8629 42.8109 98.8463 42.5669C98.8297 42.3229 98.8618 42.078 98.9407 41.8465C99.0195 41.615 99.1436 41.4014 99.3057 41.2183C99.4678 41.0351 99.6647 40.886 99.885 40.7796C100.105 40.6732 100.344 40.6116 100.589 40.5984C100.833 40.5853 101.077 40.6208 101.308 40.7029C101.538 40.785 101.75 40.912 101.931 41.0767C102.112 41.2413 102.258 41.4403 102.361 41.6619C103.561 44.065 104.524 46.5788 105.237 49.1679C105.301 49.4033 105.319 49.6491 105.288 49.8911C105.257 50.1331 105.178 50.3666 105.057 50.5783C104.935 50.7899 104.773 50.9755 104.58 51.1244C104.387 51.2733 104.166 51.3826 103.93 51.4459C103.776 51.5072 103.61 51.5328 103.445 51.5209C103.04 51.5259 102.645 51.3968 102.32 51.1538C101.996 50.9107 101.761 50.5673 101.652 50.1769Z" fill="#5184CE"/>
<path d="M102.473 80.6859C101.28 83.085 99.894 85.3829 98.3282 87.5569C98.1605 87.7981 97.9371 87.9953 97.6771 88.1317C97.417 88.2682 97.1279 88.34 96.8342 88.3409C96.429 88.3491 96.0335 88.2174 95.7142 87.9679C95.3167 87.673 95.051 87.2339 94.9741 86.745C94.8972 86.2561 95.0154 85.7566 95.3032 85.3539C96.7648 83.3723 98.0399 81.2596 99.1122 79.0429C99.2154 78.8228 99.3617 78.6255 99.5423 78.4626C99.7229 78.2998 99.9342 78.1746 100.164 78.0946C100.393 78.0146 100.637 77.9813 100.88 77.9966C101.122 78.012 101.359 78.0756 101.577 78.1839C102.027 78.3968 102.375 78.7794 102.544 79.248C102.712 79.7166 102.688 80.233 102.477 80.6839L102.473 80.6859Z" fill="#5184CE"/>
<path d="M91.9422 61.2299C91.9422 60.5949 91.9052 59.9599 91.8672 59.3629H93.8092V63.0969H91.8672C91.9042 62.4999 91.9422 61.8659 91.9422 61.2299Z" fill="#5184CE"/>
<path d="M91.8671 59.366C91.9041 59.966 91.9421 60.598 91.9421 61.233C91.9421 61.868 91.9051 62.503 91.8671 63.1H80.6641C80.7271 62.4797 80.7521 61.8562 80.7391 61.233C80.7521 60.6097 80.7271 59.9862 80.6641 59.366H91.8671Z" fill="#5184CE"/>
<path d="M92.9132 34.1179C91.2728 32.284 89.487 30.5855 87.5732 29.0389C87.2099 28.7248 86.9822 28.2824 86.9377 27.8042C86.8932 27.326 87.0354 26.8491 87.3345 26.4734C87.6336 26.0977 88.0665 25.8522 88.5425 25.7884C89.0185 25.7245 89.5007 25.8473 89.8882 26.1309C91.9904 27.7968 93.9401 29.6464 95.7142 31.6579C95.8747 31.8413 95.9973 32.0547 96.0748 32.2857C96.1523 32.5167 96.1833 32.7609 96.1659 33.0039C96.1485 33.247 96.0831 33.4842 95.9735 33.7019C95.8639 33.9195 95.7122 34.1133 95.5272 34.2719C95.3641 34.4302 95.1713 34.5546 94.9598 34.6378C94.7483 34.721 94.5225 34.7615 94.2952 34.7569C94.0337 34.7513 93.7761 34.692 93.5384 34.5828C93.3007 34.4735 93.0879 34.3167 92.9132 34.1219V34.1179Z" fill="#5184CE"/>
<path d="M80.8132 99.9559C80.5781 99.5197 80.5247 99.0082 80.6646 98.5328C80.8045 98.0574 81.1263 97.6564 81.5602 97.4169C83.7231 96.2542 85.7732 94.893 87.6842 93.3509C87.8755 93.1964 88.0953 93.0811 88.3311 93.0116C88.567 92.942 88.8142 92.9196 89.0587 92.9456C89.3032 92.9716 89.5402 93.0455 89.7561 93.1631C89.972 93.2807 90.1627 93.4397 90.3172 93.6309C90.4717 93.8222 90.587 94.042 90.6566 94.2779C90.7261 94.5137 90.7485 94.7609 90.7225 95.0054C90.6965 95.2499 90.6226 95.4869 90.505 95.7028C90.3874 95.9188 90.2285 96.1094 90.0372 96.2639C87.9354 97.9453 85.6855 99.4327 83.3152 100.708C83.0531 100.856 82.7571 100.933 82.4562 100.932C82.1205 100.929 81.7917 100.837 81.5031 100.666C81.2145 100.494 80.9764 100.249 80.8132 99.9559Z" fill="#5184CE"/>
<path d="M86.9013 80.9509L84.5113 83.8269C84.0015 83.3828 83.4652 82.97 82.9053 82.5909C83.7964 81.7239 84.6314 80.8011 85.4053 79.8279C85.9367 80.1565 86.4374 80.5324 86.9013 80.9509Z" fill="#5184CE"/>
<path d="M78.8711 75.944C81.2043 76.9583 83.4 78.2633 85.4061 79.828C84.6322 80.8011 83.7972 81.7239 82.9061 82.591C81.3112 81.4168 79.5955 80.4165 77.7881 79.607C78.2156 78.4076 78.5771 77.1858 78.8711 75.947V75.944Z" fill="#5184CE"/>
<path d="M84.5113 38.674L86.9013 41.55C86.4159 41.9606 85.9306 42.334 85.4453 42.67C84.6785 41.6674 83.8292 40.7308 82.9062 39.87C83.4738 39.517 84.0107 39.1169 84.5113 38.674Z" fill="#5184CE"/>
<path d="M82.9041 39.869C83.8271 40.7298 84.6764 41.6664 85.4431 42.669C83.4134 44.2086 81.2067 45.4998 78.8701 46.515C78.5765 45.2883 78.2153 44.0787 77.7881 42.892C79.6034 42.0832 81.3199 41.0689 82.9041 39.869Z" fill="#5184CE"/>
<path d="M80.7391 61.2299C80.7522 61.8532 80.7271 62.4767 80.6641 63.0969H76.9641C77.0011 62.4619 77.0011 61.8649 77.0011 61.2299C77.0011 60.5949 77.0011 59.9599 76.9641 59.3629H80.6641C80.7271 59.9831 80.7522 60.6066 80.7391 61.2299Z" fill="#5184CE"/>
<path d="M76.9671 59.3599C76.8618 55.4787 76.3232 51.6215 75.3611 47.8599C76.5595 47.49 77.7321 47.041 78.8711 46.5159C80.0124 50.7036 80.6149 55.0198 80.6641 59.3599H76.9671Z" fill="#5184CE"/>
<path d="M75.3611 74.601C76.3206 70.8389 76.8592 66.9819 76.9671 63.101H80.6671C80.6169 67.4409 80.0133 71.7567 78.8711 75.944C77.7321 75.4192 76.5595 74.9705 75.3611 74.601Z" fill="#5184CE"/>
<path d="M77.7892 42.8939C78.2167 44.0804 78.5783 45.2896 78.8722 46.5159C77.7332 47.041 76.5606 47.49 75.3622 47.8599C75.0262 46.6279 74.6522 45.4329 74.2422 44.3119C75.4569 43.9233 76.6425 43.4491 77.7902 42.8929L77.7892 42.8939Z" fill="#5184CE"/>
<path d="M78.8722 75.9439C78.5782 77.1828 78.2167 78.4046 77.7892 79.6039C76.6486 79.0319 75.4617 78.5573 74.2412 78.1849C74.6865 77.0136 75.0605 75.8164 75.3612 74.5999C76.56 74.9698 77.7329 75.4188 78.8722 75.9439Z" fill="#5184CE"/>
<path d="M76.9671 59.366C77.0041 59.966 77.0041 60.598 77.0041 61.233C77.0041 61.868 77.0041 62.465 76.9671 63.1H63.9341V59.366H76.9671Z" fill="#5184CE"/>
<path d="M71.0662 21.1599C70.8278 21.1043 70.6029 21.0021 70.4042 20.8592C70.2055 20.7162 70.0371 20.5354 69.9087 20.3271C69.7802 20.1188 69.6942 19.8871 69.6557 19.6454C69.6172 19.4037 69.6268 19.1568 69.6842 18.9189C69.7342 18.6802 69.8311 18.4538 69.9694 18.2529C70.1076 18.052 70.2844 17.8805 70.4894 17.7485C70.6945 17.6165 70.9237 17.5265 71.1639 17.4839C71.404 17.4412 71.6502 17.4466 71.8882 17.4999C74.5091 18.0896 77.0715 18.9146 79.5442 19.9649C80.0018 20.1616 80.3638 20.5302 80.5523 20.9912C80.7408 21.4523 80.7408 21.9689 80.5522 22.4299C80.403 22.7614 80.1618 23.0431 79.8573 23.2416C79.5527 23.4401 79.1977 23.5471 78.8342 23.5499C78.577 23.5584 78.3214 23.5074 78.0872 23.4009C75.8198 22.442 73.4698 21.6919 71.0662 21.1599Z" fill="#5184CE"/>
<path d="M74.2411 44.3129C74.6521 45.4329 75.0251 46.6279 75.3611 47.8609C71.6744 49.1112 67.8246 49.8157 63.9341 49.9519V46.2179C67.4439 46.0858 70.9159 45.4441 74.2411 44.3129Z" fill="#5184CE"/>
<path d="M75.3611 74.5989C75.0604 75.8154 74.6864 77.0126 74.2411 78.1839C70.9177 77.0406 67.4457 76.3864 63.9341 76.2419V72.5079C67.8246 72.6442 71.6744 73.3486 75.3611 74.5989Z" fill="#5184CE"/>
<path d="M63.9341 90.8819C68.1541 89.7619 71.8881 84.9439 74.2411 78.1819C75.4616 78.5543 76.6484 79.029 77.7891 79.6009C76.6243 83.0712 74.8543 86.3078 72.5611 89.1609V89.1979C69.7919 90.2319 66.8845 90.8487 63.9341 91.0279V90.8819Z" fill="#5184CE"/>
<path d="M95.6771 61.2309C95.676 69.9615 92.2759 78.3487 86.1971 84.6154C80.1184 90.8821 71.8386 94.536 63.1121 94.8029C66.6221 94.4669 69.8341 92.4499 72.5601 89.2029V89.1659C76.4353 87.7334 79.9613 85.4928 82.9041 82.5929C83.4639 82.9707 84.0002 83.3821 84.5101 83.8249L86.9001 80.9489C86.4367 80.5315 85.9367 80.1567 85.4061 79.8289C89.2522 75.0627 91.5113 69.213 91.8671 63.0989H93.8091V59.3629H91.8671C91.5073 53.2675 89.2629 47.4344 85.4441 42.6699C85.9294 42.3366 86.4148 41.9632 86.9001 41.5499L84.5101 38.6739C84.0094 39.1183 83.4722 39.5197 82.9041 39.8739C79.9617 36.9726 76.4356 34.7306 72.5601 33.2969V33.2599C69.8341 29.9739 66.5851 27.9939 63.0371 27.6599C71.7734 27.9174 80.0662 31.5659 86.1588 37.8323C92.2515 44.0987 95.6653 52.4909 95.6771 61.2309Z" fill="#5184CE"/>
<path d="M71.2532 101.301C71.4912 101.242 71.7385 101.231 71.9807 101.269C72.223 101.307 72.4552 101.393 72.6639 101.521C72.8725 101.65 73.0534 101.819 73.196 102.019C73.3386 102.218 73.44 102.444 73.4942 102.683C73.6023 103.168 73.5136 103.677 73.2477 104.097C72.9817 104.517 72.5601 104.814 72.0752 104.924C69.4626 105.527 66.8001 105.89 64.1212 106.007H64.0452C63.5609 106.004 63.0965 105.814 62.7499 105.476C62.4032 105.138 62.2014 104.678 62.1869 104.194C62.1724 103.71 62.3463 103.239 62.6721 102.881C62.9978 102.522 63.45 102.305 63.9332 102.273C66.3963 102.157 68.845 101.831 71.2532 101.301Z" fill="#5184CE"/>
<path d="M74.2411 44.312C71.8881 37.512 68.1541 32.699 63.9341 31.612V31.429C66.8845 31.6083 69.7919 32.225 72.5611 33.259V33.296C74.8546 36.1637 76.6244 39.4135 77.7891 42.896C76.6413 43.4511 75.4557 43.9242 74.2411 44.312Z" fill="#5184CE"/>
<path d="M63.9332 91.0309V92.9729H60.1992V91.0309C60.7992 91.0679 61.4312 91.1059 62.0662 91.1059C62.7012 91.1059 63.3362 91.0679 63.9332 91.0309Z" fill="#5184CE"/>
<path d="M63.9332 90.882V91.031C63.3332 91.068 62.7012 91.106 62.0662 91.106C62.6953 91.1074 63.3222 91.0322 63.9332 90.882Z" fill="#5184CE"/>
<path d="M63.9332 76.2429V90.8819C62.7065 91.1806 61.426 91.1806 60.1992 90.8819V76.2429C60.8196 76.1817 61.443 76.1576 62.0662 76.1709C62.6894 76.1576 63.3129 76.1817 63.9332 76.2429Z" fill="#5184CE"/>
<path d="M63.9332 72.509V76.243C63.3129 76.1807 62.6895 76.1557 62.0662 76.168C61.4429 76.1557 60.8195 76.1807 60.1992 76.243V72.509C60.8196 72.4477 61.443 72.4237 62.0662 72.437C62.6894 72.4237 63.3129 72.4477 63.9332 72.509Z" fill="#5184CE"/>
<path d="M60.1992 59.366H63.9332V63.1H60.1992V59.366Z" fill="#5184CE"/>
<path d="M63.9332 49.952V59.363H60.1992V49.952C60.8195 50.0142 61.4429 50.0393 62.0662 50.027C62.6895 50.0393 63.3129 50.0142 63.9332 49.952Z" fill="#5184CE"/>
<path d="M63.9332 46.218V49.952C63.3129 50.0142 62.6895 50.0393 62.0662 50.027C61.4429 50.0393 60.8195 50.0142 60.1992 49.952V46.218C60.8195 46.2802 61.4429 46.3053 62.0662 46.293C62.6895 46.3053 63.3129 46.2802 63.9332 46.218Z" fill="#5184CE"/>
<path d="M63.9332 31.429V31.616C63.5679 31.5056 63.1929 31.4306 62.8132 31.392C63.1862 31.392 63.5602 31.392 63.9332 31.429Z" fill="#5184CE"/>
<path d="M63.9332 31.616V46.216C63.3129 46.2782 62.6895 46.3033 62.0662 46.291C61.443 46.304 60.8195 46.2796 60.1992 46.218V31.616C60.5645 31.5056 60.9396 31.4306 61.3192 31.392C61.567 31.362 61.8167 31.3507 62.0662 31.358C62.3158 31.3517 62.5655 31.364 62.8132 31.395C63.1929 31.4336 63.5679 31.5086 63.9332 31.619V31.616Z" fill="#5184CE"/>
<path d="M60.1992 63.101H63.9332V72.512C63.3129 72.4497 62.6895 72.4247 62.0662 72.437C61.4429 72.4247 60.8195 72.4497 60.1992 72.512V63.101Z" fill="#5184CE"/>
<path d="M60.1992 29.491H63.9332V31.43C63.5602 31.393 63.1862 31.393 62.8132 31.393C62.5655 31.362 62.3158 31.3496 62.0662 31.356C61.8166 31.3496 61.5669 31.362 61.3192 31.393C60.9462 31.393 60.5722 31.393 60.1992 31.43V29.491Z" fill="#5184CE"/>
<path d="M60.1992 31.616V31.429C60.5722 31.392 60.9462 31.392 61.3192 31.392C60.9396 31.4306 60.5645 31.5056 60.1992 31.616Z" fill="#5184CE"/>
<path d="M60.1992 90.882C60.8101 91.0322 61.4371 91.1074 62.0662 91.106C61.4312 91.106 60.7962 91.069 60.1992 91.031V90.882Z" fill="#5184CE"/>
<path d="M72.5612 89.2009C69.8352 92.4499 66.6232 94.4669 63.1132 94.8009C62.7655 94.8319 62.4163 94.8443 62.0672 94.8379C61.7431 94.8443 61.4189 94.8319 61.0962 94.8009C57.5482 94.4649 54.2962 92.4859 51.5732 89.2009C54.3424 90.2349 57.2498 90.8516 60.2002 91.0309V92.9729H63.9342V91.0309C66.8847 90.8516 69.7921 90.2349 72.5612 89.2009Z" fill="#5184CE"/>
<path d="M60.1992 72.5079V76.2419C56.6876 76.3864 53.2156 77.0406 49.8922 78.1839C49.4469 77.0126 49.0729 75.8154 48.7722 74.5989C52.4589 73.3486 56.3087 72.6442 60.1992 72.5079Z" fill="#5184CE"/>
<path d="M60.2001 59.3659V63.0999H47.1662C47.1292 62.4659 47.1292 61.8659 47.1292 61.2299C47.1292 60.5939 47.1292 59.9599 47.1662 59.3629L60.2001 59.3659Z" fill="#5184CE"/>
<path d="M60.1992 46.2179V49.9519C56.3087 49.8157 52.4589 49.1112 48.7722 47.8609C49.1082 46.6289 49.4822 45.4339 49.8922 44.3129C53.2177 45.4424 56.6896 46.0824 60.1992 46.2129V46.2179Z" fill="#5184CE"/>
<path d="M51.5732 33.259C54.2992 29.973 57.5482 27.993 61.0962 27.659C61.4189 27.6284 61.7432 27.6163 62.0672 27.623C62.3914 27.6167 62.7156 27.629 63.0382 27.66C66.5862 27.996 69.8382 29.975 72.5612 33.26C69.7921 32.226 66.8847 31.6093 63.9342 31.43V29.487H60.2002V31.429C57.2498 31.6083 54.3424 32.225 51.5732 33.259Z" fill="#5184CE"/>
<path d="M61.8791 18.2469C61.8988 18.7459 61.722 19.2326 61.3868 19.6027C61.0515 19.9727 60.5845 20.1965 60.0861 20.2259C57.6358 20.3448 55.1999 20.6696 52.8041 21.1969C52.671 21.2399 52.5328 21.2652 52.3931 21.2719C51.9697 21.2667 51.5602 21.1208 51.2289 20.8572C50.8976 20.5936 50.6633 20.2273 50.5631 19.8159C50.4538 19.3299 50.5421 18.8205 50.8083 18.3995C51.0746 17.9785 51.4971 17.6805 51.9831 17.5709C54.5953 16.9659 57.2581 16.6044 59.9371 16.4909C60.4263 16.4702 60.9041 16.6425 61.2674 16.9708C61.6307 17.2991 61.8504 17.7571 61.8791 18.2459V18.2469Z" fill="#5184CE"/>
<path d="M51.5722 33.259C54.3414 32.225 57.2488 31.6083 60.1992 31.429V31.612C55.9792 32.695 52.2452 37.512 49.8922 44.312C48.6776 43.9236 47.492 43.4497 46.3442 42.894C47.5089 39.4115 49.2787 36.1617 51.5722 33.294V33.259Z" fill="#5184CE"/>
<path d="M49.8922 78.1849C52.2452 84.9439 55.9792 89.7619 60.1992 90.8849V91.0339C57.2488 90.8546 54.3414 90.2379 51.5722 89.2039V89.1669C49.279 86.3138 47.509 83.0772 46.3442 79.6069C47.4849 79.035 48.6718 78.5603 49.8922 78.1879V78.1849Z" fill="#5184CE"/>
<path d="M49.8922 44.3129C49.4812 45.4329 49.1082 46.6279 48.7722 47.8609C47.5734 47.4907 46.4005 47.0414 45.2612 46.5159C45.5552 45.2895 45.9167 44.0804 46.3442 42.8939C47.4919 43.4501 48.6776 43.9242 49.8922 44.3129Z" fill="#5184CE"/>
<path d="M48.7712 74.5999C49.0719 75.8164 49.4459 77.0136 49.8912 78.1849C48.6708 78.5573 47.4839 79.0319 46.3432 79.6039C45.9161 78.4046 45.5549 77.1827 45.2612 75.9439C46.4002 75.4188 47.5728 74.9698 48.7712 74.5999Z" fill="#5184CE"/>
<path d="M48.7722 47.86C47.8102 51.6215 47.2715 55.4788 47.1662 59.36H43.4692C43.5185 55.0202 44.121 50.7043 45.2622 46.517C46.4013 47.0417 47.5738 47.4904 48.7722 47.86Z" fill="#5184CE"/>
<path d="M45.2622 75.944C44.121 71.7566 43.5185 67.4408 43.4692 63.101H47.1692C47.2761 66.9818 47.8138 70.8388 48.7722 74.601C47.5738 74.9709 46.4012 75.4189 45.2622 75.944Z" fill="#5184CE"/>
<path d="M43.3943 61.23C43.3813 60.6077 43.4064 59.9852 43.4693 59.366H47.1693C47.1323 59.966 47.1323 60.598 47.1323 61.233C47.1323 61.868 47.1323 62.465 47.1693 63.1H43.4693C43.4061 62.4787 43.3811 61.8542 43.3943 61.23Z" fill="#5184CE"/>
<path d="M46.3492 42.8919C45.9217 44.0784 45.5601 45.2876 45.2662 46.5139C42.9283 45.4997 40.7203 44.2092 38.6892 42.6699C39.4559 41.6674 40.3052 40.7308 41.2282 39.8699C42.814 41.0698 44.5322 42.0838 46.3492 42.8919Z" fill="#5184CE"/>
<path d="M45.2613 75.944C45.5552 77.1828 45.9168 78.4046 46.3443 79.604C44.5374 80.4149 42.8223 81.4166 41.2283 82.592C40.3372 81.7249 39.5021 80.8021 38.7283 79.829C40.7337 78.2641 42.9287 76.9588 45.2613 75.944Z" fill="#5184CE"/>
<path d="M54.3762 103.541C54.2811 103.955 54.0483 104.324 53.7159 104.589C53.3834 104.853 52.971 104.997 52.5462 104.997C52.4082 105.002 52.2702 104.989 52.1352 104.96C49.5297 104.359 46.9809 103.534 44.5172 102.495C44.0609 102.297 43.6999 101.929 43.511 101.468C43.3222 101.008 43.3205 100.492 43.5062 100.031C43.7055 99.5763 44.0766 99.219 44.5385 99.0371C45.0003 98.8551 45.5154 98.8633 45.9712 99.0599C48.2275 100.013 50.5645 100.763 52.9542 101.301C53.4394 101.41 53.8616 101.707 54.1281 102.127C54.3947 102.547 54.4839 103.055 54.3762 103.541Z" fill="#5184CE"/>
<path d="M43.3912 61.2299C43.3781 61.8532 43.4031 62.4767 43.4662 63.0969H32.2662C32.2282 62.4999 32.1912 61.8659 32.1912 61.2299C32.1912 60.5939 32.2282 59.9599 32.2662 59.3629H43.4662C43.4031 59.9831 43.3781 60.6066 43.3912 61.2299Z" fill="#5184CE"/>
<path d="M41.2282 39.869C40.3052 40.7298 39.4559 41.6664 38.6892 42.669C38.2038 42.3356 37.7185 41.9623 37.2332 41.549L39.6222 38.674C40.123 39.1166 40.6603 39.5163 41.2282 39.869Z" fill="#5184CE"/>
<path d="M41.2282 82.5909C40.6684 82.969 40.132 83.3808 39.6222 83.8239L37.2322 80.9509C37.6956 80.5335 38.1956 80.1587 38.7262 79.8309C39.5 80.804 40.3351 81.7269 41.2262 82.5939L41.2282 82.5909Z" fill="#5184CE"/>
<path d="M43.2412 22.5789C43.3614 22.7942 43.4376 23.0313 43.4653 23.2763C43.493 23.5213 43.4717 23.7694 43.4025 24.0061C43.3334 24.2428 43.2178 24.4634 43.0625 24.6549C42.9073 24.8465 42.7154 25.0052 42.4982 25.1219C40.3406 26.2938 38.2912 27.6548 36.3742 29.1889C36.0444 29.4504 35.637 29.595 35.2162 29.5999C34.9347 29.6048 34.656 29.543 34.403 29.4196C34.15 29.2962 33.9297 29.1147 33.7602 28.8899C33.607 28.6991 33.4932 28.4798 33.4254 28.2447C33.3575 28.0096 33.337 27.7634 33.3649 27.5203C33.3928 27.2772 33.4686 27.0421 33.5879 26.8285C33.7073 26.6149 33.8678 26.4271 34.0602 26.2759C36.1417 24.5868 38.3788 23.0988 40.7412 21.8319C41.1724 21.6027 41.6766 21.5525 42.1445 21.6924C42.6124 21.8322 43.0064 22.1507 43.2412 22.5789Z" fill="#5184CE"/>
<path d="M30.3242 63.097V59.366H32.2662C32.2292 59.966 32.1912 60.598 32.1912 61.233C32.1912 61.868 32.2282 62.503 32.2662 63.1L30.3242 63.097Z" fill="#5184CE"/>
<path d="M34.1712 96.3339C32.0757 94.6452 30.1252 92.7841 28.3402 90.7699C28.1793 90.5867 28.0564 90.3734 27.9787 90.1423C27.9009 89.9113 27.8699 89.667 27.8873 89.4238C27.9047 89.1807 27.9702 88.9434 28.08 88.7257C28.1899 88.508 28.3419 88.3144 28.5272 88.1559C28.7058 87.9884 28.9166 87.859 29.1468 87.7754C29.3769 87.6919 29.6217 87.656 29.8661 87.6699C30.1106 87.6839 30.3497 87.7473 30.5689 87.8565C30.7881 87.9657 30.9828 88.1182 31.1412 88.3049C32.7719 90.1483 34.5585 91.8476 36.4812 93.3839C36.6736 93.5351 36.8341 93.7229 36.9535 93.9365C37.0728 94.1501 37.1486 94.3853 37.1765 94.6284C37.2044 94.8714 37.1838 95.1176 37.116 95.3527C37.0481 95.5878 36.9343 95.8071 36.7812 95.9979C36.6145 96.2257 36.3947 96.4093 36.141 96.5331C35.8873 96.6568 35.6073 96.7168 35.3252 96.7079C34.9084 96.7165 34.5007 96.5851 34.1672 96.3349L34.1712 96.3339Z" fill="#5184CE"/>
<path d="M39.6222 83.824C40.1321 83.3812 40.6685 82.9697 41.2282 82.592C44.171 85.4918 47.6971 87.7324 51.5722 89.165V89.202C54.2982 92.488 57.5472 94.468 61.0952 94.802C52.3561 94.5541 44.058 90.9083 37.9642 84.6393C31.8705 78.3703 28.4614 69.9722 28.4614 61.2295C28.4614 52.4868 31.8705 44.0887 37.9642 37.8197C44.058 31.5506 52.3561 27.9048 61.0952 27.657C57.5472 27.993 54.2952 29.972 51.5722 33.257V33.294C47.6971 34.7265 44.171 36.9671 41.2282 39.867C40.6602 39.5128 40.123 39.1114 39.6222 38.667L37.2322 41.551C37.7176 41.9616 38.2029 42.335 38.6882 42.671C34.8696 47.4352 32.6252 53.2679 32.2652 59.363H30.3232V63.097H32.2652C32.6211 69.2111 34.8802 75.0608 38.7262 79.827C38.1957 80.1547 37.6956 80.5296 37.2322 80.947L39.6222 83.824Z" fill="#5184CE"/>
<path d="M28.7552 37.181C27.325 39.1695 26.0747 41.2815 25.0192 43.492C24.8614 43.814 24.6172 44.0859 24.3138 44.2771C24.0104 44.4684 23.6599 44.5715 23.3012 44.575C23.0299 44.5663 22.7632 44.5027 22.5172 44.388C22.067 44.1751 21.7194 43.7925 21.5507 43.3239C21.382 42.8553 21.4059 42.3389 21.6172 41.888C22.803 39.4712 24.1913 37.1593 25.7672 34.977C26.0551 34.5816 26.4879 34.3163 26.9709 34.2393C27.4538 34.1622 27.9477 34.2797 28.3442 34.566C28.5475 34.7069 28.7201 34.8876 28.8516 35.0971C28.983 35.3066 29.0706 35.5407 29.109 35.785C29.1474 36.0294 29.1359 36.279 29.0751 36.5187C29.0143 36.7585 28.9055 36.9844 28.7552 37.181Z" fill="#5184CE"/>
<path d="M21.7001 80.7609C20.5414 78.3488 19.6043 75.8365 18.9001 73.2549C18.7626 72.7795 18.819 72.269 19.057 71.8352C19.2951 71.4013 19.6953 71.0794 20.1701 70.9399C20.6503 70.8099 21.1624 70.8741 21.5956 71.1187C22.0289 71.3633 22.3484 71.7686 22.4851 72.2469C23.1378 74.6094 24.0002 76.9089 25.0621 79.1179C25.1701 79.3384 25.2336 79.5781 25.2489 79.8231C25.2642 80.0682 25.231 80.3139 25.1512 80.5461C25.0714 80.7783 24.9466 80.9925 24.7839 81.1765C24.6212 81.3604 24.4238 81.5104 24.2031 81.6179C23.9513 81.7542 23.667 81.8189 23.3811 81.8049C23.0316 81.8039 22.6893 81.7058 22.3925 81.5214C22.0956 81.337 21.8559 81.0737 21.7001 80.7609Z" fill="#5184CE"/>
<path d="M17.2532 61.0069C17.2554 58.4386 17.4931 55.8759 17.9632 53.3509C18.0007 53.1062 18.0872 52.8716 18.2174 52.6611C18.3476 52.4505 18.5189 52.2684 18.7211 52.1255C18.9232 51.9826 19.1521 51.8819 19.394 51.8294C19.636 51.7769 19.886 51.7737 20.1292 51.8199C20.6142 51.9096 21.0439 52.188 21.3239 52.5941C21.604 53.0001 21.7116 53.5007 21.6232 53.9859C21.2064 56.3785 20.994 58.8023 20.9882 61.2309C20.987 61.7288 20.7909 62.2064 20.442 62.5615C20.093 62.9166 19.6189 63.121 19.1212 63.1309C18.8805 63.1387 18.6407 63.0983 18.4158 63.0122C18.1909 62.9261 17.9855 62.7959 17.8115 62.6294C17.6375 62.4629 17.4985 62.2633 17.4027 62.0424C17.3068 61.8215 17.256 61.5837 17.2532 61.3429V61.0069Z" fill="#5184CE"/>
<path d="M82.0002 53.9999H44.0002C39.0297 53.9999 35.0002 58.0294 35.0002 62.9999C35.0002 67.9705 39.0297 71.9999 44.0002 71.9999H82.0002C86.9708 71.9999 91.0002 67.9705 91.0002 62.9999C91.0002 58.0294 86.9708 53.9999 82.0002 53.9999Z" fill="white"/>
<path d="M82.0002 54.9999H44.0002C39.582 54.9999 36.0002 58.5817 36.0002 62.9999C36.0002 67.4182 39.582 70.9999 44.0002 70.9999H82.0002C86.4185 70.9999 90.0002 67.4182 90.0002 62.9999C90.0002 58.5817 86.4185 54.9999 82.0002 54.9999Z" stroke="#5184CE" stroke-width="2"/>
<path d="M46.21 67.07C46.0033 67.07 45.83 67 45.69 66.86C45.55 66.72 45.48 66.5467 45.48 66.34C45.48 66.1333 45.55 65.96 45.69 65.82C45.83 65.68 46.0033 65.61 46.21 65.61C46.41 65.61 46.58 65.68 46.72 65.82C46.86 65.96 46.93 66.1333 46.93 66.34C46.93 66.5467 46.86 66.72 46.72 66.86C46.58 67 46.41 67.07 46.21 67.07ZM52.3521 65.58H49.4421L48.9421 67H47.7521L50.2421 60.04H51.5621L54.0521 67H52.8521L52.3521 65.58ZM52.0321 64.65L50.9021 61.42L49.7621 64.65H52.0321ZM56.2748 60.97V63.01H58.6748V63.94H56.2748V66.07H58.9748V67H55.1348V60.04H58.9748V60.97H56.2748ZM64.0789 57.56L61.3589 68.75H60.2389L62.9489 57.56H64.0789ZM65.9756 67.07C65.769 67.07 65.5956 67 65.4556 66.86C65.3156 66.72 65.2456 66.5467 65.2456 66.34C65.2456 66.1333 65.3156 65.96 65.4556 65.82C65.5956 65.68 65.769 65.61 65.9756 65.61C66.1756 65.61 66.3456 65.68 66.4856 65.82C66.6256 65.96 66.6956 66.1333 66.6956 66.34C66.6956 66.5467 66.6256 66.72 66.4856 66.86C66.3456 67 66.1756 67.07 65.9756 67.07ZM70.2177 67.07C69.7511 67.07 69.3311 66.99 68.9577 66.83C68.5844 66.6633 68.2911 66.43 68.0777 66.13C67.8644 65.83 67.7577 65.48 67.7577 65.08H68.9777C69.0044 65.38 69.1211 65.6267 69.3277 65.82C69.5411 66.0133 69.8377 66.11 70.2177 66.11C70.6111 66.11 70.9177 66.0167 71.1377 65.83C71.3577 65.6367 71.4677 65.39 71.4677 65.09C71.4677 64.8567 71.3977 64.6667 71.2577 64.52C71.1244 64.3733 70.9544 64.26 70.7477 64.18C70.5477 64.1 70.2677 64.0133 69.9077 63.92C69.4544 63.8 69.0844 63.68 68.7977 63.56C68.5177 63.4333 68.2777 63.24 68.0777 62.98C67.8777 62.72 67.7777 62.3733 67.7777 61.94C67.7777 61.54 67.8777 61.19 68.0777 60.89C68.2777 60.59 68.5577 60.36 68.9177 60.2C69.2777 60.04 69.6944 59.96 70.1677 59.96C70.8411 59.96 71.3911 60.13 71.8177 60.47C72.2511 60.8033 72.4911 61.2633 72.5377 61.85H71.2777C71.2577 61.5967 71.1377 61.38 70.9177 61.2C70.6977 61.02 70.4077 60.93 70.0477 60.93C69.7211 60.93 69.4544 61.0133 69.2477 61.18C69.0411 61.3467 68.9377 61.5867 68.9377 61.9C68.9377 62.1133 69.0011 62.29 69.1277 62.43C69.2611 62.5633 69.4277 62.67 69.6277 62.75C69.8277 62.83 70.1011 62.9167 70.4477 63.01C70.9077 63.1367 71.2811 63.2633 71.5677 63.39C71.8611 63.5167 72.1077 63.7133 72.3077 63.98C72.5144 64.24 72.6177 64.59 72.6177 65.03C72.6177 65.3833 72.5211 65.7167 72.3277 66.03C72.1411 66.3433 71.8644 66.5967 71.4977 66.79C71.1377 66.9767 70.7111 67.07 70.2177 67.07ZM78.1529 65.58H75.2429L74.7429 67H73.5529L76.0429 60.04H77.3629L79.8529 67H78.6529L78.1529 65.58ZM77.8329 64.65L76.7029 61.42L75.5629 64.65H77.8329Z" fill="#5184CE"/>
<defs>
<filter id="filter0_d_66_2" x="2.99707" y="3.00098" width="117" height="117" filterUnits="userSpaceOnUse" color-interpolation-filters="sRGB">
<feFlood flood-opacity="0" result="BackgroundImageFix"/>
<feColorMatrix in="SourceAlpha" type="matrix" values="0 0 0 0 0 0 0 0 0 0 0 0 0 0 0 0 0 0 127 0" result="hardAlpha"/>
<feOffset/>
<feGaussianBlur stdDeviation="3"/>
<feColorMatrix type="matrix" values="0 0 0 0 0 0 0 0 0 0 0 0 0 0 0 0 0 0 0.361 0"/>
<feBlend mode="normal" in2="BackgroundImageFix" result="effect1_dropShadow_66_2"/>
<feBlend mode="normal" in="SourceGraphic" in2="effect1_dropShadow_66_2" result="shape"/>
</filter>
</defs>
</svg>
