<svg width="123" height="123" viewBox="0 0 123 123" fill="none" xmlns="http://www.w3.org/2000/svg">
<g filter="url(#filter0_d_66_2)">
<path d="M61.5 114C90.4949 114 114 90.4949 114 61.5C114 32.5051 90.4949 9 61.5 9C32.5051 9 9 32.5051 9 61.5C9 90.4949 32.5051 114 61.5 114Z" fill="white"/>
</g>
<path d="M61.0001 92.7188C60.6089 92.7202 60.2207 92.6513 59.8538 92.5153C53.497 90.1703 48.1857 85.6827 44.071 79.1771C43.9161 78.9318 43.865 78.635 43.9289 78.3521C43.9928 78.0691 44.1665 77.8231 44.4117 77.6682C44.657 77.5133 44.9538 77.4622 45.2367 77.5261C45.5197 77.59 45.7657 77.7637 45.9206 78.0089C49.7717 84.0978 54.7143 88.2902 60.6129 90.4646C60.8644 90.5543 61.1391 90.5543 61.3906 90.4646C82.9374 82.5141 85.2945 50.6619 85.5023 41.0894C85.5106 40.7966 85.4052 40.512 85.2082 40.2953C85.0112 40.0785 84.738 39.9464 84.4457 39.9268C74.2268 39.2377 65.0787 33.9111 61.6203 31.6569C61.4352 31.5377 61.2197 31.4743 60.9996 31.4743C60.7794 31.4743 60.5639 31.5377 60.3788 31.6569C56.9215 33.91 47.7756 39.2344 37.5545 39.9246C37.2667 39.943 36.9969 40.0712 36.8007 40.2826C36.6046 40.494 36.497 40.7726 36.5001 41.061C36.6226 46.7255 37.537 61.1553 43.3514 73.3266C43.4764 73.5884 43.4923 73.8891 43.3956 74.1627C43.2989 74.4362 43.0974 74.6601 42.8356 74.7851C42.5738 74.9101 42.2731 74.926 41.9996 74.8293C41.7261 74.7326 41.5022 74.5312 41.3771 74.2694C35.3779 61.7143 34.4362 46.9147 34.3126 41.1343C34.3004 40.281 34.614 39.4552 35.1896 38.8252C35.7651 38.1952 36.5592 37.8084 37.4101 37.7436C47.1171 37.0874 55.8737 31.9872 59.1878 29.8238C59.7297 29.4778 60.3593 29.2939 61.0023 29.2939C61.6453 29.2939 62.2749 29.4778 62.8168 29.8238C66.1298 31.985 74.8907 37.0874 84.5923 37.7414C85.4319 37.8016 86.2176 38.1772 86.7917 38.7927C87.3658 39.4082 87.6859 40.2182 87.6876 41.0599C87.4689 51.0568 84.9893 84.0858 62.1431 92.5153C61.7771 92.6503 61.3901 92.7192 61.0001 92.7188Z" fill="#5184CE"/>
<path d="M61.0001 85.7822L60.5407 85.5634C45.1593 78.4234 41.8813 54.8466 41.1813 45.04L41.1113 44.0556L42.0837 43.8839C48.5657 42.635 54.7814 40.269 60.4532 36.8916L61.0001 36.5689L61.5524 36.8916C67.2208 40.2712 73.4336 42.6398 79.9132 43.8916L80.8855 44.0633L80.8145 45.0477C80.1188 54.8553 76.8398 78.4344 61.4605 85.5711L61.0001 85.7822ZM43.441 45.8603C44.2427 55.6723 47.5338 76.6778 61.0001 83.3628C74.4674 76.6811 77.7574 55.6734 78.5591 45.8636C72.3843 44.5549 66.4572 42.2718 61.0001 39.0998C55.5428 42.2714 49.6157 44.5545 43.441 45.8636V45.8603Z" fill="#5184CE"/>
<path d="M64.2812 70.8438V73.0312H57.7188V70.8438H64.2812ZM65.375 68.6562H56.625C56.3349 68.6562 56.0567 68.7715 55.8516 68.9766C55.6465 69.1817 55.5312 69.4599 55.5312 69.75V74.125C55.5312 74.4151 55.6465 74.6933 55.8516 74.8984C56.0567 75.1035 56.3349 75.2188 56.625 75.2188H65.375C65.6651 75.2188 65.9433 75.1035 66.1484 74.8984C66.3535 74.6933 66.4688 74.4151 66.4688 74.125V69.75C66.4688 69.4599 66.3535 69.1817 66.1484 68.9766C65.9433 68.7715 65.6651 68.6562 65.375 68.6562Z" fill="#5184CE"/>
<path d="M53.3438 59.9062H50.0625C49.7724 59.9062 49.4942 59.791 49.2891 59.5859C49.084 59.3808 48.9688 59.1026 48.9688 58.8125C48.9688 58.5224 49.084 58.2442 49.2891 58.0391C49.4942 57.834 49.7724 57.7188 50.0625 57.7188H53.3438C53.6338 57.7188 53.912 57.6035 54.1171 57.3984C54.3223 57.1933 54.4375 56.9151 54.4375 56.625C54.4375 56.3349 54.3223 56.0567 54.1171 55.8516C53.912 55.6465 53.6338 55.5312 53.3438 55.5312H52.25C51.3798 55.5312 50.5452 55.1855 49.9298 54.5702C49.3145 53.9548 48.9688 53.1202 48.9688 52.25C48.9688 51.3798 49.3145 50.5452 49.9298 49.9298C50.5452 49.3145 51.3798 48.9688 52.25 48.9688H55.5312C55.8213 48.9688 56.0995 49.084 56.3046 49.2891C56.5098 49.4942 56.625 49.7724 56.625 50.0625C56.625 50.3526 56.5098 50.6308 56.3046 50.8359C56.0995 51.041 55.8213 51.1562 55.5312 51.1562H52.25C51.9599 51.1562 51.6817 51.2715 51.4766 51.4766C51.2715 51.6817 51.1562 51.9599 51.1562 52.25C51.1562 52.5401 51.2715 52.8183 51.4766 53.0234C51.6817 53.2285 51.9599 53.3438 52.25 53.3438H53.3438C54.214 53.3438 55.0486 53.6895 55.6639 54.3048C56.2793 54.9202 56.625 55.7548 56.625 56.625C56.625 57.4952 56.2793 58.3298 55.6639 58.9452C55.0486 59.5605 54.214 59.9062 53.3438 59.9062Z" fill="#5184CE"/>
<path d="M62.0938 59.9062H58.8125C58.5224 59.9062 58.2442 59.791 58.0391 59.5859C57.834 59.3808 57.7188 59.1026 57.7188 58.8125C57.7188 58.5224 57.834 58.2442 58.0391 58.0391C58.2442 57.834 58.5224 57.7188 58.8125 57.7188H62.0938C62.3838 57.7188 62.662 57.6035 62.8671 57.3984C63.0723 57.1933 63.1875 56.9151 63.1875 56.625C63.1875 56.3349 63.0723 56.0567 62.8671 55.8516C62.662 55.6465 62.3838 55.5312 62.0938 55.5312H61C60.1298 55.5312 59.2952 55.1855 58.6798 54.5702C58.0645 53.9548 57.7188 53.1202 57.7188 52.25C57.7188 51.3798 58.0645 50.5452 58.6798 49.9298C59.2952 49.3145 60.1298 48.9688 61 48.9688H64.2812C64.5713 48.9688 64.8495 49.084 65.0546 49.2891C65.2598 49.4942 65.375 49.7724 65.375 50.0625C65.375 50.3526 65.2598 50.6308 65.0546 50.8359C64.8495 51.041 64.5713 51.1562 64.2812 51.1562H61C60.7099 51.1562 60.4317 51.2715 60.2266 51.4766C60.0215 51.6817 59.9062 51.9599 59.9062 52.25C59.9062 52.5401 60.0215 52.8183 60.2266 53.0234C60.4317 53.2285 60.7099 53.3438 61 53.3438H62.0938C62.964 53.3438 63.7986 53.6895 64.4139 54.3048C65.0293 54.9202 65.375 55.7548 65.375 56.625C65.375 57.4952 65.0293 58.3298 64.4139 58.9452C63.7986 59.5605 62.964 59.9062 62.0938 59.9062Z" fill="#5184CE"/>
<path d="M71.9375 59.9062H69.2031C68.4779 59.9062 67.7824 59.6182 67.2696 59.1054C66.7568 58.5926 66.4688 57.8971 66.4688 57.1719V50.0625C66.4688 49.7724 66.584 49.4942 66.7891 49.2891C66.9942 49.084 67.2724 48.9688 67.5625 48.9688C67.8526 48.9688 68.1308 49.084 68.3359 49.2891C68.541 49.4942 68.6562 49.7724 68.6562 50.0625V57.1719C68.6562 57.3169 68.7139 57.456 68.8164 57.5586C68.919 57.6611 69.0581 57.7188 69.2031 57.7188H71.9375C72.2276 57.7188 72.5058 57.834 72.7109 58.0391C72.916 58.2442 73.0312 58.5224 73.0312 58.8125C73.0312 59.1026 72.916 59.3808 72.7109 59.5859C72.5058 59.791 72.2276 59.9062 71.9375 59.9062Z" fill="#5184CE"/>
<path d="M58.8563 68.6562C58.8988 68.0976 59.1372 67.5718 59.5294 67.1716C59.9215 66.7714 60.4424 66.5225 61.0001 66.4688C61.5578 66.5225 62.0787 66.7714 62.4708 67.1716C62.863 67.5718 63.1014 68.0976 63.1438 68.6562H65.3259C65.2736 67.5211 64.8025 66.4457 64.0036 65.6376C63.2046 64.8296 62.1346 64.3463 61.0001 64.2812C59.8656 64.3463 58.7956 64.8296 57.9966 65.6376C57.1977 66.4457 56.7266 67.5211 56.6743 68.6562H58.8563Z" fill="#5184CE"/>
<defs>
<filter id="filter0_d_66_2" x="3" y="3" width="117" height="117" filterUnits="userSpaceOnUse" color-interpolation-filters="sRGB">
<feFlood flood-opacity="0" result="BackgroundImageFix"/>
<feColorMatrix in="SourceAlpha" type="matrix" values="0 0 0 0 0 0 0 0 0 0 0 0 0 0 0 0 0 0 127 0" result="hardAlpha"/>
<feOffset/>
<feGaussianBlur stdDeviation="3"/>
<feColorMatrix type="matrix" values="0 0 0 0 0 0 0 0 0 0 0 0 0 0 0 0 0 0 0.361 0"/>
<feBlend mode="normal" in2="BackgroundImageFix" result="effect1_dropShadow_66_2"/>
<feBlend mode="normal" in="SourceGraphic" in2="effect1_dropShadow_66_2" result="shape"/>
</filter>
</defs>
</svg>
