<svg width="123" height="123" viewBox="0 0 123 123" fill="none" xmlns="http://www.w3.org/2000/svg">
<g filter="url(#filter0_d_66_2)">
<path d="M61.5 114C90.4949 114 114 90.4949 114 61.5C114 32.5051 90.4949 9 61.5 9C32.5051 9 9 32.5051 9 61.5C9 90.4949 32.5051 114 61.5 114Z" fill="white"/>
</g>
<g clip-path="url(#clip0_66_2)">
<path d="M82.25 79.4988H62.25C61.56 79.4988 61 80.0588 61 80.7488C61 81.4388 61.56 81.9989 62.25 81.9989H82.2501C82.9401 81.9989 83.5001 81.4388 83.5001 80.7488C83.5001 80.0588 82.94 79.4988 82.25 79.4988Z" fill="#5184CE"/>
<path d="M82.25 84.4987H62.25C61.56 84.4987 61 85.0587 61 85.7487C61 86.4387 61.56 86.9987 62.25 86.9987H82.2501C82.9401 86.9987 83.5001 86.4387 83.5001 85.7487C83.5 85.0587 82.94 84.4987 82.25 84.4987Z" fill="#5184CE"/>
<path d="M39.75 79.4988C37.6825 79.4988 36 81.1812 36 83.2488C36 85.3163 37.6825 86.9988 39.75 86.9988C41.8175 86.9988 43.5 85.3163 43.5 83.2488C43.5 81.1812 41.8174 79.4988 39.75 79.4988ZM39.75 84.4987C39.06 84.4987 38.5 83.9387 38.5 83.2487C38.5 82.5587 39.06 81.9986 39.75 81.9986C40.44 81.9986 41 82.5587 41 83.2487C40.9999 83.9388 40.44 84.4987 39.75 84.4987Z" fill="#5184CE"/>
<path d="M39.75 64.4988C37.6825 64.4988 36 66.1812 36 68.2488C36 70.3163 37.6825 71.9988 39.75 71.9988C41.8175 71.9988 43.5 70.3163 43.5 68.2488C43.5 66.1812 41.8174 64.4988 39.75 64.4988ZM39.75 69.4987C39.06 69.4987 38.5 68.9387 38.5 68.2487C38.5 67.5587 39.06 66.9986 39.75 66.9986C40.44 66.9986 41 67.5587 41 68.2487C41 68.9387 40.44 69.4987 39.75 69.4987Z" fill="#5184CE"/>
<path d="M82.25 54.4987H62.25C61.56 54.4987 61 55.0587 61 55.7487C61 56.4387 61.56 56.9987 62.25 56.9987H82.2501C82.9401 56.9987 83.5001 56.4387 83.5001 55.7487C83.5001 55.0587 82.94 54.4987 82.25 54.4987Z" fill="#5184CE"/>
<path d="M91 55.7475V50.7474C91 49.5474 90.6425 48.435 90.0525 47.4799C90.0351 47.4448 90.0325 47.4049 90.0126 47.3724L82.2825 34.9475C81.135 33.1025 79.15 32 76.975 32H45.0325C42.855 32 40.8725 33.1025 39.725 34.9475L31.995 47.3724C31.9825 47.3925 31.9825 47.415 31.9701 47.4375C31.365 48.3999 31 49.53 31 50.7474V55.7475C31 57.7974 32.0075 59.6075 33.54 60.7475C32.0075 61.89 31 63.6975 31 65.7474V70.7475C31 72.7974 32.0075 74.6075 33.54 75.7475C32.0075 76.89 31 78.6975 31 80.7474V85.7475C31 89.1924 33.805 91.9974 37.25 91.9974H84.7499C88.1949 91.9974 90.9999 89.1924 90.9999 85.7475V80.7474C90.9999 78.6975 89.9924 76.8874 88.4598 75.7474C89.9925 74.6075 91 72.7974 91 70.7475V65.7474C91 63.6975 89.9925 61.8874 88.46 60.7474C89.9925 59.6075 91 57.8 91 55.7475ZM41.8475 36.2675C42.535 35.16 43.7249 34.4975 45.0299 34.4975H76.9724C78.2774 34.4975 79.4675 35.16 80.1549 36.2675L85.3124 44.555C85.1249 44.5375 84.9425 44.4975 84.7499 44.4975H37.25C37.0574 44.4975 36.8774 44.5374 36.6899 44.555L41.8475 36.2675ZM88.5 80.7474V85.7475C88.5 87.815 86.8176 89.4975 84.75 89.4975H37.25C35.1824 89.4975 33.5 87.815 33.5 85.7475V80.7474C33.5 78.6799 35.1824 76.9974 37.25 76.9974H84.7499C86.8175 76.9974 88.5 78.68 88.5 80.7474ZM88.5 65.7474V70.7475C88.5 72.815 86.8176 74.4975 84.75 74.4975H37.25C35.1824 74.4975 33.5 72.815 33.5 70.7475V65.7474C33.5 63.6799 35.1824 61.9974 37.25 61.9974H84.7499C86.8175 61.9974 88.5 63.68 88.5 65.7474ZM88.5 55.7475C88.5 57.815 86.8176 59.4975 84.75 59.4975H37.25C35.1824 59.4975 33.5 57.815 33.5 55.7475V50.7474C33.5 48.6799 35.1824 46.9974 37.25 46.9974H84.7499C86.8175 46.9974 88.4999 48.6799 88.4999 50.7474V55.7475H88.5Z" fill="#5184CE"/>
<path d="M82.25 49.4988H62.25C61.56 49.4988 61 50.0588 61 50.7488C61 51.4388 61.56 51.9989 62.25 51.9989H82.2501C82.9401 51.9989 83.5001 51.4388 83.5001 50.7488C83.5001 50.0588 82.94 49.4988 82.25 49.4988Z" fill="#5184CE"/>
<path d="M82.25 69.4987H62.25C61.56 69.4987 61 70.0587 61 70.7487C61 71.4387 61.56 71.9987 62.25 71.9987H82.2501C82.9401 71.9987 83.5001 71.4387 83.5001 70.7487C83.5001 70.0587 82.94 69.4987 82.25 69.4987Z" fill="#5184CE"/>
<path d="M82.25 64.4988H62.25C61.56 64.4988 61 65.0588 61 65.7488C61 66.4388 61.56 66.9989 62.25 66.9989H82.2501C82.9401 66.9989 83.5001 66.4388 83.5001 65.7488C83.5001 65.0588 82.94 64.4988 82.25 64.4988Z" fill="#5184CE"/>
<path d="M39.75 49.4988C37.6825 49.4988 36 51.1812 36 53.2488C36 55.3163 37.6825 56.9988 39.75 56.9988C41.8175 56.9988 43.5 55.3163 43.5 53.2488C43.5 51.1812 41.8174 49.4988 39.75 49.4988ZM39.75 54.4987C39.06 54.4987 38.5 53.9387 38.5 53.2487C38.5 52.5587 39.06 51.9986 39.75 51.9986C40.44 51.9986 41 52.5587 41 53.2487C41 53.9387 40.44 54.4987 39.75 54.4987Z" fill="#5184CE"/>
</g>
<defs>
<filter id="filter0_d_66_2" x="3" y="3" width="117" height="117" filterUnits="userSpaceOnUse" color-interpolation-filters="sRGB">
<feFlood flood-opacity="0" result="BackgroundImageFix"/>
<feColorMatrix in="SourceAlpha" type="matrix" values="0 0 0 0 0 0 0 0 0 0 0 0 0 0 0 0 0 0 127 0" result="hardAlpha"/>
<feOffset/>
<feGaussianBlur stdDeviation="3"/>
<feColorMatrix type="matrix" values="0 0 0 0 0 0 0 0 0 0 0 0 0 0 0 0 0 0 0.361 0"/>
<feBlend mode="normal" in2="BackgroundImageFix" result="effect1_dropShadow_66_2"/>
<feBlend mode="normal" in="SourceGraphic" in2="effect1_dropShadow_66_2" result="shape"/>
</filter>
<clipPath id="clip0_66_2">
<rect width="60" height="60" fill="white" transform="translate(31 32)"/>
</clipPath>
</defs>
</svg>
