<svg width="123" height="123" viewBox="0 0 123 123" fill="none" xmlns="http://www.w3.org/2000/svg">
<g filter="url(#filter0_d_66_2)">
<path d="M61.4971 114.001C90.492 114.001 113.997 90.4959 113.997 61.501C113.997 32.506 90.492 9.00098 61.4971 9.00098C32.5021 9.00098 8.99707 32.506 8.99707 61.501C8.99707 90.4959 32.5021 114.001 61.4971 114.001Z" fill="white"/>
</g>
<g clip-path="url(#clip0_66_2)">
<path d="M87 32H35C33.9391 32 32.9217 32.4214 32.1716 33.1716C31.4214 33.9217 31 34.9391 31 36V82C31 83.0609 31.4214 84.0783 32.1716 84.8284C32.9217 85.5786 33.9391 86 35 86H41.556C41.8209 86.4554 42.1732 86.854 42.5926 87.1728C43.0121 87.4917 43.4903 87.7245 44 87.858V90C44 90.5304 44.2107 91.0391 44.5858 91.4142C44.9609 91.7893 45.4696 92 46 92H52C52.5304 92 53.0391 91.7893 53.4142 91.4142C53.7893 91.0391 54 90.5304 54 90V88H68V90C68 90.5304 68.2107 91.0391 68.5858 91.4142C68.9609 91.7893 69.4696 92 70 92H76C76.5304 92 77.0391 91.7893 77.4142 91.4142C77.7893 91.0391 78 90.5304 78 90V87.858C78.5097 87.7245 78.9879 87.4917 79.4074 87.1728C79.8268 86.854 80.1791 86.4554 80.444 86H87C88.0609 86 89.0783 85.5786 89.8284 84.8284C90.5786 84.0783 91 83.0609 91 82V36C91 34.9391 90.5786 33.9217 89.8284 33.1716C89.0783 32.4214 88.0609 32 87 32ZM52 90H46V88H52V90ZM76 90H70V88H76V90ZM79 84C79 84.5304 78.7893 85.0391 78.4142 85.4142C78.0391 85.7893 77.5304 86 77 86H45C44.4696 86 43.9609 85.7893 43.5858 85.4142C43.2107 85.0391 43 84.5304 43 84V78C43 77.4696 43.2107 76.9609 43.5858 76.5858C43.9609 76.2107 44.4696 76 45 76H77C77.5304 76 78.0391 76.2107 78.4142 76.5858C78.7893 76.9609 79 77.4696 79 78V84ZM79 72C79 72.5304 78.7893 73.0391 78.4142 73.4142C78.0391 73.7893 77.5304 74 77 74H45C44.4696 74 43.9609 73.7893 43.5858 73.4142C43.2107 73.0391 43 72.5304 43 72V66C43 65.4696 43.2107 64.9609 43.5858 64.5858C43.9609 64.2107 44.4696 64 45 64H77C77.5304 64 78.0391 64.2107 78.4142 64.5858C78.7893 64.9609 79 65.4696 79 66V72ZM79 60C79 60.5304 78.7893 61.0391 78.4142 61.4142C78.0391 61.7893 77.5304 62 77 62H45C44.4696 62 43.9609 61.7893 43.5858 61.4142C43.2107 61.0391 43 60.5304 43 60V54C43 53.4696 43.2107 52.9609 43.5858 52.5858C43.9609 52.2107 44.4696 52 45 52H77C77.5304 52 78.0391 52.2107 78.4142 52.5858C78.7893 52.9609 79 53.4696 79 54V60ZM89 82C89 82.5304 88.7893 83.0391 88.4142 83.4142C88.0391 83.7893 87.5304 84 87 84H81V78C80.9982 77.4301 80.8739 76.8672 80.6354 76.3496C80.397 75.832 80.05 75.3717 79.618 75C80.05 74.6283 80.397 74.168 80.6354 73.6504C80.8739 73.1328 80.9982 72.5699 81 72V66C80.9982 65.4301 80.8739 64.8672 80.6354 64.3496C80.397 63.832 80.05 63.3717 79.618 63C80.05 62.6283 80.397 62.168 80.6354 61.6504C80.8739 61.1328 80.9982 60.5699 81 60V54C81 52.9391 80.5786 51.9217 79.8284 51.1716C79.0783 50.4214 78.0609 50 77 50H45C43.9391 50 42.9217 50.4214 42.1716 51.1716C41.4214 51.9217 41 52.9391 41 54V60C41.0018 60.5699 41.1261 61.1328 41.3646 61.6504C41.603 62.168 41.95 62.6283 42.382 63C41.95 63.3717 41.603 63.832 41.3646 64.3496C41.1261 64.8672 41.0018 65.4301 41 66V72C41.0018 72.5699 41.1261 73.1328 41.3646 73.6504C41.603 74.168 41.95 74.6283 42.382 75C41.95 75.3717 41.603 75.832 41.3646 76.3496C41.1261 76.8672 41.0018 77.4301 41 78V84H35C34.4696 84 33.9609 83.7893 33.5858 83.4142C33.2107 83.0391 33 82.5304 33 82V42H89V82ZM89 40H33V36C33 35.4696 33.2107 34.9609 33.5858 34.5858C33.9609 34.2107 34.4696 34 35 34H87C87.5304 34 88.0391 34.2107 88.4142 34.5858C88.7893 34.9609 89 35.4696 89 36V40Z" fill="#5184CE"/>
<path d="M49 54C48.4067 54 47.8266 54.1759 47.3333 54.5056C46.8399 54.8352 46.4554 55.3038 46.2284 55.8519C46.0013 56.4001 45.9419 57.0033 46.0576 57.5853C46.1734 58.1672 46.4591 58.7018 46.8787 59.1213C47.2982 59.5409 47.8328 59.8266 48.4147 59.9424C48.9967 60.0581 49.5999 59.9987 50.1481 59.7716C50.6962 59.5446 51.1648 59.1601 51.4944 58.6667C51.8241 58.1734 52 57.5933 52 57C52 56.2044 51.6839 55.4413 51.1213 54.8787C50.5587 54.3161 49.7957 54 49 54ZM49 58C48.8022 58 48.6089 57.9414 48.4444 57.8315C48.28 57.7216 48.1518 57.5654 48.0761 57.3827C48.0004 57.2 47.9806 56.9989 48.0192 56.8049C48.0578 56.6109 48.153 56.4327 48.2929 56.2929C48.4327 56.153 48.6109 56.0578 48.8049 56.0192C48.9989 55.9806 49.2 56.0004 49.3827 56.0761C49.5654 56.1518 49.7216 56.28 49.8315 56.4444C49.9414 56.6089 50 56.8022 50 57C50 57.2652 49.8946 57.5196 49.7071 57.7071C49.5196 57.8946 49.2652 58 49 58Z" fill="#5184CE"/>
<path d="M57 54C56.4067 54 55.8266 54.1759 55.3333 54.5056C54.8399 54.8352 54.4554 55.3038 54.2284 55.8519C54.0013 56.4001 53.9419 57.0033 54.0576 57.5853C54.1734 58.1672 54.4591 58.7018 54.8787 59.1213C55.2982 59.5409 55.8328 59.8266 56.4147 59.9424C56.9967 60.0581 57.5999 59.9987 58.1481 59.7716C58.6962 59.5446 59.1648 59.1601 59.4944 58.6667C59.8241 58.1734 60 57.5933 60 57C60 56.2044 59.6839 55.4413 59.1213 54.8787C58.5587 54.3161 57.7957 54 57 54ZM57 58C56.8022 58 56.6089 57.9414 56.4444 57.8315C56.28 57.7216 56.1518 57.5654 56.0761 57.3827C56.0004 57.2 55.9806 56.9989 56.0192 56.8049C56.0578 56.6109 56.153 56.4327 56.2929 56.2929C56.4327 56.153 56.6109 56.0578 56.8049 56.0192C56.9989 55.9806 57.2 56.0004 57.3827 56.0761C57.5654 56.1518 57.7216 56.28 57.8315 56.4444C57.9414 56.6089 58 56.8022 58 57C58 57.2652 57.8946 57.5196 57.7071 57.7071C57.5196 57.8946 57.2652 58 57 58Z" fill="#5184CE"/>
<path d="M49 66C48.4067 66 47.8266 66.1759 47.3333 66.5056C46.8399 66.8352 46.4554 67.3038 46.2284 67.852C46.0013 68.4001 45.9419 69.0033 46.0576 69.5853C46.1734 70.1672 46.4591 70.7018 46.8787 71.1213C47.2982 71.5409 47.8328 71.8266 48.4147 71.9424C48.9967 72.0581 49.5999 71.9987 50.1481 71.7716C50.6962 71.5446 51.1648 71.1601 51.4944 70.6667C51.8241 70.1734 52 69.5933 52 69C52 68.2044 51.6839 67.4413 51.1213 66.8787C50.5587 66.3161 49.7957 66 49 66ZM49 70C48.8022 70 48.6089 69.9414 48.4444 69.8315C48.28 69.7216 48.1518 69.5654 48.0761 69.3827C48.0004 69.2 47.9806 68.9989 48.0192 68.8049C48.0578 68.6109 48.153 68.4327 48.2929 68.2929C48.4327 68.153 48.6109 68.0578 48.8049 68.0192C48.9989 67.9806 49.2 68.0004 49.3827 68.0761C49.5654 68.1518 49.7216 68.28 49.8315 68.4444C49.9414 68.6089 50 68.8022 50 69C50 69.2652 49.8946 69.5196 49.7071 69.7071C49.5196 69.8946 49.2652 70 49 70Z" fill="#5184CE"/>
<path d="M57 66C56.4067 66 55.8266 66.1759 55.3333 66.5056C54.8399 66.8352 54.4554 67.3038 54.2284 67.852C54.0013 68.4001 53.9419 69.0033 54.0576 69.5853C54.1734 70.1672 54.4591 70.7018 54.8787 71.1213C55.2982 71.5409 55.8328 71.8266 56.4147 71.9424C56.9967 72.0581 57.5999 71.9987 58.1481 71.7716C58.6962 71.5446 59.1648 71.1601 59.4944 70.6667C59.8241 70.1734 60 69.5933 60 69C60 68.2044 59.6839 67.4413 59.1213 66.8787C58.5587 66.3161 57.7957 66 57 66ZM57 70C56.8022 70 56.6089 69.9414 56.4444 69.8315C56.28 69.7216 56.1518 69.5654 56.0761 69.3827C56.0004 69.2 55.9806 68.9989 56.0192 68.8049C56.0578 68.6109 56.153 68.4327 56.2929 68.2929C56.4327 68.153 56.6109 68.0578 56.8049 68.0192C56.9989 67.9806 57.2 68.0004 57.3827 68.0761C57.5654 68.1518 57.7216 68.28 57.8315 68.4444C57.9414 68.6089 58 68.8022 58 69C58 69.2652 57.8946 69.5196 57.7071 69.7071C57.5196 69.8946 57.2652 70 57 70Z" fill="#5184CE"/>
<path d="M49 78C48.4067 78 47.8266 78.1759 47.3333 78.5056C46.8399 78.8352 46.4554 79.3038 46.2284 79.852C46.0013 80.4001 45.9419 81.0033 46.0576 81.5853C46.1734 82.1672 46.4591 82.7018 46.8787 83.1213C47.2982 83.5409 47.8328 83.8266 48.4147 83.9424C48.9967 84.0581 49.5999 83.9987 50.1481 83.7716C50.6962 83.5446 51.1648 83.1601 51.4944 82.6667C51.8241 82.1734 52 81.5933 52 81C52 80.2044 51.6839 79.4413 51.1213 78.8787C50.5587 78.3161 49.7957 78 49 78ZM49 82C48.8022 82 48.6089 81.9414 48.4444 81.8315C48.28 81.7216 48.1518 81.5654 48.0761 81.3827C48.0004 81.2 47.9806 80.9989 48.0192 80.8049C48.0578 80.6109 48.153 80.4327 48.2929 80.2929C48.4327 80.153 48.6109 80.0578 48.8049 80.0192C48.9989 79.9806 49.2 80.0004 49.3827 80.0761C49.5654 80.1518 49.7216 80.28 49.8315 80.4444C49.9414 80.6089 50 80.8022 50 81C50 81.2652 49.8946 81.5196 49.7071 81.7071C49.5196 81.8946 49.2652 82 49 82Z" fill="#5184CE"/>
<path d="M57 78C56.4067 78 55.8266 78.1759 55.3333 78.5056C54.8399 78.8352 54.4554 79.3038 54.2284 79.852C54.0013 80.4001 53.9419 81.0033 54.0576 81.5853C54.1734 82.1672 54.4591 82.7018 54.8787 83.1213C55.2982 83.5409 55.8328 83.8266 56.4147 83.9424C56.9967 84.0581 57.5999 83.9987 58.1481 83.7716C58.6962 83.5446 59.1648 83.1601 59.4944 82.6667C59.8241 82.1734 60 81.5933 60 81C60 80.2044 59.6839 79.4413 59.1213 78.8787C58.5587 78.3161 57.7957 78 57 78ZM57 82C56.8022 82 56.6089 81.9414 56.4444 81.8315C56.28 81.7216 56.1518 81.5654 56.0761 81.3827C56.0004 81.2 55.9806 80.9989 56.0192 80.8049C56.0578 80.6109 56.153 80.4327 56.2929 80.2929C56.4327 80.153 56.6109 80.0578 56.8049 80.0192C56.9989 79.9806 57.2 80.0004 57.3827 80.0761C57.5654 80.1518 57.7216 80.28 57.8315 80.4444C57.9414 80.6089 58 80.8022 58 81C58 81.2652 57.8946 81.5196 57.7071 81.7071C57.5196 81.8946 57.2652 82 57 82Z" fill="#5184CE"/>
<path d="M37 36H36C35.7348 36 35.4804 36.1054 35.2929 36.2929C35.1054 36.4804 35 36.7348 35 37C35 37.2652 35.1054 37.5196 35.2929 37.7071C35.4804 37.8946 35.7348 38 36 38H37C37.2652 38 37.5196 37.8946 37.7071 37.7071C37.8946 37.5196 38 37.2652 38 37C38 36.7348 37.8946 36.4804 37.7071 36.2929C37.5196 36.1054 37.2652 36 37 36Z" fill="#5184CE"/>
<path d="M42 36H41C40.7348 36 40.4804 36.1054 40.2929 36.2929C40.1054 36.4804 40 36.7348 40 37C40 37.2652 40.1054 37.5196 40.2929 37.7071C40.4804 37.8946 40.7348 38 41 38H42C42.2652 38 42.5196 37.8946 42.7071 37.7071C42.8946 37.5196 43 37.2652 43 37C43 36.7348 42.8946 36.4804 42.7071 36.2929C42.5196 36.1054 42.2652 36 42 36Z" fill="#5184CE"/>
<path d="M47 36H46C45.7348 36 45.4804 36.1054 45.2929 36.2929C45.1054 36.4804 45 36.7348 45 37C45 37.2652 45.1054 37.5196 45.2929 37.7071C45.4804 37.8946 45.7348 38 46 38H47C47.2652 38 47.5196 37.8946 47.7071 37.7071C47.8946 37.5196 48 37.2652 48 37C48 36.7348 47.8946 36.4804 47.7071 36.2929C47.5196 36.1054 47.2652 36 47 36Z" fill="#5184CE"/>
<path d="M86 36H80C79.7348 36 79.4804 36.1054 79.2929 36.2929C79.1054 36.4804 79 36.7348 79 37C79 37.2652 79.1054 37.5196 79.2929 37.7071C79.4804 37.8946 79.7348 38 80 38H86C86.2652 38 86.5196 37.8946 86.7071 37.7071C86.8946 37.5196 87 37.2652 87 37C87 36.7348 86.8946 36.4804 86.7071 36.2929C86.5196 36.1054 86.2652 36 86 36Z" fill="#5184CE"/>
<path d="M76 56H65C64.7348 56 64.4804 56.1054 64.2929 56.2929C64.1054 56.4804 64 56.7348 64 57C64 57.2652 64.1054 57.5196 64.2929 57.7071C64.4804 57.8946 64.7348 58 65 58H76C76.2652 58 76.5196 57.8946 76.7071 57.7071C76.8946 57.5196 77 57.2652 77 57C77 56.7348 76.8946 56.4804 76.7071 56.2929C76.5196 56.1054 76.2652 56 76 56Z" fill="#5184CE"/>
<path d="M76 68H65C64.7348 68 64.4804 68.1054 64.2929 68.2929C64.1054 68.4804 64 68.7348 64 69C64 69.2652 64.1054 69.5196 64.2929 69.7071C64.4804 69.8946 64.7348 70 65 70H76C76.2652 70 76.5196 69.8946 76.7071 69.7071C76.8946 69.5196 77 69.2652 77 69C77 68.7348 76.8946 68.4804 76.7071 68.2929C76.5196 68.1054 76.2652 68 76 68Z" fill="#5184CE"/>
<path d="M76 80H65C64.7348 80 64.4804 80.1054 64.2929 80.2929C64.1054 80.4804 64 80.7348 64 81C64 81.2652 64.1054 81.5196 64.2929 81.7071C64.4804 81.8946 64.7348 82 65 82H76C76.2652 82 76.5196 81.8946 76.7071 81.7071C76.8946 81.5196 77 81.2652 77 81C77 80.7348 76.8946 80.4804 76.7071 80.2929C76.5196 80.1054 76.2652 80 76 80Z" fill="#5184CE"/>
</g>
<defs>
<filter id="filter0_d_66_2" x="2.99707" y="3.00098" width="117" height="117" filterUnits="userSpaceOnUse" color-interpolation-filters="sRGB">
<feFlood flood-opacity="0" result="BackgroundImageFix"/>
<feColorMatrix in="SourceAlpha" type="matrix" values="0 0 0 0 0 0 0 0 0 0 0 0 0 0 0 0 0 0 127 0" result="hardAlpha"/>
<feOffset/>
<feGaussianBlur stdDeviation="3"/>
<feColorMatrix type="matrix" values="0 0 0 0 0 0 0 0 0 0 0 0 0 0 0 0 0 0 0.361 0"/>
<feBlend mode="normal" in2="BackgroundImageFix" result="effect1_dropShadow_66_2"/>
<feBlend mode="normal" in="SourceGraphic" in2="effect1_dropShadow_66_2" result="shape"/>
</filter>
<clipPath id="clip0_66_2">
<rect width="60" height="60" fill="white" transform="translate(31 32)"/>
</clipPath>
</defs>
</svg>
