<svg width="123" height="123" viewBox="0 0 123 123" fill="none" xmlns="http://www.w3.org/2000/svg">
<g filter="url(#filter0_d_66_2)">
<path d="M61.4971 114.001C90.492 114.001 113.997 90.4959 113.997 61.501C113.997 32.506 90.492 9.00098 61.4971 9.00098C32.5021 9.00098 8.99707 32.506 8.99707 61.501C8.99707 90.4959 32.5021 114.001 61.4971 114.001Z" fill="white"/>
</g>
<path d="M80.0773 39.4239C80.0773 37.9486 78.8375 36.7494 77.3124 36.7494C75.7874 36.7494 74.5476 37.9486 74.5476 39.4239C74.5476 40.8991 75.7874 42.0984 77.3124 42.0984C78.8474 42.0984 80.0773 40.8991 80.0773 39.4239ZM76.4958 39.4239C76.4958 38.9861 76.8697 38.6244 77.3223 38.6244C77.7749 38.6244 78.1488 38.9861 78.1488 39.4239C78.1488 39.8617 77.7749 40.2234 77.3223 40.2234C76.8697 40.2234 76.4958 39.8617 76.4958 39.4239Z" fill="#5184CE"/>
<path d="M72.7177 39.4239C72.7177 37.9486 71.4779 36.7494 69.9528 36.7494C68.4277 36.7494 67.188 37.9486 67.188 39.4239C67.188 40.8991 68.4277 42.0984 69.9528 42.0984C71.4779 42.0984 72.7177 40.8991 72.7177 39.4239ZM69.1362 39.4239C69.1362 38.9861 69.5101 38.6244 69.9627 38.6244C70.4153 38.6244 70.7892 38.9861 70.7892 39.4239C70.7892 39.8617 70.4153 40.2234 69.9627 40.2234C69.5101 40.2234 69.1362 39.8617 69.1362 39.4239Z" fill="#5184CE"/>
<path d="M65.3676 39.4239C65.3676 37.9486 64.1278 36.7494 62.6027 36.7494C61.0776 36.7494 59.8379 37.9486 59.8379 39.4239C59.8379 40.8991 61.0776 42.0984 62.6027 42.0984C64.1278 42.0984 65.3676 40.8991 65.3676 39.4239ZM61.7762 39.4239C61.7762 38.9861 62.1501 38.6244 62.6027 38.6244C63.0553 38.6244 63.4292 38.9861 63.4292 39.4239C63.4292 39.8617 63.0553 40.2234 62.6027 40.2234C62.1501 40.2234 61.7762 39.8617 61.7762 39.4239Z" fill="#5184CE"/>
<path d="M38.1326 37.6916V41.1561C38.1326 41.6701 38.5655 42.0888 39.0968 42.0888H55.9122C56.4435 42.0888 56.8764 41.6701 56.8764 41.1561V37.6916C56.8764 37.1777 56.4435 36.7589 55.9122 36.7589H39.0968C38.5655 36.7494 38.1326 37.1682 38.1326 37.6916ZM40.0709 38.6244H54.9479V40.2138H40.0709V38.6244Z" fill="#5184CE"/>
<path d="M80.0773 57.2601C80.0773 55.7849 78.8375 54.5856 77.3124 54.5856C75.7874 54.5856 74.5476 55.7849 74.5476 57.2601C74.5476 58.7354 75.7874 59.9346 77.3124 59.9346C78.8474 59.9251 80.0773 58.7259 80.0773 57.2601ZM76.4958 57.2601C76.4958 56.8223 76.8697 56.4606 77.3223 56.4606C77.7749 56.4606 78.1488 56.8223 78.1488 57.2601C78.1488 57.6979 77.7749 58.0596 77.3223 58.0596C76.8697 58.0596 76.4958 57.6979 76.4958 57.2601Z" fill="#5184CE"/>
<path d="M72.7177 57.2601C72.7177 55.7849 71.4779 54.5856 69.9528 54.5856C68.4277 54.5856 67.188 55.7849 67.188 57.2601C67.188 58.7354 68.4277 59.9346 69.9528 59.9346C71.4779 59.9251 72.7177 58.7259 72.7177 57.2601ZM69.1362 57.2601C69.1362 56.8223 69.5101 56.4606 69.9627 56.4606C70.4153 56.4606 70.7892 56.8223 70.7892 57.2601C70.7892 57.6979 70.4153 58.0596 69.9627 58.0596C69.5101 58.0596 69.1362 57.6979 69.1362 57.2601Z" fill="#5184CE"/>
<path d="M62.6027 59.9252C64.1278 59.9252 65.3676 58.7259 65.3676 57.2507C65.3676 55.7754 64.1278 54.5762 62.6027 54.5762C61.0776 54.5762 59.8379 55.7754 59.8379 57.2507C59.8379 58.7259 61.0776 59.9252 62.6027 59.9252ZM62.6027 56.4607C63.0553 56.4607 63.4292 56.8224 63.4292 57.2602C63.4292 57.698 63.0553 58.0597 62.6027 58.0597C62.1501 58.0597 61.7762 57.698 61.7762 57.2602C61.7762 56.8224 62.1501 56.4607 62.6027 56.4607Z" fill="#5184CE"/>
<path d="M38.1326 55.5279V58.9924C38.1326 59.5064 38.5655 59.9251 39.0968 59.9251H55.9122C56.4435 59.9251 56.8764 59.5064 56.8764 58.9924V55.5279C56.8764 55.014 56.4435 54.5952 55.9122 54.5952H39.0968C38.5655 54.5857 38.1326 55.0045 38.1326 55.5279ZM40.0709 56.4607H54.9479V58.0501H40.0709V56.4607Z" fill="#5184CE"/>
<path d="M65.3676 75.0964C65.3676 73.6212 64.1278 72.4219 62.6027 72.4219C61.0776 72.4219 59.8379 73.6212 59.8379 75.0964C59.8379 76.5717 61.0776 77.7709 62.6027 77.7709C64.1278 77.7614 65.3676 76.5622 65.3676 75.0964ZM61.7762 75.0964C61.7762 74.6586 62.1501 74.2969 62.6027 74.2969C63.0553 74.2969 63.4292 74.6586 63.4292 75.0964C63.4292 75.5342 63.0553 75.8959 62.6027 75.8959C62.1501 75.8864 61.7762 75.5342 61.7762 75.0964Z" fill="#5184CE"/>
<path d="M38.1326 73.3547V76.8191C38.1326 77.3331 38.5655 77.7519 39.0968 77.7519H55.9122C56.4435 77.7519 56.8764 77.3331 56.8764 76.8191V73.3547C56.8764 72.8407 56.4435 72.4219 55.9122 72.4219H39.0968C38.5655 72.4219 38.1326 72.8407 38.1326 73.3547ZM40.0709 74.2969H54.9479V75.8864H40.0709V74.2969Z" fill="#5184CE"/>
<path d="M93.1932 76.0768L90.8514 75.6865C90.6743 75.1631 90.4579 74.6491 90.1922 74.1542L91.5697 72.2697C91.8452 71.8985 91.796 71.3845 91.4615 71.0704L88.6376 68.3388C88.303 68.0152 87.7816 67.9772 87.3978 68.2341L85.4497 69.5666C84.938 69.3096 84.4067 69.1003 83.8655 68.9289L83.4621 66.6637C83.3834 66.2164 82.98 65.8832 82.5077 65.8832H80.0479V64.684H80.8547C82.7045 64.684 84.2197 63.2278 84.2197 61.4289V53.0819C84.2197 51.2925 82.7143 49.8268 80.8547 49.8268H80.0479V46.8572H80.8547C82.7045 46.8572 84.2197 45.401 84.2197 43.6022V35.2456C84.2197 33.4562 82.7143 32 80.8547 32H54.0623C53.531 32 53.0981 32.4188 53.0981 32.9327C53.0981 33.4467 53.531 33.8655 54.0623 33.8655H80.8645C81.6517 33.8655 82.2912 34.4746 82.2912 35.236V43.5926C82.2912 44.3541 81.6517 44.9727 80.8645 44.9727H66.2237C65.6924 44.9727 65.2594 45.3915 65.2594 45.9055C65.2594 46.4194 65.6924 46.8382 66.2237 46.8382H74.5871V49.8173H53.9344C53.4031 49.8173 52.9702 50.236 52.9702 50.75C52.9702 51.264 53.4031 51.6827 53.9344 51.6827H80.8547C81.6418 51.6827 82.2814 52.3014 82.2814 53.0628V61.4099C82.2814 62.1713 81.6418 62.79 80.8547 62.79H60.8219C60.2906 62.79 59.8577 63.2088 59.8577 63.7227C59.8577 64.2367 60.2906 64.6555 60.8219 64.6555H74.5871V67.6345H52.9603C52.429 67.6345 51.9961 68.0533 51.9961 68.5673C51.9961 69.0812 52.429 69.5 52.9603 69.5H71.1433L69.5494 71.0419C69.2148 71.3655 69.1755 71.8699 69.4411 72.2411L70.8186 74.1256C70.5628 74.6206 70.3365 75.1345 70.1594 75.658L67.8176 76.0482C67.3552 76.1244 67.0108 76.5146 67.0108 76.9714V80.6072H37.3552C36.5779 80.6072 35.9383 79.9886 35.9383 79.2272V70.8801C35.9383 70.1187 36.5779 69.5 37.3552 69.5H48.4736C49.0049 69.5 49.4378 69.0812 49.4378 68.5673C49.4378 68.0533 49.0049 67.6345 48.4736 67.6345H47.2634V64.6555H56.591C57.1223 64.6555 57.5553 64.2367 57.5553 63.7227C57.5553 63.2088 57.1223 62.79 56.591 62.79H37.3552C36.5779 62.79 35.9383 62.1713 35.9383 61.4099V53.0628C35.9383 52.3014 36.5779 51.6827 37.3552 51.6827H50.3431C50.8744 51.6827 51.3073 51.264 51.3073 50.75C51.3073 50.236 50.8744 49.8173 50.3431 49.8173H47.2634V46.8572H61.5402C62.0715 46.8572 62.5044 46.4385 62.5044 45.9245C62.5044 45.4105 62.0715 44.9918 61.5402 44.9918H37.3552C36.5779 44.9918 35.9383 44.3731 35.9383 43.6117V35.2456C35.9383 34.4937 36.5779 33.875 37.3552 33.875H49.7724C50.3037 33.875 50.7366 33.4562 50.7366 32.9423C50.7366 32.4283 50.3037 32.0095 49.7724 32.0095H37.3552C35.5054 32.0095 34 33.4657 34 35.2551V43.6117C34 45.401 35.5054 46.8668 37.3552 46.8668H41.8026V49.8458H37.3552C35.5054 49.8458 34 51.302 34 53.1009V61.448C34 63.2373 35.5054 64.703 37.3552 64.703H41.8026V67.6821H37.3552C35.5054 67.6821 34 69.1383 34 70.9372V79.2843C34 81.0736 35.5054 82.5393 37.3552 82.5393H40.5923V85.7183C40.5923 86.2322 41.0253 86.651 41.5566 86.651H47.5093C48.0407 86.651 48.4736 86.2322 48.4736 85.7183V82.5393H70.2971C70.4447 82.9486 70.6218 83.3484 70.8285 83.7291L69.451 85.6136C69.1755 85.9848 69.2247 86.4987 69.5592 86.8128L72.3831 89.5444C72.7176 89.868 73.2391 89.9061 73.6228 89.6491L75.571 88.3166C76.0826 88.5736 76.614 88.783 77.1551 88.9543L77.5585 91.2195C77.6373 91.6669 78.0407 92 78.513 92H82.5077C82.98 92 83.3834 91.6669 83.4621 91.2195L83.8655 88.9543C84.4067 88.783 84.938 88.5736 85.4497 88.3166L87.3978 89.6491C87.7816 89.9156 88.303 89.868 88.6376 89.5444L91.4615 86.8128C91.796 86.4892 91.8354 85.9848 91.5697 85.6136L90.1922 83.7291C90.4579 83.2341 90.6743 82.7202 90.8514 82.1967L93.1932 81.8065C93.6556 81.7303 94 81.3401 94 80.8832V77.019C94 76.5431 93.6556 76.1529 93.1932 76.0768ZM76.5254 49.8077V46.8763H78.1095V49.8077H76.5254ZM43.7409 49.8077V46.8763H45.325V49.8077H43.7409ZM43.7409 67.625V64.6935H45.325V67.625H43.7409ZM78.1194 65.9784C77.834 66.1022 77.6176 66.3496 77.5585 66.6637L77.1551 68.9289C76.9387 68.9956 76.732 69.0717 76.5254 69.1478V64.8648H78.1095V65.9784H78.1194ZM46.5353 84.7475H42.5208V82.5108H46.5353V84.7475ZM92.0617 80.0742L89.9265 80.4264C89.5526 80.493 89.2476 80.7595 89.1492 81.1212C88.9524 81.8731 88.6376 82.606 88.2243 83.2912C88.0275 83.6053 88.0472 84.0051 88.2637 84.3096L89.5133 86.0228L87.8406 87.6409L86.0695 86.4321C85.7547 86.2227 85.3513 86.2037 85.0167 86.394C84.3083 86.7938 83.5605 87.0984 82.7734 87.2887C82.3995 87.3839 82.124 87.6789 82.0551 88.0406L81.691 90.106H79.3296L78.9656 88.0406C78.8967 87.6789 78.6212 87.3839 78.2473 87.2887C77.47 87.0984 76.7124 86.7938 76.0039 86.394C75.6792 86.2037 75.266 86.2227 74.9511 86.4321L73.1801 87.6409L71.5074 86.0228L72.757 84.3096C72.9734 84.0051 72.9931 83.6148 72.7963 83.2912C72.3732 82.606 72.0682 81.8731 71.8714 81.1212C71.773 80.7595 71.468 80.493 71.0941 80.4264L68.959 80.0742V77.79L71.0941 77.4378C71.468 77.3712 71.773 77.1047 71.8714 76.743C72.0781 75.9816 72.3831 75.2487 72.8062 74.573C73.003 74.2589 72.9833 73.8591 72.7668 73.5546L71.5172 71.8414L73.1899 70.2234L74.961 71.4321C75.2758 71.6415 75.6792 71.6605 76.0138 71.4702C76.7222 71.0609 77.4798 70.7659 78.2571 70.5755C78.631 70.4803 78.9065 70.1948 78.9754 69.8236L79.3395 67.7582H81.7009L82.0649 69.8236C82.1338 70.1853 82.4093 70.4803 82.7832 70.5755C83.5703 70.7659 84.328 71.0704 85.0266 71.4702C85.3513 71.6605 85.7645 71.6415 86.0794 71.4321L87.8504 70.2234L89.5231 71.8414L88.2735 73.5546C88.0571 73.8591 88.0374 74.2494 88.2342 74.573C88.6474 75.2582 88.9623 75.9911 89.1591 76.743C89.2575 77.1047 89.5526 77.3712 89.9364 77.4378L92.0715 77.79V80.0742H92.0617Z" fill="#5184CE"/>
<path d="M80.5104 74.0209C77.7062 74.0209 75.4333 76.2291 75.4333 78.9321C75.4333 81.6447 77.7161 83.8433 80.5104 83.8433C83.3048 83.8433 85.5875 81.6351 85.5875 78.9321C85.5875 76.2291 83.3146 74.0209 80.5104 74.0209ZM80.5104 81.9683C78.7787 81.9683 77.3717 80.6072 77.3717 78.9321C77.3717 77.257 78.7787 75.8959 80.5104 75.8959C82.2421 75.8959 83.6492 77.257 83.6492 78.9321C83.6492 80.6072 82.2421 81.9683 80.5104 81.9683Z" fill="#5184CE"/>
<defs>
<filter id="filter0_d_66_2" x="2.99707" y="3.00098" width="117" height="117" filterUnits="userSpaceOnUse" color-interpolation-filters="sRGB">
<feFlood flood-opacity="0" result="BackgroundImageFix"/>
<feColorMatrix in="SourceAlpha" type="matrix" values="0 0 0 0 0 0 0 0 0 0 0 0 0 0 0 0 0 0 127 0" result="hardAlpha"/>
<feOffset/>
<feGaussianBlur stdDeviation="3"/>
<feColorMatrix type="matrix" values="0 0 0 0 0 0 0 0 0 0 0 0 0 0 0 0 0 0 0.361 0"/>
<feBlend mode="normal" in2="BackgroundImageFix" result="effect1_dropShadow_66_2"/>
<feBlend mode="normal" in="SourceGraphic" in2="effect1_dropShadow_66_2" result="shape"/>
</filter>
</defs>
</svg>
