<svg width="123" height="123" viewBox="0 0 123 123" fill="none" xmlns="http://www.w3.org/2000/svg">
<g filter="url(#filter0_d_66_2)">
<path d="M61.5 114C90.4949 114 114 90.4949 114 61.5C114 32.5051 90.4949 9 61.5 9C32.5051 9 9 32.5051 9 61.5C9 90.4949 32.5051 114 61.5 114Z" fill="white"/>
</g>
<path d="M70.8438 63.2502V62.0938H68.6562V63.2502C67.8377 63.3867 67.1017 63.8291 66.5969 64.4878C66.0922 65.1464 65.8565 65.9722 65.9375 66.7981C66.0186 67.6239 66.4102 68.3882 67.0334 68.9362C67.6565 69.4842 68.4645 69.7751 69.2939 69.75H70.2061C70.3571 69.738 70.5089 69.7573 70.652 69.8068C70.7951 69.8563 70.9265 69.9349 71.0377 70.0376C71.149 70.1404 71.2378 70.265 71.2985 70.4038C71.3593 70.5425 71.3906 70.6923 71.3906 70.8438C71.3906 70.9952 71.3593 71.145 71.2985 71.2837C71.2378 71.4225 71.149 71.5471 71.0377 71.6499C70.9265 71.7526 70.7951 71.8312 70.652 71.8807C70.5089 71.9302 70.3571 71.9495 70.2061 71.9375H69.2939C68.992 71.9487 68.698 71.8399 68.476 71.635C68.2541 71.43 68.1222 71.1456 68.1094 70.8438V70.4058H65.9219V70.8438C65.9312 71.6148 66.2095 72.3584 66.7088 72.946C67.208 73.5337 67.8968 73.9285 68.6562 74.0623V74.125H70.8438V74.0623C71.6623 73.9258 72.3983 73.4834 72.9031 72.8247C73.4078 72.1661 73.6435 71.3403 73.5625 70.5144C73.4814 69.6886 73.0898 68.9243 72.4666 68.3763C71.8435 67.8283 71.0355 67.5374 70.2061 67.5625H69.2939C69.1429 67.5745 68.9911 67.5552 68.848 67.5057C68.7049 67.4562 68.5735 67.3776 68.4623 67.2749C68.351 67.1721 68.2622 67.0475 68.2015 66.9087C68.1407 66.77 68.1094 66.6202 68.1094 66.4688C68.1094 66.3173 68.1407 66.1675 68.2015 66.0288C68.2622 65.89 68.351 65.7654 68.4623 65.6626C68.5735 65.5599 68.7049 65.4813 68.848 65.4318C68.9911 65.3823 69.1429 65.363 69.2939 65.375H70.2061C70.508 65.3638 70.802 65.4726 71.024 65.6775C71.2459 65.8825 71.3778 66.1669 71.3906 66.4688V66.9067H73.5781V66.4688C73.5688 65.6977 73.2905 64.9541 72.7912 64.3665C72.292 63.7788 71.6032 63.384 70.8438 63.2502Z" fill="#5184CE"/>
<path d="M79.5938 68.6563C79.5938 66.7093 79.0164 64.8062 77.9348 63.1874C76.8531 61.5686 75.3158 60.3069 73.517 59.5618C71.7183 58.8168 69.7391 58.6218 67.8296 59.0016C65.9201 59.3815 64.1661 60.319 62.7894 61.6957C61.4128 63.0723 60.4752 64.8263 60.0954 66.7358C59.7156 68.6453 59.9105 70.6246 60.6556 72.4233C61.4006 74.222 62.6623 75.7594 64.2811 76.841C65.8999 77.9227 67.8031 78.5 69.75 78.5C72.3599 78.4972 74.862 77.4591 76.7074 75.6137C78.5529 73.7682 79.5909 71.2661 79.5938 68.6563ZM69.75 76.3125C68.2357 76.3125 66.7555 75.8635 65.4964 75.0222C64.2374 74.1809 63.256 72.9852 62.6766 71.5862C62.0971 70.1872 61.9454 68.6478 62.2409 67.1626C62.5363 65.6774 63.2655 64.3132 64.3362 63.2425C65.407 62.1717 66.7712 61.4425 68.2563 61.1471C69.7415 60.8517 71.2809 61.0033 72.6799 61.5828C74.0789 62.1623 75.2747 63.1436 76.1159 64.4027C76.9572 65.6617 77.4063 67.142 77.4063 68.6563C77.4038 70.6861 76.5964 72.632 75.1611 74.0673C73.7258 75.5026 71.7798 76.3101 69.75 76.3125Z" fill="#5184CE"/>
<path d="M61.0823 28.6372V30.8247C67.749 30.8224 74.2353 32.9904 79.5607 37.0011C84.8861 41.0118 88.7611 46.6472 90.5999 53.0554C92.4386 59.4635 92.1413 66.2961 89.7528 72.5203C87.3643 78.7445 83.0144 84.0219 77.3607 87.5549L75.7689 84.8308C75.6689 84.66 75.5245 84.5195 75.351 84.4244C75.1775 84.3292 74.9814 84.2829 74.7837 84.2903C74.5859 84.2978 74.3939 84.3587 74.2281 84.4667C74.0622 84.5746 73.9288 84.7256 73.842 84.9034L70.4902 91.7735C70.4112 91.9352 70.3733 92.114 70.3799 92.2939C70.3866 92.4738 70.4376 92.6493 70.5283 92.8047C70.6191 92.9602 70.7469 93.0908 70.9003 93.185C71.0537 93.2792 71.228 93.3341 71.4077 93.3447L79.0384 93.7965C79.0608 93.7976 79.0821 93.7987 79.1035 93.7987C79.2961 93.7988 79.4853 93.7481 79.6519 93.6516C79.8186 93.5552 79.9568 93.4164 80.0527 93.2494C80.1485 93.0823 80.1985 92.893 80.1976 92.7004C80.1968 92.5078 80.145 92.3189 80.0477 92.1527L78.4641 89.4429C84.533 85.6676 89.2066 80.0178 91.7773 73.3489C94.3481 66.6799 94.6762 59.3549 92.7117 52.4829C90.7473 45.6109 86.5974 39.5659 80.8903 35.2633C75.1831 30.9607 68.2296 28.6346 61.0823 28.6372ZM73.1755 91.2586L74.9112 87.6997L77.1286 91.4925L73.1755 91.2586Z" fill="#5184CE"/>
<path d="M30.375 61.532C30.3974 55.8612 31.9804 50.306 34.9507 45.4752C37.9209 40.6445 42.1638 36.7247 47.2141 34.1455L48.4315 37.0443C48.5078 37.227 48.6325 37.3855 48.7921 37.5027C48.9516 37.6199 49.1401 37.6915 49.3372 37.7098C49.3713 37.7137 49.4055 37.7155 49.4398 37.7151C49.6203 37.7149 49.7981 37.6702 49.9572 37.5848C50.1163 37.4995 50.2519 37.3762 50.352 37.2259L54.5743 30.8535C54.6736 30.7033 54.7344 30.5309 54.7512 30.3516C54.768 30.1723 54.7404 29.9916 54.6706 29.8256C54.6009 29.6595 54.4913 29.5132 54.3515 29.3996C54.2118 29.2861 54.0461 29.2087 53.8693 29.1745L46.3637 27.7282C46.1693 27.6909 45.9684 27.707 45.7825 27.7748C45.5966 27.8426 45.4325 27.9596 45.3078 28.1132C45.183 28.2669 45.1023 28.4515 45.0742 28.6474C45.0461 28.8433 45.0717 29.0432 45.1481 29.2257L46.3643 32.1218C39.7333 35.433 34.4152 40.8871 31.2727 47.5997C28.1301 54.3122 27.3473 61.8896 29.0512 69.1028C30.7552 76.3161 34.8459 82.7422 40.66 87.339C46.474 91.9359 53.6705 94.4338 61.0823 94.4278V92.2403C57.0486 92.244 53.0538 91.4523 49.3265 89.9103C45.5991 88.3684 42.2125 86.1066 39.3603 83.2543C36.5081 80.402 34.2464 77.0152 32.7046 73.2879C31.1628 69.5605 30.3712 65.5656 30.375 61.532ZM51.8442 31.0127L49.6567 34.3132L47.9562 30.2629L51.8442 31.0127Z" fill="#5184CE"/>
<path d="M68.6562 57.7188V47.875C68.6563 47.7313 68.6281 47.5891 68.5732 47.4563C68.5182 47.3236 68.4377 47.203 68.3361 47.1014C68.2345 46.9998 68.1139 46.9193 67.9812 46.8643C67.8484 46.8094 67.7062 46.7812 67.5625 46.7813H47.875C47.7313 46.7812 47.5891 46.8094 47.4563 46.8643C47.3236 46.9193 47.203 46.9998 47.1014 47.1014C46.9998 47.203 46.9193 47.3236 46.8643 47.4563C46.8094 47.5891 46.7812 47.7313 46.7813 47.875V67.5625C46.7812 67.7062 46.8094 67.8484 46.8643 67.9812C46.9193 68.1139 46.9998 68.2345 47.1014 68.3361C47.203 68.4377 47.3236 68.5182 47.4563 68.5732C47.5891 68.6281 47.7313 68.6563 47.875 68.6562H58.8125V66.4688H48.9688V48.9688H53.8906V56.625C53.8906 56.8037 53.9344 56.9797 54.0182 57.1376C54.1019 57.2954 54.2231 57.4304 54.371 57.5306C54.519 57.6308 54.6893 57.6933 54.8669 57.7125C55.0446 57.7317 55.2243 57.7071 55.3903 57.6408L57.7188 56.7094L60.0472 57.6408C60.2132 57.7071 60.3929 57.7317 60.5706 57.7125C60.7482 57.6933 60.9185 57.6308 61.0665 57.5306C61.2144 57.4304 61.3356 57.2954 61.4193 57.1376C61.5031 56.9797 61.5469 56.8037 61.5469 56.625V48.9688H66.4688V57.7188H68.6562ZM59.3594 55.01L58.1246 54.5155C57.8642 54.4108 57.5733 54.4108 57.3129 54.5155L56.0781 55.01V48.9688H59.3594V55.01Z" fill="#5184CE"/>
<defs>
<filter id="filter0_d_66_2" x="3" y="3" width="117" height="117" filterUnits="userSpaceOnUse" color-interpolation-filters="sRGB">
<feFlood flood-opacity="0" result="BackgroundImageFix"/>
<feColorMatrix in="SourceAlpha" type="matrix" values="0 0 0 0 0 0 0 0 0 0 0 0 0 0 0 0 0 0 127 0" result="hardAlpha"/>
<feOffset/>
<feGaussianBlur stdDeviation="3"/>
<feColorMatrix type="matrix" values="0 0 0 0 0 0 0 0 0 0 0 0 0 0 0 0 0 0 0.361 0"/>
<feBlend mode="normal" in2="BackgroundImageFix" result="effect1_dropShadow_66_2"/>
<feBlend mode="normal" in="SourceGraphic" in2="effect1_dropShadow_66_2" result="shape"/>
</filter>
</defs>
</svg>
