<svg xmlns="http://www.w3.org/2000/svg" xmlns:xlink="http://www.w3.org/1999/xlink" width="123" height="123" viewBox="0 0 123 123">
  <defs>
    <filter id="Ellipse_65" x="0" y="0" width="123" height="123" filterUnits="userSpaceOnUse">
      <feOffset input="SourceAlpha"/>
      <feGaussianBlur stdDeviation="3" result="blur"/>
      <feFlood flood-opacity="0.361"/>
      <feComposite operator="in" in2="blur"/>
      <feComposite in="SourceGraphic"/>
    </filter>
  </defs>
  <g id="Group_686" data-name="Group 686" transform="translate(2.377 2.191)">
    <g transform="matrix(1, 0, 0, 1, -2.38, -2.19)" filter="url(#Ellipse_65)">
      <circle id="Ellipse_65-2" data-name="Ellipse 65" cx="52.5" cy="52.5" r="52.5" transform="translate(9 9)" fill="#fff"/>
    </g>
    <g id="Group_669" data-name="Group 669" transform="translate(14.876 14.296)">
      <g id="XMLID_1_" transform="translate(0)">
        <path id="Path_332" data-name="Path 332" d="M27.222,13.419a43.865,43.865,0,0,1-.71,7.992,1.844,1.844,0,0,1-1.83,1.568c-.112,0-.224-.037-.336-.037a1.863,1.863,0,0,1-1.494-2.166,44.142,44.142,0,0,0,.635-7.357,1.938,1.938,0,0,1,1.867-1.942,1.788,1.788,0,0,1,1.867,1.793Z" transform="translate(62.405 31.324)" fill="#5184ce"/>
        <path id="Path_333" data-name="Path 333" d="M24.653,16.039A46.837,46.837,0,0,0,22.038,9.13a1.846,1.846,0,1,1,3.324-1.606,41.5,41.5,0,0,1,2.876,7.506,1.854,1.854,0,0,1-1.307,2.278,1.1,1.1,0,0,1-.485.075,1.838,1.838,0,0,1-1.793-1.344Z" transform="translate(59.746 17.651)" fill="#5184ce"/>
        <path id="Path_334" data-name="Path 334" d="M28.327,19.177a49.372,49.372,0,0,1-4.145,6.871,1.827,1.827,0,0,1-1.494.784,1.762,1.762,0,0,1-1.12-.373,1.888,1.888,0,0,1-.411-2.614,39.913,39.913,0,0,0,3.809-6.311,1.825,1.825,0,0,1,2.465-.859,1.882,1.882,0,0,1,.9,2.5Z" transform="translate(56.893 45.022)" fill="#5184ce"/>
        <path id="Path_335" data-name="Path 335" d="M20.055,13.364c0-.635-.037-1.27-.075-1.867h1.942v3.734H19.98C20.017,14.634,20.055,14,20.055,13.364Z" transform="translate(54.634 31.379)" fill="#5184ce"/>
        <path id="Path_336" data-name="Path 336" d="M28.183,11.5c.037.6.075,1.232.075,1.867s-.037,1.27-.075,1.867H16.98a15.3,15.3,0,0,0,.075-1.867A15.3,15.3,0,0,0,16.98,11.5Z" transform="translate(46.431 31.379)" fill="#5184ce"/>
        <path id="Path_337" data-name="Path 337" d="M24.688,10.887a45.719,45.719,0,0,0-5.34-5.079A1.86,1.86,0,0,1,21.663,2.9a45.2,45.2,0,0,1,5.826,5.527,1.844,1.844,0,0,1-.187,2.614,1.719,1.719,0,0,1-1.232.485,1.912,1.912,0,0,1-1.382-.635Z" transform="translate(50.972 6.744)" fill="#5184ce"/>
        <path id="Path_338" data-name="Path 338" d="M17.183,27.505a1.881,1.881,0,0,1,.747-2.539A39.641,39.641,0,0,0,24.054,20.9a1.872,1.872,0,1,1,2.353,2.913,44.551,44.551,0,0,1-6.722,4.444,1.735,1.735,0,0,1-.859.224A1.9,1.9,0,0,1,17.183,27.505Z" transform="translate(46.377 55.964)" fill="#5184ce"/>
        <path id="Path_339" data-name="Path 339" d="M21.576,18.1l-2.39,2.876A16.674,16.674,0,0,0,17.58,19.74a29.3,29.3,0,0,0,2.5-2.763A10.393,10.393,0,0,1,21.576,18.1Z" transform="translate(48.072 46.364)" fill="#5184ce"/>
        <path id="Path_340" data-name="Path 340" d="M17.293,15.937a30.21,30.21,0,0,1,6.535,3.884,29.3,29.3,0,0,1-2.5,2.763A27.8,27.8,0,0,0,16.21,19.6a34.9,34.9,0,0,0,1.083-3.66Z" transform="translate(44.325 43.52)" fill="#5184ce"/>
        <path id="Path_341" data-name="Path 341" d="M19.186,5.957l2.39,2.876q-.728.616-1.456,1.12a22.619,22.619,0,0,0-2.539-2.8A11.925,11.925,0,0,0,19.186,5.957Z" transform="translate(48.072 16.23)" fill="#5184ce"/>
        <path id="Path_342" data-name="Path 342" d="M21.326,6.277a22.62,22.62,0,0,1,2.539,2.8,31.927,31.927,0,0,1-6.573,3.846A34.194,34.194,0,0,0,16.21,9.3,25.992,25.992,0,0,0,21.326,6.277Z" transform="translate(44.325 17.105)" fill="#5184ce"/>
        <path id="Path_343" data-name="Path 343" d="M19.762,13.364a15.3,15.3,0,0,1-.075,1.867h-3.7c.037-.635.037-1.232.037-1.867s0-1.27-.037-1.867h3.7A15.3,15.3,0,0,1,19.762,13.364Z" transform="translate(43.724 31.379)" fill="#5184ce"/>
        <path id="Path_344" data-name="Path 344" d="M17.166,20.9A52.11,52.11,0,0,0,15.56,9.4a28.37,28.37,0,0,0,3.51-1.344A51.044,51.044,0,0,1,20.863,20.9Z" transform="translate(42.548 21.973)" fill="#5184ce"/>
        <path id="Path_345" data-name="Path 345" d="M15.56,24a52.43,52.43,0,0,0,1.606-11.5h3.7A51.044,51.044,0,0,1,19.07,25.343,28.368,28.368,0,0,0,15.56,24Z" transform="translate(42.548 34.114)" fill="#5184ce"/>
        <path id="Path_346" data-name="Path 346" d="M18.808,7.087a34.193,34.193,0,0,1,1.083,3.622,28.369,28.369,0,0,1-3.51,1.344c-.336-1.232-.71-2.427-1.12-3.548a27.024,27.024,0,0,0,3.548-1.419Z" transform="translate(41.728 19.32)" fill="#5184ce"/>
        <path id="Path_347" data-name="Path 347" d="M19.891,16.921a34.9,34.9,0,0,1-1.083,3.66,22.678,22.678,0,0,0-3.548-1.419,31.056,31.056,0,0,0,1.12-3.585A28.369,28.369,0,0,1,19.891,16.921Z" transform="translate(41.728 42.536)" fill="#5184ce"/>
        <path id="Path_348" data-name="Path 348" d="M25.533,11.5c.037.6.037,1.232.037,1.867s0,1.232-.037,1.867H12.5V11.5Z" transform="translate(34.181 31.379)" fill="#5184ce"/>
        <path id="Path_349" data-name="Path 349" d="M15.456,3.98a1.855,1.855,0,0,1-1.382-2.241A1.841,1.841,0,0,1,16.278.32a44.657,44.657,0,0,1,7.656,2.465,1.9,1.9,0,0,1,1.008,2.465,1.9,1.9,0,0,1-1.718,1.12,1.672,1.672,0,0,1-.747-.149A40.483,40.483,0,0,0,15.456,3.98Z" transform="translate(38.357 0.693)" fill="#5184ce"/>
        <path id="Path_350" data-name="Path 350" d="M22.807,7.467c.411,1.12.784,2.315,1.12,3.548A39.93,39.93,0,0,1,12.5,13.106V9.372A36.235,36.235,0,0,0,22.807,7.467Z" transform="translate(34.181 20.359)" fill="#5184ce"/>
        <path id="Path_351" data-name="Path 351" d="M23.927,17.108a31.056,31.056,0,0,1-1.12,3.585A36.264,36.264,0,0,0,12.5,18.751V15.017a39.929,39.929,0,0,1,11.427,2.091Z" transform="translate(34.181 41.004)" fill="#5184ce"/>
        <path id="Path_352" data-name="Path 352" d="M12.5,29.234c4.22-1.12,7.954-5.938,10.307-12.7a22.679,22.679,0,0,1,3.548,1.419,31.012,31.012,0,0,1-5.228,9.56v.037a29.836,29.836,0,0,1-8.627,1.83Z" transform="translate(34.181 45.161)" fill="#5184ce"/>
        <path id="Path_353" data-name="Path 353" d="M44.9,36.58A33.592,33.592,0,0,1,12.335,70.152c3.51-.336,6.722-2.353,9.448-5.6v-.037a29.125,29.125,0,0,0,10.344-6.573,16.673,16.673,0,0,1,1.606,1.232l2.39-2.876a10.392,10.392,0,0,0-1.494-1.12,29.357,29.357,0,0,0,6.461-16.73h1.942V34.712H41.09a29.467,29.467,0,0,0-6.423-16.693q.728-.5,1.456-1.12l-2.39-2.876a11.925,11.925,0,0,1-1.606,1.2A29.125,29.125,0,0,0,21.783,8.646V8.609c-2.726-3.286-5.975-5.266-9.523-5.6A33.631,33.631,0,0,1,44.9,36.58Z" transform="translate(33.524 8.164)" fill="#5184ce"/>
        <path id="Path_354" data-name="Path 354" d="M21.108,22.77a1.844,1.844,0,0,1,2.241,1.382,1.879,1.879,0,0,1-1.419,2.241,43.833,43.833,0,0,1-7.954,1.083H13.9a1.869,1.869,0,0,1-.112-3.734,43.654,43.654,0,0,0,7.32-.971Z" transform="translate(32.892 62.044)" fill="#5184ce"/>
        <path id="Path_355" data-name="Path 355" d="M22.807,16.9C20.454,10.1,16.72,5.287,12.5,4.2V4.017a29.837,29.837,0,0,1,8.627,1.83v.037a31.228,31.228,0,0,1,5.228,9.6A27.024,27.024,0,0,1,22.807,16.9Z" transform="translate(34.181 10.925)" fill="#5184ce"/>
        <path id="Path_356" data-name="Path 356" d="M15.234,19.977v1.942H11.5V19.977c.6.037,1.232.075,1.867.075S14.637,20.014,15.234,19.977Z" transform="translate(31.446 54.567)" fill="#5184ce"/>
        <path id="Path_357" data-name="Path 357" d="M13.867,19.937v.149c-.6.037-1.232.075-1.867.075a7.746,7.746,0,0,0,1.867-.224Z" transform="translate(32.813 54.458)" fill="#5184ce"/>
        <path id="Path_358" data-name="Path 358" d="M15.234,16.072V30.711a7.892,7.892,0,0,1-3.734,0V16.072A15.61,15.61,0,0,1,13.367,16,15.61,15.61,0,0,1,15.234,16.072Z" transform="translate(31.446 43.684)" fill="#5184ce"/>
        <path id="Path_359" data-name="Path 359" d="M15.234,15.072v3.734a15.61,15.61,0,0,0-1.867-.075,15.611,15.611,0,0,0-1.867.075V15.072A15.611,15.611,0,0,1,13.367,15,15.611,15.611,0,0,1,15.234,15.072Z" transform="translate(31.446 40.95)" fill="#5184ce"/>
        <path id="Path_360" data-name="Path 360" d="M11.5,11.5h3.734v3.734H11.5Z" transform="translate(31.446 31.379)" fill="#5184ce"/>
        <path id="Path_361" data-name="Path 361" d="M15.234,8.977v9.411H11.5V8.977a15.611,15.611,0,0,0,1.867.075,15.611,15.611,0,0,0,1.867-.075Z" transform="translate(31.446 24.488)" fill="#5184ce"/>
        <path id="Path_362" data-name="Path 362" d="M15.234,7.977v3.734a15.611,15.611,0,0,1-1.867.075,15.611,15.611,0,0,1-1.867-.075V7.977a15.612,15.612,0,0,0,1.867.075A15.612,15.612,0,0,0,15.234,7.977Z" transform="translate(31.446 21.754)" fill="#5184ce"/>
        <path id="Path_363" data-name="Path 363" d="M13.32,4.044v.187a5.954,5.954,0,0,0-1.12-.224c.373,0,.747,0,1.12.037Z" transform="translate(33.36 10.898)" fill="#5184ce"/>
        <path id="Path_364" data-name="Path 364" d="M15.234,4.258v14.6a15.612,15.612,0,0,1-1.867.075A15.612,15.612,0,0,1,11.5,18.86V4.258a5.954,5.954,0,0,1,1.12-.224A5,5,0,0,1,13.367,4a5,5,0,0,1,.747.037,5.954,5.954,0,0,1,1.12.224Z" transform="translate(31.446 10.871)" fill="#5184ce"/>
        <path id="Path_365" data-name="Path 365" d="M11.5,12.5h3.734v9.411a15.611,15.611,0,0,0-1.867-.075,15.611,15.611,0,0,0-1.867.075Z" transform="translate(31.446 34.114)" fill="#5184ce"/>
        <path id="Path_366" data-name="Path 366" d="M11.5,3.5h3.734V5.439c-.373-.037-.747-.037-1.12-.037a5,5,0,0,0-.747-.037,5,5,0,0,0-.747.037c-.373,0-.747,0-1.12.037Z" transform="translate(31.446 9.504)" fill="#5184ce"/>
        <path id="Path_367" data-name="Path 367" d="M11.5,4.231V4.044c.373-.037.747-.037,1.12-.037a5.955,5.955,0,0,0-1.12.224Z" transform="translate(31.446 10.898)" fill="#5184ce"/>
        <path id="Path_368" data-name="Path 368" d="M11.5,19.937a7.745,7.745,0,0,0,1.867.224c-.635,0-1.27-.037-1.867-.075Z" transform="translate(31.446 54.458)" fill="#5184ce"/>
        <path id="Path_369" data-name="Path 369" d="M30.178,19.487c-2.726,3.249-5.938,5.266-9.448,5.6a9.785,9.785,0,0,1-1.046.037,8.441,8.441,0,0,1-.971-.037c-3.548-.336-6.8-2.315-9.523-5.6a29.836,29.836,0,0,0,8.627,1.83v1.942h3.734V21.317A29.836,29.836,0,0,0,30.178,19.487Z" transform="translate(25.13 53.227)" fill="#5184ce"/>
        <path id="Path_370" data-name="Path 370" d="M19.867,15.017v3.734A36.264,36.264,0,0,0,9.56,20.693a31.056,31.056,0,0,1-1.12-3.585A39.93,39.93,0,0,1,19.867,15.017Z" transform="translate(23.079 41.004)" fill="#5184ce"/>
        <path id="Path_371" data-name="Path 371" d="M21.071,11.5v3.734H8.037C8,14.6,8,14,8,13.364s0-1.27.037-1.867Z" transform="translate(21.876 31.379)" fill="#5184ce"/>
        <path id="Path_372" data-name="Path 372" d="M19.867,9.372v3.734A39.93,39.93,0,0,1,8.44,11.015c.336-1.232.71-2.427,1.12-3.548a36.235,36.235,0,0,0,10.307,1.9Z" transform="translate(23.079 20.359)" fill="#5184ce"/>
        <path id="Path_373" data-name="Path 373" d="M9.19,8.636c2.726-3.286,5.975-5.266,9.523-5.6A8.441,8.441,0,0,1,19.684,3a8.441,8.441,0,0,1,.971.037c3.548.336,6.8,2.315,9.523,5.6a29.837,29.837,0,0,0-8.627-1.83V4.864H17.817V6.806A29.837,29.837,0,0,0,9.19,8.636Z" transform="translate(25.13 8.136)" fill="#5184ce"/>
        <path id="Path_374" data-name="Path 374" d="M20.268,1.776a1.907,1.907,0,0,1-1.793,1.979,43.731,43.731,0,0,0-7.282.971,1.588,1.588,0,0,1-.411.075,1.908,1.908,0,0,1-1.83-1.456A1.879,1.879,0,0,1,10.372,1.1,43.389,43.389,0,0,1,18.326.02a1.866,1.866,0,0,1,1.942,1.755Z" transform="translate(24.358 -0.016)" fill="#5184ce"/>
        <path id="Path_375" data-name="Path 375" d="M13.018,5.847a29.837,29.837,0,0,1,8.627-1.83V4.2c-4.22,1.083-7.954,5.9-10.307,12.7A27.023,27.023,0,0,1,7.79,15.482a31.228,31.228,0,0,1,5.228-9.6Z" transform="translate(21.301 10.925)" fill="#5184ce"/>
        <path id="Path_376" data-name="Path 376" d="M11.338,16.537c2.353,6.759,6.087,11.577,10.307,12.7v.149a29.836,29.836,0,0,1-8.627-1.83v-.037a31.012,31.012,0,0,1-5.228-9.56,22.678,22.678,0,0,1,3.548-1.419Z" transform="translate(21.301 45.161)" fill="#5184ce"/>
        <path id="Path_377" data-name="Path 377" d="M12.131,8.506c-.411,1.12-.784,2.315-1.12,3.548A28.37,28.37,0,0,1,7.5,10.709,34.193,34.193,0,0,1,8.583,7.087,27.023,27.023,0,0,0,12.131,8.506Z" transform="translate(20.508 19.32)" fill="#5184ce"/>
        <path id="Path_378" data-name="Path 378" d="M11.01,15.577a31.055,31.055,0,0,0,1.12,3.585,22.679,22.679,0,0,0-3.548,1.419A34.894,34.894,0,0,1,7.5,16.921,28.368,28.368,0,0,1,11.01,15.577Z" transform="translate(20.508 42.536)" fill="#5184ce"/>
        <path id="Path_379" data-name="Path 379" d="M12.323,9.4a52.111,52.111,0,0,0-1.606,11.5H7.02A51.044,51.044,0,0,1,8.813,8.057,28.368,28.368,0,0,0,12.323,9.4Z" transform="translate(19.196 21.973)" fill="#5184ce"/>
        <path id="Path_380" data-name="Path 380" d="M8.813,25.343A51.044,51.044,0,0,1,7.02,12.5h3.7A52.429,52.429,0,0,0,12.323,24a28.37,28.37,0,0,0-3.51,1.344Z" transform="translate(19.196 34.114)" fill="#5184ce"/>
        <path id="Path_381" data-name="Path 381" d="M7,13.364A15.3,15.3,0,0,1,7.075,11.5h3.7c-.037.6-.037,1.232-.037,1.867s0,1.232.037,1.867h-3.7A15.3,15.3,0,0,1,7,13.364Z" transform="translate(19.141 31.379)" fill="#5184ce"/>
        <path id="Path_382" data-name="Path 382" d="M13.4,9.3a34.191,34.191,0,0,0-1.083,3.622A31.927,31.927,0,0,1,5.74,9.078a22.62,22.62,0,0,1,2.539-2.8A25.992,25.992,0,0,0,13.4,9.3Z" transform="translate(15.696 17.105)" fill="#5184ce"/>
        <path id="Path_383" data-name="Path 383" d="M12.285,15.937a34.894,34.894,0,0,0,1.083,3.66,27.8,27.8,0,0,0-5.116,2.988,29.3,29.3,0,0,1-2.5-2.763A30.21,30.21,0,0,1,12.285,15.937Z" transform="translate(15.723 43.52)" fill="#5184ce"/>
        <path id="Path_384" data-name="Path 384" d="M18,26.72a1.876,1.876,0,0,1-1.83,1.456,1.675,1.675,0,0,1-.411-.037,46.458,46.458,0,0,1-7.618-2.465A1.909,1.909,0,0,1,7.13,23.21a1.879,1.879,0,0,1,2.465-.971,41.131,41.131,0,0,0,6.983,2.241A1.879,1.879,0,0,1,18,26.72Z" transform="translate(19.123 60.334)" fill="#5184ce"/>
        <path id="Path_385" data-name="Path 385" d="M15.2,13.364a15.3,15.3,0,0,0,.075,1.867H4.075C4.037,14.634,4,14,4,13.364s.037-1.27.075-1.867h11.2A15.3,15.3,0,0,0,15.2,13.364Z" transform="translate(10.938 31.379)" fill="#5184ce"/>
        <path id="Path_386" data-name="Path 386" d="M9.346,7.152a22.62,22.62,0,0,0-2.539,2.8q-.728-.5-1.456-1.12L7.74,5.957A11.925,11.925,0,0,0,9.346,7.152Z" transform="translate(14.629 16.23)" fill="#5184ce"/>
        <path id="Path_387" data-name="Path 387" d="M9.346,19.74A16.674,16.674,0,0,0,7.74,20.973L5.35,18.1a10.393,10.393,0,0,1,1.494-1.12,29.3,29.3,0,0,0,2.5,2.763Z" transform="translate(14.629 46.364)" fill="#5184ce"/>
        <path id="Path_388" data-name="Path 388" d="M14.2,2.357A1.858,1.858,0,0,1,13.457,4.9,41.517,41.517,0,0,0,7.333,8.967a1.9,1.9,0,0,1-1.158.411,1.785,1.785,0,0,1-1.456-.71,1.851,1.851,0,0,1,.3-2.614A42.417,42.417,0,0,1,11.7,1.61a1.857,1.857,0,0,1,2.5.747Z" transform="translate(11.788 3.735)" fill="#5184ce"/>
        <path id="Path_389" data-name="Path 389" d="M3.5,15.231V11.5H5.442c-.037.6-.075,1.232-.075,1.867s.037,1.27.075,1.867Z" transform="translate(9.571 31.379)" fill="#5184ce"/>
        <path id="Path_390" data-name="Path 390" d="M9.131,27.743A48.224,48.224,0,0,1,3.3,22.179a1.841,1.841,0,0,1,.187-2.614,1.807,1.807,0,0,1,2.614.149,42.809,42.809,0,0,0,5.34,5.079,1.851,1.851,0,0,1,.3,2.614,1.737,1.737,0,0,1-1.456.71,1.866,1.866,0,0,1-1.158-.373Z" transform="translate(7.787 52.104)" fill="#5184ce"/>
        <path id="Path_391" data-name="Path 391" d="M14.166,59.173a16.673,16.673,0,0,1,1.606-1.232,29.125,29.125,0,0,0,10.344,6.573v.037c2.726,3.286,5.975,5.266,9.523,5.6a33.586,33.586,0,0,1,0-67.145c-3.548.336-6.8,2.315-9.523,5.6v.037a29.125,29.125,0,0,0-10.344,6.573,11.925,11.925,0,0,1-1.606-1.2L11.776,16.9q.728.616,1.456,1.12A29.467,29.467,0,0,0,6.809,34.712H4.867v3.734H6.809a29.357,29.357,0,0,0,6.461,16.73,10.392,10.392,0,0,0-1.494,1.12Z" transform="translate(8.203 8.164)" fill="#5184ce"/>
        <path id="Path_392" data-name="Path 392" d="M8.436,7.728A41.243,41.243,0,0,0,4.7,14.039a1.934,1.934,0,0,1-1.718,1.083,2.007,2.007,0,0,1-.784-.187,1.882,1.882,0,0,1-.9-2.5A47.67,47.67,0,0,1,5.448,5.524a1.849,1.849,0,0,1,2.577-.411,1.829,1.829,0,0,1,.411,2.614Z" transform="translate(3.066 12.966)" fill="#5184ce"/>
        <path id="Path_393" data-name="Path 393" d="M3.3,24.465A44.194,44.194,0,0,1,.5,16.959a1.871,1.871,0,0,1,1.27-2.315,1.893,1.893,0,0,1,2.315,1.307,41.154,41.154,0,0,0,2.577,6.871,1.867,1.867,0,0,1-.859,2.5,1.566,1.566,0,0,1-.822.187A1.884,1.884,0,0,1,3.3,24.465Z" transform="translate(1.147 39.809)" fill="#5184ce"/>
        <path id="Path_394" data-name="Path 394" d="M0,18.687a42.03,42.03,0,0,1,.71-7.656A1.843,1.843,0,0,1,2.876,9.5a1.863,1.863,0,0,1,1.494,2.166,42.819,42.819,0,0,0-.635,7.245,1.905,1.905,0,0,1-1.867,1.9A1.81,1.81,0,0,1,0,19.023v-.336Z" transform="translate(0 25.833)" fill="#5184ce"/>
      </g>
      <g id="Rectangle_250" data-name="Rectangle 250" transform="translate(17.747 37.513)" fill="#fff" stroke="#5184ce" stroke-width="2">
        <rect width="56" height="18" rx="9" stroke="none"/>
        <rect x="1" y="1" width="54" height="16" rx="8" fill="none"/>
      </g>
      <text id="_.भारत" data-name=".भारत" transform="translate(28.747 49.513)" fill="#5184ce" font-size="11" font-family="Poppins-Medium, Poppins" font-weight="500"><tspan x="0" y="0">.भारत</tspan></text>
    </g>
  </g>
</svg>
