<svg width="123" height="123" viewBox="0 0 123 123" fill="none" xmlns="http://www.w3.org/2000/svg">
<g filter="url(#filter0_d_66_2)">
<path d="M61.5 114C90.4949 114 114 90.4949 114 61.5C114 32.5051 90.4949 9 61.5 9C32.5051 9 9 32.5051 9 61.5C9 90.4949 32.5051 114 61.5 114Z" fill="white"/>
</g>
<path d="M85.858 73.8527C85.3714 73.8527 84.9092 73.5655 84.7095 73.0883C84.4442 72.4542 84.7429 71.7249 85.377 71.4596C89.2551 69.8364 91.7607 66.066 91.7607 61.8541C91.7607 56.1087 87.0866 51.4343 81.3412 51.4343C80.5765 51.4343 79.808 51.5243 78.9922 51.7094C78.5724 51.8063 78.1313 51.6764 77.8292 51.368C77.5267 51.0607 77.4052 50.6182 77.508 50.1994C77.758 49.1795 77.8848 48.1185 77.8848 47.0461C77.8848 39.5674 71.8004 33.4831 64.3214 33.4831C58.6305 33.4831 53.5043 37.0802 51.5658 42.4342C51.4356 42.7937 51.1473 43.0736 50.7844 43.193C50.4211 43.3125 50.0239 43.258 49.7051 43.0461C48.6886 42.3686 47.5082 42.0105 46.2916 42.0105C42.8956 42.0105 40.1326 44.7735 40.1326 48.1699C40.1326 48.7596 40.2205 49.3527 40.3938 49.9337C40.4983 50.2845 40.4431 50.6634 40.2431 50.9697C40.043 51.2763 39.7183 51.4791 39.3551 51.5243C34.1584 52.1734 30.2393 56.614 30.2393 61.8541C30.2393 66.066 32.7449 69.8364 36.623 71.4596C37.2571 71.7249 37.5558 72.4542 37.2905 73.0883C37.0248 73.7228 36.2948 74.0197 35.6617 73.7558C30.8557 71.744 27.75 67.0724 27.75 61.8541C27.75 55.8163 31.95 50.6346 37.7176 49.2913C37.6683 48.9183 37.6433 48.5439 37.6433 48.1699C37.6433 43.4011 41.5228 39.5212 46.2916 39.5212C47.5002 39.5212 48.6827 39.7723 49.7763 40.2557C52.3937 34.6617 58.0696 30.9938 64.3214 30.9938C73.1729 30.9938 80.3741 38.195 80.3741 47.0461C80.3741 47.7 80.3341 48.3508 80.255 48.994C80.6213 48.9614 80.9839 48.945 81.3412 48.945C88.4591 48.945 94.25 54.7359 94.25 61.8541C94.25 67.0724 91.1443 71.744 86.3383 73.7558C86.1813 73.8214 86.0184 73.8527 85.858 73.8527Z" fill="#5184CE"/>
<path d="M77.5149 91.0062H44.4851C42.3347 91.0062 40.5854 89.2569 40.5854 87.1069V67.2828C40.5854 65.1324 42.3347 63.3832 44.4851 63.3832H77.5149C79.6652 63.3832 81.4145 65.1324 81.4145 67.2828V87.1069C81.4145 89.2569 79.6652 91.0062 77.5149 91.0062ZM44.4851 65.8725C43.7075 65.8725 43.0748 66.5052 43.0748 67.2828V87.1069C43.0748 87.8845 43.7075 88.5169 44.4851 88.5169H77.5149C78.2924 88.5169 78.9252 87.8845 78.9252 87.1069V67.2828C78.9252 66.5052 78.2924 65.8725 77.5149 65.8725H44.4851Z" fill="#5184CE"/>
<path d="M61.0001 78.2854C60.2858 78.2854 59.5718 78.1069 58.9348 77.7502L57.3419 76.858C57.3051 76.8376 57.2696 76.8153 57.2353 76.791L42.2574 66.2858C41.6945 65.8913 41.5583 65.1151 41.9532 64.5522C42.348 63.9896 43.1239 63.8531 43.6868 64.248L58.6129 74.7171L60.151 75.5783C60.6747 75.8714 61.3255 75.8714 61.8492 75.5783L63.3873 74.7171L78.3134 64.248C78.876 63.8531 79.6525 63.9896 80.047 64.5522C80.4419 65.1151 80.3058 65.8913 79.7428 66.2858L64.765 76.791C64.7306 76.8153 64.6952 76.8376 64.6584 76.858L63.0654 77.7502C62.4285 78.1069 61.7145 78.2854 61.0001 78.2854Z" fill="#5184CE"/>
<path d="M42.7041 90.1328C42.3541 90.1328 42.0061 89.9859 41.7599 89.6998C41.3115 89.1788 41.3706 88.393 41.8918 87.9446L57.1381 74.8285C57.6591 74.3805 58.445 74.4396 58.8933 74.9605C59.3416 75.4814 59.2826 76.2673 58.7613 76.7157L43.515 89.8317C43.2803 90.0339 42.9913 90.1328 42.7041 90.1328Z" fill="#5184CE"/>
<path d="M79.2957 90.1328C79.0085 90.1328 78.7196 90.0339 78.4848 89.8317L63.2385 76.7157C62.7173 76.2673 62.6582 75.4814 63.1066 74.9605C63.5552 74.4396 64.3408 74.3805 64.8617 74.8285L80.108 87.9446C80.6293 88.393 80.6883 89.1788 80.24 89.6998C79.9938 89.9859 79.6458 90.1328 79.2957 90.1328Z" fill="#5184CE"/>
<defs>
<filter id="filter0_d_66_2" x="3" y="3" width="117" height="117" filterUnits="userSpaceOnUse" color-interpolation-filters="sRGB">
<feFlood flood-opacity="0" result="BackgroundImageFix"/>
<feColorMatrix in="SourceAlpha" type="matrix" values="0 0 0 0 0 0 0 0 0 0 0 0 0 0 0 0 0 0 127 0" result="hardAlpha"/>
<feOffset/>
<feGaussianBlur stdDeviation="3"/>
<feColorMatrix type="matrix" values="0 0 0 0 0 0 0 0 0 0 0 0 0 0 0 0 0 0 0.361 0"/>
<feBlend mode="normal" in2="BackgroundImageFix" result="effect1_dropShadow_66_2"/>
<feBlend mode="normal" in="SourceGraphic" in2="effect1_dropShadow_66_2" result="shape"/>
</filter>
</defs>
</svg>
