<svg width="322" height="554" viewBox="0 0 322 554" fill="none" xmlns="http://www.w3.org/2000/svg">
<rect y="0.156189" width="322" height="553.844" rx="161" fill="url(#paint0_linear_1_1543)"/>
<path opacity="0.1" d="M33.6936 396.753C33.6936 402.676 90.6828 407.476 161 407.476C231.317 407.476 288.306 402.676 288.306 396.753C288.306 390.829 231.317 385.978 161 385.978C90.6828 385.978 33.6936 390.829 33.6936 396.753Z" fill="#1D1D1B"/>
<path d="M124.437 397.672H128.88V306.775H124.437V397.672Z" fill="#67594A"/>
<path d="M116.675 397.672H124.437V306.775H116.675V397.672Z" fill="#4F3E35"/>
<path d="M193.988 391.34H195.776V383.169H193.988V391.34Z" fill="#575756"/>
<path d="M190.873 392.208C190.873 394.353 192.661 396.14 194.805 396.14C197.001 396.14 198.737 394.353 198.737 392.208C198.737 390.012 197.001 388.276 194.805 388.276C192.661 388.276 190.873 390.012 190.873 392.208Z" fill="#3C3C3B"/>
<path d="M174.022 391.34H175.86V383.169H174.022V391.34Z" fill="#575756"/>
<path d="M170.958 392.208C170.958 394.353 172.694 396.14 174.89 396.14C177.035 396.14 178.822 394.353 178.822 392.208C178.822 390.012 177.035 388.276 174.89 388.276C172.694 388.276 170.958 390.012 170.958 392.208Z" fill="#3C3C3B"/>
<path d="M146.293 391.34H148.131V383.169H146.293V391.34Z" fill="#575756"/>
<path d="M143.229 392.208C143.229 394.353 144.965 396.14 147.161 396.14C149.306 396.14 151.093 394.353 151.093 392.208C151.093 390.012 149.306 388.276 147.161 388.276C144.965 388.276 143.229 390.012 143.229 392.208Z" fill="#3C3C3B"/>
<path d="M125.458 391.34H127.297V383.169H125.458V391.34Z" fill="#575756"/>
<path d="M122.394 392.208C122.394 394.353 124.131 396.14 126.326 396.14C128.471 396.14 130.258 394.353 130.258 392.208C130.258 390.012 128.471 388.276 126.326 388.276C124.131 388.276 122.394 390.012 122.394 392.208Z" fill="#3C3C3B"/>
<path d="M125.56 381.842L160.745 376.735V387.867H125.56V381.842Z" fill="#575756"/>
<path d="M160.745 376.735L196.439 381.842V387.867H160.745V376.735Z" fill="#3C3C3B"/>
<path d="M156.711 350.64H165.29V334.861H156.711V350.64Z" fill="#3C3C3B"/>
<path d="M155.281 363.356H166.719V346.351H155.281V363.356Z" fill="#575756"/>
<path d="M152.217 378.114H169.783V361.875H152.217V378.114Z" fill="#706F6F"/>
<path d="M193.222 387.867H196.439V381.842H193.222V387.867Z" fill="#575756"/>
<path d="M173.256 387.867H176.473V381.842H173.256V387.867Z" fill="#706F6F"/>
<path d="M145.527 387.867H148.744V381.842H145.527V387.867Z" fill="#706F6F"/>
<path d="M161 378.114H165.289L176.473 381.842H173.256L161 378.114Z" fill="#878787"/>
<path d="M161 378.114H156.71L145.527 381.842H148.744L161 378.114Z" fill="#878787"/>
<path d="M148.744 381.842L160.949 378.114V387.867H148.744V381.842Z" fill="#575756"/>
<path d="M161 378.114L173.256 381.842V387.867H160.949V378.114H161Z" fill="#3C3C3B"/>
<path d="M151.757 378.114H170.243V375.714H151.757V378.114Z" fill="#3C3C3B"/>
<path d="M137.255 331.542L186.788 330.316L215.283 232.015H159.519L137.255 331.542Z" fill="#3C3C3B"/>
<path d="M128.982 322.197V337.67H190.873C193.835 337.67 196.235 335.27 196.235 332.359V329.193C196.235 325.312 193.069 322.197 189.188 322.197H128.982Z" fill="#3C3C3B"/>
<path d="M171.315 327.508V330.674C171.315 334.555 174.43 337.67 178.311 337.67H190.873C193.835 337.67 196.235 335.27 196.235 332.359V329.193C196.235 325.312 193.069 322.197 189.188 322.197H176.626C173.715 322.197 171.315 324.597 171.315 327.508Z" fill="#575756"/>
<path d="M140.523 242.637C143.689 244.118 145.016 247.846 143.587 251.012L130.054 280.17C128.573 283.336 124.846 284.715 121.68 283.285C118.513 281.804 117.186 278.076 118.616 274.91L132.148 245.701C133.629 242.535 137.357 241.156 140.523 242.637Z" fill="white"/>
<path d="M97.168 276.136L124.488 271.54C127.961 271.795 130.616 274.808 130.361 278.281C130.105 281.753 127.092 284.357 123.62 284.102L97.6276 284.868C98.9553 280.681 99.1085 279.71 97.168 276.136Z" fill="white"/>
<path d="M130.667 396.497C132.556 396.497 134.497 396.497 135.927 395.68L135.825 394.455L130.259 394.097L130.667 396.497Z" fill="#3C3C3B"/>
<path d="M135.825 394.455C126.122 397.621 118.769 398.387 114.581 397.11L114.377 395.527L135.569 392.565L135.825 394.455Z" fill="#3C3C3B"/>
<path d="M135.672 393.127C132.659 395.221 116.216 397.314 114.377 395.527C114.224 394.506 115.858 393.229 118.922 391.799C119.194 391.663 119.501 391.527 119.841 391.391C120.079 391.289 120.318 391.187 120.556 391.084C120.863 390.948 121.186 390.812 121.526 390.676C121.765 390.574 122.003 390.489 122.241 390.421C122.582 390.284 122.922 390.148 123.263 390.012C124.114 389.672 125.016 389.348 125.969 389.042C134.14 386.131 135.416 391.442 135.672 393.127Z" fill="#634E42"/>
<path d="M125.356 391.748C125.254 391.901 125.152 391.953 124.999 391.953C124.897 391.987 124.811 391.97 124.743 391.901L122.241 390.421C122.582 390.284 122.922 390.148 123.262 390.012L125.203 391.136C125.407 391.289 125.458 391.544 125.356 391.748Z" fill="#3C3C3B"/>
<path d="M123.569 392.514C123.518 392.616 123.365 392.719 123.262 392.719C123.16 392.719 123.058 392.684 122.956 392.616C122.548 392.31 122.037 392.004 121.577 391.697C121.22 391.493 120.862 391.289 120.556 391.084C120.862 390.948 121.186 390.812 121.526 390.676C121.696 390.778 121.867 390.88 122.037 390.982C122.497 391.289 123.007 391.595 123.467 391.901C123.671 392.055 123.722 392.31 123.569 392.514Z" fill="#3C3C3B"/>
<path d="M121.833 393.229C121.782 393.382 121.628 393.433 121.526 393.433C121.424 393.433 121.322 393.416 121.22 393.382L118.922 391.799C119.194 391.663 119.501 391.527 119.841 391.391L121.731 392.616C121.935 392.77 121.986 393.025 121.833 393.229Z" fill="#3C3C3B"/>
<path d="M123.263 365.603H136.131C136.369 372.411 136.591 379.22 136.795 386.029C136.795 386.591 137.255 390.063 137.255 390.625C129.799 391.748 125.152 389.961 122.343 388.531C122.343 388.463 122.343 388.378 122.343 388.276C122.65 380.718 122.956 373.16 123.263 365.603Z" fill="#3C3C3B"/>
<path d="M105.185 396.14C107.075 396.242 109.066 396.395 110.496 395.629V394.404L104.93 393.689L105.185 396.14Z" fill="#3C3C3B"/>
<path d="M110.496 394.404C100.589 397.008 93.1849 397.365 89.0997 395.834L88.9976 394.251L110.343 392.463L110.496 394.404Z" fill="#3C3C3B"/>
<path d="M110.394 393.076C107.228 395.016 90.7338 396.14 88.9976 394.251C88.8954 393.229 90.6317 392.055 93.7467 390.829C94.0531 390.693 94.3595 390.557 94.6659 390.421C94.9042 390.353 95.1595 390.267 95.4318 390.165C95.7382 390.063 96.0616 389.944 96.4021 389.808C96.6404 389.74 96.8787 389.655 97.117 389.552H97.1681C97.4745 389.45 97.8149 389.348 98.1894 389.246C99.0405 388.974 99.9426 388.701 100.896 388.429C109.22 385.978 110.241 391.34 110.394 393.076Z" fill="#634E42"/>
<path d="M100.13 391.136C100.079 391.238 99.9257 391.289 99.7725 391.289C99.7044 391.289 99.6363 391.272 99.5682 391.238L97.1681 389.552C97.4745 389.45 97.8149 389.348 98.1894 389.246L100.028 390.523C100.232 390.625 100.283 390.931 100.13 391.136Z" fill="#3C3C3B"/>
<path d="M98.3425 391.799C98.2914 391.901 98.1382 391.953 98.0361 391.953C97.9339 391.953 97.8318 391.918 97.7297 391.85C97.3211 391.493 96.8615 391.187 96.3509 390.829C96.0445 390.625 95.7381 390.421 95.4317 390.165C95.7381 390.063 96.0615 389.944 96.402 389.808C96.5722 389.91 96.7254 390.012 96.8615 390.114C97.3722 390.472 97.8318 390.829 98.2914 391.187C98.4957 391.34 98.4957 391.595 98.3425 391.799Z" fill="#3C3C3B"/>
<path d="M96.5553 392.412C96.5043 392.514 96.3511 392.565 96.1979 392.565C96.1298 392.565 96.0447 392.531 95.9425 392.463L93.7467 390.829C94.0531 390.693 94.3595 390.557 94.6659 390.421L96.5043 391.799C96.6575 391.902 96.7085 392.208 96.5553 392.412Z" fill="#3C3C3B"/>
<path d="M99.8746 365.603H112.845C112.743 371.969 112.607 378.335 112.437 384.701C112.386 385.314 112.692 388.786 112.641 389.348C105.951 390.369 101.151 388.786 97.8319 386.437C97.8319 386.335 97.8319 386.25 97.8319 386.182C98.5128 379.305 99.1937 372.445 99.8746 365.603Z" fill="#3C3C3B"/>
<path d="M156.506 254.893C155.791 255.131 155.076 255.335 154.361 255.505C148.795 256.986 143.076 257.293 137.357 257.446C137.084 257.446 136.829 257.446 136.591 257.446C136.284 257.48 135.978 257.497 135.671 257.497C135.433 256.85 135.178 256.237 134.905 255.659C132.863 251.471 129.441 247.948 127.501 243.709C123.109 234.058 127.144 225.581 124.692 215.266C123.824 211.64 126.071 208.168 124.233 201.325C121.271 190.039 124.182 186.669 130.003 182.175C133.629 179.316 138.072 177.579 142.667 176.864H142.77C147.365 175.945 152.115 176.047 156.506 177.477C163.502 179.724 167.434 181.869 168.456 193.512C169.068 200.61 172.388 203.061 172.796 206.789C174.073 217.257 185.052 223.181 184.235 233.751C183.877 238.398 181.835 242.892 181.375 247.488C181.341 248.135 181.324 248.799 181.324 249.48C181.018 249.582 180.728 249.684 180.456 249.786C180.184 249.854 179.928 249.939 179.69 250.041C174.277 251.829 164.472 254.229 158.753 254.739C158.004 254.807 157.255 254.859 156.506 254.893Z" fill="#EDEDED"/>
<path d="M167.996 206.482C166.158 202.653 165.8 197.903 162.583 195.146C161.051 193.767 159.059 193.103 157.119 192.593C152.268 191.418 147.161 191.316 142.412 192.746C137.663 194.227 133.322 197.24 130.769 201.529C128.216 205.768 127.552 211.18 129.441 215.776C130.259 217.819 129.288 216.9 130.207 218.84C131.127 221.496 133.68 225.938 133.578 227.981C133.271 233.241 133.731 238.347 137.816 241.667C136.437 239.522 135.008 237.071 135.263 234.466C135.416 233.19 135.876 232.015 136.233 230.841C136.744 231.402 137.357 231.862 138.02 232.322C137.816 233.905 137.663 235.488 138.276 236.969C138.684 237.939 139.45 238.756 140.114 239.675C140.778 240.543 141.34 241.616 141.187 242.688C141.697 241.513 141.595 240.135 141.34 238.858C141.084 237.581 140.625 236.356 140.472 235.079C140.438 234.705 140.421 234.33 140.421 233.956C141.033 234.415 141.595 234.926 142.004 235.59C143.791 238.092 143.28 241.82 145.323 244.118C146.855 245.803 149.357 246.211 151.604 246.263C155.842 246.263 160.081 245.394 163.911 243.658C162.94 240.288 162.021 236.662 162.94 233.343C163.043 233.445 163.094 233.547 163.196 233.649C164.013 234.569 165.085 235.232 166.055 236.1C166.975 236.918 167.741 238.041 167.792 239.267C168.507 237.479 167.587 235.437 166.413 233.854C165.698 232.832 164.83 231.862 164.115 230.79C164.626 230.075 165.136 229.36 165.647 228.645C166.209 229.564 166.821 230.483 167.383 231.351C168.762 233.445 169.936 235.896 169.63 238.347C170.651 234.926 170.294 232.168 169.068 228.798C168.609 227.521 167.996 226.551 167.434 225.275C168.609 222.619 168.915 217.819 168.456 214.959C168.2 213.683 169.324 211.742 169.528 210.466C169.783 208.423 168.864 208.321 167.996 206.482Z" fill="#DADADA"/>
<path d="M159.57 247.948H146.344V227.675H159.57V247.948Z" fill="#DEAB7D"/>
<path d="M149.459 304.528C150.583 327.916 152.574 351.764 154.157 377.348C151.553 379.288 150.48 377.961 148.285 378.42C147.519 378.573 146.702 378.931 145.629 379.646C145.459 379.748 145.306 379.833 145.17 379.901C143.536 380.82 141.493 381.178 139.757 380.769C139.11 380.599 138.497 380.48 137.918 380.412C137.237 380.31 136.574 380.242 135.927 380.207C134.088 380.156 132.352 380.361 130.667 380.667C129.084 380.973 127.501 381.331 125.918 381.637C125.152 381.79 124.437 381.893 123.671 381.995C120.096 382.454 118.258 380.973 115.501 380.514C114.377 380.361 113.049 380.31 111.415 380.718C110.905 380.82 110.394 380.973 109.883 381.127C107.483 381.944 104.521 381.791 102.223 380.565C101.781 380.327 101.355 380.071 100.947 379.799C99.3638 378.522 98.0361 378.216 96.7595 378.165C94.6147 378.165 92.6742 378.931 90.3763 377.348C92.47 358.913 94.2062 339.61 95.2275 318.673C95.585 310.758 102.121 304.528 110.037 304.528H149.459Z" fill="white"/>
<path d="M131.28 288.443V287.83C131.28 286.298 131.28 284.732 131.28 283.132C131.28 280.579 131.28 277.991 131.28 275.37C131.246 273.123 131.212 270.859 131.178 268.578C131.11 263.778 130.99 258.876 130.82 253.871C130.922 250.246 132.25 246.926 134.497 244.322C134.871 243.879 135.28 243.454 135.723 243.045C137.51 241.36 146.14 237.479 146.14 237.479C147.825 238.194 158.549 237.02 160.234 236.356L172.592 239.471C179.588 241.258 182.55 242.228 183.469 252.697C183.826 257.037 183.826 263.114 183.673 271.591C183.52 276.647 183.724 281.702 183.826 286.758C183.877 289.515 184.133 295.132 184.388 301.26C184.592 306.724 182.601 312.035 178.822 316.018C174.992 319.95 169.783 322.197 164.268 322.197C148.285 322.197 128.982 322.197 128.982 322.197C129.186 316.171 131.229 294.775 131.28 288.443Z" fill="white"/>
<path d="M159.57 233.905C155.23 235.232 150.838 236.1 146.344 234.773L146.14 237.479C149.051 239.522 156.608 238.96 160.336 236.815L159.57 233.905Z" fill="#F6F6F6"/>
<path d="M138.378 285.328L163.604 286.4C166.873 286.502 169.783 284.562 170.907 281.498L180.762 254.229L169.783 248.612L157.732 269.14C157.068 270.263 155.996 271.08 154.77 271.387L135.518 276.136L138.378 285.328Z" fill="#EDEDED"/>
<path d="M153.34 256.782H149.97V236.815H153.34V256.782Z" fill="#F6F6F6"/>
<path d="M102.428 379.901C102.36 380.139 102.292 380.361 102.224 380.565C101.781 380.327 101.372 380.071 100.998 379.799C99.3639 378.522 98.0362 378.216 96.7595 378.165C97.8319 357.79 101.56 337.517 100.794 317.09C101.866 329.142 102.938 341.244 101.968 353.347C101.611 358.198 100.896 363.049 101.049 367.952C101.151 370.76 101.509 373.569 102.121 376.327C102.326 377.501 102.632 378.727 102.428 379.901Z" fill="#EDEDED"/>
<path d="M115.654 378.318C115.654 379.033 115.603 379.799 115.501 380.514C114.377 380.361 113.049 380.361 111.415 380.718C108.658 366.113 109.015 350.998 108.658 336.087C108.862 347.474 110.598 358.811 113.764 369.688C114.632 372.548 115.552 375.356 115.654 378.318Z" fill="#EDEDED"/>
<path d="M130.718 380.667C129.084 380.973 127.501 381.331 125.918 381.637C127.348 375.816 127.705 369.688 126.888 363.713C126.224 358.862 124.846 354.113 124.539 349.211C124.233 345.125 124.795 341.04 125.254 336.955C126.207 329.329 127.161 321.703 128.114 314.078C128.182 319.388 128.233 324.716 128.267 330.061C128.318 335.117 128.369 340.172 128.931 345.177C130.207 357.075 134.242 369.382 130.718 380.667Z" fill="#EDEDED"/>
<path d="M120.505 352.99C120.045 349.977 120.25 346.913 120.454 343.9C120.726 339.338 120.999 334.793 121.271 330.265C119.075 338.538 116.828 347.117 118.513 355.543C119.892 362.181 123.62 368.207 124.743 374.948C126.173 367.543 121.526 360.445 120.505 352.99Z" fill="#EDEDED"/>
<path d="M139.144 368.667C138.735 372.548 137.816 376.531 137.918 380.412C137.238 380.31 136.574 380.242 135.927 380.207C135.314 377.756 135.671 375.152 135.876 371.475C136.182 365.245 137.714 359.117 137.969 352.887C139.348 358.045 139.706 363.407 139.144 368.667Z" fill="#EDEDED"/>
<path d="M148.285 378.42C147.519 378.573 146.702 378.931 145.629 379.646C145.459 379.748 145.306 379.833 145.17 379.901C144.965 376.531 145.374 372.956 145.323 369.586C145.272 356.615 138.633 343.9 141.033 331.133C141.646 340.427 144.608 349.364 146.599 358.454C148.08 364.99 149 371.833 148.285 378.42Z" fill="#EDEDED"/>
<path d="M133.578 269.14C133.016 282.366 139.91 302.996 151.093 310.094C142.412 300.698 136.335 281.6 133.578 269.14Z" fill="#EDEDED"/>
<path d="M141.646 313.363C138.633 304.426 135.62 288.187 132.608 279.251C132.097 288.902 135.365 306.06 141.646 313.363Z" fill="#EDEDED"/>
<path d="M179.179 242.637C182.345 244.118 183.724 247.846 182.243 251.012L168.711 280.17C167.281 283.336 163.502 284.715 160.387 283.285C157.221 281.804 155.842 278.076 157.323 274.91L170.805 245.701C172.286 242.535 176.013 241.156 179.179 242.637Z" fill="white"/>
<path d="M135.876 276.136L163.196 271.54C166.668 271.795 169.273 274.808 169.017 278.281C168.762 281.753 165.8 284.357 162.328 284.102L136.335 284.868C137.663 280.681 137.816 279.71 135.876 276.136Z" fill="white"/>
<path d="M116.42 280.527L127.603 275.217L136.284 276.187C137.663 278.127 137.663 280.579 137.254 283.183H120.199L116.42 280.527Z" fill="#FFC994"/>
<path d="M127.603 275.217C128.42 275.472 128.982 277.004 128.063 277.821C129.339 277.974 129.441 279.813 128.676 280.374C129.595 280.681 129.901 282.213 129.033 282.519C129.799 282.928 130.054 283.694 129.441 284.46L120.199 283.183L116.42 280.527L127.603 275.217Z" fill="#F5C08C"/>
<path d="M85.9336 280.834H124.795C125.918 280.834 126.735 279.659 126.531 278.23L123.007 249.378C122.803 247.948 121.731 246.824 120.607 246.824H81.7463C80.6228 246.824 79.8058 247.948 80.01 249.378L83.5846 278.23C83.7378 279.659 84.8102 280.834 85.9336 280.834Z" fill="#C4A9A9"/>
<path d="M85.5762 282.519H123.007L122.599 280.528H85.1676L85.5762 282.519Z" fill="#3C3C3B"/>
<path d="M84.4527 280.834H123.314C124.488 280.834 125.254 279.659 125.05 278.23L121.526 249.378C121.322 247.948 120.25 246.824 119.126 246.824H80.2653C79.1419 246.824 78.3759 247.948 78.5291 249.378L82.1037 278.23C82.2569 279.659 83.3293 280.834 84.4527 280.834Z" fill="#968282"/>
<path d="M96.2489 282.519V283.898C96.2489 284.511 96.4021 285.123 96.6574 285.583C97.0149 286.196 97.5766 286.604 98.1894 286.604H138.48C139.093 286.604 139.655 286.196 140.012 285.583C140.267 285.123 140.421 284.511 140.421 283.898V282.519H96.2489Z" fill="#C4A9A9"/>
<path d="M96.2489 283.898H140.421V282.519H96.2489V283.898Z" fill="#3C3C3B"/>
<path d="M83.4314 282.519V283.898C83.4314 284.511 83.5846 285.123 83.84 285.583C84.1974 286.196 84.7591 286.604 85.3719 286.604H125.663C126.275 286.604 126.837 286.196 127.195 285.583C127.45 285.123 127.603 284.511 127.603 283.898V282.519H83.4314Z" fill="#968282"/>
<path d="M83.4314 283.898H127.603V282.519H83.4314V283.898Z" fill="#2E2E27"/>
<path d="M98.9554 263.829C99.2107 265.77 100.692 267.353 102.224 267.353C103.807 267.353 104.879 265.77 104.624 263.829C104.419 261.838 102.939 260.254 101.355 260.254C99.7724 260.254 98.7001 261.838 98.9554 263.829Z" fill="white"/>
<path d="M167.23 201.733C167.196 201.733 167.145 201.733 167.077 201.733C165.851 201.733 164.779 202.448 163.962 203.521L166.362 213.376C166.498 213.376 166.634 213.376 166.77 213.376C169.17 213.478 171.162 210.976 171.315 207.708C171.417 204.491 169.63 201.835 167.23 201.733Z" fill="#FFC994"/>
<path d="M131.229 209.751C130.003 209.138 128.675 209.036 127.603 209.597C127.569 209.597 127.518 209.614 127.45 209.649C125.407 210.823 124.999 214.04 126.633 216.849C128.216 219.657 131.178 220.985 133.22 219.811C133.356 219.742 133.476 219.674 133.578 219.606L131.229 209.751Z" fill="#FFC994"/>
<path d="M125.612 215.623C125.441 215.351 125.288 215.061 125.152 214.755C125.305 215.521 125.561 216.287 126.02 217.053C127.603 219.862 130.565 221.189 132.608 220.015C132.744 219.947 132.863 219.862 132.965 219.759L132.659 218.483C130.31 219.606 127.195 218.33 125.612 215.623Z" fill="#F2BB88"/>
<path d="M131.535 217.155C131.382 216.951 131.331 216.696 131.28 216.44C131.229 216.134 131.178 215.827 131.178 215.47C131.127 215.164 131.127 214.755 131.076 214.347C131.076 213.938 131.025 213.53 130.871 213.07C130.718 212.661 130.463 212.253 130.156 211.895C129.85 211.589 129.39 211.334 128.931 211.283C128.063 211.129 127.297 211.589 126.99 212.151C126.633 212.712 126.633 213.274 126.735 213.581C126.837 213.887 126.99 214.04 127.041 213.989C127.093 213.989 127.041 213.785 127.093 213.529C127.093 213.274 127.195 212.866 127.45 212.508C127.756 212.202 128.267 211.946 128.829 212.049C129.339 212.151 129.799 212.661 130.054 213.376C130.259 213.938 130.259 214.551 130.31 215.164C130.31 215.164 130.293 215.164 130.259 215.164C129.952 215.113 129.39 215.266 129.084 215.776C128.829 216.338 128.931 216.849 129.135 217.104C129.39 217.41 129.595 217.41 129.697 217.359C129.748 217.257 129.697 217.053 129.697 216.849C129.697 216.644 129.748 216.44 129.85 216.236C129.952 216.032 130.156 215.879 130.31 215.776C130.344 215.776 130.378 215.759 130.412 215.725C130.463 216.032 130.514 216.338 130.565 216.593C130.667 216.951 130.82 217.257 130.974 217.462C131.331 217.972 131.739 218.279 132.097 218.381C132.25 218.432 132.352 218.432 132.454 218.381C132.557 218.381 132.608 218.364 132.608 218.33C132.608 218.228 131.944 218.074 131.535 217.155Z" fill="#DBA97B"/>
<path d="M171.009 205.308C171.043 205.614 171.043 205.938 171.009 206.278C170.702 209.138 168.609 211.538 166.055 212.1L166.362 213.376C166.498 213.376 166.634 213.376 166.77 213.376C169.17 213.478 171.162 210.976 171.315 207.708C171.315 206.891 171.213 206.023 171.009 205.308Z" fill="#F2BB88"/>
<path d="M164.626 197.393C164.677 197.852 164.728 198.312 164.728 198.72L165.851 208.576L166.413 210.976L167.281 218.738V218.993C167.485 222.262 164.779 226.143 162.43 228.594L157.834 233.445C157.272 234.058 156.404 234.517 155.485 234.671L147.876 236.049C146.957 236.203 145.987 236.049 145.221 235.692L141.187 232.628C138.123 231.096 135.263 227.981 134.344 224.815L134.242 224.56L131.739 216.951L131.178 215.215L127.909 205.257C127.246 203.265 127.246 201.172 127.858 199.384C128.471 197.699 129.595 196.269 131.229 195.401C135.518 193.205 140.216 191.469 144.761 190.499C144.897 190.465 145.05 190.448 145.221 190.448C145.391 190.414 145.561 190.38 145.731 190.346C150.276 189.682 153.442 189.988 158.242 190.601C161.562 191.061 164.013 193.818 164.626 197.393Z" fill="#FFC994"/>
<path d="M168.813 203.725C168.302 203.367 167.383 203.316 166.668 203.827C166.311 204.082 166.004 204.491 165.902 204.95C165.749 205.41 165.749 205.87 165.8 206.329C165.851 206.789 166.004 207.197 166.158 207.555C166.311 207.963 166.515 208.27 166.617 208.576C166.77 208.934 166.873 209.189 166.975 209.495C167.026 209.751 167.077 210.006 167.077 210.261C167.128 211.283 166.566 211.691 166.668 211.793C166.668 211.827 166.719 211.827 166.821 211.793C166.873 211.742 167.026 211.691 167.128 211.589C167.383 211.334 167.638 210.874 167.69 210.312C167.741 210.006 167.741 209.7 167.69 209.342C167.587 209.036 167.536 208.78 167.434 208.474C167.468 208.474 167.485 208.474 167.485 208.474C167.69 208.474 167.945 208.525 168.149 208.678C168.302 208.78 168.456 208.985 168.558 209.189C168.66 209.342 168.711 209.546 168.813 209.546C168.915 209.597 169.119 209.495 169.17 209.138C169.222 208.831 169.119 208.27 168.609 207.912C168.098 207.606 167.587 207.708 167.281 207.912C167.281 207.912 167.264 207.929 167.23 207.963C167.026 207.402 166.719 206.789 166.668 206.227C166.515 205.461 166.719 204.848 167.128 204.491C167.587 204.133 168.149 204.082 168.558 204.287C168.966 204.44 169.222 204.746 169.375 205.002C169.528 205.257 169.528 205.41 169.63 205.41C169.681 205.41 169.732 205.206 169.681 204.899C169.63 204.542 169.375 204.082 168.813 203.725Z" fill="#DBA97B"/>
<path d="M163.145 184.78C162.174 183.656 161.051 182.686 159.825 181.869C156.353 179.571 151.91 178.55 147.468 178.601C147.536 178.567 147.604 178.533 147.672 178.499C147.927 178.396 148.183 178.243 148.438 178.192C148.574 178.158 148.693 178.107 148.795 178.039C148.931 178.005 149.051 177.988 149.153 177.988C149.357 177.886 149.561 177.886 149.766 177.835C149.936 177.801 150.089 177.784 150.225 177.784C150.532 177.75 150.685 177.733 150.685 177.733C150.685 177.699 150.549 177.63 150.276 177.528C150.14 177.46 149.987 177.392 149.817 177.324C149.612 177.273 149.357 177.171 149.153 177.171C149.017 177.137 148.88 177.12 148.744 177.12C148.574 177.086 148.421 177.069 148.285 177.069C147.978 177.069 147.672 177.12 147.314 177.171C146.651 177.273 145.936 177.477 145.272 177.784C145.033 177.886 144.795 177.988 144.557 178.09C144.455 177.937 142.055 176.813 142.208 177.069C142.378 177.307 142.531 177.596 142.667 177.937C142.736 178.005 142.787 178.107 142.821 178.243C142.361 178.09 141.901 177.988 141.442 177.988C140.829 177.937 140.267 178.039 139.859 178.141C139.757 178.175 139.655 178.209 139.552 178.243C139.45 178.311 139.365 178.362 139.297 178.396C139.127 178.464 138.991 178.533 138.889 178.601C138.684 178.771 138.582 178.856 138.582 178.856C138.582 178.856 138.701 178.856 138.94 178.856C139.076 178.856 139.229 178.873 139.399 178.907C139.467 178.907 139.552 178.907 139.655 178.907C139.723 178.941 139.808 178.958 139.91 178.958C140.267 179.009 140.727 179.162 141.187 179.316C141.187 179.316 141.204 179.333 141.238 179.367C138.276 180.031 135.467 181.205 133.016 182.839C130.156 184.78 127.807 187.333 126.531 190.397C125.407 193.103 125.05 196.218 125.765 199.742L128.165 210.312C127.807 204.899 130.769 197.75 131.484 196.525C132.199 195.35 133.271 194.38 134.599 193.818C134.974 193.648 135.348 193.495 135.723 193.359C140.88 192.797 145.629 195.657 150.787 195.197C149.766 194.84 148.642 194.431 147.519 193.971C152.319 194.635 157.068 194.993 161.357 192.593C161.732 193.069 162.038 193.597 162.277 194.176C162.379 194.482 162.481 194.805 162.583 195.146L164.626 203.419C165.392 202.295 166.515 201.631 167.69 201.631L166.719 192.49C166.158 189.375 164.932 186.822 163.145 184.78Z" fill="#3C3C3B"/>
<path d="M149.97 216.083C149.102 216.287 148.029 216.696 146.804 216.9C146.566 216.934 146.327 216.968 146.089 217.002C146.089 217.002 146.072 217.002 146.038 217.002C141.799 216.798 143.229 210.517 142.667 206.176C141.85 209.24 139.45 216.134 143.382 218.942C144.199 219.504 145.68 219.555 147.212 219.3C148.744 219.045 149.919 218.279 150.685 217.666C151.4 217.002 151.757 216.389 151.604 216.134C151.502 215.827 150.838 215.827 149.97 216.083Z" fill="#DBA97B"/>
<path d="M131.025 210.21C135.416 207.657 138.48 205.155 141.901 205.206C142.821 205.41 143.178 208.883 142.719 209.444C138.633 206.891 133.68 211.232 131.025 210.21Z" fill="#DBA97B"/>
<path d="M159.672 205.155C154.617 204.287 150.532 203.572 147.315 204.797C147.57 205.41 147.366 208.065 147.978 208.423C150.94 204.644 157.477 207.044 159.672 205.155Z" fill="#DBA97B"/>
<g opacity="0.2">
<g style="mix-blend-mode:screen">
<path d="M149.714 190.55C152.012 190.856 155.025 190.295 155.842 187.844C151.553 191.214 145.629 185.239 141.289 188.712C143.74 188.456 145.936 189.631 148.285 190.244C144.761 189.529 141.237 188.916 137.765 190.346C144.863 190.346 153.8 196.525 159.927 190.448C156.557 191.827 153.136 191.265 149.714 190.55Z" fill="#DADADA"/>
</g>
<g style="mix-blend-mode:screen">
<path d="M150.021 179.826C158.498 181.154 164.524 186.975 166.209 195.401C166.004 186.414 159.059 179.673 150.021 179.826Z" fill="#DADADA"/>
</g>
<g style="mix-blend-mode:screen">
<path d="M165.494 197.954C165.698 193.256 163.809 188.967 160.234 185.954C162.481 189.835 164.166 193.665 165.494 197.954Z" fill="#DADADA"/>
</g>
<g style="mix-blend-mode:screen">
<path d="M126.837 198.925C126.888 194.022 128.471 189.631 131.535 185.75C127.246 188.661 125.356 194.022 126.837 198.925Z" fill="#DADADA"/>
</g>
</g>
<g opacity="0.3">
<path d="M149.306 215.47C148.795 215.623 148.285 215.419 148.131 215.061C148.08 214.959 147.978 214.347 147.774 213.529C147.621 212.712 147.314 211.691 147.059 210.619C146.906 210.108 146.753 209.597 146.651 209.087C146.497 208.627 146.395 208.168 146.344 207.759C146.14 206.993 146.038 206.482 146.038 206.482C146.038 206.482 146.242 206.942 146.599 207.657C146.77 208.031 146.974 208.44 147.212 208.883C147.417 209.342 147.672 209.802 147.927 210.312C148.438 211.232 148.949 212.202 149.306 213.019C149.663 213.785 149.919 214.347 149.97 214.449C150.072 214.857 149.817 215.317 149.306 215.47Z" fill="white"/>
</g>
<path d="M140.012 210.466C140.165 211.538 139.348 212.61 138.072 212.815C136.846 213.07 135.671 212.355 135.467 211.283C135.314 210.159 136.131 209.138 137.408 208.883C138.633 208.678 139.808 209.393 140.012 210.466Z" fill="#936037"/>
<path d="M138.94 210.67C139.042 211.283 138.633 211.895 137.918 211.998C137.255 212.151 136.642 211.691 136.54 211.078C136.437 210.466 136.846 209.853 137.51 209.7C138.225 209.597 138.838 210.006 138.94 210.67Z" fill="#3C3C3B"/>
<path d="M137.203 211.691C137.254 211.946 137.101 212.151 136.846 212.202C136.642 212.253 136.386 212.1 136.335 211.844C136.335 211.64 136.488 211.385 136.693 211.334C136.948 211.334 137.152 211.487 137.203 211.691Z" fill="white"/>
<path d="M139.195 209.546C139.246 209.904 138.991 210.21 138.684 210.261C138.327 210.312 138.02 210.108 137.969 209.751C137.918 209.444 138.123 209.138 138.48 209.036C138.786 208.985 139.093 209.24 139.195 209.546Z" fill="white"/>
<path d="M142.616 207.351C142.514 207.555 142.259 207.504 141.953 207.402C141.595 207.248 141.135 207.095 140.574 206.942C139.399 206.687 137.765 207.044 136.029 207.708C134.293 208.372 132.914 210.057 131.893 210.823C130.054 212.406 129.493 210.772 130.718 209.546C131.586 208.474 133.322 206.993 135.365 205.819C137.306 204.593 140.114 203.674 141.493 204.389C142.157 204.797 142.718 207.197 142.616 207.351Z" fill="#3C3C3B"/>
<path d="M153.698 207.402C153.902 208.474 153.034 209.546 151.808 209.751C150.532 210.006 149.357 209.291 149.204 208.219C149 207.095 149.868 206.074 151.093 205.819C152.319 205.614 153.493 206.329 153.698 207.402Z" fill="#936037"/>
<path d="M152.676 207.606C152.778 208.219 152.319 208.831 151.655 208.934C150.991 209.087 150.327 208.678 150.225 208.014C150.123 207.402 150.583 206.789 151.246 206.636C151.91 206.534 152.523 206.942 152.676 207.606Z" fill="#3C3C3B"/>
<path d="M150.889 208.627C150.94 208.883 150.787 209.087 150.583 209.138C150.327 209.189 150.123 209.036 150.072 208.78C150.021 208.576 150.174 208.321 150.429 208.321C150.634 208.27 150.889 208.423 150.889 208.627Z" fill="white"/>
<path d="M153.034 206.482C153.085 206.789 152.829 207.146 152.523 207.197C152.166 207.248 151.808 207.044 151.757 206.687C151.706 206.329 151.961 206.023 152.268 205.972C152.625 205.87 152.983 206.125 153.034 206.482Z" fill="white"/>
<path d="M147.263 206.942C147.417 207.044 147.672 206.942 147.927 206.687C148.131 206.431 148.54 206.074 149 205.716C149.97 205.002 151.553 204.644 153.442 204.542C155.281 204.44 157.221 205.41 158.447 205.665C160.796 206.329 160.643 204.593 159.008 203.98C157.783 203.419 155.587 202.755 153.238 202.499C150.94 202.244 148.029 202.499 147.11 203.776C146.599 204.389 147.11 206.789 147.263 206.942Z" fill="#3C3C3B"/>
<path d="M185.358 234.773C185.103 238.041 183.469 245.19 182.652 248.356C182.192 247.999 177.852 241.973 177.341 241.667C178.465 235.743 179.128 231.198 177.494 225.53C176.371 221.598 173.818 218.176 172.796 214.244C172.132 211.64 169.528 209.7 167.536 207.912C165.698 206.278 164.881 207.504 163.196 205.819C161.511 204.082 161.817 199.946 160.03 198.363C158.243 196.78 156.915 196.678 154.566 197.086C152.37 197.495 147.774 199.895 145.578 200.252C143.382 200.661 141.595 199.486 139.348 199.844C136.999 200.252 130.871 201.733 129.697 203.878C128.573 205.972 130.616 209.189 129.595 211.334C128.625 213.581 128.982 212.151 127.807 214.295C126.531 216.644 127.45 219.504 127.756 222.211C128.114 226.245 126.939 230.33 127.195 234.415C127.603 240.339 133.425 248.05 136.489 253.258C136.131 253.718 135.876 256.067 135.569 256.578C133.782 253.31 128.88 246.722 127.501 243.709C123.109 234.058 127.144 225.581 124.692 215.266C123.824 211.64 125.765 208.014 123.926 201.172C120.914 189.835 124.488 186.465 130.259 181.92C133.935 179.06 138.327 177.579 142.923 176.864C142.923 176.864 150.072 175.026 156.813 177.273C163.809 179.571 167.639 181.869 168.711 193.512C169.324 200.559 172.592 203.01 173.052 206.738C174.277 217.257 186.175 224.253 185.358 234.773Z" fill="white"/>
<path d="M126.633 195.861C127.195 197.444 128.318 199.027 127.961 200.661C127.756 201.835 126.735 202.806 126.531 203.98C126.224 205.87 127.807 207.708 127.348 209.597C127.144 210.261 126.735 210.823 126.378 211.436C126.071 212.049 125.867 212.763 126.173 213.427C126.224 212.508 126.888 211.742 127.552 211.129C128.267 210.517 128.114 209.802 128.522 209.036C129.544 207.197 127.858 205.002 128.624 203.01C129.237 201.529 132.352 200.559 132.863 199.027C133.22 197.903 132.914 196.627 132.454 195.554C131.944 194.482 131.229 193.512 130.718 192.439C129.748 190.295 129.544 187.792 130.259 185.546C128.931 186.924 127.705 188.456 126.99 190.244C126.275 192.031 126.071 194.022 126.633 195.861Z" fill="#EDEDED"/>
<path d="M140.931 196.831C139.757 195.146 140.216 192.695 139.246 190.907C138.838 190.09 138.123 189.478 137.612 188.712C136.642 187.282 136.386 185.392 136.846 183.707C137.152 185.341 138.531 186.516 139.91 187.435C141.289 188.354 142.77 189.273 143.484 190.805C144.148 192.184 143.995 193.869 144.812 195.197C145.731 196.627 147.519 197.189 149.153 197.597C147.723 198.057 146.293 198.567 144.812 198.567C143.331 198.567 141.799 198.006 140.931 196.831Z" fill="#EDEDED"/>
<path d="M158.702 190.397C159.06 191.622 159.264 192.899 159.877 194.022C160.643 195.452 162.021 196.423 162.889 197.801C164.064 199.793 164.064 202.346 165.443 204.184C166.668 205.819 168.762 206.482 170.651 207.095C168.456 205.768 166.924 203.419 166.515 200.916C166.311 199.486 166.413 198.057 166.158 196.627C165.953 195.401 165.443 194.176 164.932 193.052C164.37 191.673 163.758 190.244 162.736 189.12C160.592 186.822 157.068 186.312 154.515 184.473C156.506 185.954 157.936 188.048 158.702 190.397Z" fill="#EDEDED"/>
<path d="M145.068 188.814C146.038 189.784 146.906 191.01 147.11 192.337C147.314 193.716 146.804 195.248 145.629 195.963C144.557 195.503 143.944 194.329 143.638 193.154C143.331 192.031 143.28 190.856 142.872 189.733C142.514 188.763 141.901 187.895 141.544 186.924C141.136 186.005 140.982 184.831 141.493 183.963C141.544 184.984 142.106 185.903 142.821 186.669C143.536 187.435 144.353 188.099 145.068 188.814Z" fill="#EDEDED"/>
<path d="M123.926 202.346C124.097 202.346 124.267 202.312 124.437 202.244C138.684 197.342 153.544 194.737 168.609 194.431C169.426 194.431 170.141 193.716 170.09 192.899C170.09 192.031 169.426 191.367 168.558 191.367C153.136 191.673 137.969 194.329 123.416 199.333C122.599 199.64 122.19 200.508 122.446 201.325C122.701 201.938 123.263 202.346 123.926 202.346Z" fill="#3C3C3B"/>
<path d="M123.365 199.282C123.535 199.282 123.705 199.248 123.875 199.18C138.123 194.278 152.983 191.673 168.047 191.418C168.915 191.367 169.579 190.703 169.579 189.835C169.528 189.018 168.915 188.303 167.996 188.354C152.625 188.609 137.459 191.316 122.905 196.32C122.088 196.576 121.679 197.444 121.935 198.261C122.139 198.874 122.752 199.282 123.365 199.282Z" fill="#3C3C3B"/>
<path fill-rule="evenodd" clip-rule="evenodd" d="M140.012 227.011C140.063 228.39 140.318 229.666 141.391 232.781C143.433 237.632 148.285 238.654 151.604 238.092C154.974 237.479 158.702 234.926 160.847 230.279C161.051 224.917 159.519 222.977 157.885 221.291C155.179 218.534 149.97 219.402 148.489 219.657C146.14 220.066 139.808 221.649 140.012 227.011ZM147.825 228.696C146.855 228.798 147.263 230.432 146.344 230.892C145.731 231.249 144.455 231.351 143.433 230.688C141.697 229.615 141.595 226.807 142.719 225.326C143.178 224.764 143.74 224.458 143.995 224.304C145.272 223.64 147.11 223.13 148.897 222.823C150.685 222.517 152.625 222.313 154.055 222.517C154.361 222.568 154.974 222.67 155.587 223.079C157.119 224.049 157.834 229.156 152.625 229.615C151.246 229.717 150.94 227.981 149.919 228.236L147.825 228.696Z" fill="#3C3C3B"/>
<path d="M146.242 227.317C146.242 227.675 147.774 228.696 149.357 228.287C150.991 227.879 152.012 226.245 151.91 225.938C151.757 225.581 150.736 226.551 149.204 226.96C147.672 227.317 146.191 226.96 146.242 227.317Z" fill="#DBA97B"/>
<path d="M143.587 225.479C143.74 225.836 145.323 225.581 148.489 224.866C149.272 224.696 150.021 224.526 150.736 224.355C151.076 224.253 151.4 224.168 151.706 224.1C151.978 223.998 152.234 223.913 152.472 223.845C152.472 223.845 152.472 223.794 152.472 223.692C152.523 223.64 152.472 223.743 152.472 223.743C152.421 223.794 152.421 223.743 152.421 223.794C152.472 223.794 152.523 223.896 152.574 223.947C152.71 224.151 152.83 224.304 152.932 224.406C153.136 224.662 153.34 224.764 153.391 224.713C153.493 224.662 153.442 224.458 153.391 224.202C153.357 224.066 153.323 223.879 153.289 223.64C153.238 223.538 153.238 223.436 153.136 223.232C153.034 223.181 152.932 223.028 152.83 222.977C152.676 222.926 152.523 222.874 152.421 222.874C152.166 222.874 152.064 222.926 151.91 222.926C151.774 222.96 151.621 222.977 151.451 222.977C151.144 223.045 150.821 223.096 150.48 223.13C149.766 223.232 149 223.385 148.183 223.538C144.965 224.304 143.485 225.121 143.587 225.479Z" fill="#C4986E"/>
<path d="M185.052 328.836C184.643 333.431 187.758 337.363 191.895 337.67C196.031 337.925 199.657 334.657 200.116 330.367C203.231 300.392 210.789 271.029 222.432 243.301C224.117 239.267 222.279 234.569 218.142 232.73C214.057 230.892 209.206 232.832 207.47 237.071C195.52 266.382 187.963 297.328 185.052 328.836Z" fill="#575756"/>
<path d="M42.5279 294.724H265.021V286.604H42.5279V294.724Z" fill="#634E42"/>
<path d="M189.75 294.724H265.021V286.604H189.75V294.724Z" fill="#7B6A58"/>
<path d="M52.1792 306.775H255.369V294.519H52.1792V306.775Z" fill="#4F3E35"/>
<path d="M186.124 306.775H255.369V294.519H186.124V306.775Z" fill="#67594A"/>
<path d="M250.977 397.672H255.369V306.775H250.977V397.672Z" fill="#67594A"/>
<path d="M243.216 397.672H250.977V306.775H243.216V397.672Z" fill="#4F3E35"/>
<path d="M186.124 397.672H190.516V306.775H186.124V397.672Z" fill="#67594A"/>
<path d="M178.362 397.672H186.124V306.775H178.362V397.672Z" fill="#4F3E35"/>
<path d="M59.9413 397.672H64.3329V306.775H59.9413V397.672Z" fill="#67594A"/>
<path d="M52.1793 397.672H59.9413V306.775H52.1793V397.672Z" fill="#4F3E35"/>
<path d="M198.431 286.604H181.886V265.718H198.431V286.604Z" fill="#E6332A"/>
<path fill-rule="evenodd" clip-rule="evenodd" d="M206.091 276.136C206.091 272.408 203.997 269.446 201.291 269.446C198.635 269.446 196.542 272.408 196.542 276.136C196.542 279.915 198.635 282.877 201.291 282.877C203.997 282.877 206.091 279.915 206.091 276.136ZM204.15 276.136C204.15 278.74 202.823 280.936 201.291 280.936C199.759 280.936 198.482 278.74 198.482 276.136C198.482 273.583 199.759 271.387 201.291 271.387C202.823 271.387 204.15 273.583 204.15 276.136Z" fill="#E6332A"/>
<path d="M212.729 273.48C212.832 274.502 213.955 277.668 214.976 277.617C215.947 277.515 216.457 274.144 216.406 273.123C216.304 272.153 215.385 271.387 214.415 271.489C213.393 271.591 212.627 272.459 212.729 273.48Z" fill="#07EDB0"/>
<path d="M215.129 279.149C215.436 279.149 215.691 278.842 215.64 278.536L215.538 277.157L214.363 277.259L214.466 278.638C214.517 278.944 214.772 279.2 215.129 279.149Z" fill="#07EDB0"/>
<path d="M210.687 251.471L214.312 251.114L215.283 261.072L211.606 261.378L210.687 251.471Z" fill="#07EDB0"/>
<path d="M211.708 262.45L215.334 262.093L216.406 273.123L212.729 273.48L211.708 262.45Z" fill="#07EDB0"/>
<path d="M211.606 261.378L215.283 261.072L215.334 262.093L211.708 262.45L211.606 261.378Z" fill="#07EDB0"/>
<path d="M209.41 251.573L214.312 251.114L214.363 251.624L209.461 252.084L209.41 251.573Z" fill="#07EDB0"/>
<path d="M211.504 250.195L213.291 249.99L213.393 251.216L211.606 251.369L211.504 250.195Z" fill="#07EDB0"/>
<path d="M209.41 251.573L210.176 251.522L211.146 261.991L210.431 262.042L209.41 251.573Z" fill="#07EDB0"/>
<path d="M212.729 273.48C212.832 274.502 213.955 277.668 214.976 277.617C215.947 277.515 216.457 274.144 216.406 273.123C216.304 272.153 215.385 271.387 214.415 271.489C213.393 271.591 212.627 272.459 212.729 273.48Z" fill="white"/>
<path d="M215.129 279.149C215.436 279.149 215.691 278.842 215.64 278.536L215.538 277.157L214.363 277.259L214.466 278.638C214.517 278.944 214.772 279.2 215.129 279.149Z" fill="#4A4A49"/>
<path d="M210.687 251.471L214.312 251.114L215.283 261.072L211.606 261.378L210.687 251.471Z" fill="#DF4937"/>
<path d="M211.708 262.45L215.334 262.093L216.406 273.123L212.729 273.48L211.708 262.45Z" fill="#DF4937"/>
<path d="M211.606 261.378L215.283 261.072L215.334 262.093L211.708 262.45L211.606 261.378Z" fill="white"/>
<path d="M209.41 251.573L214.312 251.114L214.363 251.624L209.461 252.084L209.41 251.573Z" fill="white"/>
<path d="M211.504 250.195L213.291 249.99L213.393 251.216L211.606 251.369L211.504 250.195Z" fill="#DF4937"/>
<path d="M209.41 251.573L210.176 251.522L211.146 261.991L210.431 262.042L209.41 251.573Z" fill="white"/>
<path d="M223.249 281.14C223.249 281.345 223.351 281.549 223.555 281.6H223.606C223.811 281.651 224.015 281.498 224.066 281.293L224.321 280.068L223.555 279.915L223.249 281.14Z" fill="#4A4A49"/>
<path d="M227.385 260.765L229.07 261.123L232.083 247.692C232.236 247.233 231.93 246.773 231.47 246.671L231.419 246.62C230.96 246.518 230.5 246.824 230.398 247.284L227.385 260.765Z" fill="#4A4A49"/>
<path d="M223.147 276.647L224.526 277.413L226.109 277.31L229.326 263.012L226.364 262.348L223.147 276.647Z" fill="#4A4A49"/>
<path d="M226.364 262.348L229.326 263.012L232.39 249.378C232.492 249.02 232.236 248.663 231.879 248.56L230.245 248.203C229.836 248.101 229.479 248.356 229.428 248.714L226.364 262.348Z" fill="#EDEDED"/>
<path d="M223.3 280.374L224.321 280.63L226.109 277.31L223.147 276.647L223.3 280.374Z" fill="#EDEDED"/>
<path d="M226.568 261.429L229.53 262.093L229.326 263.012L226.364 262.348L226.568 261.429Z" fill="#0593A1"/>
<path d="M221.104 250.348L224.628 250.705L222.279 273.327L218.755 272.97L221.104 250.348Z" fill="#0593A1"/>
<path d="M219.572 276.698L220.696 276.8L222.279 273.327L218.755 272.97L219.572 276.698Z" fill="white"/>
<path d="M219.93 278.689C220.236 278.689 220.491 278.485 220.542 278.178L220.696 276.8L219.572 276.698L219.419 278.025C219.368 278.332 219.623 278.638 219.93 278.689Z" fill="#4A4A49"/>
<path d="M221.462 258.671L222.585 258.774L221.819 265.974L220.696 265.872L221.462 258.671Z" fill="white"/>
<path d="M212.525 286.604L210.125 264.493H231.317L228.917 286.604H212.525Z" fill="#F9B233"/>
<path d="M134.88 115.123V136.066V136.42H55.5952C45.3922 136.42 37.1211 128.149 37.1211 117.946V113.07C37.1211 102.867 45.3922 94.5963 55.5952 94.5963H114.353C125.69 94.5963 134.88 103.786 134.88 115.123Z" fill="#F520A0" stroke="white" stroke-width="2.05268"/>
<path d="M51.0814 121.151C50.7191 121.151 50.408 121.023 50.1482 120.766C49.892 120.507 49.7639 120.196 49.7639 119.833C49.7639 119.475 49.892 119.167 50.1482 118.911C50.408 118.655 50.7191 118.527 51.0814 118.527C51.4327 118.527 51.7401 118.655 52.0036 118.911C52.2671 119.167 52.3989 119.475 52.3989 119.833C52.3989 120.075 52.3367 120.296 52.2122 120.497C52.0915 120.695 51.9323 120.854 51.7346 120.975C51.537 121.092 51.3193 121.151 51.0814 121.151ZM64.2825 113.701H61.878C61.8341 113.39 61.7444 113.114 61.609 112.872C61.4736 112.627 61.2998 112.419 61.0875 112.247C60.8753 112.075 60.6301 111.943 60.3519 111.851C60.0774 111.76 59.7792 111.714 59.4571 111.714C58.8752 111.714 58.3683 111.859 57.9365 112.148C57.5047 112.433 57.1698 112.85 56.9319 113.399C56.694 113.945 56.5751 114.607 56.5751 115.387C56.5751 116.188 56.694 116.862 56.9319 117.407C57.1734 117.952 57.5101 118.364 57.942 118.642C58.3738 118.92 58.8734 119.059 59.4406 119.059C59.759 119.059 60.0536 119.017 60.3245 118.933C60.5989 118.849 60.8423 118.726 61.0546 118.565C61.2668 118.4 61.4425 118.201 61.5816 117.967C61.7243 117.733 61.8231 117.465 61.878 117.165L64.2825 117.176C64.2202 117.692 64.0647 118.19 63.8158 118.669C63.5706 119.145 63.2394 119.572 62.8222 119.949C62.4087 120.322 61.9146 120.618 61.34 120.838C60.7691 121.054 60.1232 121.162 59.4022 121.162C58.3995 121.162 57.5028 120.935 56.7123 120.481C55.9255 120.027 55.3033 119.37 54.8459 118.51C54.3921 117.65 54.1652 116.609 54.1652 115.387C54.1652 114.161 54.3957 113.118 54.8568 112.258C55.318 111.398 55.9438 110.742 56.7343 110.292C57.5248 109.839 58.4141 109.612 59.4022 109.612C60.0536 109.612 60.6575 109.703 61.2138 109.886C61.7737 110.069 62.2696 110.336 62.7015 110.688C63.1333 111.035 63.4846 111.462 63.7555 111.967C64.0299 112.472 64.2056 113.05 64.2825 113.701ZM76.3184 115.387C76.3184 116.613 76.086 117.656 75.6212 118.516C75.1601 119.376 74.5306 120.033 73.7328 120.486C72.9386 120.937 72.0456 121.162 71.0539 121.162C70.0547 121.162 69.1581 120.935 68.364 120.481C67.5698 120.027 66.9422 119.37 66.481 118.51C66.0199 117.65 65.7893 116.609 65.7893 115.387C65.7893 114.161 66.0199 113.118 66.481 112.258C66.9422 111.398 67.5698 110.742 68.364 110.292C69.1581 109.839 70.0547 109.612 71.0539 109.612C72.0456 109.612 72.9386 109.839 73.7328 110.292C74.5306 110.742 75.1601 111.398 75.6212 112.258C76.086 113.118 76.3184 114.161 76.3184 115.387ZM73.9084 115.387C73.9084 114.593 73.7895 113.923 73.5516 113.377C73.3174 112.832 72.9862 112.419 72.558 112.137C72.1298 111.855 71.6284 111.714 71.0539 111.714C70.4793 111.714 69.9779 111.855 69.5497 112.137C69.1215 112.419 68.7885 112.832 68.5506 113.377C68.3164 113.923 68.1993 114.593 68.1993 115.387C68.1993 116.181 68.3164 116.851 68.5506 117.396C68.7885 117.941 69.1215 118.355 69.5497 118.636C69.9779 118.918 70.4793 119.059 71.0539 119.059C71.6284 119.059 72.1298 118.918 72.558 118.636C72.9862 118.355 73.3174 117.941 73.5516 117.396C73.7895 116.851 73.9084 116.181 73.9084 115.387ZM78.0791 109.765H81.0106L84.1067 117.319H84.2384L87.3346 109.765H90.266V121.008H87.9604V113.69H87.8671L84.9576 120.953H83.3876L80.4781 113.663H80.3848V121.008H78.0791V109.765ZM93.5474 121.151C93.1851 121.151 92.874 121.023 92.6142 120.766C92.358 120.507 92.2299 120.196 92.2299 119.833C92.2299 119.475 92.358 119.167 92.6142 118.911C92.874 118.655 93.1851 118.527 93.5474 118.527C93.8987 118.527 94.2062 118.655 94.4697 118.911C94.7332 119.167 94.8649 119.475 94.8649 119.833C94.8649 120.075 94.8027 120.296 94.6783 120.497C94.5575 120.695 94.3983 120.854 94.2007 120.975C94.003 121.092 93.7853 121.151 93.5474 121.151ZM101.072 117.099H103.092L104.108 118.406L105.107 119.57L106.99 121.93H104.772L103.477 120.338L102.812 119.394L101.072 117.099ZM107.16 115.387C107.16 116.613 106.928 117.656 106.463 118.516C106.002 119.376 105.372 120.033 104.575 120.486C103.78 120.937 102.887 121.162 101.896 121.162C100.897 121.162 99.9999 120.935 99.2058 120.481C98.4116 120.027 97.784 119.37 97.3229 118.51C96.8617 117.65 96.6312 116.609 96.6312 115.387C96.6312 114.161 96.8617 113.118 97.3229 112.258C97.784 111.398 98.4116 110.742 99.2058 110.292C99.9999 109.839 100.897 109.612 101.896 109.612C102.887 109.612 103.78 109.839 104.575 110.292C105.372 110.742 106.002 111.398 106.463 112.258C106.928 113.118 107.16 114.161 107.16 115.387ZM104.75 115.387C104.75 114.593 104.631 113.923 104.393 113.377C104.159 112.832 103.828 112.419 103.4 112.137C102.972 111.855 102.47 111.714 101.896 111.714C101.321 111.714 100.82 111.855 100.392 112.137C99.9633 112.419 99.6303 112.832 99.3924 113.377C99.1582 113.923 99.0411 114.593 99.0411 115.387C99.0411 116.181 99.1582 116.851 99.3924 117.396C99.6303 117.941 99.9633 118.355 100.392 118.636C100.82 118.918 101.321 119.059 101.896 119.059C102.47 119.059 102.972 118.918 103.4 118.636C103.828 118.355 104.159 117.941 104.393 117.396C104.631 116.851 104.75 116.181 104.75 115.387ZM110.225 121.008H107.678L111.559 109.765H114.622L118.498 121.008H115.95L113.134 112.334H113.046L110.225 121.008ZM110.066 116.589H116.082V118.444H110.066V116.589Z" fill="white"/>
<path d="M111.556 189.228V210.395V210.752H31.427C21.1153 210.752 12.756 202.393 12.756 192.081V187.154C12.756 176.842 21.1153 168.483 31.427 168.483H90.811C102.268 168.483 111.556 177.771 111.556 189.228Z" fill="#8FB50D" stroke="white" stroke-width="2.07455"/>
<path d="M44.4267 197.124C43.9131 197.124 43.4721 196.943 43.1038 196.58C42.7407 196.211 42.5591 195.771 42.5591 195.257C42.5591 194.749 42.7407 194.313 43.1038 193.95C43.4721 193.587 43.9131 193.405 44.4267 193.405C44.9247 193.405 45.3604 193.587 45.7339 193.95C46.1074 194.313 46.2942 194.749 46.2942 195.257C46.2942 195.599 46.206 195.913 46.0296 196.198C45.8584 196.479 45.6328 196.704 45.3527 196.875C45.0725 197.041 44.7639 197.124 44.4267 197.124ZM55.093 191.382H57.9566L59.3961 193.234L60.8124 194.883L63.4814 198.229H60.3377L58.5013 195.973L57.5597 194.634L55.093 191.382ZM63.7226 188.954C63.7226 190.692 63.3932 192.17 62.7344 193.389C62.0807 194.608 61.1885 195.54 60.0576 196.183C58.9319 196.821 57.6661 197.14 56.2602 197.14C54.844 197.14 53.5731 196.818 52.4473 196.175C51.3216 195.532 50.432 194.601 49.7783 193.382C49.1247 192.163 48.7979 190.687 48.7979 188.954C48.7979 187.216 49.1247 185.738 49.7783 184.519C50.432 183.3 51.3216 182.371 52.4473 181.733C53.5731 181.09 54.844 180.768 56.2602 180.768C57.6661 180.768 58.9319 181.09 60.0576 181.733C61.1885 182.371 62.0807 183.3 62.7344 184.519C63.3932 185.738 63.7226 187.216 63.7226 188.954ZM60.3066 188.954C60.3066 187.828 60.138 186.879 59.8008 186.106C59.4688 185.333 58.9993 184.747 58.3923 184.347C57.7854 183.948 57.0747 183.748 56.2602 183.748C55.4458 183.748 54.7351 183.948 54.1281 184.347C53.5212 184.747 53.0491 185.333 52.7119 186.106C52.3799 186.879 52.2139 187.828 52.2139 188.954C52.2139 190.08 52.3799 191.029 52.7119 191.802C53.0491 192.575 53.5212 193.161 54.1281 193.561C54.7351 193.96 55.4458 194.16 56.2602 194.16C57.0747 194.16 57.7854 193.96 58.3923 193.561C58.9993 193.161 59.4688 192.575 59.8008 191.802C60.138 191.029 60.3066 190.08 60.3066 188.954ZM68.0666 196.922H64.456L69.9575 180.986H74.2995L79.7932 196.922H76.1826L72.1907 184.628H72.0662L68.0666 196.922ZM67.8409 190.658H76.3693V193.288H67.8409V190.658Z" fill="white"/>
<path d="M154.444 75.119V96.2853V96.6424H234.573C244.885 96.6424 253.244 88.2832 253.244 77.9715V73.0444C253.244 62.7328 244.885 54.3735 234.573 54.3735H175.189C163.732 54.3735 154.444 63.6616 154.444 75.119Z" fill="#8FB50D" stroke="white" stroke-width="2.07455"/>
<path d="M184.382 147.595V168.762V169.119H284.198C294.51 169.119 302.869 160.76 302.869 150.448V145.521C302.869 135.209 294.51 126.85 284.198 126.85H205.127C193.67 126.85 184.382 136.138 184.382 147.595Z" fill="#F58120" stroke="white" stroke-width="2.07455"/>
<path d="M204.526 154.133C204.148 154.133 203.823 154 203.552 153.732C203.285 153.461 203.151 153.136 203.151 152.758C203.151 152.384 203.285 152.063 203.552 151.796C203.823 151.528 204.148 151.395 204.526 151.395C204.893 151.395 205.214 151.528 205.489 151.796C205.764 152.063 205.901 152.384 205.901 152.758C205.901 153.01 205.836 153.242 205.706 153.452C205.58 153.658 205.414 153.824 205.208 153.95C205.002 154.072 204.774 154.133 204.526 154.133ZM217.765 142.251V153.984H215.622L210.518 146.599H210.432V153.984H207.951V142.251H210.128L215.193 149.63H215.296V142.251H217.765ZM221.837 153.984H219.179L223.229 142.251H226.426L230.471 153.984H227.813L224.874 144.932H224.782L221.837 153.984ZM221.671 149.372H227.95V151.309H221.671V149.372ZM231.884 142.251H234.943L238.174 150.134H238.312L241.543 142.251H244.603V153.984H242.196V146.347H242.099L239.062 153.927H237.424L234.387 146.319H234.29V153.984H231.884V142.251ZM246.647 153.984V142.251H254.553V144.296H249.127V147.092H254.146V149.137H249.127V151.939H254.576V153.984H246.647ZM257.906 154.133C257.528 154.133 257.203 154 256.932 153.732C256.665 153.461 256.531 153.136 256.531 152.758C256.531 152.384 256.665 152.063 256.932 151.796C257.203 151.528 257.528 151.395 257.906 151.395C258.273 151.395 258.594 151.528 258.869 151.796C259.144 152.063 259.281 152.384 259.281 152.758C259.281 153.01 259.216 153.242 259.086 153.452C258.96 153.658 258.794 153.824 258.588 153.95C258.382 154.072 258.154 154.133 257.906 154.133ZM265.76 149.905H267.868L268.928 151.269L269.971 152.483L271.936 154.947H269.621L268.269 153.285L267.576 152.3L265.76 149.905ZM272.113 148.118C272.113 149.397 271.871 150.486 271.386 151.383C270.905 152.281 270.248 152.967 269.415 153.44C268.586 153.91 267.654 154.145 266.619 154.145C265.576 154.145 264.641 153.908 263.812 153.434C262.983 152.961 262.328 152.275 261.847 151.378C261.365 150.48 261.125 149.393 261.125 148.118C261.125 146.838 261.365 145.749 261.847 144.852C262.328 143.954 262.983 143.271 263.812 142.801C264.641 142.327 265.576 142.09 266.619 142.09C267.654 142.09 268.586 142.327 269.415 142.801C270.248 143.271 270.905 143.954 271.386 144.852C271.871 145.749 272.113 146.838 272.113 148.118ZM269.598 148.118C269.598 147.289 269.474 146.59 269.226 146.021C268.981 145.452 268.636 145.02 268.189 144.726C267.742 144.432 267.219 144.285 266.619 144.285C266.019 144.285 265.496 144.432 265.049 144.726C264.602 145.02 264.255 145.452 264.006 146.021C263.762 146.59 263.64 147.289 263.64 148.118C263.64 148.946 263.762 149.645 264.006 150.215C264.255 150.784 264.602 151.215 265.049 151.509C265.496 151.803 266.019 151.951 266.619 151.951C267.219 151.951 267.742 151.803 268.189 151.509C268.636 151.215 268.981 150.784 269.226 150.215C269.474 149.645 269.598 148.946 269.598 148.118ZM275.312 153.984H272.653L276.704 142.251H279.901L283.946 153.984H281.288L278.348 144.932H278.257L275.312 153.984ZM275.146 149.372H281.425V151.309H275.146V149.372Z" fill="white"/>
<path d="M210.444 211.595V232.762V233.119H290.573C300.885 233.119 309.244 224.76 309.244 214.448V209.521C309.244 199.209 300.885 190.85 290.573 190.85H231.189C219.732 190.85 210.444 200.138 210.444 211.595Z" fill="#F520A0" stroke="white" stroke-width="2.07455"/>
<path d="M171.384 82.1656C170.984 82.1656 170.64 82.0241 170.353 81.7412C170.07 81.4542 169.929 81.1107 169.929 80.7105C169.929 80.3144 170.07 79.9749 170.353 79.6919C170.64 79.409 170.984 79.2675 171.384 79.2675C171.772 79.2675 172.112 79.409 172.403 79.6919C172.694 79.9749 172.839 80.3144 172.839 80.7105C172.839 80.9773 172.771 81.2218 172.633 81.4441C172.5 81.6624 172.324 81.8382 172.106 81.9716C171.887 82.1009 171.647 82.1656 171.384 82.1656ZM185.394 69.5911V82.008H183.126L177.724 74.1929H177.633V82.008H175.008V69.5911H177.312L182.672 77.4001H182.781V69.5911H185.394ZM187.563 82.008V69.5911H195.93V71.7556H190.188V74.7143H195.499V76.8787H190.188V79.8435H195.954V82.008H187.563ZM197.544 71.7556V69.5911H207.742V71.7556H203.941V82.008H201.346V71.7556H197.544ZM210.299 82.1656C209.899 82.1656 209.555 82.0241 209.268 81.7412C208.985 81.4542 208.844 81.1107 208.844 80.7105C208.844 80.3144 208.985 79.9749 209.268 79.6919C209.555 79.409 209.899 79.2675 210.299 79.2675C210.687 79.2675 211.027 79.409 211.318 79.6919C211.609 79.9749 211.754 80.3144 211.754 80.7105C211.754 80.9773 211.685 81.2218 211.548 81.4441C211.415 81.6624 211.239 81.8382 211.021 81.9716C210.802 82.1009 210.562 82.1656 210.299 82.1656ZM218.61 77.6912H220.841L221.963 79.1341L223.066 80.4195L225.146 83.0265H222.696L221.265 81.2683L220.532 80.2255L218.61 77.6912ZM225.334 75.7995C225.334 77.1536 225.077 78.3055 224.564 79.2554C224.054 80.2053 223.359 80.9308 222.478 81.432C221.601 81.9291 220.615 82.1777 219.519 82.1777C218.416 82.1777 217.425 81.9271 216.548 81.4259C215.671 80.9247 214.978 80.1992 214.469 79.2493C213.96 78.2995 213.705 77.1495 213.705 75.7995C213.705 74.4455 213.96 73.2935 214.469 72.3437C214.978 71.3938 215.671 70.6703 216.548 70.1731C217.425 69.6719 218.416 69.4213 219.519 69.4213C220.615 69.4213 221.601 69.6719 222.478 70.1731C223.359 70.6703 224.054 71.3938 224.564 72.3437C225.077 73.2935 225.334 74.4455 225.334 75.7995ZM222.672 75.7995C222.672 74.9224 222.541 74.1827 222.278 73.5805C222.019 72.9782 221.653 72.5215 221.18 72.2103C220.708 71.899 220.154 71.7434 219.519 71.7434C218.885 71.7434 218.331 71.899 217.858 72.2103C217.385 72.5215 217.017 72.9782 216.755 73.5805C216.496 74.1827 216.366 74.9224 216.366 75.7995C216.366 76.6766 216.496 77.4163 216.755 78.0186C217.017 78.6208 217.385 79.0776 217.858 79.3888C218.331 79.7 218.885 79.8556 219.519 79.8556C220.154 79.8556 220.708 79.7 221.18 79.3888C221.653 79.0776 222.019 78.6208 222.278 78.0186C222.541 77.4163 222.672 76.6766 222.672 75.7995ZM228.718 82.008H225.905L230.191 69.5911H233.575L237.855 82.008H235.042L231.932 72.4285H231.835L228.718 82.008ZM228.542 77.1273H235.187V79.1766H228.542V77.1273Z" fill="white"/>
<path d="M237.043 219.491C236.529 219.491 236.088 219.31 235.72 218.947C235.357 218.578 235.175 218.138 235.175 217.624C235.175 217.116 235.357 216.68 235.72 216.317C236.088 215.954 236.529 215.772 237.043 215.772C237.541 215.772 237.976 215.954 238.35 216.317C238.723 216.68 238.91 217.116 238.91 217.624C238.91 217.966 238.822 218.28 238.646 218.565C238.474 218.846 238.249 219.071 237.969 219.242C237.688 219.408 237.38 219.491 237.043 219.491ZM240.659 224.351L239.542 221.634C240.316 221.371 241.025 221.064 241.667 220.713C242.325 220.363 242.895 219.976 243.377 219.552C243.859 219.128 244.231 218.668 244.494 218.172C244.757 217.66 244.889 217.113 244.889 216.528C244.889 215.915 244.75 215.243 244.472 214.512C244.195 213.782 243.859 213.037 243.464 212.277L246.335 210.897C246.598 211.35 246.824 211.839 247.014 212.365C247.219 212.876 247.387 213.336 247.518 213.745C247.65 214.154 247.737 214.432 247.781 214.578C247.986 215.279 248.263 215.747 248.614 215.98C248.979 216.214 249.563 216.331 250.367 216.331C250.922 216.331 251.316 216.477 251.55 216.769C251.798 217.047 251.922 217.397 251.922 217.821C251.922 218.274 251.769 218.654 251.462 218.96C251.156 219.253 250.717 219.399 250.148 219.399C249.549 219.399 249.023 219.311 248.57 219.136C248.117 218.96 247.752 218.705 247.474 218.369C247.211 218.033 247.043 217.638 246.97 217.186L247.781 217.646C247.693 218.42 247.438 219.15 247.014 219.837C246.605 220.538 246.072 221.181 245.414 221.765C244.757 222.35 244.019 222.861 243.201 223.299C242.383 223.737 241.536 224.088 240.659 224.351ZM266.849 219.399C266.104 219.399 265.388 219.333 264.702 219.202C264.015 219.055 263.394 218.866 262.839 218.632C262.299 218.398 261.853 218.135 261.502 217.843L263.475 215.717C264.001 215.937 264.541 216.097 265.096 216.2C265.651 216.287 266.309 216.331 267.068 216.331C267.623 216.331 268.018 216.477 268.252 216.769C268.5 217.047 268.624 217.397 268.624 217.821C268.624 218.274 268.471 218.654 268.164 218.96C267.857 219.253 267.419 219.399 266.849 219.399ZM250.174 219.399L250.393 216.331H255.301C256.674 216.331 257.814 216.28 258.72 216.178C259.64 216.075 260.37 215.929 260.911 215.739C261.451 215.535 261.831 215.301 262.05 215.038C262.284 214.775 262.401 214.49 262.401 214.184C262.401 213.906 262.335 213.643 262.204 213.395C262.072 213.132 261.875 212.92 261.612 212.759C261.349 212.599 261.006 212.518 260.582 212.518C260.042 212.518 259.501 212.65 258.961 212.913C258.42 213.161 257.894 213.504 257.383 213.943C256.872 214.366 256.382 214.841 255.915 215.367C255.462 215.893 255.046 216.426 254.666 216.966L251.357 216.506C251.971 215.557 252.635 214.658 253.351 213.811C254.081 212.949 254.848 212.197 255.652 211.554C256.47 210.897 257.31 210.385 258.172 210.02C259.048 209.64 259.939 209.45 260.845 209.45C261.809 209.45 262.635 209.648 263.321 210.042C264.008 210.437 264.534 210.977 264.899 211.664C265.279 212.35 265.469 213.146 265.469 214.052C265.469 215.002 265.198 215.856 264.658 216.616C264.132 217.375 263.234 218.004 261.963 218.5C261.422 218.705 260.838 218.873 260.21 219.004C259.581 219.136 258.844 219.231 257.996 219.289C257.149 219.362 256.134 219.399 254.951 219.399H250.174ZM252.453 217.164L251.992 203.249H255.06L255.455 213.767L252.453 217.164ZM266.865 219.399L267.084 216.353C268.296 216.353 269.268 216.346 269.998 216.331C270.743 216.316 271.32 216.287 271.729 216.243C272.153 216.185 272.467 216.119 272.672 216.046C272.876 215.958 273.051 215.864 273.198 215.761C273.373 215.63 273.519 215.454 273.636 215.235C273.767 215.002 273.87 214.695 273.943 214.315C274.016 213.935 274.052 213.46 274.052 212.891C274.052 212.175 273.986 211.576 273.855 211.094C273.738 210.597 273.563 210.225 273.329 209.976C273.11 209.728 272.84 209.604 272.518 209.604C272.285 209.604 272.065 209.684 271.861 209.845C271.656 209.991 271.488 210.196 271.357 210.458C271.225 210.721 271.16 211.021 271.16 211.357C271.16 211.547 271.211 211.715 271.313 211.861C271.415 212.007 271.576 212.116 271.795 212.19C272.014 212.263 272.292 212.299 272.628 212.299C272.949 212.299 273.285 212.263 273.636 212.19C274.001 212.102 274.337 211.985 274.644 211.839L274.731 214.447C274.498 214.607 274.227 214.753 273.921 214.885C273.614 215.016 273.285 215.119 272.935 215.192C272.599 215.25 272.255 215.279 271.905 215.279C271.13 215.279 270.459 215.177 269.889 214.972C269.334 214.753 268.903 214.403 268.596 213.921C268.289 213.439 268.136 212.781 268.136 211.949C268.136 211.306 268.245 210.67 268.464 210.042C268.684 209.399 268.998 208.822 269.407 208.311C269.816 207.785 270.298 207.369 270.853 207.062C271.408 206.741 272.022 206.58 272.694 206.58C273.687 206.58 274.505 206.872 275.148 207.456C275.805 208.026 276.287 208.8 276.594 209.779C276.915 210.743 277.076 211.817 277.076 213C277.076 214.037 276.923 214.943 276.616 215.717C276.309 216.477 275.944 217.076 275.52 217.514C275.17 217.879 274.768 218.186 274.315 218.435C273.862 218.683 273.307 218.88 272.65 219.026C272.007 219.158 271.211 219.253 270.261 219.311C269.326 219.37 268.194 219.399 266.865 219.399ZM274.556 204.586C274.132 204.586 273.767 204.44 273.461 204.148C273.168 203.841 273.022 203.483 273.022 203.074C273.022 202.65 273.168 202.285 273.461 201.978C273.767 201.672 274.132 201.518 274.556 201.518C274.965 201.518 275.316 201.672 275.608 201.978C275.9 202.285 276.046 202.65 276.046 203.074C276.046 203.483 275.9 203.841 275.608 204.148C275.316 204.44 274.965 204.586 274.556 204.586ZM270.765 204.564C270.342 204.564 269.976 204.418 269.67 204.126C269.377 203.819 269.231 203.461 269.231 203.052C269.231 202.628 269.377 202.263 269.67 201.956C269.976 201.65 270.342 201.496 270.765 201.496C271.174 201.496 271.525 201.65 271.817 201.956C272.109 202.263 272.255 202.628 272.255 203.052C272.255 203.461 272.109 203.819 271.817 204.126C271.525 204.418 271.174 204.564 270.765 204.564Z" fill="white"/>
<path d="M81.1214 450.168V422.911H92.3809C94.4216 422.911 96.1828 423.28 97.6646 424.016C99.1552 424.744 100.304 425.79 101.112 427.157C101.919 428.514 102.323 430.125 102.323 431.988C102.323 433.878 101.91 435.484 101.085 436.806C100.26 438.119 99.0887 439.122 97.5714 439.814C96.0542 440.497 94.2575 440.839 92.1812 440.839H85.0609V435.648H90.9568C91.9505 435.648 92.7801 435.519 93.4456 435.262C94.1199 434.996 94.6301 434.597 94.9761 434.064C95.3222 433.523 95.4952 432.831 95.4952 431.988C95.4952 431.145 95.3222 430.449 94.9761 429.899C94.6301 429.34 94.1199 428.923 93.4456 428.648C92.7713 428.364 91.9417 428.222 90.9568 428.222H87.7094V450.168H81.1214ZM96.4668 437.711L103.254 450.168H96.0675L89.4129 437.711H96.4668ZM115.464 450.554C113.326 450.554 111.48 450.133 109.928 449.29C108.384 448.438 107.195 447.227 106.361 445.657C105.536 444.077 105.123 442.201 105.123 440.027C105.123 437.915 105.54 436.07 106.374 434.49C107.208 432.902 108.384 431.669 109.901 430.79C111.418 429.903 113.206 429.459 115.265 429.459C116.72 429.459 118.051 429.686 119.257 430.138C120.464 430.591 121.507 431.261 122.385 432.148C123.263 433.035 123.947 434.131 124.435 435.435C124.923 436.731 125.167 438.217 125.167 439.894V441.517H107.399V437.738H119.111C119.102 437.046 118.938 436.429 118.619 435.888C118.299 435.346 117.86 434.925 117.301 434.623C116.751 434.313 116.116 434.157 115.398 434.157C114.67 434.157 114.018 434.322 113.441 434.65C112.865 434.969 112.408 435.409 112.07 435.968C111.733 436.518 111.556 437.143 111.538 437.844V441.69C111.538 442.524 111.702 443.256 112.031 443.886C112.359 444.508 112.825 444.991 113.428 445.337C114.031 445.683 114.75 445.856 115.584 445.856C116.161 445.856 116.684 445.776 117.155 445.617C117.625 445.457 118.029 445.222 118.366 444.911C118.703 444.601 118.956 444.219 119.124 443.767L125.1 443.94C124.852 445.279 124.306 446.446 123.463 447.44C122.629 448.425 121.533 449.192 120.176 449.742C118.818 450.284 117.248 450.554 115.464 450.554ZM138.395 458.26C136.452 458.26 134.788 457.99 133.404 457.448C132.02 456.907 130.933 456.166 130.143 455.226C129.353 454.285 128.879 453.221 128.719 452.032L134.881 451.686C134.996 452.103 135.209 452.466 135.52 452.777C135.839 453.087 136.252 453.327 136.758 453.496C137.272 453.664 137.876 453.748 138.568 453.748C139.659 453.748 140.56 453.482 141.269 452.95C141.988 452.426 142.347 451.508 142.347 450.195V446.601H142.121C141.864 447.231 141.473 447.795 140.95 448.292C140.426 448.789 139.774 449.179 138.994 449.463C138.222 449.747 137.334 449.889 136.332 449.889C134.841 449.889 133.475 449.543 132.233 448.851C130.999 448.15 130.01 447.067 129.265 445.603C128.528 444.13 128.16 442.236 128.16 439.92C128.16 437.534 128.541 435.568 129.305 434.024C130.068 432.472 131.066 431.323 132.299 430.577C133.541 429.832 134.877 429.459 136.305 429.459C137.379 429.459 138.297 429.646 139.06 430.018C139.832 430.382 140.466 430.852 140.963 431.429C141.46 432.006 141.837 432.605 142.095 433.226H142.281V429.726H148.762V450.248C148.762 451.978 148.328 453.438 147.458 454.627C146.589 455.816 145.373 456.716 143.811 457.329C142.25 457.95 140.444 458.26 138.395 458.26ZM138.594 445.151C139.384 445.151 140.058 444.942 140.617 444.525C141.176 444.108 141.607 443.509 141.908 442.729C142.21 441.948 142.361 441.012 142.361 439.92C142.361 438.811 142.21 437.857 141.908 437.059C141.615 436.251 141.185 435.63 140.617 435.196C140.058 434.761 139.384 434.543 138.594 434.543C137.787 434.543 137.104 434.765 136.545 435.209C135.986 435.653 135.56 436.278 135.267 437.085C134.983 437.884 134.841 438.829 134.841 439.92C134.841 441.012 134.988 441.948 135.28 442.729C135.573 443.509 135.995 444.108 136.545 444.525C137.104 444.942 137.787 445.151 138.594 445.151ZM153.286 450.168V429.726H159.794V450.168H153.286ZM156.547 427.343C155.633 427.343 154.848 427.042 154.191 426.438C153.535 425.826 153.206 425.09 153.206 424.229C153.206 423.377 153.535 422.65 154.191 422.046C154.848 421.434 155.633 421.128 156.547 421.128C157.47 421.128 158.255 421.434 158.903 422.046C159.559 422.65 159.888 423.377 159.888 424.229C159.888 425.09 159.559 425.826 158.903 426.438C158.255 427.042 157.47 427.343 156.547 427.343ZM173.854 450.554C171.707 450.554 169.862 450.115 168.318 449.237C166.783 448.349 165.598 447.116 164.764 445.537C163.939 443.949 163.526 442.107 163.526 440.013C163.526 437.911 163.939 436.07 164.764 434.49C165.598 432.902 166.783 431.669 168.318 430.79C169.862 429.903 171.707 429.459 173.854 429.459C176.002 429.459 177.843 429.903 179.378 430.79C180.921 431.669 182.106 432.902 182.931 434.49C183.765 436.07 184.182 437.911 184.182 440.013C184.182 442.107 183.765 443.949 182.931 445.537C182.106 447.116 180.921 448.349 179.378 449.237C177.843 450.115 176.002 450.554 173.854 450.554ZM173.894 445.643C174.675 445.643 175.336 445.404 175.877 444.925C176.419 444.445 176.831 443.78 177.115 442.928C177.408 442.076 177.554 441.092 177.554 439.974C177.554 438.838 177.408 437.844 177.115 436.992C176.831 436.141 176.419 435.475 175.877 434.996C175.336 434.517 174.675 434.277 173.894 434.277C173.087 434.277 172.404 434.517 171.845 434.996C171.295 435.475 170.873 436.141 170.58 436.992C170.296 437.844 170.154 438.838 170.154 439.974C170.154 441.092 170.296 442.076 170.58 442.928C170.873 443.78 171.295 444.445 171.845 444.925C172.404 445.404 173.087 445.643 173.894 445.643ZM194.399 438.51V450.168H187.891V429.726H194.08V433.479H194.306C194.758 432.228 195.53 431.247 196.622 430.537C197.713 429.819 199.013 429.459 200.521 429.459C201.959 429.459 203.205 429.783 204.261 430.431C205.326 431.07 206.151 431.966 206.737 433.119C207.331 434.264 207.624 435.604 207.615 437.139V450.168H201.107V438.416C201.116 437.281 200.827 436.393 200.242 435.755C199.665 435.116 198.862 434.796 197.833 434.796C197.15 434.796 196.546 434.947 196.023 435.249C195.508 435.542 195.109 435.963 194.825 436.513C194.55 437.063 194.408 437.729 194.399 438.51ZM217.782 450.514C216.478 450.514 215.32 450.297 214.308 449.862C213.306 449.419 212.511 448.753 211.926 447.866C211.349 446.97 211.061 445.847 211.061 444.499C211.061 443.363 211.26 442.405 211.66 441.624C212.059 440.843 212.609 440.209 213.31 439.721C214.011 439.233 214.818 438.864 215.732 438.616C216.646 438.359 217.622 438.186 218.66 438.097C219.823 437.99 220.759 437.88 221.469 437.764C222.178 437.64 222.693 437.467 223.012 437.245C223.341 437.014 223.505 436.691 223.505 436.274V436.207C223.505 435.524 223.27 434.996 222.799 434.623C222.329 434.251 221.695 434.064 220.896 434.064C220.036 434.064 219.343 434.251 218.82 434.623C218.297 434.996 217.964 435.511 217.822 436.167L211.819 435.954C211.997 434.712 212.454 433.603 213.19 432.627C213.936 431.642 214.956 430.87 216.251 430.311C217.556 429.743 219.122 429.459 220.949 429.459C222.254 429.459 223.456 429.615 224.556 429.925C225.656 430.227 226.615 430.67 227.431 431.256C228.247 431.833 228.877 432.543 229.321 433.386C229.773 434.228 230 435.191 230 436.274V450.168H223.877V447.32H223.718C223.354 448.012 222.888 448.598 222.32 449.077C221.761 449.556 221.1 449.915 220.337 450.155C219.583 450.395 218.731 450.514 217.782 450.514ZM219.792 446.255C220.493 446.255 221.122 446.113 221.681 445.83C222.249 445.546 222.702 445.155 223.039 444.658C223.376 444.153 223.545 443.567 223.545 442.902V440.958C223.358 441.056 223.132 441.145 222.866 441.225C222.609 441.304 222.325 441.38 222.014 441.451C221.704 441.522 221.384 441.584 221.056 441.637C220.728 441.69 220.413 441.739 220.111 441.784C219.499 441.881 218.975 442.032 218.541 442.236C218.115 442.44 217.786 442.706 217.556 443.035C217.334 443.354 217.223 443.736 217.223 444.179C217.223 444.854 217.462 445.368 217.942 445.723C218.43 446.078 219.046 446.255 219.792 446.255ZM240.862 422.911V450.168H234.354V422.911H240.862ZM90.4139 487.168H80.3389V459.911H90.4005C93.1777 459.911 95.5689 460.457 97.5741 461.548C99.5883 462.631 101.141 464.192 102.232 466.233C103.324 468.265 103.869 470.696 103.869 473.526C103.869 476.366 103.324 478.806 102.232 480.846C101.15 482.887 99.6016 484.453 97.5875 485.545C95.5733 486.627 93.1821 487.168 90.4139 487.168ZM86.9269 481.552H90.161C91.6871 481.552 92.9781 481.295 94.0339 480.78C95.0987 480.256 95.9016 479.409 96.4429 478.238C96.993 477.058 97.268 475.487 97.268 473.526C97.268 471.566 96.993 470.004 96.4429 468.842C95.8928 467.67 95.0809 466.828 94.0073 466.313C92.9426 465.789 91.6294 465.528 90.0678 465.528H86.9269V481.552ZM117.633 487.554C115.486 487.554 113.64 487.115 112.096 486.237C110.562 485.349 109.377 484.116 108.543 482.537C107.718 480.949 107.305 479.107 107.305 477.013C107.305 474.911 107.718 473.07 108.543 471.49C109.377 469.902 110.562 468.669 112.096 467.79C113.64 466.903 115.486 466.459 117.633 466.459C119.78 466.459 121.621 466.903 123.156 467.79C124.7 468.669 125.885 469.902 126.71 471.49C127.544 473.07 127.961 474.911 127.961 477.013C127.961 479.107 127.544 480.949 126.71 482.537C125.885 484.116 124.7 485.349 123.156 486.237C121.621 487.115 119.78 487.554 117.633 487.554ZM117.673 482.643C118.454 482.643 119.115 482.404 119.656 481.925C120.197 481.445 120.61 480.78 120.894 479.928C121.187 479.076 121.333 478.092 121.333 476.974C121.333 475.838 121.187 474.844 120.894 473.992C120.61 473.141 120.197 472.475 119.656 471.996C119.115 471.517 118.454 471.277 117.673 471.277C116.866 471.277 116.182 471.517 115.623 471.996C115.073 472.475 114.652 473.141 114.359 473.992C114.075 474.844 113.933 475.838 113.933 476.974C113.933 478.092 114.075 479.076 114.359 479.928C114.652 480.78 115.073 481.445 115.623 481.925C116.182 482.404 116.866 482.643 117.673 482.643ZM131.67 487.168V466.726H137.858V470.479H138.085C138.511 469.237 139.229 468.256 140.241 467.537C141.252 466.819 142.459 466.459 143.861 466.459C145.28 466.459 146.496 466.823 147.507 467.551C148.519 468.278 149.162 469.254 149.437 470.479H149.65C150.032 469.263 150.777 468.292 151.886 467.564C152.995 466.828 154.304 466.459 155.812 466.459C157.747 466.459 159.317 467.08 160.524 468.323C161.73 469.556 162.334 471.251 162.334 473.407V487.168H155.826V474.897C155.826 473.877 155.564 473.101 155.04 472.568C154.517 472.027 153.838 471.756 153.004 471.756C152.108 471.756 151.403 472.049 150.888 472.635C150.382 473.212 150.129 473.988 150.129 474.964V487.168H143.874V474.831C143.874 473.881 143.617 473.132 143.102 472.582C142.588 472.031 141.909 471.756 141.066 471.756C140.498 471.756 139.997 471.894 139.562 472.169C139.127 472.435 138.786 472.817 138.537 473.314C138.298 473.81 138.178 474.396 138.178 475.07V487.168H131.67ZM172.504 487.514C171.2 487.514 170.042 487.297 169.03 486.862C168.028 486.419 167.234 485.753 166.648 484.866C166.071 483.97 165.783 482.847 165.783 481.499C165.783 480.363 165.983 479.405 166.382 478.624C166.781 477.843 167.331 477.209 168.032 476.721C168.733 476.233 169.541 475.864 170.454 475.616C171.368 475.359 172.344 475.186 173.382 475.097C174.545 474.99 175.481 474.88 176.191 474.764C176.9 474.64 177.415 474.467 177.735 474.245C178.063 474.014 178.227 473.691 178.227 473.274V473.207C178.227 472.524 177.992 471.996 177.522 471.623C177.051 471.251 176.417 471.064 175.618 471.064C174.758 471.064 174.066 471.251 173.542 471.623C173.019 471.996 172.686 472.511 172.544 473.167L166.542 472.954C166.719 471.712 167.176 470.603 167.912 469.627C168.658 468.642 169.678 467.87 170.973 467.311C172.278 466.743 173.844 466.459 175.672 466.459C176.976 466.459 178.178 466.615 179.278 466.925C180.379 467.227 181.337 467.67 182.153 468.256C182.969 468.833 183.599 469.543 184.043 470.386C184.496 471.228 184.722 472.191 184.722 473.274V487.168H178.6V484.32H178.44C178.076 485.012 177.61 485.598 177.042 486.077C176.483 486.556 175.822 486.915 175.059 487.155C174.305 487.395 173.453 487.514 172.504 487.514ZM174.514 483.255C175.215 483.255 175.845 483.113 176.404 482.83C176.971 482.546 177.424 482.155 177.761 481.658C178.098 481.153 178.267 480.567 178.267 479.902V477.958C178.081 478.056 177.854 478.145 177.588 478.225C177.331 478.304 177.047 478.38 176.736 478.451C176.426 478.522 176.106 478.584 175.778 478.637C175.45 478.69 175.135 478.739 174.833 478.784C174.221 478.881 173.697 479.032 173.263 479.236C172.837 479.44 172.508 479.706 172.278 480.035C172.056 480.354 171.945 480.736 171.945 481.179C171.945 481.854 172.185 482.368 172.664 482.723C173.152 483.078 173.768 483.255 174.514 483.255ZM189.076 487.168V466.726H195.584V487.168H189.076ZM192.337 464.343C191.423 464.343 190.638 464.042 189.981 463.438C189.324 462.826 188.996 462.09 188.996 461.229C188.996 460.377 189.324 459.65 189.981 459.046C190.638 458.434 191.423 458.128 192.337 458.128C193.259 458.128 194.045 458.434 194.692 459.046C195.349 459.65 195.677 460.377 195.677 461.229C195.677 462.09 195.349 462.826 194.692 463.438C194.045 464.042 193.259 464.343 192.337 464.343ZM206.61 475.51V487.168H200.101V466.726H206.29V470.479H206.516C206.969 469.228 207.741 468.247 208.832 467.537C209.923 466.819 211.223 466.459 212.732 466.459C214.169 466.459 215.416 466.783 216.472 467.431C217.536 468.07 218.361 468.966 218.947 470.119C219.542 471.264 219.834 472.604 219.825 474.139V487.168H213.317V475.416C213.326 474.281 213.038 473.393 212.452 472.755C211.875 472.116 211.072 471.796 210.043 471.796C209.36 471.796 208.757 471.947 208.233 472.249C207.719 472.542 207.319 472.963 207.035 473.513C206.76 474.063 206.618 474.729 206.61 475.51ZM242.077 472.968L236.101 473.127C236.039 472.701 235.871 472.324 235.595 471.996C235.32 471.659 234.961 471.397 234.517 471.211C234.083 471.016 233.577 470.918 233 470.918C232.246 470.918 231.603 471.069 231.07 471.37C230.547 471.672 230.29 472.08 230.298 472.595C230.29 472.994 230.449 473.34 230.778 473.633C231.115 473.926 231.714 474.161 232.574 474.338L236.514 475.084C238.555 475.474 240.072 476.122 241.066 477.027C242.068 477.932 242.574 479.13 242.583 480.62C242.574 482.022 242.157 483.242 241.332 484.28C240.515 485.318 239.397 486.126 237.978 486.702C236.558 487.27 234.934 487.554 233.107 487.554C230.188 487.554 227.885 486.955 226.199 485.758C224.522 484.551 223.564 482.936 223.325 480.913L229.753 480.753C229.895 481.499 230.263 482.066 230.857 482.457C231.452 482.847 232.211 483.042 233.133 483.042C233.967 483.042 234.646 482.887 235.17 482.577C235.693 482.266 235.959 481.854 235.968 481.339C235.959 480.878 235.755 480.509 235.356 480.234C234.957 479.95 234.331 479.729 233.479 479.569L229.913 478.89C227.863 478.517 226.337 477.83 225.334 476.827C224.332 475.816 223.835 474.529 223.844 472.968C223.835 471.601 224.198 470.434 224.935 469.467C225.671 468.491 226.718 467.746 228.076 467.231C229.433 466.717 231.035 466.459 232.88 466.459C235.649 466.459 237.831 467.041 239.429 468.203C241.026 469.356 241.908 470.945 242.077 472.968Z" fill="white"/>
<defs>
<linearGradient id="paint0_linear_1_1543" x1="161" y1="0.156189" x2="161" y2="554" gradientUnits="userSpaceOnUse">
<stop stop-color="#C6379C"/>
<stop offset="1" stop-color="#3C65AA"/>
</linearGradient>
</defs>
</svg>
