<svg xmlns="http://www.w3.org/2000/svg" width="76" height="77" viewBox="0 0 76 77">
  <g id="Group_2114" data-name="Group 2114" transform="translate(-1540 -2880)">
    <circle id="Ellipse_127" data-name="Ellipse 127" cx="36.5" cy="36.5" r="36.5" transform="translate(1542 2882)" fill="#fff"/>
    <g id="Group_1287" data-name="Group 1287" transform="translate(4832 -635)">
      <g id="Group_738" data-name="Group 738" transform="translate(-3291.838 3515.161)">
        <g id="Ellipse_71" data-name="Ellipse 71" transform="translate(-0.162 -0.161)" fill="none" stroke="#f520a0" stroke-width="3">
          <ellipse cx="38" cy="38.5" rx="38" ry="38.5" stroke="none"/>
          <ellipse cx="38" cy="38.5" rx="36.5" ry="37" fill="none"/>
        </g>
        <g id="ssl-certificate" transform="translate(15.406 19.254)">
          <g id="Group_737" data-name="Group 737" transform="translate(0 0)">
            <g id="Group_736" data-name="Group 736">
              <path id="Path_443" data-name="Path 443" d="M40.775,29.867H3.707A3.711,3.711,0,0,0,0,33.574V60.263A3.711,3.711,0,0,0,3.707,63.97H27.43v4.448a.741.741,0,0,0,1.123.635l3.325-1.995L35.2,69.053a.741.741,0,0,0,1.123-.635V63.97h4.448a3.711,3.711,0,0,0,3.707-3.707V33.574A3.711,3.711,0,0,0,40.775,29.867ZM34.844,67.108l-2.584-1.55a.671.671,0,0,0-.095-.034.729.729,0,0,0-.148-.052.7.7,0,0,0-.142-.007.519.519,0,0,0-.287.06.7.7,0,0,0-.093.033l-2.582,1.55V59.942a2.229,2.229,0,0,0,.711-.1l2.026-.655a.741.741,0,0,1,.457,0l2.027.656a2.265,2.265,0,0,0,.691.11h.019v7.161Zm.638-9.047a.741.741,0,0,1-.89.371l-2.027-.656a2.2,2.2,0,0,0-1.369,0l-2.026.655a.735.735,0,0,1-.89-.371l-.97-1.9a2.214,2.214,0,0,0-.968-.968l-1.9-.969a.741.741,0,0,1-.371-.89l.656-2.027a2.2,2.2,0,0,0,0-1.369l-.655-2.026a.737.737,0,0,1,.371-.89l1.9-.97a2.214,2.214,0,0,0,.968-.968l.969-1.9a.741.741,0,0,1,.89-.371l2.027.656a2.2,2.2,0,0,0,1.369,0l2.026-.655a.735.735,0,0,1,.89.371l.97,1.9a2.214,2.214,0,0,0,.968.968l1.9.969a.741.741,0,0,1,.371.89l-.656,2.027a2.2,2.2,0,0,0,0,1.369l.655,2.026a.737.737,0,0,1-.371.89l-1.9.97a2.214,2.214,0,0,0-.968.968ZM43,60.263a2.224,2.224,0,0,1-2.224,2.224H36.327V59.352a2.238,2.238,0,0,0,.472-.618l.968-1.9a.748.748,0,0,1,.322-.324l1.9-.968a2.215,2.215,0,0,0,1.1-2.669l-.655-2.026a.742.742,0,0,1,0-.457l.656-2.027a2.215,2.215,0,0,0-1.1-2.665l-1.9-.965a.748.748,0,0,1-.324-.322l-.968-1.9a2.217,2.217,0,0,0-2.669-1.1l-2.026.655a.742.742,0,0,1-.457,0l-2.027-.656a2.217,2.217,0,0,0-2.665,1.1l-.965,1.9a.748.748,0,0,1-.322.324l-1.9.968a2.214,2.214,0,0,0-1.1,2.669l.655,2.026a.742.742,0,0,1,0,.457l-.656,2.027a2.215,2.215,0,0,0,1.1,2.665l1.9.968a.748.748,0,0,1,.324.322l.968,1.9a2.236,2.236,0,0,0,.472.623v3.127H3.707a2.224,2.224,0,0,1-2.224-2.224V33.574A2.224,2.224,0,0,1,3.707,31.35H40.775A2.224,2.224,0,0,1,43,33.574V60.263Z" transform="translate(0 -29.867)" fill="#f520a0"/>
              <path id="Path_444" data-name="Path 444" d="M304.6,200.534a5.931,5.931,0,1,0,5.931,5.931A5.931,5.931,0,0,0,304.6,200.534Zm0,10.379a4.448,4.448,0,1,1,4.448-4.448A4.448,4.448,0,0,1,304.6,210.913Z" transform="translate(-272.718 -185.707)" fill="#f520a0"/>
              <path id="Path_445" data-name="Path 445" d="M37.1,72.9a1.483,1.483,0,0,1-1.483-1.483.741.741,0,1,0-1.483,0A2.965,2.965,0,1,0,37.1,68.449a1.483,1.483,0,0,1-1.048-2.532,1.52,1.52,0,0,1,2.1,0,1.475,1.475,0,0,1,.434,1.049.741.741,0,1,0,1.483,0A2.965,2.965,0,1,0,37.1,69.932a1.483,1.483,0,0,1,0,2.965Z" transform="translate(-31.168 -61.036)" fill="#f520a0"/>
              <path id="Path_446" data-name="Path 446" d="M122.432,72.9a1.483,1.483,0,0,1-1.483-1.483.741.741,0,1,0-1.483,0,2.965,2.965,0,1,0,2.965-2.965,1.483,1.483,0,0,1-1.048-2.532,1.52,1.52,0,0,1,2.1,0,1.475,1.475,0,0,1,.434,1.049.741.741,0,1,0,1.483,0,2.965,2.965,0,1,0-2.965,2.965,1.483,1.483,0,1,1,0,2.965Z" transform="translate(-109.088 -61.036)" fill="#f520a0"/>
              <path id="Path_447" data-name="Path 447" d="M209.989,72.9h-3.707V64.742a.741.741,0,1,0-1.483,0V72.9a1.483,1.483,0,0,0,1.483,1.483h3.707a.741.741,0,0,0,0-1.483Z" transform="translate(-187.007 -61.035)" fill="#f520a0"/>
              <path id="Path_448" data-name="Path 448" d="M34.875,202.018H37.1a.741.741,0,0,0,0-1.483H34.875a.741.741,0,0,0,0,1.483Z" transform="translate(-31.169 -185.708)" fill="#f520a0"/>
              <path id="Path_449" data-name="Path 449" d="M105.729,200.534H94.608a.741.741,0,1,0,0,1.483h11.12a.741.741,0,1,0,0-1.483Z" transform="translate(-85.712 -185.707)" fill="#f520a0"/>
              <path id="Path_450" data-name="Path 450" d="M199.232,243.2h-2.224a.741.741,0,1,0,0,1.483h2.224a.741.741,0,0,0,0-1.483Z" transform="translate(-179.216 -224.667)" fill="#f520a0"/>
              <path id="Path_451" data-name="Path 451" d="M34.875,244.684H46a.741.741,0,1,0,0-1.483H34.875a.741.741,0,1,0,0,1.483Z" transform="translate(-31.169 -224.667)" fill="#f520a0"/>
              <path id="Path_452" data-name="Path 452" d="M51.185,285.867H34.875a.741.741,0,1,0,0,1.483h16.31a.741.741,0,1,0,0-1.483Z" transform="translate(-31.169 -263.626)" fill="#f520a0"/>
              <path id="Path_453" data-name="Path 453" d="M49.331,328.534h-12.6a2.595,2.595,0,0,0,0,5.19h12.6a2.595,2.595,0,0,0,0-5.19Zm0,3.707h-12.6a1.112,1.112,0,1,1,0-2.224h12.6a1.112,1.112,0,1,1,0,2.224Z" transform="translate(-31.168 -302.586)" fill="#f520a0"/>
            </g>
          </g>
        </g>
      </g>
    </g>
  </g>
</svg>
