<svg id="park-tickets-couple" xmlns="http://www.w3.org/2000/svg" width="39.679" height="39.696" viewBox="0 0 39.679 39.696">
  <path id="Path_1641" data-name="Path 1641" d="M74.163,485.8a2.006,2.006,0,0,1-1.914,1.579.653.653,0,0,0-.25,1.241,2,2,0,0,1,1.156,2.2l-.169.846a2.111,2.111,0,0,1-2.534,1.547c-.3-.073-.612-.129-.919-.189-.451-.089-.9-.181-1.354-.27-.6-.121-1.193-.238-1.789-.359-.709-.141-1.422-.286-2.131-.427-.794-.161-1.587-.318-2.381-.479-.846-.169-1.7-.338-2.542-.512-.87-.173-1.74-.35-2.607-.524l-2.582-.52-2.466-.5c-.753-.149-1.5-.3-2.256-.451-.653-.129-1.305-.262-1.954-.391l-1.563-.314-1.076-.218c-.165-.032-.33-.068-.5-.1-.008,0-.016,0-.024,0a2.042,2.042,0,0,1-.145,1.285,2.065,2.065,0,0,1-2.264,1.16.608.608,0,0,0-.681.3l-.363.786a.609.609,0,0,0,.214.713c.04.032,29.079,13.42,29.127,13.432a.608.608,0,0,0,.681-.3l.363-.786a.609.609,0,0,0-.214-.713,2.062,2.062,0,0,1,1.68-3.634.608.608,0,0,0,.681-.3l.363-.786a.609.609,0,0,0-.214-.713,2.062,2.062,0,0,1,1.68-3.634.608.608,0,0,0,.681-.3l.363-.786a.609.609,0,0,0-.214-.713,2.062,2.062,0,0,1,1.68-3.634.608.608,0,0,0,.681-.3l.4-.87a.5.5,0,0,0-.242-.661l-4.339-2Z" transform="translate(-39.18 -465.943)" fill="#34a11a"/>
  <path id="Path_1642" data-name="Path 1642" d="M.586,19.574c.048.024,31.4,6.313,31.448,6.313a.609.609,0,0,0,.592-.447l.169-.846a.611.611,0,0,0-.375-.645,2.063,2.063,0,0,1,.79-3.928.609.609,0,0,0,.592-.447l.125-.62.044-.23a.611.611,0,0,0-.375-.645,2.063,2.063,0,0,1,.79-3.928.609.609,0,0,0,.592-.447l.169-.846a.611.611,0,0,0-.375-.645,2.063,2.063,0,0,1,.79-3.928.609.609,0,0,0,.592-.447l.189-.939a.5.5,0,0,0-.391-.584S4.453,0,4.421,0a.5.5,0,0,0-.487.4l-.189.939a.611.611,0,0,0,.375.645,2.063,2.063,0,0,1-.79,3.928.609.609,0,0,0-.592.447L2.568,7.2a.611.611,0,0,0,.375.645,2.063,2.063,0,0,1-.79,3.928.609.609,0,0,0-.592.447l-.169.846a.611.611,0,0,0,.375.645,2.063,2.063,0,0,1-.79,3.928.609.609,0,0,0-.592.447l-.169.846A.6.6,0,0,0,.586,19.574ZM27.437,9.249a1.007,1.007,0,1,1,1.974.395l-1.329,6.615-.818,4.077a1.007,1.007,0,0,1-.987.81,1.093,1.093,0,0,1-.2-.02,1.008,1.008,0,0,1-.79-1.184l.915-4.548ZM9.276,5.6A1.007,1.007,0,1,1,11.25,6L10.79,8.282l-.52,2.59-.419,2.087L9.107,16.69a1.007,1.007,0,0,1-.987.81,1.093,1.093,0,0,1-.2-.02.479.479,0,0,1-.081-.02A1,1,0,0,1,7.137,16.3l.149-.753.391-1.95Z" transform="translate(-0.205 0.001)" fill="#34a11a"/>
</svg>
