<svg xmlns="http://www.w3.org/2000/svg" xmlns:xlink="http://www.w3.org/1999/xlink" width="94" height="94" viewBox="0 0 94 94">
  <defs>
    <filter id="Ellipse_115" x="0" y="0" width="94" height="94" filterUnits="userSpaceOnUse">
      <feOffset input="SourceAlpha"/>
      <feGaussianBlur stdDeviation="3" result="blur"/>
      <feFlood flood-opacity="0.161"/>
      <feComposite operator="in" in2="blur"/>
      <feComposite in="SourceGraphic"/>
    </filter>
  </defs>
  <g id="Group_1873" data-name="Group 1873" transform="translate(-131 -1445)">
    <g transform="matrix(1, 0, 0, 1, 131, 1445)" filter="url(#Ellipse_115)">
      <circle id="Ellipse_115-2" data-name="Ellipse 115" cx="38" cy="38" r="38" transform="translate(9 9)" fill="#aedcff"/>
    </g>
    <g id="technical-support" transform="translate(156 1469.687)">
      <g id="Group_1870" data-name="Group 1870" transform="translate(0.641 0.954)">
        <g id="Group_1869" data-name="Group 1869">
          <g id="Group_1861" data-name="Group 1861">
            <g id="Group_1849" data-name="Group 1849" transform="translate(27.977)">
              <path id="Path_1616" data-name="Path 1616" d="M347.385,7.812H336.6a1.865,1.865,0,0,0-1.865,1.865V15.07a1.865,1.865,0,0,0,1.865,1.865,1.089,1.089,0,0,1,1.089,1.089V21.36a.417.417,0,0,0,.775.215l2.465-4.11a1.089,1.089,0,0,1,.934-.529h5.521a1.865,1.865,0,0,0,1.865-1.865V9.677A1.865,1.865,0,0,0,347.385,7.812Z" transform="translate(-334.736 -7.812)" fill="#b3e59f"/>
              <path id="Path_1617" data-name="Path 1617" d="M367.331,7.812h-5.586a1.865,1.865,0,0,1,1.865,1.865V15.07a1.865,1.865,0,0,1-1.865,1.865h-5.2a1.089,1.089,0,0,1,1.089,1.089V21.36a.417.417,0,0,0,.776.215l2.465-4.11a1.089,1.089,0,0,1,.934-.529h5.521A1.865,1.865,0,0,0,369.2,15.07V9.677a1.865,1.865,0,0,0-1.865-1.865Z" transform="translate(-354.682 -7.812)" fill="#95d6a4"/>
            </g>
            <g id="Group_1860" data-name="Group 1860" transform="translate(0 19.128)">
              <g id="Group_1859" data-name="Group 1859">
                <g id="Group_1858" data-name="Group 1858">
                  <g id="Group_1853" data-name="Group 1853" transform="translate(11.436)">
                    <g id="Group_1852" data-name="Group 1852">
                      <g id="Group_1851" data-name="Group 1851">
                        <g id="Group_1850" data-name="Group 1850">
                          <path id="Path_1618" data-name="Path 1618" d="M151.428,238.513a1.867,1.867,0,0,1-1.514-1.834v-5.128h-7.138v5.128a1.871,1.871,0,0,1-1.514,1.834S151.911,238.606,151.428,238.513Z" transform="translate(-141.261 -231.551)" fill="#ffddce"/>
                        </g>
                      </g>
                    </g>
                  </g>
                  <g id="Group_1857" data-name="Group 1857" transform="translate(0.513 7.299)">
                    <g id="Group_1856" data-name="Group 1856">
                      <g id="Group_1855" data-name="Group 1855">
                        <g id="Group_1854" data-name="Group 1854">
                          <path id="Path_1619" data-name="Path 1619" d="M36.57,316.973c-.508-.1-14.126,0-14.126,0A11.028,11.028,0,0,0,13.5,327.8v3.637a1.494,1.494,0,0,0,1.494,1.494H44.02a1.494,1.494,0,0,0,1.494-1.494V327.8A11.027,11.027,0,0,0,36.57,316.973Z" transform="translate(-13.501 -316.93)" fill="#ffd064"/>
                        </g>
                      </g>
                    </g>
                  </g>
                  <path id="Path_1620" data-name="Path 1620" d="M67.026,325.525H40.98L40.289,312.8a1.968,1.968,0,0,1,1.965-2.075h23.5a1.968,1.968,0,0,1,1.965,2.075Z" transform="translate(-37.483 -303.953)" fill="#eaf2ff"/>
                  <path id="Path_1621" data-name="Path 1621" d="M278.389,310.722H272.8a1.968,1.968,0,0,1,1.965,2.075l-.691,12.728h5.586l.691-12.728A1.968,1.968,0,0,0,278.389,310.722Z" transform="translate(-250.121 -303.953)" fill="#dbe8f9"/>
                  <path id="Path_1622" data-name="Path 1622" d="M39.16,471.934H8.879a1.379,1.379,0,1,0,0,2.758H39.16a1.379,1.379,0,1,0,0-2.758Z" transform="translate(-7.5 -451.383)" fill="#9bc4f9"/>
                  <path id="Path_1623" data-name="Path 1623" d="M317.639,471.934h-4.247v1.379a1.379,1.379,0,0,1-1.379,1.379h5.626a1.379,1.379,0,0,0,0-2.758Z" transform="translate(-285.979 -451.383)" fill="#7fb2f9"/>
                </g>
              </g>
              <path id="Path_1624" data-name="Path 1624" d="M160.61,374.3a4.569,4.569,0,0,1,1.179-3.056l.017-.019a3.911,3.911,0,0,0-.988-6.008.336.336,0,0,0-.5.291v2.909a.883.883,0,0,1-.883.883h-1.086a.883.883,0,0,1-.883-.883v-2.909a.336.336,0,0,0-.5-.291,3.911,3.911,0,0,0-.987,6.008l.017.019a4.569,4.569,0,0,1,1.179,3.056Z" transform="translate(-142.37 -353.753)" fill="#7fb2f9"/>
            </g>
          </g>
          <g id="Group_1868" data-name="Group 1868" transform="translate(6.692 2.405)">
            <g id="Group_1867" data-name="Group 1867" transform="translate(0)">
              <g id="Group_1866" data-name="Group 1866">
                <g id="Group_1865" data-name="Group 1865">
                  <path id="Path_1625" data-name="Path 1625" d="M114.673,58.468l-.477,0-.008-1.922a7,7,0,0,0-13.992.06l.006,1.355,0,.567-.477,0a1.274,1.274,0,0,0-1.261,1.287l.006,1.42a1.274,1.274,0,0,0,1.272,1.276l.479,0a6.623,6.623,0,0,0,2.227,4.857,7.1,7.1,0,0,0,9.575-.041,6.624,6.624,0,0,0,2.187-4.876l.479,0a1.274,1.274,0,0,0,1.261-1.287l-.006-1.42A1.274,1.274,0,0,0,114.673,58.468Z" transform="translate(-97.381 -48.528)" fill="#ffddce"/>
                  <path id="Path_1626" data-name="Path 1626" d="M188.522,63.438a1.274,1.274,0,0,0-1.272-1.276l-.477,0-.008-1.922a6.8,6.8,0,0,0-4.854-6.5,6.719,6.719,0,0,1,.927,3.42l.023,8.984a6.624,6.624,0,0,1-2.187,4.876,7.486,7.486,0,0,1-2.846,1.59,7.032,7.032,0,0,0,6.773-1.59,6.624,6.624,0,0,0,2.187-4.876l.479,0a1.274,1.274,0,0,0,1.261-1.287Z" transform="translate(-169.958 -52.222)" fill="#ffcbbe"/>
                  <g id="Group_1864" data-name="Group 1864" transform="translate(0 8.783)">
                    <g id="Group_1862" data-name="Group 1862" transform="translate(16.825)">
                      <path id="Path_1627" data-name="Path 1627" d="M282.575,138.669v5.286h1.4a1.425,1.425,0,0,0,1.425-1.425v-2.436a1.425,1.425,0,0,0-1.425-1.425Z" transform="translate(-282.575 -138.669)" fill="#9bc4f9"/>
                    </g>
                    <g id="Group_1863" data-name="Group 1863">
                      <path id="Path_1628" data-name="Path 1628" d="M88.607,138.669v5.286H87.2a1.425,1.425,0,0,1-1.425-1.425v-2.436a1.425,1.425,0,0,1,1.425-1.425Z" transform="translate(-85.778 -138.669)" fill="#9bc4f9"/>
                    </g>
                  </g>
                  <path id="Path_1629" data-name="Path 1629" d="M114.6,38.8h-.072a.721.721,0,0,1-.721-.721,2.134,2.134,0,0,0-2.134-2.134h-6.791a5.472,5.472,0,0,0-5.472,5.472v3.616a1.248,1.248,0,0,0,.838,1.179l1.348.469a.724.724,0,0,0,.962-.685l0-2.55a2.232,2.232,0,0,1,2.209-2.255h.027a3.543,3.543,0,0,1,1.1.17,6.253,6.253,0,0,0,1.937.321h.486a6.25,6.25,0,0,0,1.937-.321,3.546,3.546,0,0,1,1.1-.17h.027a2.232,2.232,0,0,1,2.209,2.255l0,2.55a.724.724,0,0,0,.962.685l1.347-.469a1.248,1.248,0,0,0,.838-1.179v-4.1A2.134,2.134,0,0,0,114.6,38.8Z" transform="translate(-98.25 -35.943)" fill="#756e78"/>
                  <path id="Path_1630" data-name="Path 1630" d="M216.807,38.8h-.072a.721.721,0,0,1-.721-.721,2.134,2.134,0,0,0-2.134-2.134h-2.708a6.669,6.669,0,0,1,2.159,4.942V41.2c.075,0,.151-.007.227-.007h.027a2.232,2.232,0,0,1,2.209,2.255l0,2.55a.724.724,0,0,0,.962.685l1.347-.469a1.248,1.248,0,0,0,.838-1.179v-4.1A2.134,2.134,0,0,0,216.807,38.8Z" transform="translate(-200.452 -35.943)" fill="#665e66"/>
                  <path id="Path_1631" data-name="Path 1631" d="M228.219,222.293H226.61a1.112,1.112,0,0,1,0-2.223h1.609a1.112,1.112,0,1,1,0,2.223Z" transform="translate(-213.553 -204.328)" fill="#db636e"/>
                </g>
              </g>
            </g>
          </g>
        </g>
      </g>
      <g id="Group_1872" data-name="Group 1872" transform="translate(0 0.313)">
        <g id="Group_1871" data-name="Group 1871">
          <path id="Path_1632" data-name="Path 1632" d="M404.214,37.252h-5.595a.641.641,0,1,0,0,1.282h5.595a.641.641,0,1,0,0-1.282Z" transform="translate(-363.953 -34.094)"/>
          <path id="Path_1633" data-name="Path 1633" d="M361.457,38.534h.682a.641.641,0,1,0,0-1.282h-.682a.641.641,0,1,0,0,1.282Z" transform="translate(-329.968 -34.094)"/>
          <path id="Path_1634" data-name="Path 1634" d="M361.457,73.766h8.772a.641.641,0,0,0,0-1.282h-8.772a.641.641,0,1,0,0,1.282Z" transform="translate(-329.968 -66.314)"/>
          <path id="Path_1635" data-name="Path 1635" d="M33.808,63.978a11.711,11.711,0,0,0-2.413-7.1l.119-2.189a2.608,2.608,0,0,0-2.606-2.751H21.89a1.223,1.223,0,0,1-.519-1v-1.79a7.265,7.265,0,0,0,2.414-2.462h1.241a2.606,2.606,0,0,0,2.6-2.6V39.29a2.066,2.066,0,0,0-1.166-1.859V34.07A2.778,2.778,0,0,0,23.688,31.3h-.072a.079.079,0,0,1-.079-.079,2.778,2.778,0,0,0-2.775-2.775H13.971a6.12,6.12,0,0,0-6.113,6.113v2.876A2.066,2.066,0,0,0,6.692,39.29v2.435a2.069,2.069,0,0,0,2.066,2.066h.828a7.2,7.2,0,0,0,2.4,4.618,8.793,8.793,0,0,0,.968.727v1.8a1.225,1.225,0,0,1-.521,1H5.413a2.608,2.608,0,0,0-2.606,2.751l.119,2.189a11.711,11.711,0,0,0-2.413,7.1v2.415A2.019,2.019,0,0,0,2.02,69.756H32.3a2.018,2.018,0,0,0,1.507-3.363Zm-1.282,0v1.751a2.028,2.028,0,0,0-.225-.013H30.916l.362-6.668A10.419,10.419,0,0,1,32.526,63.978Zm-6.245-25a.78.78,0,0,1,.066.313v2.435a.785.785,0,0,1-.784.784H24.8V40.093l.4-.138A1.889,1.889,0,0,0,26.281,38.977ZM22,46.406H20.391a.47.47,0,1,1,0-.941H22a.47.47,0,1,1,0,.941ZM25.026,45.4h-.648a7.547,7.547,0,0,0,.371-1.608h.814a2.055,2.055,0,0,0,.784-.155v.442A1.322,1.322,0,0,1,25.026,45.4ZM9.141,34.554a4.836,4.836,0,0,1,4.831-4.831h6.791a1.494,1.494,0,0,1,1.492,1.492,1.363,1.363,0,0,0,1.362,1.362h.072a1.494,1.494,0,0,1,1.492,1.492v4.1a.608.608,0,0,1-.407.573l-1.347.469a.083.083,0,0,1-.11-.079l0-2.548a2.974,2.974,0,0,0-4.173-2.7,6.816,6.816,0,0,1-3.968,0A2.976,2.976,0,0,0,11,36.584l0,2.55a.083.083,0,0,1-.11.079l-1.348-.469a.607.607,0,0,1-.407-.573V34.554ZM7.975,41.726V39.29a.78.78,0,0,1,.066-.313,1.889,1.889,0,0,0,1.086.978l.4.138V42.51H8.759a.785.785,0,0,1-.784-.784Zm2.841,1.326c-.021-.843-.008-1.738-.012-2.557.039,0,.079.005.119.005a1.366,1.366,0,0,0,1.366-1.367l0-2.552c0-1.041.93-1.976,2.5-1.471a8.072,8.072,0,0,0,4.753,0c1.495-.48,2.5.365,2.5,1.474l0,2.55a1.365,1.365,0,0,0,1.484,1.362V43.1a6.325,6.325,0,0,1-.265,1.609A1.747,1.747,0,0,0,22,44.183H20.391a1.753,1.753,0,1,0,0,3.506h.815a6.562,6.562,0,0,1-4.011,1.431,6.287,6.287,0,0,1-6.379-6.068Zm3.417,7.883V49.812a7.816,7.816,0,0,0,2.96.59h.015a7.824,7.824,0,0,0,2.882-.585v1.117a2.5,2.5,0,0,0,.208,1H14.024A2.5,2.5,0,0,0,14.233,50.934ZM3.044,59.048l.1,1.866a.641.641,0,1,0,1.281-.069l-.338-6.23a1.326,1.326,0,0,1,1.325-1.4h23.5a1.326,1.326,0,0,1,1.325,1.4l-.6,11.1H19.577a3.938,3.938,0,0,1,.96-1.986l.018-.021a4.556,4.556,0,0,0-1.149-6.992.978.978,0,0,0-1.461.849v2.909a.242.242,0,0,1-.242.242H16.618a.242.242,0,0,1-.242-.242V57.566a.978.978,0,0,0-1.461-.849,4.556,4.556,0,0,0-1.147,6.995l.016.018a3.937,3.937,0,0,1,.96,1.986H4.69l-.1-1.9a.641.641,0,0,0-1.281.069l.1,1.826H2.02a2.049,2.049,0,0,0-.225.013V63.978a10.42,10.42,0,0,1,1.248-4.929Zm13,6.668a5.213,5.213,0,0,0-1.3-2.844l-.015-.017a3.271,3.271,0,0,1,.372-4.711v2.331A1.526,1.526,0,0,0,16.618,62H17.7a1.526,1.526,0,0,0,1.524-1.524V58.144a3.271,3.271,0,0,1,.37,4.713l-.014.015a5.213,5.213,0,0,0-1.3,2.844ZM32.3,68.474H2.02A.738.738,0,1,1,2.02,67H32.3a.738.738,0,1,1,0,1.475Z" transform="translate(0 -26.036)"/>
          <path id="Path_1636" data-name="Path 1636" d="M342.39,4.7a.641.641,0,0,0,.641-.641V2.819A2.509,2.509,0,0,0,340.525.313H329.741a2.509,2.509,0,0,0-2.506,2.506V8.213a2.509,2.509,0,0,0,2.506,2.506.448.448,0,0,1,.448.448V14.5a1.059,1.059,0,0,0,1.967.544l2.465-4.11a.45.45,0,0,1,.384-.217h5.521a2.509,2.509,0,0,0,2.506-2.506V7.058a.641.641,0,1,0-1.282,0V8.213a1.225,1.225,0,0,1-1.224,1.224H335a1.739,1.739,0,0,0-1.484.84l-2.049,3.417V11.166a1.732,1.732,0,0,0-1.73-1.73,1.225,1.225,0,0,1-1.224-1.224V2.819A1.225,1.225,0,0,1,329.741,1.6h10.784a1.225,1.225,0,0,1,1.224,1.224V4.06a.641.641,0,0,0,.641.641Z" transform="translate(-299.258 -0.313)"/>
        </g>
      </g>
    </g>
  </g>
</svg>
