<svg id="Group_1840" data-name="Group 1840" xmlns="http://www.w3.org/2000/svg" width="38.133" height="38.133" viewBox="0 0 38.133 38.133">
  <path id="Path_1614" data-name="Path 1614" d="M59.72,33.936H39.733a5.8,5.8,0,0,0-5.8,5.8V59.719a5.8,5.8,0,0,0,5.8,5.8H59.72a5.8,5.8,0,0,0,5.8-5.8V39.733A5.8,5.8,0,0,0,59.72,33.936Zm-7.877,6.519a.855.855,0,0,1,1.2-.106c.183.154.36.316.526.481a7.978,7.978,0,0,1,.164,11.115.855.855,0,1,1-1.243-1.173,6.236,6.236,0,0,0-.129-8.732c-.131-.131-.27-.258-.416-.381A.854.854,0,0,1,51.843,40.455Zm-2.588,2.6a.855.855,0,0,1,1.19-.216,4.412,4.412,0,0,1,.788,6.564.855.855,0,0,1-1.277-1.136,2.709,2.709,0,0,0-.11-3.712,2.671,2.671,0,0,0-.374-.311A.855.855,0,0,1,49.255,43.056Zm5.783,17.479c-.4.279-4.946,2.4-10.84-6.063S41.87,42.481,42.271,42.2c1.6-1.113,2.708-.051,3.77,1.473s1.839,4.645.508,5.108c-.717.252.164,2.1,1.07,3.307s2.245,2.737,2.731,2.15c.9-1.088,3.554.726,4.615,2.25S56.636,59.423,55.038,60.535Zm1.212-6.067a.855.855,0,0,1-1.232-1.185,9.88,9.88,0,0,0-.135-13.763c-.133-.133-.273-.265-.429-.4a.855.855,0,1,1,1.137-1.277c.18.16.343.314.5.471a11.538,11.538,0,0,1,.159,16.158Z" transform="translate(-30.66 -30.66)" fill="#eb5151"/>
  <path id="Path_1615" data-name="Path 1615" d="M30.217,0H7.916A7.925,7.925,0,0,0,0,7.916v22.3a7.925,7.925,0,0,0,7.916,7.917h22.3a7.925,7.925,0,0,0,7.916-7.917V7.916A7.925,7.925,0,0,0,30.217,0Zm6.468,30.216a6.476,6.476,0,0,1-6.468,6.469H7.916a6.476,6.476,0,0,1-6.468-6.469V7.916A6.476,6.476,0,0,1,7.916,1.448h22.3a6.476,6.476,0,0,1,6.468,6.468Z" fill="#eb5151"/>
</svg>
