<svg xmlns="http://www.w3.org/2000/svg" width="77" height="77" viewBox="0 0 77 77">
  <g id="Group_2112" data-name="Group 2112" transform="translate(-713 -2877)">
    <circle id="Ellipse_125" data-name="Ellipse 125" cx="36.5" cy="36.5" r="36.5" transform="translate(715 2879)" fill="#fff"/>
    <g id="Group_1286" data-name="Group 1286" transform="translate(4055 -399)">
      <g id="Ellipse_68" data-name="Ellipse 68" transform="translate(-3342 3276)" fill="none" stroke="#d51f26" stroke-width="3">
        <circle cx="38.5" cy="38.5" r="38.5" stroke="none"/>
        <circle cx="38.5" cy="38.5" r="37" fill="none"/>
      </g>
      <g id="vps" transform="translate(-3329 3289)">
        <path id="Path_426" data-name="Path 426" d="M320.086,344.043h1.586v1.586h-1.586Zm0,0" transform="translate(-288.363 -309.949)" fill="#d51f26"/>
        <path id="Path_427" data-name="Path 427" d="M352.086,344.043h1.586v1.586h-1.586Zm0,0" transform="translate(-317.191 -309.949)" fill="#d51f26"/>
        <path id="Path_428" data-name="Path 428" d="M384.086,344.043h1.586v1.586h-1.586Zm0,0" transform="translate(-346.02 -309.949)" fill="#d51f26"/>
        <path id="Path_429" data-name="Path 429" d="M320.086,280.043h1.586v1.586h-1.586Zm0,0" transform="translate(-288.363 -252.292)" fill="#d51f26"/>
        <path id="Path_430" data-name="Path 430" d="M352.086,280.043h1.586v1.586h-1.586Zm0,0" transform="translate(-317.191 -252.292)" fill="#d51f26"/>
        <path id="Path_431" data-name="Path 431" d="M384.086,280.043h1.586v1.586h-1.586Zm0,0" transform="translate(-346.02 -252.292)" fill="#d51f26"/>
        <path id="Path_432" data-name="Path 432" d="M320.086,216.043h1.586v1.586h-1.586Zm0,0" transform="translate(-288.363 -194.634)" fill="#d51f26"/>
        <path id="Path_433" data-name="Path 433" d="M352.086,216.043h1.586v1.586h-1.586Zm0,0" transform="translate(-317.191 -194.634)" fill="#d51f26"/>
        <path id="Path_434" data-name="Path 434" d="M384.086,216.043h1.586v1.586h-1.586Zm0,0" transform="translate(-346.02 -194.634)" fill="#d51f26"/>
        <path id="Path_435" data-name="Path 435" d="M320.086,152.043h1.586v1.586h-1.586Zm0,0" transform="translate(-288.363 -136.977)" fill="#d51f26"/>
        <path id="Path_436" data-name="Path 436" d="M352.086,152.043h1.586v1.586h-1.586Zm0,0" transform="translate(-317.191 -136.977)" fill="#d51f26"/>
        <path id="Path_437" data-name="Path 437" d="M384.086,152.043h1.586v1.586h-1.586Zm0,0" transform="translate(-346.02 -136.977)" fill="#d51f26"/>
        <path id="Path_438" data-name="Path 438" d="M416.086,344.043h6.343v1.586h-6.343Zm0,0" transform="translate(-374.849 -309.949)" fill="#d51f26"/>
        <path id="Path_439" data-name="Path 439" d="M416.086,280.043h6.343v1.586h-6.343Zm0,0" transform="translate(-374.849 -252.292)" fill="#d51f26"/>
        <path id="Path_440" data-name="Path 440" d="M416.086,216.043h6.343v1.586h-6.343Zm0,0" transform="translate(-374.849 -194.634)" fill="#d51f26"/>
        <path id="Path_441" data-name="Path 441" d="M46.843,11.907a25.374,25.374,0,1,0,0,26.956h3.889V11.907Zm-1.894,0H28.529V27.9l-4.2-1.2-2.141-4.277v-2.6l1.893-1.514,1.964-7.853,3.087-1.716h7.135l3.748-2.082L40,6.635a23.849,23.849,0,0,1,4.948,5.273ZM1.573,25.385A23.687,23.687,0,0,1,7.648,9.529H10.82l2.646,1.982v6.132L12.1,20.027,8.958,21.6,7.123,24.355v4.628l4.916,3.276.986,2.3L12.4,36.742,8.506,38.863H5.775a23.641,23.641,0,0,1-4.2-13.478ZM25.357,49.17A23.633,23.633,0,0,1,15.452,47l2.99-1.794h5.47l6.1-2.286,5.749,3.833a23.73,23.73,0,0,1-10.4,2.417ZM37.342,45.9l-7.126-4.75-6.587,2.47H18l-4.153,2.492.074.122a23.939,23.939,0,0,1-6.956-5.785H8.908l4.83-2.634L14.7,34.45,13.306,31.2l-4.6-3.067v-3.3l1.336-2,3.2-1.6,1.809-3.163V10.718l-3.7-2.775H9.21A23.785,23.785,0,0,1,38.61,5.62L35.855,7.151H28.72L24.672,9.4l-2,8L20.6,19.059V22.8l2.617,5.237,5.312,1.517v9.312H44.954A23.857,23.857,0,0,1,37.342,45.9Zm11.8-8.622H30.114V32.521H49.142Zm0-6.342H30.114V26.178H49.142Zm0-6.342H30.114V19.836H49.142Zm0-6.342H30.114V13.493H49.142Zm0,0" transform="translate(0.023 -0.012)" fill="#d51f26"/>
        <path id="Path_442" data-name="Path 442" d="M416.086,152.043h6.343v1.586h-6.343Zm0,0" transform="translate(-374.849 -136.977)" fill="#d51f26"/>
      </g>
    </g>
  </g>
</svg>
