<svg id="cooperation_colr" data-name="cooperation colr" xmlns="http://www.w3.org/2000/svg" width="74.916" height="69.279" viewBox="0 0 74.916 69.279">
  <g id="Group_901" data-name="Group 901" transform="translate(1.123 10.871)">
    <path id="Path_697" data-name="Path 697" d="M96.219,170.663l1.337-10.344c0-3.711,4.675-6.879,8.008-3.546l2.273,2.273Z" transform="translate(-82.863 -145.678)" fill="#ffcebf"/>
    <path id="Path_698" data-name="Path 698" d="M120.017,159.047l-1.524,1.526h0l-2.272-2.272a4.314,4.314,0,0,0-5.661-.627c1.488-2.26,4.708-3.377,7.187-.9Z" transform="translate(-95.044 -145.68)" fill="#ffb09e"/>
    <path id="Path_699" data-name="Path 699" d="M210.884,91.917l2.273,2.273-4.546,4.546-2.273-2.273a3.214,3.214,0,0,1,4.546-4.546Z" transform="translate(-175.612 -90.976)" fill="#ffcebf"/>
    <path id="Path_700" data-name="Path 700" d="M221.137,102.17l.73.73-4.546,4.546-.73-.73a3.214,3.214,0,0,1,4.546-4.546Z" transform="translate(-184.322 -99.686)" fill="#ffb09e"/>
    <path id="Path_701" data-name="Path 701" d="M180.682,122.118l2.273,2.273-4.545,4.545-2.273-2.273a3.214,3.214,0,1,1,4.545-4.545Z" transform="translate(-149.956 -116.632)" fill="#ffcebf"/>
    <path id="Path_702" data-name="Path 702" d="M190.937,132.373l.729.729-4.545,4.545-.729-.729a3.214,3.214,0,1,1,4.545-4.545Z" transform="translate(-158.667 -125.343)" fill="#ffb09e"/>
    <path id="Path_703" data-name="Path 703" d="M150.478,152.319l2.273,2.273-4.546,4.546-2.273-2.273a3.214,3.214,0,1,1,4.546-4.546Z" transform="translate(-124.296 -142.288)" fill="#ffcebf"/>
    <path id="Path_704" data-name="Path 704" d="M160.733,162.573l.729.729-4.546,4.546-.729-.729a3.214,3.214,0,1,1,4.546-4.546Z" transform="translate(-133.007 -150.998)" fill="#ffb09e"/>
    <path id="Path_705" data-name="Path 705" d="M120.274,182.527l2.273,2.273L118,189.344l-2.273-2.273a3.214,3.214,0,1,1,4.545-4.545Z" transform="translate(-98.639 -167.95)" fill="#ffcebf"/>
    <path id="Path_706" data-name="Path 706" d="M130.529,192.781l.729.729-4.545,4.545-.729-.729a3.214,3.214,0,1,1,4.545-4.545Z" transform="translate(-107.349 -176.661)" fill="#ffb09e"/>
    <g id="Group_900" data-name="Group 900" transform="translate(11.44 0)">
      <path id="Path_707" data-name="Path 707" d="M154.324,112.331l23.687,23.687-6.387,8.755-9.839,7.471a36.864,36.864,0,0,0-2.934-2.819,13.448,13.448,0,0,0-4.069-2.228,13.376,13.376,0,0,1-5.163-3.209l-13.476-13.476Z" transform="translate(-128.22 -109.118)" fill="#ffcebf"/>
      <path id="Path_708" data-name="Path 708" d="M107.174,112.331l18.18,18.18-13.476,13.476a13.377,13.377,0,0,1-5.163,3.209c-2.885.977-4.91,2.954-7,5.047l-8.5-6.774-7.724-9.451Z" transform="translate(-83.487 -109.118)" fill="#ffcebf"/>
      <path id="Path_709" data-name="Path 709" d="M245.444,98.735l2.273-2.273a3.214,3.214,0,0,0-4.545-4.545L240.9,94.19Z" transform="translate(-217.212 -90.976)" fill="#ffcebf"/>
      <path id="Path_710" data-name="Path 710" d="M275.647,128.938l2.272-2.273a3.214,3.214,0,0,0-4.545-4.545l-2.273,2.273Z" transform="translate(-242.87 -116.634)" fill="#ffcebf"/>
      <path id="Path_711" data-name="Path 711" d="M305.85,159.142l2.272-2.273a3.214,3.214,0,1,0-4.545-4.545L301.3,154.6Z" transform="translate(-268.528 -142.293)" fill="#ffcebf"/>
      <path id="Path_712" data-name="Path 712" d="M338.327,182.527a3.213,3.213,0,0,1,0,4.545l-2.273,2.273-4.545-4.545,2.273-2.273a3.206,3.206,0,0,1,2.272-.942,3.287,3.287,0,0,1,.831.11A3.194,3.194,0,0,1,338.327,182.527Z" transform="translate(-294.189 -167.95)" fill="#ffcebf"/>
    </g>
    <path id="Path_713" data-name="Path 713" d="M338.326,187.686l-2.274,2.274-4.544-4.544,2.272,2.271,2.272-2.272a3.209,3.209,0,0,0,.832-3.1,3.215,3.215,0,0,1,1.442,5.377Z" transform="translate(-282.746 -168.565)" fill="#ffb09e"/>
    <path id="Path_714" data-name="Path 714" d="M207.637,177.982l-3.946.871-3.742.826a4.117,4.117,0,0,0-2.024,1.109l-7.271,7.271a13.364,13.364,0,0,1-5.163,3.21c-2.886.974-4.911,2.955-7,5.047l-1.412-.623-.859-1.649c2.092-2.092,4.116-4.073,7-5.047a13.4,13.4,0,0,0,5.161-3.21l6.408-6.407a2.172,2.172,0,0,0,0-3.071c-1.632-1.632-3.27-3.749-5.562-4.428l-5.65-1.673c-3.515-.636-3.04-6,.608-6H192.2c.086,0,.173,0,.26.006a9.1,9.1,0,0,1,6.067,3.062l4.2,4.194a28.984,28.984,0,0,1,4.912,6.51Z" transform="translate(-150.823 -153.19)" fill="#ffb09e"/>
    <path id="Path_715" data-name="Path 715" d="M241.874,167.279l4.194,4.194a28.93,28.93,0,0,1,4.912,6.51l-3.944.871L241.826,180l-6.456-6.456c-2.042-2.042-5.776-2.547-8.452-3.34-3.582-.641-2.967-6,.609-6h8.019c.085,0,.172,0,.261.005A9.1,9.1,0,0,1,241.874,167.279Z" transform="translate(-191.857 -153.192)" fill="#ffcebf"/>
    <path id="Path_716" data-name="Path 716" d="M280.275,167.28l4.194,4.194a28.933,28.933,0,0,1,4.912,6.51l2.108,2.108-6.387,8.755-9.839,7.471a36.859,36.859,0,0,0-2.934-2.819l9.415-9.415,2.055-2.055a3.938,3.938,0,0,0,.443-5.04,53.26,53.26,0,0,0-4.259-5.515l-4.194-4.194a9.11,9.11,0,0,0-6.066-3.063c-.044,0,4.224,0,4.224,0,.085,0,.172,0,.261.005A9.1,9.1,0,0,1,280.275,167.28Z" transform="translate(-230.258 -153.192)" fill="#ffb09e"/>
    <path id="Path_717" data-name="Path 717" d="M307.421,269.74l7.785,7.785-8.353,9.4-10.592,9.546-7.785-7.785Z" transform="translate(-246.19 -242.84)" fill="#ddeafb"/>
    <path id="Path_718" data-name="Path 718" d="M347.25,309.576l-8.352,9.4-10.592,9.546-2.108-2.108,18.945-18.944Z" transform="translate(-278.235 -274.892)" fill="#cbe2ff"/>
    <path id="Path_719" data-name="Path 719" d="M0,0H26.791V5.161H0Z" transform="translate(50.06 53.628) rotate(-45)" fill="#ffd15b"/>
    <path id="Path_720" data-name="Path 720" d="M368.367,330.6l-18.944,18.943-2.664-2.665a1.323,1.323,0,0,0,1.857-.015l17.072-17.07a1.327,1.327,0,0,0,0-1.873Z" transform="translate(-295.701 -292.264)" fill="#ffc344"/>
    <path id="Path_721" data-name="Path 721" d="M39.54,269.74l18.944,18.944L50.7,296.469l-9.664-8.56-9.28-10.384Z" transform="translate(-28.099 -242.84)" fill="#ddeafb"/>
    <path id="Path_722" data-name="Path 722" d="M0,0H3.01V26.791H0Z" transform="translate(9.299 29.044) rotate(-45)" fill="#cbe2ff"/>
    <path id="Path_723" data-name="Path 723" d="M0,0H5.161V26.791H0Z" transform="translate(0 38.33) rotate(-45)" fill="#528fd8"/>
    <path id="Path_724" data-name="Path 724" d="M0,0H2.581V26.791H0Z" transform="translate(1.825 36.506) rotate(-45)" fill="#0473ce"/>
  </g>
  <g id="Group_902" data-name="Group 902" transform="translate(0 0)">
    <path id="Path_725" data-name="Path 725" d="M74.586,122.153l-5.168-5.167a1.129,1.129,0,1,0-1.6,1.6l.72.72L51.194,136.65l-6.189-6.189,17.348-17.348,1.769,1.769a1.129,1.129,0,0,0,1.6-1.6l-2.56-2.56c-2.028-2.08-3.361-4.45-5.239-6.674a4.384,4.384,0,0,0-3.7-6.924,4.4,4.4,0,0,0-4.543-4.546,4.4,4.4,0,0,0-4.547-4.544c.195-4.14-4.98-6-7.672-3.012l-.266-.266a4.34,4.34,0,0,0-7.406,3.28,4.395,4.395,0,0,0-4.547,4.545,4.337,4.337,0,0,0-2.849.89,5.413,5.413,0,0,0-4.7.57,6.222,6.222,0,0,0-3.006,5.136l-1.278,9.895L.331,122.153a1.128,1.128,0,0,0,0,1.6l18.944,18.944a1.128,1.128,0,0,0,1.6,0l11.434-11.434a1.128,1.128,0,0,0,0-1.6l-1.921-1.921a21.674,21.674,0,0,1,7.074-4.493,21.857,21.857,0,0,1,7.074,4.493l-1.921,1.921a1.129,1.129,0,0,0,0,1.6l11.434,11.434a1.129,1.129,0,0,0,1.6,0L74.586,123.75a1.129,1.129,0,0,0,0-1.6ZM54.428,99.38a2.122,2.122,0,0,1,1.907,2.93c-.907-.925-1.83-1.836-2.746-2.752Zm-4.546-4.546a2.115,2.115,0,0,1,1.907,2.929,12.7,12.7,0,0,0-3.293-2.4,2.071,2.071,0,0,1,1.386-.533Zm-30.6,8.371-.266-.266a2.085,2.085,0,0,1,2.949-2.949l.266.266-1.474,1.474ZM32.647,86.356a2.087,2.087,0,0,1,2.949,0l.266.266L32.913,89.57l-.266-.266a2.088,2.088,0,0,1,0-2.949Zm-5.156,6.019a2.086,2.086,0,0,1,3.56-1.474l.266.266-1.474,1.474-1.475,1.474-.266-.266a2.071,2.071,0,0,1-.611-1.474Zm-2.46,2.461a2.079,2.079,0,0,1,1.474.61l.266.266L23.823,98.66l-.266-.266a2.084,2.084,0,0,1,1.475-3.559Zm-6.155,1.131a3.374,3.374,0,0,1,2.07-.518A4.365,4.365,0,0,0,20.7,97.13a4.394,4.394,0,0,0-3.734,1.8A4.051,4.051,0,0,1,18.877,95.966Zm1.2,44.333L2.725,122.951,4.779,120.9l17.348,17.348Zm22.415-17.256a14.5,14.5,0,0,0-2.518-1.244,25.524,25.524,0,0,0,3.048-2.782,1.129,1.129,0,1,0-1.6-1.6,17.406,17.406,0,0,1-4.467,3.569c-3.084,1.542-5.686,2.674-8.168,5.156l-9.6-9.6a1.129,1.129,0,0,0-1.6,1.6l12.315,12.315-6.189,6.189L6.375,119.3l6.189-6.189,1.117,1.117a1.129,1.129,0,1,0,1.6-1.6l-1.117-1.117,1.118-1.118a1.129,1.129,0,0,0,.321-.653l.861-6.66a7.97,7.97,0,0,0,2.019,2.511,1.138,1.138,0,0,0,1.6,0L39.321,86.355c1.881-1.881,4.836,1.063,2.949,2.949a1.129,1.129,0,0,0,1.6,1.6c1.9-1.9,4.851,1.047,2.948,2.948a1.125,1.125,0,0,0-.33.8c0-.261-8.965-.139-9.691-.139-4.913,0-5.729,7.277-.874,8.224l5.6,1.657a5.5,5.5,0,0,1,2.323,1.382l4.617,4.617L45.2,113.646a1.128,1.128,0,1,0,1.6,1.6l4.056-4.056a1.129,1.129,0,0,0,0-1.6l-5.415-5.415a7.765,7.765,0,0,0-3.278-1.95l-5.651-1.674c-2.082-.616-2.277-3.786.288-3.786h8.019a8.045,8.045,0,0,1,5.53,2.737s4.895,4.915,5.226,5.285c1.929,2.145,3.163,4.7,5.19,6.729L46.129,126.146a20.7,20.7,0,0,0-3.64-3.1ZM54.844,140.3l-2.054-2.054L70.139,120.9l2.054,2.054Z" transform="translate(0 -73.745)"/>
    <path id="Path_726" data-name="Path 726" d="M242.557,23.3a1.129,1.129,0,0,0,1.129-1.129V19.862a1.129,1.129,0,0,0-2.257,0v2.307A1.129,1.129,0,0,0,242.557,23.3Z" transform="translate(-205.098 -18.733)"/>
    <path id="Path_727" data-name="Path 727" d="M200.879,30.979a1.128,1.128,0,1,0,2.068-.9l-.925-2.114a1.129,1.129,0,1,0-2.068.9Z" transform="translate(-169.785 -25.997)"/>
    <path id="Path_728" data-name="Path 728" d="M167.262,55.3a1.129,1.129,0,0,0,1.532-1.657L167.1,52.074a1.129,1.129,0,0,0-1.532,1.657Z" transform="translate(-140.346 -46.802)"/>
    <path id="Path_729" data-name="Path 729" d="M277.525,31.561a1.128,1.128,0,0,0,1.486-.582l.925-2.114a1.129,1.129,0,0,0-2.068-.9l-.925,2.114A1.129,1.129,0,0,0,277.525,31.561Z" transform="translate(-235.189 -25.998)"/>
    <path id="Path_730" data-name="Path 730" d="M307.52,55.6a1.125,1.125,0,0,0,.766-.3l1.694-1.566a1.129,1.129,0,1,0-1.532-1.657l-1.694,1.566a1.129,1.129,0,0,0,.767,1.957Z" transform="translate(-260.286 -46.802)"/>
    <circle id="Ellipse_89" data-name="Ellipse 89" cx="1.272" cy="1.272" r="1.272" transform="translate(22.201 55.888) rotate(-13.3)"/>
  </g>
</svg>
