<svg id="fast-time" xmlns="http://www.w3.org/2000/svg" width="64.498" height="63.289" viewBox="0 0 64.498 63.289">
  <g id="Group_903" data-name="Group 903" transform="translate(41.657 6.467)">
    <path id="Path_731" data-name="Path 731" d="M333.682,56.135l-3,8.534a24.7,24.7,0,0,1,9,2.964l3-8.534Z" transform="translate(-330.683 -56.135)" fill="#eff6ff" fill-rule="evenodd"/>
  </g>
  <g id="Group_904" data-name="Group 904" transform="translate(40.962 0.945)">
    <path id="Path_732" data-name="Path 732" d="M326.349,13.26l-1.11,3.371a1.4,1.4,0,0,0,.885,1.76l2.135.7,8.994,2.964,2.132.7a1.4,1.4,0,0,0,1.76-.889l1.11-3.371a1.4,1.4,0,0,0-.889-1.76l-13.258-4.367A1.4,1.4,0,0,0,326.349,13.26Z" transform="translate(-325.169 -12.301)" fill="#375e7d" fill-rule="evenodd"/>
  </g>
  <g id="Group_905" data-name="Group 905" transform="translate(51.894 4.3)">
    <path id="Path_733" data-name="Path 733" d="M415.231,46.031a1.4,1.4,0,0,0,1.76-.889l1.11-3.371a1.4,1.4,0,0,0-.889-1.76l-3.285-1.082a1.4,1.4,0,0,1,.889,1.76l-1.11,3.371a1.4,1.4,0,0,1-1.76.889h.007l1.146.379Z" transform="translate(-411.946 -38.929)" fill="#2b4d66" fill-rule="evenodd"/>
  </g>
  <g id="Group_906" data-name="Group 906" transform="translate(14.657 13.458)">
    <path id="Path_734" data-name="Path 734" d="M133.152,159.286a24.442,24.442,0,1,0-15.564-30.858A24.44,24.44,0,0,0,133.152,159.286Z" transform="translate(-116.354 -111.627)" fill="#375e7d" fill-rule="evenodd"/>
  </g>
  <g id="Group_907" data-name="Group 907" transform="translate(20.051 18.853)">
    <path id="Path_735" data-name="Path 735" d="M184.181,155.418a19.045,19.045,0,1,0,12.133,24.049l.011-.036A19.045,19.045,0,0,0,184.181,155.418Z" transform="translate(-159.173 -154.456)" fill="#eff6ff" fill-rule="evenodd"/>
  </g>
  <g id="Group_908" data-name="Group 908" transform="translate(39.942 19.815)">
    <path id="Path_736" data-name="Path 736" d="M322.186,162.089l-4.963,15.068a3.248,3.248,0,0,0,2,3.971l15.1,4.974A19.045,19.045,0,0,0,322.186,162.089Z" transform="translate(-317.068 -162.089)" fill="#eb5468" fill-rule="evenodd"/>
  </g>
  <g id="Group_909" data-name="Group 909" transform="translate(35.968 34.725)">
    <path id="Path_737" data-name="Path 737" d="M289.648,280.606a3.145,3.145,0,1,0,2,3.971A3.145,3.145,0,0,0,289.648,280.606Z" transform="translate(-285.519 -280.448)" fill="#ffd772" fill-rule="evenodd"/>
  </g>
  <g id="Group_910" data-name="Group 910" transform="translate(48.541 21.357)">
    <path id="Path_738" data-name="Path 738" d="M393.992,196.805a19.054,19.054,0,0,0-8.662-22.47,41.4,41.4,0,0,1,2.1,13.144,42.461,42.461,0,0,1-.571,6.977Z" transform="translate(-385.33 -174.335)" fill="#e5384f" fill-rule="evenodd"/>
  </g>
  <g id="Group_911" data-name="Group 911" transform="translate(38.99 14.266)">
    <path id="Path_739" data-name="Path 739" d="M332.832,149.323a24.447,24.447,0,0,0-11.212-28.941,24.03,24.03,0,0,0-3.153-1.485c-.4-.154-.8-.3-1.2-.432-.478-.157-.957-.3-1.439-.425a36.551,36.551,0,0,1,3.235,7.091,19.054,19.054,0,0,1,8.662,22.47c0,.011-.007.021-.011.036a19.026,19.026,0,0,1-12.808,12.34,29.949,29.949,0,0,1-5.4,6.145A24.445,24.445,0,0,0,332.832,149.323Z" transform="translate(-309.509 -118.04)" fill="#2b4d66" fill-rule="evenodd"/>
  </g>
  <g id="Group_912" data-name="Group 912" transform="translate(44.385 41.478)">
    <path id="Path_740" data-name="Path 740" d="M352.338,348.786a19.026,19.026,0,0,0,12.808-12.34l.011-.036-7.134-2.35a38.916,38.916,0,0,1-3.556,11.059A34.77,34.77,0,0,1,352.338,348.786Z" transform="translate(-352.338 -334.06)" fill="#d9eeff" fill-rule="evenodd"/>
  </g>
  <g id="Group_913" data-name="Group 913" transform="translate(47.948 9.617)">
    <path id="Path_741" data-name="Path 741" d="M383.779,88.126l1.946-5.91-1.153-.379-2.132-.7-1.814,5.506A24.072,24.072,0,0,1,383.779,88.126Z" transform="translate(-380.626 -81.135)" fill="#d9eeff" fill-rule="evenodd"/>
  </g>
  <g id="Group_914" data-name="Group 914" transform="translate(37.601 34.725)">
    <path id="Path_742" data-name="Path 742" d="M302.982,284.58a3.146,3.146,0,0,0-4.5-3.742,3.148,3.148,0,0,1,.336,5.677c.064.025.129.046.193.068A3.145,3.145,0,0,0,302.982,284.58Z" transform="translate(-298.483 -280.451)" fill="#fbba58" fill-rule="evenodd"/>
  </g>
  <g id="Group_915" data-name="Group 915" transform="translate(0 0)">
    <path id="Path_743" data-name="Path 743" d="M82.947,31.267a25.219,25.219,0,0,0-9.526-10.3l1.41-4.282,1.236.407A2.344,2.344,0,0,0,79.019,15.6l1.111-3.372A2.342,2.342,0,0,0,78.638,9.28L74.114,7.791a.945.945,0,1,0-.591,1.795l4.525,1.489a.455.455,0,0,1,.287.567l-1.111,3.372a.455.455,0,0,1-.567.286L63.394,10.933a.441.441,0,0,1-.256-.223.452.452,0,0,1-.027-.344l1.111-3.372a.454.454,0,0,1,.567-.287l4.7,1.55a.945.945,0,0,0,.591-1.794l-4.7-1.55A2.344,2.344,0,0,0,62.427,6.4L61.317,9.776A2.341,2.341,0,0,0,62.8,12.728l1.236.407-1.412,4.28a25.157,25.157,0,0,0-5.818.132.945.945,0,0,0,.259,1.871A23.5,23.5,0,0,1,82.6,50.049,23.493,23.493,0,1,1,52.951,20.377a.945.945,0,1,0-.592-1.794,25.533,25.533,0,0,0-4.622,2.056H40.169a.945.945,0,0,0,0,1.889h4.712a25.124,25.124,0,0,0-8.389,11.336H29.886a.945.945,0,1,0,0,1.889h5.987a25.2,25.2,0,0,0-.6,11.333H25.18a.945.945,0,0,0,0,1.889h10.5a25.672,25.672,0,0,0,6.306,11.337H33.5a.945.945,0,1,0,0,1.889H44.015A25.391,25.391,0,0,0,82.947,31.267Zm-18.413-13.6,1.3-3.943,7.2,2.371-1.3,3.944a25.813,25.813,0,0,0-7.2-2.373Z" transform="translate(-21.182 -4.796)"/>
    <path id="Path_744" data-name="Path 744" d="M.945,132.443H12.692a.945.945,0,1,0,0-1.889H.945a.945.945,0,1,0,0,1.889Z" transform="translate(0 -114.712)"/>
    <path id="Path_745" data-name="Path 745" d="M30.934,183.049a.945.945,0,0,0,0,1.889h8.88a.945.945,0,0,0,0-1.889Z" transform="translate(-26.211 -160.594)"/>
    <path id="Path_746" data-name="Path 746" d="M8.534,288.956a.945.945,0,0,0-.945-.945H.945a.945.945,0,1,0,0,1.889H7.59A.945.945,0,0,0,8.534,288.956Z" transform="translate(0 -252.334)"/>
    <path id="Path_747" data-name="Path 747" d="M52.521,393.947a.945.945,0,0,0-.945-.945H46.949a.945.945,0,0,0,0,1.889h4.627A.945.945,0,0,0,52.521,393.947Z" transform="translate(-40.209 -344.099)"/>
    <path id="Path_748" data-name="Path 748" d="M152.7,160.668a19.991,19.991,0,0,0,37.976,12.507l.008-.024.007-.025a20.02,20.02,0,0,0-18.732-26.2,19.809,19.809,0,0,0-6.03.85,20.25,20.25,0,0,0-3.245,1.3A19.867,19.867,0,0,0,152.7,160.668Zm36.462,10.974-13.389-4.409a4.094,4.094,0,0,0-1.933-3.832l4.4-13.355A18.131,18.131,0,0,1,189.167,171.642Zm-16.473-2.793a2.2,2.2,0,1,1-.3-4.054h0a2.2,2.2,0,0,1,1.4,2.777h0A2.183,2.183,0,0,1,172.695,168.85Zm-1.021-20.04a18.074,18.074,0,0,1,4.775.646l-4.4,13.355a4.063,4.063,0,0,0-2.19.424,4.138,4.138,0,0,0-.655.412l-6.3-5.745a.945.945,0,0,0-1.273,1.4l6.385,5.82a4.153,4.153,0,0,0-.2.489,4.089,4.089,0,0,0,2.605,5.163,4.126,4.126,0,0,0,.825.178l.321,2.748a.945.945,0,0,0,.937.835.968.968,0,0,0,.111-.007.945.945,0,0,0,.829-1.048l-.322-2.757a4.178,4.178,0,0,0,.421-.183,4.059,4.059,0,0,0,1.642-1.509l13.393,4.411a17.953,17.953,0,0,1-7.88,9.182l-1.054-2.09a.945.945,0,1,0-1.687.851l1.056,2.093a17.948,17.948,0,0,1-12.08.909l.736-2.232a.945.945,0,1,0-1.794-.591l-.736,2.233a18.027,18.027,0,0,1-9.166-7.913l2.083-1.051a.945.945,0,1,0-.851-1.687l-2.081,1.05a18.031,18.031,0,0,1-.889-12.065l2.2.726a.945.945,0,0,0,.592-1.794l-2.2-.725a17.959,17.959,0,0,1,7.9-9.14l1.035,2.047a.945.945,0,0,0,1.686-.852l-1.033-2.043A17.973,17.973,0,0,1,171.674,148.809Z" transform="translate(-132.591 -129.015)"/>
  </g>
</svg>
