<svg id="website" xmlns="http://www.w3.org/2000/svg" width="65.559" height="63.298" viewBox="0 0 65.559 63.298">
  <path id="Path_749" data-name="Path 749" d="M56.516,8.827H3.392A3.393,3.393,0,0,0,0,12.219V51.78H65.559V12.219a3.393,3.393,0,0,0-3.392-3.392H56.516Z" transform="translate(0 -8.827)" fill="#e7eced"/>
  <rect id="Rectangle_336" data-name="Rectangle 336" width="56.516" height="36.171" transform="translate(4.521 4.521)" fill="#28384c"/>
  <path id="Path_750" data-name="Path 750" d="M114.759,79.448v21.476h26.91l4.739-4.75V79.448Z" transform="translate(-100.065 -70.405)" fill="#e7eced"/>
  <path id="Path_751" data-name="Path 751" d="M62.167,335.664H3.392A3.393,3.393,0,0,1,0,332.272v-5.651H65.559v5.651A3.393,3.393,0,0,1,62.167,335.664Z" transform="translate(0 -285.929)" fill="#afb6bb"/>
  <path id="Path_752" data-name="Path 752" d="M228.6,355.364h-6.782a1.13,1.13,0,1,1,0-2.261H228.6a1.13,1.13,0,0,1,0,2.261Z" transform="translate(-192.431 -309.02)" fill="#fff"/>
  <path id="Path_753" data-name="Path 753" d="M155.235,472.383H125.847a2.26,2.26,0,0,1-2.261-2.261h0a2.26,2.26,0,0,1,2.261-2.261h29.388a2.26,2.26,0,0,1,2.261,2.261h0A2.26,2.26,0,0,1,155.235,472.383Z" transform="translate(-107.761 -409.085)" fill="#afb6bb"/>
  <path id="Path_754" data-name="Path 754" d="M176.981,397.241h-11.3c0,5-1.784,9.043-6.782,9.043h24.867C178.765,406.284,176.981,402.239,176.981,397.241Z" transform="translate(-138.55 -347.507)" fill="#6c797a"/>
  <path id="Path_755" data-name="Path 755" d="M321.533,203.443l-3.422-3.421a.15.15,0,0,1,0-.213l2.211-2.212-11.3-3.391,3.391,11.3,2.154-2.154a.346.346,0,0,1,.488,0l3.284,3.285Z" transform="translate(-269.451 -170.469)" fill="#7383bf"/>
  <rect id="Rectangle_337" data-name="Rectangle 337" width="31.649" height="5.652" transform="translate(14.694 9.043)" fill="#556080"/>
  <rect id="Rectangle_338" data-name="Rectangle 338" width="9.043" height="4.521" transform="translate(19.216 21.476)" fill="#dd352e"/>
</svg>
