<svg xmlns="http://www.w3.org/2000/svg" width="68.074" height="68" viewBox="0 0 68.074 68">
  <g id="businessman" transform="translate(-0.379 -0.407)">
    <circle id="Ellipse_90" data-name="Ellipse 90" cx="34" cy="34" r="34" transform="translate(0.454 0.407)" fill="#55c0eb"/>
    <g id="Group_916" data-name="Group 916" transform="translate(0.379 2.415)">
      <path id="Path_756" data-name="Path 756" d="M4.413,106.1c.142.285.285.285.569.427.142.142.285.142.427.285a.441.441,0,0,1,.285.142.5.5,0,0,0-.142-.285,6.2,6.2,0,0,0-.854-1c.712-1.139,1.424-2.278,2.135-3.274v.285c0,.142-.142.285-.142.427.285.142.569,0,.854,0,0,.427,0,.427.285.569V103.4h.427c-.142-.142.142-.285.285-.427a.441.441,0,0,1-.285.142c-.142,0-.142.142-.285,0a1.547,1.547,0,0,1,.142-.712c0,.142.142.285.142.427.142,0,.142.142.285.142v.569c0,.285,0,.427.427.427a.856.856,0,0,1,.569.142c.142,0,.142,0,.285.142l.854.854a.267.267,0,0,1,0,.427c-.142.142-.142.285-.285.427v.285a.2.2,0,0,0,.285,0,.267.267,0,0,1,.427,0,6.161,6.161,0,0,1,.712.142h.142v.569a.523.523,0,0,1-.142.427l-.427.427c.142.142.285,0,.427-.142a2.753,2.753,0,0,0,1.281-.712c.142.142.285.285.285.427s0,.285.285.427a.523.523,0,0,0-.142-.427c-.142-.285,0-.427.142-.712,0,.142.142.285.142.427a.523.523,0,0,0,.142.427c.285.427.427.854,0,1.281a.5.5,0,0,0,.142.285,1.283,1.283,0,0,1-.142.712c-.142,0-.285.142-.427.142h0c.142,0,.285.142.427.142-.142.142-.285.285-.285.427.142.142.142.285.285.427,0,.285,0,.427.285.427l.142.142a.643.643,0,0,0,.854,0l.142-.142a1.283,1.283,0,0,1-.712-.142c-.142,0-.142-.142-.285-.142a1.25,1.25,0,0,1-.142-1v-.427a.856.856,0,0,0,.142-.569c-.142-.285,0-.569,0-.854v-.569a.907.907,0,0,1,0-.854h.285c-.142-.285,0-.427.142-.427l.427.427a.5.5,0,0,1,.142.285c0,.285.142.427.142.712a1.08,1.08,0,0,0,.285.569l.285.285c0,.285-.142.427-.142.569s-.142.285-.285.427a.139.139,0,0,0-.142.142c-.142.142-.285.285-.142.569.285-.142.427-.285.712-.285.142-.142.285-.142.285-.285a.763.763,0,0,1,.569-.427.523.523,0,0,0,.427-.142.74.74,0,0,0,.569-.285l.142-.142c.142.285.142.285,0,.427s-.285.285-.285.427c-.142.142-.142.285-.142.569.285,0,.285-.142.427-.427,0,.142.142.142.142.285a1.283,1.283,0,0,0,.712-.142c.142-.142.142,0,.285.142a.139.139,0,0,1-.142.142c.285.142.285.427.712.285-.285-.142-.427-.285-.285-.569.285,0,.427,0,.569.142s.427.285.569.569l.427.427a.352.352,0,0,0,.569.142.139.139,0,0,1,.142-.142c-.142,0-.142-.142-.285-.142-.142-.142-.285-.285,0-.427a1.087,1.087,0,0,1,.712-.285c0,.142-.142.285-.142.569,0,.142.142.285.142.427-.285.427-.285.569-.142.712.285-.142.142-.427.285-.569.142.142.285.427.427.569a1.965,1.965,0,0,0,.569.427c-.285.427-.285.427,0,.712a1.422,1.422,0,0,1,.712-.569c0,.142.142.285,0,.285-.142.142-.285.142-.427.285,0,.142.142.142.142.285.142-.142.142-.285.285-.285.142-.142.285-.142.285-.427,0-.142.142-.427,0-.569v-.142c.285,0,.427-.142.569-.427h-.285c-.285.142-.569.142-.854.285h-.427c-.285-.142-.427-.285-.427-.569a.523.523,0,0,1,.142-.427.306.306,0,0,0,.285-.285,2.638,2.638,0,0,1,1.139-1c.427-.142.712-.427,1.281-.285h.142v-.142c0-.142-.142-.142-.285-.285a1.231,1.231,0,0,1,.854-.427h.285a1.569,1.569,0,0,1,1.281.427c.142.142.142.142.285.142.285,0,.427,0,.569.285.142.142.285.427.569.427a1.112,1.112,0,0,1,.569.569.306.306,0,0,0,.285.285.139.139,0,0,0,.142.142c.142.142,0,.285-.142.285,0-.285-.285-.285-.427-.427-.142.142-.142.142,0,.285s.285.427.427.569c.142.285.285.427.427.712,0,.285,0,.569.285.569v.142l.142.142a3.325,3.325,0,0,1,1.424,1.708.433.433,0,0,1,0,.569v.427a1.965,1.965,0,0,0-.427.569c-.142.142-.427.285-.569.142s-.285-.142-.285-.285c-.142,0-.142-.142-.285-.142v.142c-.142.285-.142.569-.285.854,0,.142,0,.142.142.142.285-.142.285-.427.427-.569.569.285.569.427.569,1.139h0a.783.783,0,0,0,.427.712v-.427c.142.142.285.427.427.569s.285.427.427.569a1.965,1.965,0,0,1,.427.569.783.783,0,0,0,.712.427h.285v.285c.285,0,.427-.285.712,0l-.569.569c-.285.142-.285.427-.427.712a.856.856,0,0,0,.142.569.523.523,0,0,0,.427.142h1.139c.285,0,.569.142.427.427v.569a.907.907,0,0,1,0,.854c0,.285-.142.285-.427.427-.142,0-.285.142-.427.142a.139.139,0,0,0-.142.142,1.283,1.283,0,0,0-.712-.142.672.672,0,0,1-.712-.712.74.74,0,0,0-.285-.569c-.142-.142-.427-.285-.569-.427a.139.139,0,0,1,.142-.142.306.306,0,0,0-.285-.285h-.143c-.285.142-.427.142-.712-.142-.142-.142-.285-.285-.427-.285,0,.142-.142.142-.142.285a3.838,3.838,0,0,1-1.139,1h-.142c-.427.285-.427.285-.285.712h0c.285-.142.427,0,.712.142-.285.142-.427.285-.712.285,0-.142,0-.142-.142-.285-.285,0-.427-.285-.569-.427,0-.142.142-.285.142-.427a.523.523,0,0,1-.427.142c-.142-.142,0-.285.142-.427s.427-.285.569-.427a1.715,1.715,0,0,0,.712-.712c.142-.285.142-.285-.142-.427l-.142.142a3.838,3.838,0,0,1-1.139,1,.139.139,0,0,0-.142.142c-.142.142-.285.285-.285.427-.142.285-.142.427-.285.712a.455.455,0,0,1-.427.427c-.142-.142-.285-.285-.142-.427v-.427c-.285.142-.427.142-.569.285,0-.427-.285-.427-.569-.427,0,.142,0,.142.142.142a.433.433,0,0,1,0,.569v.285c.142.285,0,.427-.142.569-.427-.142-.712-.142-1.139-.285h-.427a.267.267,0,0,1-.427,0c-.142,0-.285-.142-.285,0v.427a4.005,4.005,0,0,0-.142,1.139v.142c.285.285.427.285.712.142a.267.267,0,0,1,.427,0h.142a2.341,2.341,0,0,0,1.424-.285l.142-.142c.142-.142.285,0,.427,0,.142.142.142.285.285.427s.285.285.427.142c.285-.142.569-.142.854-.285s.427-.285.712-.285.285,0,.427-.285a.523.523,0,0,1,.142-.427.433.433,0,0,0,0-.569c.285-.285.285-.285.712-.285.569,0,1.139.142,1.566.142.142,0,.427.142.569.142.285.142.427.285.712.285a1.8,1.8,0,0,0,.854-.142,3.1,3.1,0,0,0,.569.712,1.955,1.955,0,0,1,.712,1.139c0,.142.142.285.285.427a2.532,2.532,0,0,1,1,1.139c0,.142.142.285.285.427a.523.523,0,0,1,.142.427.907.907,0,0,0,0,.854c.142.427.142.854.285,1.281,0,.285,0,.285-.142.427-.285.142-.427.427-.569.569a3.776,3.776,0,0,1-.712.854c-.142.142-.285.285-.427.285-.712.427-.569.427-1.424.285-.285,0-.427-.142-.712,0a.941.941,0,0,1-.854-.142.626.626,0,0,0-.712-.142.74.74,0,0,0-.569.285c-.142.142-.285.285-.427.142-.285,0-.427,0-.569.142a.5.5,0,0,0-.142.285c0,.285.142.569.142.854.142.427.142.427-.285.712a.139.139,0,0,0-.142.142l-.427.427c-.142.285-.142.427-.285.712v.142a.523.523,0,0,1-.142.427c-.142.427-.142.427.142.712.143.142.143.142.143.284a1.8,1.8,0,0,1,.142.854c0,.142,0,.285-.142.285a.861.861,0,0,0-.427.854.139.139,0,0,1-.142.142.523.523,0,0,0-.142.427,3.133,3.133,0,0,1-.142,1.139,3.569,3.569,0,0,1-.569,1c-.142.285-.285.427-.142.712,0,.427-.427.712-.712.569a4.156,4.156,0,0,0-1.281-.285,2.058,2.058,0,0,1-1.424-1,6.187,6.187,0,0,1-.569-1c0-.142-.142-.285-.142-.427a.306.306,0,0,0-.285-.285c-.142,0-.142-.142-.285-.285a.856.856,0,0,1-.142-.569v-.285c.142-.285.142-.285,0-.427-.285-.285-.569-.427-.854-.712-.142-.142-.285-.285-.285-.427,0-.285-.142-.569-.142-.854a.856.856,0,0,1,.142-.569.941.941,0,0,0,.142-.854v-.285c.142-.285,0-.569-.285-.854a22.678,22.678,0,0,0-1.851-1.851l-.427-.427a5.1,5.1,0,0,1-.569-1.566c.285-.142.285-.142.712,0,.427,0,.712.142,1.139.142s.427,0,.569-.285l.427-.854v-.142c0-.285.142-.285.285-.427a1.169,1.169,0,0,0,.712-.712c0-.142.142-.285.142-.427a14.363,14.363,0,0,1,1-2.135v-.142l-.285.285a.523.523,0,0,0-.142-.427c-.142.142-.142.142-.142.285a3.393,3.393,0,0,1-.854,1.566c-.142.285-.285.427-.285.712a.523.523,0,0,1-.142.427l-.285.285a2.552,2.552,0,0,0-.712,1,.139.139,0,0,1-.142.142c-.142.285-.142.285-.427.285a1.087,1.087,0,0,1-.712-.285c-.712-.285-1.281-.712-1.851-1-.285-.142-.427-.285-.712-.427,0-.142,0-.142.142-.285h-.427c-.142-.285-.142-.427-.285-.712a1.967,1.967,0,0,0,.569-.427.306.306,0,0,0,.285-.285.306.306,0,0,1,.285-.285.861.861,0,0,0,.854.427c.142,0,.285,0,.285-.285v-.427a.74.74,0,0,0,.569-.285,1.079,1.079,0,0,0,.285-.569c0-.142,0-.142.142-.285-.142-.142-.285,0-.427.142-.427.285-.712.427-1.139.712-.285.142-.427.285-.712,0-.142.142-.285.285-.285.427-.142.142-.142.142-.285.142a3.869,3.869,0,0,1-1.281,0,1.046,1.046,0,0,0-.854.285l-.569.569c-.142.285-.285.285-.569.285h-.285v.142a3.94,3.94,0,0,1-.142,1.281.5.5,0,0,1-.142.285c-.142.142-.285.285-.285.427-.142.427-.285.712-.427,1.139a.5.5,0,0,1-.142.285c-.285-.142-.569-.285-.569-.569s-.142-.712-.142-1c0-.142,0-.285-.285-.427a.139.139,0,0,1-.142-.142c-.285.142-.854-.285-1.424-.854-.142,0-.142-.142-.285-.142H9.11c0,.142-.142.285-.142.427s-.142.285-.285.427a.626.626,0,0,0-.142.712.523.523,0,0,1-.142.427c-.142.142-.285-.142-.285-.142-.142-.142-.285-.285-.427-.285v.142c.142.285,0,.427,0,.712v.712a.267.267,0,0,0,0,.427v.285a7.9,7.9,0,0,0-.854,1.139c0,.142-.142.142-.142.285.285-.285.569-.427.712-.569a2.023,2.023,0,0,1,.854-.285.739.739,0,0,0-.285.569c0,.142,0,.285-.285.285s-.285.142-.142.285c.142.285,0,.427-.142.569s-.285.142-.427.285c0-.285.285-.427.285-.712l-.285.285a6.19,6.19,0,0,0-.854,1c-.569.712-1.139.569-.854,0v-.142c-.285-.142-.427,0-.569.142h0a.783.783,0,0,1,.712-.427c.142,0,.285,0,.285-.142.142-.142.427-.285.569-.569.142-.142.285-.285.142-.427a.523.523,0,0,0-.427.142v-.712c0-.142,0-.285.142-.285s.142-.142.285-.142a1.715,1.715,0,0,0,.712-.712c0-.142,0-.142-.142-.285l-.142-.142c.427-.285.427-.285.285-.569a.634.634,0,0,0-.854.285l-.142.142c-.142.142-.285.285-.142.569a3.48,3.48,0,0,1-1.566-1.281A3.116,3.116,0,0,1,5.694,130.3a2.5,2.5,0,0,1-.569-.712c-.142-.142-.285-.285-.569-.142H4.412c-.142,0-.285-.142-.427-.142a1.893,1.893,0,0,1-1.139-.427c-.427-.142-.712-.569-1-.854a3.11,3.11,0,0,0-.427-.712.855.855,0,0,1-.142-.569.139.139,0,0,1,.142-.142l.142-.142a6.939,6.939,0,0,0,.427-1v-.142c-.142-.142-.285-.142-.427-.285s-.142-.142-.142-.285.142-.142.285-.142.285.142.427.142c-.142-.285,0-.427.142-.427a.139.139,0,0,0,.142-.142c-.569-.142-.854-.569-1.281-.712,0,.285.285.285.285.569-.285,0-.569-.285-.854-.142a1.046,1.046,0,0,1-.285.854c0,.142-.142.285-.142.427v.285A16.34,16.34,0,0,1,0,122.9,33.6,33.6,0,0,1,4.413,106.1Z" transform="translate(0 -91.724)" fill="#f3f3f3"/>
      <path id="Path_757" data-name="Path 757" d="M321.651,134.5a.441.441,0,0,0-.285.142c-.142.142-.427.142-.569.285a1.079,1.079,0,0,1-.569.285.306.306,0,0,0-.285.285v.285a.74.74,0,0,1-.285.569c-.285.142-.427.427-.712.712-.142.142-.285.285-.427.285a.306.306,0,0,0-.285.285,3.111,3.111,0,0,1-.427.712.523.523,0,0,0-.142.427c.142.285,0,.427-.285.569s-.427.285-.427.569a.5.5,0,0,1-.142.285,1.571,1.571,0,0,0,0,1.139c0,.142.142.285.142.427a1.216,1.216,0,0,1,0,1c-.285.427-.427,1-.712,1.424a1.716,1.716,0,0,1-.712.712.5.5,0,0,0-.285.142,4.739,4.739,0,0,0-.427.854c0,.142-.142.427-.285.427s-.142.142-.142.427a.139.139,0,0,0,.142.142l-.142.142c-.285.142-.569.285-.569.712l-.143.143a.377.377,0,0,0-.427.427c-.285-.142-.285-.142-.142-.285s.285-.285.285-.427c.142-.427.569-.712.712-1.139.142-.142.142-.285.285-.427s.142-.142-.142-.285l-.142.142a5,5,0,0,1-.712,1.139v.142c-.142.142-.142.285-.285.285a3.327,3.327,0,0,0-1,1c-.142.142-.142.142,0,.285a.139.139,0,0,0,.142.142,3.773,3.773,0,0,1-.854.712,5.946,5.946,0,0,0-1.424.569h-.142l-.427-.427-.285.285c-.285,0-.427.285-.569.285a1.087,1.087,0,0,1-.712.285c-.285-.142-.285.142-.427.285-.142.285-.285.427-.427.712a2.5,2.5,0,0,1-.712.569.646.646,0,0,1-.712,0,.267.267,0,0,0-.427,0c-.142,0-.285.142-.427.285-.142.285-.142.427.142.712.142.142.285.427.569.569a1.2,1.2,0,0,1,.285,1,.523.523,0,0,0,.142.427c.285.285.285.427,0,.712a2.909,2.909,0,0,0-.712,1.281,1.088,1.088,0,0,1-.285.712,1.422,1.422,0,0,1-.712.569c-.285.142-.427.285-.712.285-.142,0-.142.142-.142.285a4.77,4.77,0,0,1,0,1.424,3.133,3.133,0,0,1,.142,1.139c.142,0,.142,0,.285.142a.139.139,0,0,0-.142.142c-.142,0-.142.142-.142.285a3.134,3.134,0,0,1,.142,1.139,1.293,1.293,0,0,0,.427,1c0,.142.142.142.142.285a1.283,1.283,0,0,1-.142.712c.142.142.142.285.142.569v.427c0,.142,0,.427.142.427l.142.142c0,.142-.142.427,0,.569h0c-.142.142,0,.285.142.427a.267.267,0,0,1,0,.427c-.142-.142,0-.285-.285-.285v.142a1.066,1.066,0,0,1,.142.712v1.281a4.993,4.993,0,0,0-.712,1.139l-.142.142c0,.142-.142.142-.285.285-.285.142-.712.142-1,.427-.142-.142-.285-.285-.285-.427-.142-.142-.285-.285-.427-.142-.142,0-.142,0-.285-.142a.523.523,0,0,0,.427-.142.783.783,0,0,0,.712-.427c.142-.142.142-.142.142-.285a1.283,1.283,0,0,1,.142-.712.5.5,0,0,0,.142-.285c-.142-.142-.285-.142-.285-.285s-.142-.142-.142-.285c0-.285-.142-.285-.285-.427-.285-.142-.285-.427,0-.712a.139.139,0,0,0,.142-.142.318.318,0,0,0-.285-.569c0-.427,0-.427-.285-.712-.142-.142-.142-.142,0-.285l.285-.285c-.142,0-.142-.142-.285-.142-.427,0-.569-.142-.569-.569,0-.142-.142-.142-.285-.285H300.3c-.285,0-.427-.142-.569-.427a.5.5,0,0,0-.142-.285c.142-.142.142-.285.285-.427-.142,0-.427-.142-.569-.142a.74.74,0,0,1-.569-.285,6.688,6.688,0,0,1-.854-1.281.139.139,0,0,0-.142-.142c-.285-.142-.285-.285-.285-.569v-.285c0-.142,0-.285-.142-.285-.285-.142-.427-.427-.854-.427-.142,0-.142,0-.285-.142-.142,0-.142-.142-.285-.142s-.285,0-.285-.142-.142-.285-.142-.427a.5.5,0,0,0-.142-.285c-.142,0-.142-.142-.142-.285a2.422,2.422,0,0,0-.142-1v-.712c-.142-.142-.285-.142-.285-.285-.142-.285-.427-.427-.569-.569a.753.753,0,0,1,.142-1.139c.142-.142.427-.285.569-.427a1.079,1.079,0,0,1,.569-.285h.427c.142,0,.142,0,.285-.142s.142-.142.427,0c0-.285.285-.427.569-.569l.569.569h0c0-.142-.142-.285-.142-.427.285-.142.569.285.854.142-.142-.142-.142-.142-.142-.285l-.142-.142c-.142-.142-.142-.142,0-.285-.712.427-.712.285-.712,0,0-.142.142-.142.142-.285a3.11,3.11,0,0,0,.427.712c.142-.142.285-.142.427-.285l.285.285a.88.88,0,0,0,.285-1c0-.285,0-.427.285-.569.142,0,.142-.142.285-.285l.427-.427c-.142-.142-.285-.285-.142-.427h.142a.646.646,0,0,0,.712,0c.142-.142.142,0,.285,0s.285.142.427-.142a.5.5,0,0,1,.285-.142h.569a.523.523,0,0,1,.427.142c.142-.142.142-.142.142-.285.142.142.142.142.285.142s.142.142.285.142c.285,0,.427.142.569.427.142.427.285.427.712.285.142,0,.285-.142.427,0h.142c.142,0,.285-.142.427-.142.285-.143.285-.143.285-.57a1.283,1.283,0,0,0-.142-.712,2.023,2.023,0,0,1,.854-.285,1.112,1.112,0,0,0,.569-.569,6.947,6.947,0,0,0-.427-1c0-.142,0-.285.142-.285h.712a.139.139,0,0,1,.142.142c0,.142.142.285.142.427a.306.306,0,0,0,.285.285h.569a.727.727,0,0,0,.569-.712v-.427a1.8,1.8,0,0,0-.142-.854c0-.142.142-.285.142-.427s0-.285-.142-.285a2.125,2.125,0,0,0-1-.427,1.076,1.076,0,0,0-.569.142.856.856,0,0,1-.569-.142c-.285-.285-.427-.285-.712,0-.142,0-.142.142-.285.142h-.285a.454.454,0,0,0-.427.427,1.087,1.087,0,0,1-.285.712.5.5,0,0,1-.285.142v-.427a1.046,1.046,0,0,1,.285-.854,1.216,1.216,0,0,0,0-1,2.553,2.553,0,0,0-1-.712c-.142-.142-.285-.142-.427-.285a.433.433,0,0,0,0-.569c-.142-.142-.142-.285-.285-.569s-.285-.427-.427-.427a.5.5,0,0,1-.285-.142c-.142,0-.285-.142-.427-.142a.44.44,0,0,1,.285-.142,2.348,2.348,0,0,0-1.424-1.139.626.626,0,0,1,.142.712.139.139,0,0,1-.142-.142,5.768,5.768,0,0,0-1.281-.712.139.139,0,0,1-.142-.142,1.08,1.08,0,0,1,.285-.569c.142.142.285.285.285.427.285-.142.569-.142.712-.285,0-.142,0-.285-.285-.285v-.427a1.805,1.805,0,0,0,.854-.142c-.142,0-.142-.142-.285-.142-.285-.142-.569-.142-.712.142-.142.142-.142.142-.427.142.142-.142.285-.285.285-.427H300.3c-.285.142-.569,0-.854-.285-.142-.142-.285-.142-.427-.285h0c0,.427.427.854.427,1.281-.285,0-.569.142-.854.142.142,0,.142.142.285.142-.285.427-.285.427-.712,0h-.142c-.285.142-.427.142-.427-.142s0-.427.142-.569.427-.285.569-.427c.569.285.569.285.427,0a.267.267,0,0,1,0-.427c.142-.142,0-.285,0-.427v-.285a.589.589,0,0,1,.712-.285c-.142-.142,0-.285.142-.285l.142-.142a1.422,1.422,0,0,0,.569-.712.2.2,0,0,0,0-.285v-.142c.142-.427.427-.854.569-1.281,0-.142.142-.142.142-.285a7.942,7.942,0,0,0,.712,1.139c.285-.142.569-.427.427-.712,0-.427,0-.569.427-.712.142-.142.285-.142.427-.427,0-.142.142-.285.285-.427.142,0,.142-.142.285-.142l.142.142c.142,0,.142-.142.285-.142.427-.142.569,0,.569.427v.854c-.142.142,0,.285.142.427s.142.142,0,.285l-.285.285a.877.877,0,0,0-.142,1c.142.142.285.427.427.569s.142.142.142.427a1.283,1.283,0,0,1-.142.712v.285c0,.142.142.285.285.142l.142-.142.427-.427s-.142-.142,0-.142c.142-.142,0-.285-.142-.427l.427-.427c.142-.142.285-.142.285-.285.142-.285.427-.712.569-1a1.308,1.308,0,0,1,.854-.569c.285,0,.427,0,.427.285.142.285.427.569.569.854h.142c.285-.285.285-.569.427-.854a1.968,1.968,0,0,0-.427-1.708,3.106,3.106,0,0,1-.569-.712l-.142-.142c0-.285-.285-.427-.427-.569a.306.306,0,0,1-.285-.285c0-.142-.142-.142-.285-.142.142.285.142.427.285.712-.285,0-.427,0-.569.285-.285-.142-.285-.427-.427-.712a1.526,1.526,0,0,1-.854.285c.142-.569.712-.712,1.139-1.139a.139.139,0,0,1-.142-.142c-.285-.142-.285-.285-.285-.427s0-.142-.142-.285a.523.523,0,0,1-.142-.427v-.854c-.142-.285,0-.285.142-.427a3.114,3.114,0,0,1,.712-.427c-.285-.142-.569-.142-.854-.285-.142,0-.285,0-.285.142s-.142.285-.285.142v-.142c0-.142-.142-.142-.285-.285a.5.5,0,0,1-.285.142c-.285.569-.712,1-1,1.566a.856.856,0,0,0-.142.569.306.306,0,0,1-.285.285H303c-.142,0-.285.142-.427.142.142.142.285.285.285.427l.285-.285c.142-.142.142-.142.285-.142.285-.142.427,0,.427.285a.523.523,0,0,1-.142.427h.57c.285,0,.285,0,.427.285,0,.142.142.285.142.427v.285a.5.5,0,0,1-.285-.142c-.142,0-.285-.142-.427-.142-.285-.142-.285-.142-.427.142-.142.142-.142.285-.285.427s-.285.285-.285.427c-.142.142-.285.285-.427.285s-.142,0-.285.142c-.285,0-.427.142-.712.142a3.771,3.771,0,0,0,.712-.854c-.142.142-.427.285-.569.427a1.965,1.965,0,0,1-.569.427c0-.142.142-.285.142-.427-.142-.142-.285-.142-.427-.285l.427-.427a1.388,1.388,0,0,0,.569-1.281v-.142c-.142,0-.142.142-.285.142-.142.142-.427.285-.427.569a.455.455,0,0,1-.427.427v-.285c0-.285,0-.569-.285-.712-.142-.142-.142-.142,0-.285l.142-.142a12.448,12.448,0,0,1,1.424-1.139l.285-.285c.142-.285.142-.427-.142-.569l-.142-.142a.523.523,0,0,1,.427-.142c.142,0,.142.142.427,0l-.142-.142-.142-.142a1.079,1.079,0,0,1,.569-.285.523.523,0,0,0,.427-.142c-.142-.142-.285-.142-.427-.285.142-.142.142-.427.285-.569.142.142.142.285.285.569.285-.142.427-.285.427-.569s0-.427.285-.569a.5.5,0,0,0,.142-.285v-.142c0-.142.142-.427.285-.427h.854a2.3,2.3,0,0,1-1,.569c.142.142.142.285.285.427,0,.142.142.285.142.427.142-.142.285-.285.285-.427.142.142.142.285.285.427v-.854a2.025,2.025,0,0,1,.285-.854,6.194,6.194,0,0,1,1,.854v.142c-.142.142-.285.285-.142.569v.712a.306.306,0,0,0,.285-.285c0-.142.142-.285.142-.569,0,0,.142-.142,0-.142-.142-.142,0-.285,0-.427-.142-.285-.427-.569-.569-.854a1.8,1.8,0,0,1,.854.142.139.139,0,0,1,.142.142c.285.569.569,1,.427,1.566a.306.306,0,0,1-.285.285c-.142,0-.285.142-.427.142h0c.142,0,.285.142.569.142a13.127,13.127,0,0,1-1.139.712c0,.285.142.569-.142.712.285.142.427.285.427.569a1.08,1.08,0,0,0,.285.569c.285-.285.427-.427.285-.712v-.143c0-.285,0-.285.142-.427.142,0,.142,0,.285-.142a1.283,1.283,0,0,0,.142.712c.285,0,.142-.142.142-.285,0-.427,0-.427.285-.712.285-.142.285-.142.142-.427-.142-.142,0-.285.142-.427s.285-.285.285-.427c.142-.285.142-.427,0-.569s-.142-.142-.142-.285l.427-.427c-.142,0-.285-.142-.427-.142s-.285.142-.427.142c0-.142,0-.142-.142-.285a1.23,1.23,0,0,0-.427-.854.139.139,0,0,0-.142-.142c.285-.142.712,0,1,0a.74.74,0,0,1,.569.285v1a.88.88,0,0,0,.285,1,.267.267,0,0,1,0,.427.267.267,0,0,0,0,.427c.142.142,0,.285-.142.285-.142.142-.285.142-.427.285a.5.5,0,0,0-.142.285,1.18,1.18,0,0,0,.427,1.139h0c0,.142,0,.142-.142.285.285,0,.427-.142.285-.285-.142-.285,0-.427.142-.569a.666.666,0,0,1,0-1.139,1.964,1.964,0,0,0,.569.427q.427.214,0,.427c-.142,0-.142.142-.285.142a.5.5,0,0,1-.285.142.441.441,0,0,0,.285.142v.285h.285a2.3,2.3,0,0,0,1.281-.427c.285-.142.285-.142.427.142l.142.142a.267.267,0,0,1,0,.427c-.142.285-.142.427.142.712.142-.142.142-.285.285-.427s.142-.285.285-.427.142-.142.285,0a1.571,1.571,0,0,0,1.139,0v-.142h-.142a.3.3,0,0,1,0-.569h.427a.523.523,0,0,0,.427-.142l.854-.427c.142-.142.285-.142.427.142l.142.142c.142-.285.142-.427.285-.569.142.285.285.427.285.569.142-.285.285-.712.569-.854.142.142.142.142.142.285a.306.306,0,0,0,.285.285c.142,0,.142-.142.285-.142.285.285.427.712.712,1a.306.306,0,0,0,.285-.285c0-.285.142-.285.427-.142,0,.142-.142.285,0,.569.142-.142.285-.142.427-.285s.285-.142.285-.285a41.385,41.385,0,0,1,1.708,5.552h0C322.079,134.5,321.936,134.638,321.651,134.5Z" transform="translate(-254.747 -110.723)" fill="#f3f3f3"/>
      <path id="Path_758" data-name="Path 758" d="M250.691,41.047h0c-.427.285-.427.285-.712,0l-1.281-.854c-.142-.142-.427-.285-.569-.427a2.022,2.022,0,0,1,.854-.285c.142,0,.285,0,.285-.142s0-.142-.142-.285c-.142,0-.142-.142-.285-.142.142-.285.142-.285,0-.427-.427.142-.285.712-.712.854l-.285-.285c-.285-.285-.285-.285,0-.569a6.2,6.2,0,0,1,.854-1l.142-.142c-.142-.142-.427,0-.569,0,0-.142-.142-.285-.142-.427-.285.142-.285.142-.569,0-.142-.427.285-.427.427-.712-.285-.142-.427-.142-.712-.285.142-.427.569-.569.569-1-.285,0-.427.285-.569.285a1.956,1.956,0,0,1,.712-1.139c.142,0,.142-.142.142-.285-.142-.142-.142-.285-.285-.427s-.142-.142-.285,0l-.285.285v-.712c.142,0,.427.142.569,0,0-.142-.142-.285-.285-.427.142,0,.427.142.569.142.142-.285.142-.427-.142-.569-.142-.142-.142-.142-.142-.427v-.142a.523.523,0,0,0-.142-.427l-.142-.142c-.285-.142-.285-.285-.285-.569v-.142a.523.523,0,0,0-.142-.427c0-.142-.142-.285-.142-.427h.142c.142.285.285.142.427.142a.74.74,0,0,0-.285-.569c-.427.285-.427.285-.712-.142v-.142c.142-.142.142-.285.427-.285h.569c.142,0,.142.285.427.142l-.285-.285c-.427.142-.427.142-.569,0a.523.523,0,0,0-.427-.142c-.142,0-.142,0-.285-.142a2.552,2.552,0,0,1-.712-1c-.142-.142-.142-.285,0-.285-.142-.142,0-.285.285-.569.427-.285.712-.285.854.142v.142c0,.142.142.142.142.285.142.142.427.142.427-.142a.139.139,0,0,1,.142-.142,1.965,1.965,0,0,1,.427.569c.142.142.142.285.285.427a.523.523,0,0,0,.142.427c.142.285.142.285.427.142a2.731,2.731,0,0,1-.569-2.562,1.169,1.169,0,0,1,.712.712c.142.285.285.569.712.569l-.285-.285c-.142.142-.285.142-.285,0a.273.273,0,0,1,.142-.427,2.422,2.422,0,0,1,1,.142c.285.142.427.285.712.427.142,0,.142.142.285,0a1.534,1.534,0,0,0-1.566-.854h-.427l-.854-.427a.352.352,0,0,1-.142-.569c.142-.142.427-.285.569-.427.142,0,.142.142.285.142a.907.907,0,0,1,0-.854c.142,0,.142.142.285.142.142.285.427.285.712.142a.941.941,0,0,1,.854.142,2.057,2.057,0,0,0,1,.285l-.142-.142a3.11,3.11,0,0,1-.712-.427,1.283,1.283,0,0,0-.712-.142h-.285a.783.783,0,0,1-.712-.427,2.125,2.125,0,0,1,1-.427c.285,0,.712,0,.854-.285h.712c.285.142.285.285.142.569.142,0,.142,0,.285-.142a.139.139,0,0,0,.142.142c.142,0,.142,0,.285-.142.285.285-.142.427-.285.569a1.076,1.076,0,0,1,.569.142l-.427.427.142.142c0,.142-.142.142-.142.285.285,0,.427-.285.712-.427.142-.142.285-.427.569-.569,0,.142,0,.285-.142.285h.427v.427c-.569.142-.712.142-.854.285-.285.142-.285.569-.285.712.284-.285.284-.569.711-.712.285,0,.569-.142,1-.142a8.584,8.584,0,0,1-1.139,1.139c.285.142.427-.142.569-.142,0,.285.285.569-.142.712.142.142.142.142.285.142a6.19,6.19,0,0,0,.854-1c-.142-.142-.142-.142-.285-.142.142-.142.142-.285.285-.427l.142.142c.142-.142.142-.142.285,0,.142,0,.142.142.142.285a.784.784,0,0,1-.285.712.267.267,0,0,0,0,.427c.142-.142.427-.285.427-.569,0-.142,0-.285.142-.285h.142v.285l.427-.427a2.31,2.31,0,0,0,1.281.712.523.523,0,0,0-.142.427c0,.142-.142.142-.142.285l.427-.427c.285-.142.285.142.569.285v.142c-.142.142-.427.285-.285.569v.427c.142,0,.285-.142.427-.142l.854.854a.306.306,0,0,0,.285.285c.142,0,.285,0,.285.142a.523.523,0,0,0,.142.427h0a.92.92,0,0,1-.712.285c-.285,0-.427-.142-.712,0l.142.142a.139.139,0,0,1,.142.142c-.142.142-.142.285-.285.427l.285.285c.285.285.569.285.854.427.142,0,.285,0,.427.285a.5.5,0,0,0,.285.142c.142.142.427.142.569.285a.267.267,0,0,1,0,.427l-.285.285c-.142.142-.142.285-.285.427,0,.142,0,.142.142.427-.142,0-.142,0-.285-.142-.142,0-.142-.142-.285-.142-.142-.142-.285,0-.427.142h.569c.142.142.285.285.427.285h.285v.142a3.112,3.112,0,0,0-.427.712l-.142.142a1.079,1.079,0,0,1-.569.285,1.046,1.046,0,0,1-.854-.285.267.267,0,0,0-.427,0,2.555,2.555,0,0,0-1,.712.5.5,0,0,0-.142.285,4.159,4.159,0,0,1-.285,1.281c0,.142-.142.285-.142.569a1.965,1.965,0,0,0-.427.569c.142.285.142.285.142.427.285.285.285.285.142.569a2.022,2.022,0,0,0-.854-.285c0,.427-.285.712-.142,1.139.142,0,.142,0,.427-.142s.285-.142.427.142c-.142.142-.285.142-.427.285a.523.523,0,0,1,.427.142c0,.285-.285.569-.427.854-.142-.142-.285-.285-.285-.427V40.05c-.427,0-.427.142-.285.427,0,.142.142.142.142.285a.74.74,0,0,0,.285.569.88.88,0,0,1,.285,1c0,.142-.142.285-.142.427a1.458,1.458,0,0,1-.712.854.139.139,0,0,0-.142.142c.142,0,.142.142.285.142.285.142.427.142.142.569l-.285.285c-.142.142-.285.427-.427.569-.285.285-.285.285,0,.712H255.1a.74.74,0,0,0-.569.285.306.306,0,0,1-.285.285c0-.285-.142-.427-.142-.712a2.713,2.713,0,0,0-.712-1.424c-.142-.142-.142-.285-.142-.569a.784.784,0,0,0-.285-.712l-.427-.427c-.142-.142-.285-.285-.427-.142-.142-.142-.285-.142-.427-.285s-.285-.427-.569-.569C250.691,41.474,250.548,41.189,250.691,41.047Z" transform="translate(-212.826 -22.399)" fill="#f3f3f3"/>
    </g>
    <g id="Group_917" data-name="Group 917" transform="translate(23.582 33.875)">
      <path id="Path_759" data-name="Path 759" d="M176.144,259.414l-1.424-1.281h-.854l.712,13.808,4.128-1.851C178.848,269.948,177.283,260.7,176.144,259.414Z" transform="translate(-173.866 -258.133)" fill="#344a5e"/>
      <ellipse id="Ellipse_91" data-name="Ellipse 91" cx="2.42" cy="3.416" rx="2.42" ry="3.416" transform="translate(0.143 10.107)" fill="#344a5e"/>
    </g>
    <path id="Path_760" data-name="Path 760" d="M39.467,437.13l3.274-10.107L56.549,425.6s1.281,4.128,2.847,11.53Z" transform="translate(-33.821 -369.376)" fill="#66c6b9"/>
    <path id="Path_761" data-name="Path 761" d="M153.606,280.635c.142.569.142,1.281.285,2.135H152.04c-.712-2.989-1.281-5.979-1.708-6.975-.712-1.993-2.135-11.815-2.135-11.815s.427-11.246-.285-13.666c-.569-2.42-.712-2.847-.712-2.847l.854.142s3.416.854,3.986,1.566a12.839,12.839,0,0,1,1.993,6.263c-.142,2.562-1.281,6.975-1.424,11.246C152.182,270.955,153.179,277.788,153.606,280.635Z" transform="translate(-127.177 -215.015)" fill="#344a5e"/>
    <path id="Path_762" data-name="Path 762" d="M173.94,346.258a2.875,2.875,0,0,0,.712-1.424,3.249,3.249,0,0,0-1-2.847,1.783,1.783,0,0,0-1.566-.712l-1.424.427Z" transform="translate(-147.511 -296.298)" fill="#e8eae9"/>
    <path id="Path_763" data-name="Path 763" d="M70.017,111.226l.569,4.555,7.4,5.836v-5.979s2.135-1.566,1.993-5.979a12.287,12.287,0,0,0-.285-4.271c-.569-1.708-1-3.416-2.562-3.986-1.424-.569-5.694.569-6.69,1.424C69.59,103.539,68.593,109.233,70.017,111.226Z" transform="translate(-59.673 -88.312)" fill="#ffd15c"/>
    <path id="Path_764" data-name="Path 764" d="M64.5,97.983l-.285.285-1.424-1a9.143,9.143,0,0,1,.285-4.7,7.652,7.652,0,0,1,4.7-4.128,3.974,3.974,0,0,1,3.416.427,6.15,6.15,0,0,1,2.42,2.989,13.665,13.665,0,0,1,.854,4.7c-.142,1.139-.285,1.851-.285,1.851H73.9a7.268,7.268,0,0,0,0-2.562,10.5,10.5,0,0,1-.569-1.993,2.8,2.8,0,0,0-1.281-2.42,8.734,8.734,0,0,0-4.7,0,9.807,9.807,0,0,0-1.139.427,1.722,1.722,0,0,0-.854,1.851c0,.285,0,.712-.142.854A4.854,4.854,0,0,0,64.5,97.983Z" transform="translate(-53.872 -77.062)" fill="#415a6b"/>
    <ellipse id="Ellipse_92" data-name="Ellipse 92" cx="2.135" cy="0.854" rx="2.135" ry="0.854" transform="matrix(0.296, 0.955, -0.955, 0.296, 9.797, 19.649)" fill="#ffd15c"/>
    <path id="Path_765" data-name="Path 765" d="M88.184,192.286v4.555a14.319,14.319,0,0,1-7.117-6.975A6.828,6.828,0,0,0,88.184,192.286Z" transform="translate(-69.869 -165.102)" fill="#f7b64c"/>
    <path id="Path_766" data-name="Path 766" d="M100.2,228.267l-.854.569h-.569l-3.843.569,5.267,12.1,3.132,7.26-.285-15.232Z" transform="translate(-81.885 -198.378)" fill="#66c6b9"/>
    <g id="Group_918" data-name="Group 918" transform="translate(15.753 30.411)">
      <path id="Path_767" data-name="Path 767" d="M122.158,242.2a15.439,15.439,0,0,0-.854,5.552c.142,2.278,3.7,9.253,3.7,9.253l1.851-5.694-1-6.833-1.851-2.42-1.566-1-.285,1.139" transform="translate(-120.449 -239.88)" fill="#344a5e"/>
      <path id="Path_768" data-name="Path 768" d="M115.2,232.652a12.052,12.052,0,0,1,1.708,1.851,1.607,1.607,0,0,1,1.708,0,9.279,9.279,0,0,0-.712-2.135c-.285-.427-1,0-1,0h-.569Z" transform="translate(-115.2 -232.178)" fill="#344a5e"/>
    </g>
    <path id="Path_769" data-name="Path 769" d="M70.472,206.727a9.574,9.574,0,0,0,2.42,1.424,31.487,31.487,0,0,1,3.7,1.993s-2.278,2.135-2.42,3.559l-.142,1.424-4.7-6.406C69.9,208.15,70.33,206.442,70.472,206.727Z" transform="translate(-59.701 -179.685)" fill="#e8eae9"/>
    <path id="Path_770" data-name="Path 770" d="M2.794,267.98c.854-6.833,1.851-16.085,1.708-17.082-.285-1.566-2.7-7.26-3.843-11.815s.569-5.694.569-5.694c1.424-1.851,3.559-1.424,4.7-1.708a8.084,8.084,0,0,0,2.42-1.281l3.7.427s4.7,5.836,5.979,8.826,3.7,12.954,3.7,12.954.142,2.135.427,5.552a41.358,41.358,0,0,1-.569,9.68H2.794Z" transform="translate(0.148 -200.226)" fill="#344a5e"/>
    <path id="Path_771" data-name="Path 771" d="M125.705,382.8s-4.271.142-4.128-1.993,2.847-2.135,2.847-2.135l2.7,1.708Z" transform="translate(-104.97 -328.706)" fill="#ffd15c"/>
    <path id="Path_772" data-name="Path 772" d="M145.067,384.427a8.763,8.763,0,0,1,0,3.416l5.267.427-.569-4.27Z" transform="translate(-125.328 -333.328)" fill="#e8eae9"/>
    <path id="Path_773" data-name="Path 773" d="M152.035,278.348h.854c.854,0,2.135-.142,3.274-.142,1,0,1.993-.142,2.278-.142.712,0,4.27-.569,4.555-1a6.646,6.646,0,0,0,1.281-3.843,9.675,9.675,0,0,0-1.424-3.986s-1.424-2.278-1.851-2.847-.854-.854-1.281-1.424a1.8,1.8,0,0,1-.427-1.139,2.429,2.429,0,0,0-.285-1.851l-1-1.993A6.241,6.241,0,0,0,156.732,257a5.4,5.4,0,0,0-1.424-1l.285.285a11.638,11.638,0,0,1,1.851,6.263,22.178,22.178,0,0,1-.712,4.7h0s1.281,2.7,1.424,2.989c.142.427.142.854-.569,1-.142,0-.712.142-1.424.285-1.424.285-3.416.427-4.27.569h-.427C152.889,274.5,152.035,278.348,152.035,278.348Z" transform="translate(-130.872 -222.409)" fill="#2e4454"/>
    <path id="Path_774" data-name="Path 774" d="M72.544,240.588a123.72,123.72,0,0,0-4.7-11.673,18.523,18.523,0,0,0-4.555-5.267l.712-.854-1.566-.142s-2.42-1.993-2.7-2.135a2.548,2.548,0,0,1,.712-.854c.427-.285.712-1,1-1a23.236,23.236,0,0,1,5.125,4.7,38.52,38.52,0,0,1,4.555,9.4c.712,2.42,1.424,5.836,1.851,7.972h-.427Z" transform="translate(-51.382 -190.058)" fill="#415a6b"/>
    <path id="Path_775" data-name="Path 775" d="M128.854,218.667a4.65,4.65,0,0,1-.854,1.851,1.386,1.386,0,0,1,1.281,1.139l.285,1.139a6.185,6.185,0,0,0-.285-1.851C129.139,220.375,129.424,218.952,128.854,218.667Z" transform="translate(-110.539 -190.059)" fill="#e8eae9"/>
    <g id="Group_919" data-name="Group 919" transform="translate(0.394 30.601)">
      <path id="Path_776" data-name="Path 776" d="M141.229,253.672c-.427-2.135-1.139-5.409-1-6.263,0-1.281,0-6.833-.285-8.4-.285-1.424-1.281-5.409-1.281-5.409a6.046,6.046,0,0,0,1.993,1.851l-.427.285a2.98,2.98,0,0,1,1.708,1.566c.427,1.281.569,6.263.569,7.687,0,1-.427,5.836-.712,8.541h-.569Z" transform="translate(-120.176 -233.601)" fill="#415a6b"/>
      <path id="Path_777" data-name="Path 777" d="M.522,253.549a64.285,64.285,0,0,0,2.42,7.4h0c2.42,2.989,7.544,5.836,8.4,6.263a7.3,7.3,0,0,0,1.708.712c.569.142,1.708,0,2.278.142a3.634,3.634,0,0,0,1.708-.142c.285,0,2.42-.569,4.555-1l5.125-1.139a30.961,30.961,0,0,0-3.416-5.836s-1.993.142-3.559.285H18.031c-.854-.142-3.132-.285-3.274-.427-.285-.142-1.281.285-1.708.569-.427.142-.712.142-.854-.712-.285-.854-.854-1.281-1.139-2.278a22.113,22.113,0,0,0-2.847-7.117,7.326,7.326,0,0,0-3.843-2.989,2.9,2.9,0,0,0-3.274.854h0C.949,247.855-.616,248.994.522,253.549Z" transform="translate(-0.11 -245.293)" fill="#415a6b"/>
    </g>
  </g>
</svg>
