<svg id="group" xmlns="http://www.w3.org/2000/svg" width="62.871" height="62.871" viewBox="0 0 62.871 62.871">
  <path id="Path_778" data-name="Path 778" d="M35.445,308.132a7.3,7.3,0,0,0-3.564-2.04l-5.052-1.211,0,0,0,0V301.8h-6.17v3.094h0l-5.039,1.2A7.32,7.32,0,0,0,10,313.215v8.254H21.17Z" transform="translate(-8.772 -264.738)" fill="#78d2fa"/>
  <path id="Path_779" data-name="Path 779" d="M102.4,301.8v3.167l-3.2,7.669L96,304.975V301.8Z" transform="translate(-84.212 -264.738)" fill="#ffb487"/>
  <path id="Path_780" data-name="Path 780" d="M79.7,215.261v4.272a6.877,6.877,0,0,1-6.877,6.877h0a6.877,6.877,0,0,1-6.877-6.877v-4.272Z" transform="translate(-57.853 -188.828)" fill="#ffcdac"/>
  <path id="Path_781" data-name="Path 781" d="M79.7,165.317v-1.655a6.877,6.877,0,0,0-6.877-6.877h0a6.877,6.877,0,0,0-6.877,6.877v1.655h4.74a16.4,16.4,0,0,0,8.428-2.332h0" transform="translate(-57.853 -137.532)" fill="#878791"/>
  <path id="Path_782" data-name="Path 782" d="M294.79,308.132a7.3,7.3,0,0,1,3.564-2.04l5.052-1.211,0,0,0,0V301.8h6.169v3.094h0l5.039,1.2a7.32,7.32,0,0,1,5.62,7.12v8.254h-11.17Z" transform="translate(-258.591 -264.738)" fill="#a5dc69"/>
  <path id="Path_783" data-name="Path 783" d="M114.819,352.4l-7.037,1.686A10.2,10.2,0,0,0,99.962,364v6.768h38.3v-6.762a10.2,10.2,0,0,0-7.827-9.917l-7.019-1.677Z" transform="translate(-87.687 -309.129)" fill="#ff5a5a"/>
  <g id="Group_920" data-name="Group 920" transform="translate(26.852 37.059)">
    <path id="Path_784" data-name="Path 784" d="M370.28,301.8v3.178l-3.2,7.658-3.2-7.669V301.8Z" transform="translate(-346.049 -301.797)" fill="#ffb487"/>
    <path id="Path_785" data-name="Path 785" d="M223.259,337.437l4.581-10.4a3.782,3.782,0,0,1-.534-1.939v-1h-8.1v1a3.781,3.781,0,0,1-.532,1.936Z" transform="translate(-218.674 -321.358)" fill="#ffb487"/>
  </g>
  <path id="Path_786" data-name="Path 786" d="M197.157,191.525v6.609a9.578,9.578,0,0,1-9.578,9.578h0A9.578,9.578,0,0,1,178,198.134v-6.609Z" transform="translate(-156.143 -168.007)" fill="#ffcdac"/>
  <path id="Path_787" data-name="Path 787" d="M187.577,115.437h0A9.578,9.578,0,0,0,178,125.015v2.306h4.683a10.523,10.523,0,0,0,8.066-3.764h0l6.407,3.764v-2.306A9.578,9.578,0,0,0,187.577,115.437Z" transform="translate(-156.141 -101.262)" fill="#f5b955"/>
  <path id="Path_788" data-name="Path 788" d="M334.045,215.261v4.272a6.877,6.877,0,0,0,6.877,6.877h0a6.877,6.877,0,0,0,6.877-6.877v-4.272Z" transform="translate(-293.026 -188.828)" fill="#ffcdac"/>
  <path id="Path_789" data-name="Path 789" d="M334.045,165.317v-1.655a6.877,6.877,0,0,1,6.877-6.877h0a6.877,6.877,0,0,1,6.877,6.877v1.655h-4.74a16.4,16.4,0,0,1-8.428-2.332h0" transform="translate(-293.026 -137.532)" fill="#878791"/>
  <path id="Path_790" data-name="Path 790" d="M246.968,492a1.229,1.229,0,1,0,.868.36A1.237,1.237,0,0,0,246.968,492Z" transform="translate(-215.564 -431.585)"/>
  <path id="Path_791" data-name="Path 791" d="M56.309,132.653l-4.1-.979v-1.625A8.1,8.1,0,0,0,56,123.2v-4.576a8.1,8.1,0,0,0-14.168-5.369,10.826,10.826,0,0,0-10.384-7.813h0a10.825,10.825,0,0,0-10.39,7.834,8.1,8.1,0,0,0-14.187,5.348V123.2a8.1,8.1,0,0,0,3.788,6.854v1.625l-4.1.979A8.521,8.521,0,0,0,0,140.967v8.254a1.228,1.228,0,0,0,1.228,1.228h9.819v3.684a1.228,1.228,0,0,0,1.228,1.228H25.746a1.228,1.228,0,1,0,0-2.456H20.264v-5.4a1.228,1.228,0,1,0-2.456,0v5.4H13.5v-5.54a8.94,8.94,0,0,1,6.878-8.721l6.039-1.447,3.886,8.841a1.228,1.228,0,0,0,1.124.734h0a1.228,1.228,0,0,0,1.124-.734l3.882-8.828,6.022,1.439a8.939,8.939,0,0,1,6.885,8.723v1.37a1.23,1.23,0,0,0,0,.96v3.2h-4.28v-5.4a1.228,1.228,0,1,0-2.456,0v5.4H36.593a1.228,1.228,0,0,0,0,2.456H50.571a1.228,1.228,0,0,0,1.228-1.228v-3.684h9.844a1.228,1.228,0,0,0,1.228-1.228v-8.254A8.521,8.521,0,0,0,56.309,132.653Zm-6.549.057L47.885,137.2l-1.85-4.43a1.227,1.227,0,0,0,.008-.134c0-.011,0-.023,0-.034v-1.517a8.049,8.049,0,0,0,3.714,0v1.562C49.757,132.666,49.759,132.688,49.76,132.71ZM25.9,133.7a8.527,8.527,0,0,0-2.51-1.046l-4.11-.985v-1.61a8.162,8.162,0,0,0,2.538-2.53,10.884,10.884,0,0,0,4.082,4.365ZM23.1,122.617v-2.84h3.455a11.719,11.719,0,0,0,8.3-3.431l4.939,2.9v3.658a8.349,8.349,0,0,1-16.694-.288Zm13.856,9.3a10.883,10.883,0,0,0,4.11-4.367,8.167,8.167,0,0,0,2.524,2.509v1.61l-4.11.985a8.528,8.528,0,0,0-2.524,1.055v-1.793ZM47.9,128.844a5.655,5.655,0,0,1-5.649-5.649v-.2c0-.125.007-3.3.007-3.3a17.629,17.629,0,0,0,7.778,1.809h3.512V123.2A5.655,5.655,0,0,1,47.9,128.844Zm0-15.873a5.655,5.655,0,0,1,5.649,5.649v.427H50.033a15.172,15.172,0,0,1-7.558-2.017A5.659,5.659,0,0,1,47.9,112.97Zm-24.8,3.273a8.35,8.35,0,0,1,16.7,0v.16l-4.558-2.678a1.228,1.228,0,0,0-1.563.27,9.273,9.273,0,0,1-7.125,3.325H23.1ZM9.326,118.619a5.649,5.649,0,0,1,11.07-1.589,15.173,15.173,0,0,1-7.558,2.017H9.326v-.428Zm0,2.883h3.512a17.628,17.628,0,0,0,7.785-1.813V123.2a5.649,5.649,0,0,1-11.3,0Zm5.649,9.8a8.1,8.1,0,0,0,1.853-.216v1.482c0,.023,0,.046,0,.069,0,.039,0,.077.007.116L14.976,137.2l-1.865-4.467c0-.029,0-.059,0-.088v-1.562A8.1,8.1,0,0,0,14.975,131.3Zm-3.928,16.065v.628H7.368v-5.456a1.228,1.228,0,1,0-2.456,0v5.456H2.456v-7.027a6.073,6.073,0,0,1,4.677-5.926l3.892-.93,2.54,6.085A11.4,11.4,0,0,0,11.047,147.365Zm8.762-11.109a11.542,11.542,0,0,0-2.076.714l1.2-2.864,3.893.933a6.087,6.087,0,0,1,.881.284Zm11.622,6.237-3.071-6.987v-2.533a10.815,10.815,0,0,0,6.137.012v2.535Zm7.715-7.16a6.094,6.094,0,0,1,.9-.293l3.884-.931,1.2,2.877a11.543,11.543,0,0,0-2.1-.725Zm21.27,12.662H57.96v-5.456a1.228,1.228,0,1,0-2.456,0v5.456H51.8v-.623a11.4,11.4,0,0,0-2.511-7.16l2.548-6.1,3.9.932a6.073,6.073,0,0,1,4.677,5.926Z" transform="translate(0 -92.49)"/>
  <path id="Path_792" data-name="Path 792" d="M213.688,231.25a1.229,1.229,0,1,0,.868.36A1.237,1.237,0,0,0,213.688,231.25Z" transform="translate(-186.371 -202.853)"/>
  <path id="Path_793" data-name="Path 793" d="M280.558,233.706a1.228,1.228,0,1,0-.868-.36A1.237,1.237,0,0,0,280.558,233.706Z" transform="translate(-245.029 -202.853)"/>
  <path id="Path_794" data-name="Path 794" d="M238.457,265.273a1.228,1.228,0,0,0-1.737,0,.932.932,0,0,1-1.317,0,1.228,1.228,0,1,0-1.737,1.737,3.391,3.391,0,0,0,4.79,0A1.228,1.228,0,0,0,238.457,265.273Z" transform="translate(-204.658 -232.383)"/>
  <path id="Path_795" data-name="Path 795" d="M397.848,56.456h.842a1.228,1.228,0,0,0,0-2.456h-.842a1.228,1.228,0,1,0,0,2.456Z" transform="translate(-347.917 -47.369)"/>
  <path id="Path_796" data-name="Path 796" d="M446.369,56.456h.842a1.228,1.228,0,1,0,0-2.456h-.842a1.228,1.228,0,0,0,0,2.456Z" transform="translate(-390.48 -47.369)"/>
  <path id="Path_797" data-name="Path 797" d="M425.539,78.129a1.228,1.228,0,0,0,1.228-1.228v-.842a1.228,1.228,0,1,0-2.456,0V76.9A1.228,1.228,0,0,0,425.539,78.129Z" transform="translate(-372.207 -65.642)"/>
  <path id="Path_798" data-name="Path 798" d="M425.539,29.608a1.228,1.228,0,0,0,1.228-1.228v-.842a1.228,1.228,0,1,0-2.456,0v.842A1.228,1.228,0,0,0,425.539,29.608Z" transform="translate(-372.207 -23.079)"/>
  <path id="Path_799" data-name="Path 799" d="M40.672,56.456h.842a1.228,1.228,0,1,0,0-2.456h-.842a1.228,1.228,0,1,0,0,2.456Z" transform="translate(-34.6 -47.369)"/>
  <path id="Path_800" data-name="Path 800" d="M89.193,56.456h.842a1.228,1.228,0,1,0,0-2.456h-.842a1.228,1.228,0,1,0,0,2.456Z" transform="translate(-77.163 -47.369)"/>
  <path id="Path_801" data-name="Path 801" d="M68.362,78.129A1.228,1.228,0,0,0,69.59,76.9v-.842a1.228,1.228,0,0,0-2.456,0V76.9A1.228,1.228,0,0,0,68.362,78.129Z" transform="translate(-58.89 -65.642)"/>
  <path id="Path_802" data-name="Path 802" d="M68.362,29.608A1.228,1.228,0,0,0,69.59,28.38v-.842a1.228,1.228,0,0,0-2.456,0v.842A1.228,1.228,0,0,0,68.362,29.608Z" transform="translate(-58.89 -23.079)"/>
  <path id="Path_803" data-name="Path 803" d="M247.228,43.774a1.228,1.228,0,0,0,1.228-1.228V39.315a1.228,1.228,0,1,0-2.456,0v3.231A1.228,1.228,0,0,0,247.228,43.774Z" transform="translate(-215.792 -33.41)"/>
  <path id="Path_804" data-name="Path 804" d="M247.228,2.456a1.229,1.229,0,0,0,1.228-1.228,1.228,1.228,0,1,0-2.1.868A1.237,1.237,0,0,0,247.228,2.456Z" transform="translate(-215.792)"/>
  <path id="Path_805" data-name="Path 805" d="M191.406,26.45a1.228,1.228,0,1,0,1.737-1.737l-1.8-1.8a1.228,1.228,0,1,0-1.737,1.737Z" transform="translate(-166.01 -19.786)"/>
  <path id="Path_806" data-name="Path 806" d="M288.853,26.319a1.224,1.224,0,0,0,.868-.36l1.857-1.857a1.228,1.228,0,0,0-1.737-1.737l-1.857,1.857a1.228,1.228,0,0,0,.868,2.1Z" transform="translate(-252.306 -19.304)"/>
</svg>
