<svg id="domain" xmlns="http://www.w3.org/2000/svg" width="64.46" height="64.46" viewBox="0 0 64.46 64.46">
  <path id="Path_807" data-name="Path 807" d="M2,10H64.38V53.666H2Z" transform="translate(-0.96 -0.643)" fill="#e6e9ed"/>
  <path id="Path_808" data-name="Path 808" d="M42.714,47.793l3.119,3.119,1.965-7.87a10.406,10.406,0,0,1,7.392,9.95v10.4H35.436V52.046a2.589,2.589,0,0,0-2.131-2.558l-3.327-.6A7.288,7.288,0,0,1,24,41.722V29.6a2.6,2.6,0,0,1,5.2,0v9.877A3.115,3.115,0,0,0,32.317,42.6h5.2L39.6,50.913Z" transform="translate(-0.087 0.032)" fill="#fcd770"/>
  <path id="Path_809" data-name="Path 809" d="M47.084,42.443l-1.965,7.87L42,47.195l3.4-5.1A8.972,8.972,0,0,1,47.084,42.443Z" transform="translate(0.627 0.63)" fill="#b4dd7f"/>
  <path id="Path_810" data-name="Path 810" d="M38.736,42,42.2,47.2l-3.119,3.119L37,42Z" transform="translate(0.428 0.627)" fill="#b4dd7f"/>
  <path id="Path_811" data-name="Path 811" d="M45.532,42.094l-3.4,5.1L38.67,42h5.541A9.18,9.18,0,0,1,45.532,42.094Z" transform="translate(0.495 0.627)" fill="#f0d0b4"/>
  <circle id="Ellipse_93" data-name="Ellipse 93" cx="6.238" cy="6.238" r="6.238" transform="translate(36.068 30.311)" fill="#f0d0b4"/>
  <path id="Path_812" data-name="Path 812" d="M16.4,36.079V44.4H6V34H16.4Z" transform="translate(-0.802 0.309)" fill="#ff826e"/>
  <path id="Path_813" data-name="Path 813" d="M16.4,22.079V30.4H6V20H16.4Z" transform="translate(-0.802 -0.246)" fill="#ff826e"/>
  <path id="Path_814" data-name="Path 814" d="M48,2H62.555v8.317H48Z" transform="translate(0.865 -0.96)" fill="#8cc152"/>
  <path id="Path_815" data-name="Path 815" d="M2,2H49.825v8.317H2Z" transform="translate(-0.96 -0.96)" fill="#b4dd7f"/>
  <path id="Path_816" data-name="Path 816" d="M65.46,1H1V55.063H35.309v10.4H57.142v-10.4H65.46ZM63.38,9.317H50.9V3.079H63.38ZM48.825,3.079V9.317H3.079V3.079Zm6.238,60.3H51.944V49.865H49.865V63.38H37.389V53.074a3.635,3.635,0,0,0-2.988-3.58l-3.326-.605a6.236,6.236,0,0,1-5.122-6.138V30.631a1.56,1.56,0,0,1,3.119,0v9.877a4.163,4.163,0,0,0,4.159,4.159h4.387l2.327,9.311L43.627,50.3l3.683,3.683,2.131-8.528a9.366,9.366,0,0,1,5.623,8.574ZM38.428,37.389a5.2,5.2,0,1,1,5.2,5.2A5.2,5.2,0,0,1,38.428,37.389Zm5.2,9.562L42.1,44.666H45.15Zm-2.556,2.96-1.219-4.873,2.436,3.654ZM47.4,45.039,46.182,49.91l-1.217-1.217Zm9.69,7.945a11.451,11.451,0,0,0-8.734-10.074,7.277,7.277,0,1,0-9.811-.322H33.23a2.081,2.081,0,0,1-2.079-2.079V30.631a3.639,3.639,0,0,0-7.278,0V42.751a8.312,8.312,0,0,0,6.83,8.182l3.326.606a1.549,1.549,0,0,1,1.264,1.444H3.079V11.4h60.3V52.984Z" transform="translate(-1 -1)"/>
  <path id="Path_817" data-name="Path 817" d="M20.9,30.293l-3.424,3.424v-.609H5V45.583H17.476V36.657l4.894-4.894ZM15.4,43.5H7.079V35.187H15.4V35.8l-4.159,4.159L8.854,37.571l-1.47,1.47,3.854,3.854L15.4,38.736Z" transform="translate(-0.841 0.162)"/>
  <path id="Path_818" data-name="Path 818" d="M17.476,19.717v-.609H5V31.583H17.476V22.657l4.894-4.894-1.47-1.47ZM15.4,29.5H7.079V21.187H15.4V21.8l-4.159,4.159L8.854,23.571l-1.47,1.47,3.854,3.854L15.4,24.736Z" transform="translate(-0.841 -0.393)"/>
  <path id="Path_819" data-name="Path 819" d="M33,21H60.032v2.079H33Z" transform="translate(0.27 -0.206)"/>
  <path id="Path_820" data-name="Path 820" d="M33,25H60.032v2.079H33Z" transform="translate(0.27 -0.048)"/>
  <path id="Path_821" data-name="Path 821" d="M57,29h2.079v2.079H57Z" transform="translate(1.222 0.111)"/>
  <path id="Path_822" data-name="Path 822" d="M53,29h2.079v2.079H53Z" transform="translate(1.063 0.111)"/>
  <path id="Path_823" data-name="Path 823" d="M49,29h2.079v2.079H49Z" transform="translate(0.904 0.111)"/>
  <path id="Path_824" data-name="Path 824" d="M41,51h2.079v2.079H41Z" transform="translate(0.587 0.984)"/>
  <path id="Path_825" data-name="Path 825" d="M41,55h2.079v2.079H41Z" transform="translate(0.587 1.142)"/>
  <path id="Path_826" data-name="Path 826" d="M5,5H7.079V7.079H5Z" transform="translate(-0.841 -0.841)"/>
  <path id="Path_827" data-name="Path 827" d="M9,5h2.079V7.079H9Z" transform="translate(-0.683 -0.841)"/>
  <path id="Path_828" data-name="Path 828" d="M13,5h2.079V7.079H13Z" transform="translate(-0.524 -0.841)"/>
</svg>
